<?xml version="1.0" encoding="us-ascii" standalone="no"?><svg xmlns="http://www.w3.org/2000/svg" xmlns:xlink="http://www.w3.org/1999/xlink" contentStyleType="text/css" height="428px" preserveAspectRatio="none" style="width:714px;height:428px;background:#FFFFFF;" version="1.1" viewBox="0 0 714 428" width="714px" zoomAndPan="magnify"><defs/><g><line style="stroke:#181818;stroke-width:0.5;stroke-dasharray:5.0,5.0;" x1="50" x2="50" y1="37.6094" y2="391.8281"/><line style="stroke:#181818;stroke-width:0.5;stroke-dasharray:5.0,5.0;" x1="226" x2="226" y1="37.6094" y2="391.8281"/><line style="stroke:#181818;stroke-width:0.5;stroke-dasharray:5.0,5.0;" x1="371" x2="371" y1="37.6094" y2="391.8281"/><line style="stroke:#181818;stroke-width:0.5;stroke-dasharray:5.0,5.0;" x1="489.5" x2="489.5" y1="37.6094" y2="391.8281"/><line style="stroke:#181818;stroke-width:0.5;stroke-dasharray:5.0,5.0;" x1="622" x2="622" y1="37.6094" y2="391.8281"/><rect fill="#E2E2F0" height="31.6094" rx="2.5" ry="2.5" style="stroke:#181818;stroke-width:0.5;" width="90" x="5" y="5"/><text fill="#000000" font-family="sans-serif" font-size="14" lengthAdjust="spacing" textLength="76" x="12" y="26.5332">STEP Client</text><rect fill="#E2E2F0" height="31.6094" rx="2.5" ry="2.5" style="stroke:#181818;stroke-width:0.5;" width="90" x="5" y="390.8281"/><text fill="#000000" font-family="sans-serif" font-size="14" lengthAdjust="spacing" textLength="76" x="12" y="412.3613">STEP Client</text><rect fill="#E2E2F0" height="31.6094" rx="2.5" ry="2.5" style="stroke:#181818;stroke-width:0.5;" width="174" x="139" y="5"/><text fill="#000000" font-family="sans-serif" font-size="14" lengthAdjust="spacing" textLength="160" x="146" y="26.5332">StepAdapterRedisStream</text><rect fill="#E2E2F0" height="31.6094" rx="2.5" ry="2.5" style="stroke:#181818;stroke-width:0.5;" width="174" x="139" y="390.8281"/><text fill="#000000" font-family="sans-serif" font-size="14" lengthAdjust="spacing" textLength="160" x="146" y="412.3613">StepAdapterRedisStream</text><rect fill="#E2E2F0" height="31.6094" rx="2.5" ry="2.5" style="stroke:#181818;stroke-width:0.5;" width="96" x="323" y="5"/><text fill="#000000" font-family="sans-serif" font-size="14" lengthAdjust="spacing" textLength="82" x="330" y="26.5332">ActorDataset</text><rect fill="#E2E2F0" height="31.6094" rx="2.5" ry="2.5" style="stroke:#181818;stroke-width:0.5;" width="96" x="323" y="390.8281"/><text fill="#000000" font-family="sans-serif" font-size="14" lengthAdjust="spacing" textLength="82" x="330" y="412.3613">ActorDataset</text><rect fill="#E2E2F0" height="31.6094" rx="2.5" ry="2.5" style="stroke:#181818;stroke-width:0.5;" width="95" x="442.5" y="5"/><text fill="#000000" font-family="sans-serif" font-size="14" lengthAdjust="spacing" textLength="81" x="449.5" y="26.5332">PointDataset</text><rect fill="#E2E2F0" height="31.6094" rx="2.5" ry="2.5" style="stroke:#181818;stroke-width:0.5;" width="95" x="442.5" y="390.8281"/><text fill="#000000" font-family="sans-serif" font-size="14" lengthAdjust="spacing" textLength="81" x="449.5" y="412.3613">PointDataset</text><rect fill="#E2E2F0" height="31.6094" rx="2.5" ry="2.5" style="stroke:#181818;stroke-width:0.5;" width="124" x="560" y="5"/><text fill="#000000" font-family="sans-serif" font-size="14" lengthAdjust="spacing" textLength="110" x="567" y="26.5332">PointInterpolation</text><rect fill="#E2E2F0" height="31.6094" rx="2.5" ry="2.5" style="stroke:#181818;stroke-width:0.5;" width="124" x="560" y="390.8281"/><text fill="#000000" font-family="sans-serif" font-size="14" lengthAdjust="spacing" textLength="110" x="567" y="412.3613">PointInterpolation</text><polygon fill="#181818" points="214,65.9609,224,69.9609,214,73.9609,218,69.9609" style="stroke:#181818;stroke-width:1.0;"/><line style="stroke:#181818;stroke-width:1.0;" x1="50" x2="220" y1="69.9609" y2="69.9609"/><text fill="#000000" font-family="sans-serif" font-size="13" lengthAdjust="spacing" textLength="152" x="57" y="65.1045">CAM/CPM/VAM Message</text><polygon fill="#181818" points="359,96.3125,369,100.3125,359,104.3125,363,100.3125" style="stroke:#181818;stroke-width:1.0;"/><line style="stroke:#181818;stroke-width:1.0;" x1="226" x2="365" y1="100.3125" y2="100.3125"/><text fill="#000000" font-family="sans-serif" font-size="13" lengthAdjust="spacing" textLength="78" x="233" y="95.4561">Position Data</text><polygon fill="#181818" points="478,126.6641,488,130.6641,478,134.6641,482,130.6641" style="stroke:#181818;stroke-width:1.0;"/><line style="stroke:#181818;stroke-width:1.0;" x1="371" x2="484" y1="130.6641" y2="130.6641"/><text fill="#000000" font-family="sans-serif" font-size="13" lengthAdjust="spacing" textLength="81" x="378" y="125.8076">add_position()</text><path d="M417,143.6641 L417,185.6641 L563,185.6641 L563,153.6641 L553,143.6641 L417,143.6641 " fill="#FEFFDD" style="stroke:#181818;stroke-width:0.5;"/><path d="M553,143.6641 L553,153.6641 L563,153.6641 L553,143.6641 " fill="#FEFFDD" style="stroke:#181818;stroke-width:0.5;"/><text fill="#000000" font-family="sans-serif" font-size="13" lengthAdjust="spacing" textLength="125" x="423" y="162.1592">Validate position data</text><text fill="#000000" font-family="sans-serif" font-size="13" lengthAdjust="spacing" textLength="112" x="423" y="178.5107">and actor metadata</text><polygon fill="#181818" points="610,209.7188,620,213.7188,610,217.7188,614,213.7188" style="stroke:#181818;stroke-width:1.0;"/><line style="stroke:#181818;stroke-width:1.0;" x1="490" x2="616" y1="213.7188" y2="213.7188"/><text fill="#000000" font-family="sans-serif" font-size="13" lengthAdjust="spacing" textLength="64" x="497" y="208.8623">add_point()</text><path d="M537,226.7188 L537,285.7188 L707,285.7188 L707,236.7188 L697,226.7188 L537,226.7188 " fill="#FEFFDD" style="stroke:#181818;stroke-width:0.5;"/><path d="M697,226.7188 L697,236.7188 L707,236.7188 L697,226.7188 " fill="#FEFFDD" style="stroke:#181818;stroke-width:0.5;"/><text fill="#000000" font-family="sans-serif" font-size="13" lengthAdjust="spacing" textLength="106" x="543" y="245.2139">Apply cubic spline</text><text fill="#000000" font-family="sans-serif" font-size="13" lengthAdjust="spacing" textLength="149" x="543" y="261.5654">interpolation and generate</text><text fill="#000000" font-family="sans-serif" font-size="13" lengthAdjust="spacing" textLength="140" x="543" y="277.917">smooth trajectory points</text><polygon fill="#181818" points="501,309.125,491,313.125,501,317.125,497,313.125" style="stroke:#181818;stroke-width:1.0;"/><line style="stroke:#181818;stroke-width:1.0;" x1="495" x2="621" y1="313.125" y2="313.125"/><text fill="#000000" font-family="sans-serif" font-size="13" lengthAdjust="spacing" textLength="108" x="507" y="308.2686">Interpolated Points</text><polygon fill="#181818" points="382,339.4766,372,343.4766,382,347.4766,378,343.4766" style="stroke:#181818;stroke-width:1.0;"/><line style="stroke:#181818;stroke-width:1.0;" x1="376" x2="489" y1="343.4766" y2="343.4766"/><text fill="#000000" font-family="sans-serif" font-size="13" lengthAdjust="spacing" textLength="95" x="388" y="338.6201">Position Results</text><polygon fill="#181818" points="237,369.8281,227,373.8281,237,377.8281,233,373.8281" style="stroke:#181818;stroke-width:1.0;"/><line style="stroke:#181818;stroke-width:1.0;" x1="231" x2="370" y1="373.8281" y2="373.8281"/><text fill="#000000" font-family="sans-serif" font-size="13" lengthAdjust="spacing" textLength="82" x="243" y="368.9717">Position Array</text><!--SRC=[TP6zRiCm38HtFGMHgHsAx1aA26w73WQCfCXQi1QHgh0bGM8A-ErBsVcHadQpxpwIHp5WPDlRW8vXjNj_xQ0PB3bU0QRJfmeLmnIqmS0KjsHisd4a76Uy-AzhTCy-lY1ZegLnATHevwtZ4Ys5Fz0t9q627v2jTzU2IbPgMGIUdikCi856j-kcQzTxtK9BAU61L4b8GHbLAZgVREu9MLALAN0PLc0qvYES2XuUbVDCu7yerai1m1u7Qr3SCmqcjnS7dG7CKs0anbabaN8hLKqxJwyslsGGupv0_KWoJ8SmJD0VFsqFAGpMKLPjrJ47Ef2ZA76pcqRl-GiuuZVbd1FCqz9Dp3hM_LDTVJABb-xs- -yKMqh7GVZRQzItlk0wHfn-0G00]--></g></svg>