<?xml version="1.0" encoding="us-ascii" standalone="no"?><svg xmlns="http://www.w3.org/2000/svg" xmlns:xlink="http://www.w3.org/1999/xlink" contentStyleType="text/css" height="728px" preserveAspectRatio="none" style="width:599px;height:728px;background:#FFFFFF;" version="1.1" viewBox="0 0 599 728" width="599px" zoomAndPan="magnify"><defs/><g><!--cluster Step Communication System--><g id="cluster_Step Communication System"><path d="M315.5,6 L514.5,6 A3.75,3.75 0 0 1 517,8.5 L524,29.6094 L524.5,29.6094 A2.5,2.5 0 0 1 527,32.1094 L527,103.5 A2.5,2.5 0 0 1 524.5,106 L315.5,106 A2.5,2.5 0 0 1 313,103.5 L313,8.5 A2.5,2.5 0 0 1 315.5,6 " fill="none" style="stroke:#000000;stroke-width:1.5;"/><line style="stroke:#000000;stroke-width:1.5;" x1="313" x2="524" y1="29.6094" y2="29.6094"/><text fill="#000000" font-family="sans-serif" font-size="14" font-weight="bold" lengthAdjust="spacing" textLength="198" x="317" y="22.5332">Step Communication System</text></g><!--cluster Step Elaboration System--><g id="cluster_Step Elaboration System"><path d="M8.5,234 L179.5,234 A3.75,3.75 0 0 1 182,236.5 L189,257.6094 L587.5,257.6094 A2.5,2.5 0 0 1 590,260.1094 L590,718.5 A2.5,2.5 0 0 1 587.5,721 L8.5,721 A2.5,2.5 0 0 1 6,718.5 L6,236.5 A2.5,2.5 0 0 1 8.5,234 " fill="none" style="stroke:#000000;stroke-width:1.5;"/><line style="stroke:#000000;stroke-width:1.5;" x1="6" x2="189" y1="257.6094" y2="257.6094"/><text fill="#000000" font-family="sans-serif" font-size="14" font-weight="bold" lengthAdjust="spacing" textLength="170" x="10" y="250.5332">Step Elaboration System</text></g><!--cluster Crash Prediction--><g id="cluster_Crash Prediction"><path d="M32.5,278 L150.5,278 A3.75,3.75 0 0 1 153,280.5 L160,301.6094 L175.5,301.6094 A2.5,2.5 0 0 1 178,304.1094 L178,694.5 A2.5,2.5 0 0 1 175.5,697 L32.5,697 A2.5,2.5 0 0 1 30,694.5 L30,280.5 A2.5,2.5 0 0 1 32.5,278 " fill="none" style="stroke:#000000;stroke-width:1.5;"/><line style="stroke:#000000;stroke-width:1.5;" x1="30" x2="160" y1="301.6094" y2="301.6094"/><text fill="#000000" font-family="sans-serif" font-size="14" font-weight="bold" lengthAdjust="spacing" textLength="117" x="34" y="294.5332">Crash Prediction</text></g><!--entity step--><g id="elem_step"><rect fill="#F1F1F1" height="47.6094" rx="2.5" ry="2.5" style="stroke:#181818;stroke-width:0.5;" width="115" x="393.5" y="42"/><rect fill="#F1F1F1" height="10" style="stroke:#181818;stroke-width:0.5;" width="15" x="488.5" y="47"/><rect fill="#F1F1F1" height="2" style="stroke:#181818;stroke-width:0.5;" width="4" x="486.5" y="49"/><rect fill="#F1F1F1" height="2" style="stroke:#181818;stroke-width:0.5;" width="4" x="486.5" y="53"/><text fill="#000000" font-family="sans-serif" font-size="14" lengthAdjust="spacing" textLength="75" x="408.5" y="76.5332">Step Broker</text></g><!--entity client--><g id="elem_client"><rect fill="#F1F1F1" height="47.6094" rx="2.5" ry="2.5" style="stroke:#181818;stroke-width:0.5;" width="109" x="464.5" y="481.5"/><rect fill="#F1F1F1" height="10" style="stroke:#181818;stroke-width:0.5;" width="15" x="553.5" y="486.5"/><rect fill="#F1F1F1" height="2" style="stroke:#181818;stroke-width:0.5;" width="4" x="551.5" y="488.5"/><rect fill="#F1F1F1" height="2" style="stroke:#181818;stroke-width:0.5;" width="4" x="551.5" y="492.5"/><text fill="#000000" font-family="sans-serif" font-size="14" lengthAdjust="spacing" textLength="69" x="479.5" y="516.0332">Step Client</text></g><!--entity adapter--><g id="elem_adapter"><rect fill="#F1F1F1" height="47.6094" rx="2.5" ry="2.5" style="stroke:#181818;stroke-width:0.5;" width="123" x="194.5" y="481.5"/><rect fill="#F1F1F1" height="10" style="stroke:#181818;stroke-width:0.5;" width="15" x="297.5" y="486.5"/><rect fill="#F1F1F1" height="2" style="stroke:#181818;stroke-width:0.5;" width="4" x="295.5" y="488.5"/><rect fill="#F1F1F1" height="2" style="stroke:#181818;stroke-width:0.5;" width="4" x="295.5" y="492.5"/><text fill="#000000" font-family="sans-serif" font-size="14" lengthAdjust="spacing" textLength="83" x="209.5" y="516.0332">Step Adapter</text></g><!--entity producer--><g id="elem_producer"><rect fill="#F1F1F1" height="47.6094" rx="2.5" ry="2.5" style="stroke:#181818;stroke-width:0.5;" width="131" x="358.5" y="624.5"/><rect fill="#F1F1F1" height="10" style="stroke:#181818;stroke-width:0.5;" width="15" x="469.5" y="629.5"/><rect fill="#F1F1F1" height="2" style="stroke:#181818;stroke-width:0.5;" width="4" x="467.5" y="631.5"/><rect fill="#F1F1F1" height="2" style="stroke:#181818;stroke-width:0.5;" width="4" x="467.5" y="635.5"/><text fill="#000000" font-family="sans-serif" font-size="14" lengthAdjust="spacing" textLength="91" x="373.5" y="659.0332">Step Producer</text></g><!--entity trajectory--><g id="elem_trajectory"><rect fill="#F1F1F1" height="65.2188" rx="2.5" ry="2.5" style="stroke:#181818;stroke-width:0.5;" width="115" x="46.5" y="314"/><rect fill="#F1F1F1" height="10" style="stroke:#181818;stroke-width:0.5;" width="15" x="141.5" y="319"/><rect fill="#F1F1F1" height="2" style="stroke:#181818;stroke-width:0.5;" width="4" x="139.5" y="321"/><rect fill="#F1F1F1" height="2" style="stroke:#181818;stroke-width:0.5;" width="4" x="139.5" y="325"/><text fill="#000000" font-family="sans-serif" font-size="14" lengthAdjust="spacing" textLength="64" x="61.5" y="348.5332">Trajectory</text><text fill="#000000" font-family="sans-serif" font-size="14" lengthAdjust="spacing" textLength="75" x="61.5" y="366.1426">Forecasting</text></g><!--entity collision--><g id="elem_collision"><rect fill="#F1F1F1" height="65.2188" rx="2.5" ry="2.5" style="stroke:#181818;stroke-width:0.5;" width="106" x="51" y="616"/><rect fill="#F1F1F1" height="10" style="stroke:#181818;stroke-width:0.5;" width="15" x="137" y="621"/><rect fill="#F1F1F1" height="2" style="stroke:#181818;stroke-width:0.5;" width="4" x="135" y="623"/><rect fill="#F1F1F1" height="2" style="stroke:#181818;stroke-width:0.5;" width="4" x="135" y="627"/><text fill="#000000" font-family="sans-serif" font-size="14" lengthAdjust="spacing" textLength="66" x="66" y="650.5332">Avoidance</text><text fill="#000000" font-family="sans-serif" font-size="14" lengthAdjust="spacing" textLength="53" x="66" y="668.1426">Collision</text></g><!--entity data--><g id="elem_data"><rect fill="#F1F1F1" height="65.2188" rx="2.5" ry="2.5" style="stroke:#181818;stroke-width:0.5;" width="90" x="51" y="473"/><rect fill="#F1F1F1" height="10" style="stroke:#181818;stroke-width:0.5;" width="15" x="121" y="478"/><rect fill="#F1F1F1" height="2" style="stroke:#181818;stroke-width:0.5;" width="4" x="119" y="480"/><rect fill="#F1F1F1" height="2" style="stroke:#181818;stroke-width:0.5;" width="4" x="119" y="484"/><text fill="#000000" font-family="sans-serif" font-size="14" lengthAdjust="spacing" textLength="30" x="66" y="507.5332">Data</text><text fill="#000000" font-family="sans-serif" font-size="14" lengthAdjust="spacing" textLength="50" x="66" y="525.1426">Storage</text></g><!--entity messages--><g id="elem_messages"><ellipse cx="553" cy="66" fill="#F1F1F1" rx="8" ry="8" style="stroke:#181818;stroke-width:0.5;"/><text fill="#000000" font-family="sans-serif" font-size="14" lengthAdjust="spacing" textLength="79" x="513.5" y="97.5332">ASN.1 C-ITS</text></g><!--reverse link adapter to client--><g id="link_adapter_client"><path d="M322.67,505.5 C366.54,505.5 423.24,505.5 464.42,505.5 " fill="none" id="adapter-backto-client" style="stroke:#181818;stroke-width:1.0;"/><polygon fill="#181818" points="317.66,505.5,326.66,509.5,322.66,505.5,326.66,501.5,317.66,505.5" style="stroke:#181818;stroke-width:1.0;"/><text fill="#000000" font-family="sans-serif" font-size="13" lengthAdjust="spacing" textLength="110" x="336" y="498.9951">3. CAM,CPM,VAM</text></g><!--link client to producer--><g id="link_client_producer"><path d="M509.69,529.71 C502.63,546.1 492.11,568.2 480,586 C471.75,598.12 461.24,610.3 451.55,620.59 " fill="none" id="client-to-producer" style="stroke:#181818;stroke-width:1.0;"/><polygon fill="#181818" points="448.03,624.29,457.1342,620.5332,451.479,620.67,451.3422,615.0148,448.03,624.29" style="stroke:#181818;stroke-width:1.0;"/><text fill="#000000" font-family="sans-serif" font-size="13" lengthAdjust="spacing" textLength="53" x="491" y="582.4951">7. DENM</text></g><!--reverse link client to producer--><g id="link_client_producer"><path d="M459.72,528.84 C442.9,538.25 426.57,551.05 417,568 C407.32,585.13 410.54,607.72 415.32,624.44 " fill="none" id="client-backto-producer" style="stroke:#181818;stroke-width:1.0;"/><polygon fill="#181818" points="464.47,526.27,454.6496,527.0188,460.0686,528.6422,458.4452,534.0611,464.47,526.27" style="stroke:#181818;stroke-width:1.0;"/><text fill="#000000" font-family="sans-serif" font-size="13" lengthAdjust="spacing" textLength="53" x="418" y="582.4951">6. DENM</text></g><!--reverse link trajectory to adapter--><g id="link_trajectory_adapter"><path d="M138.26,382.89 C167.45,413.04 208.55,455.49 233.67,481.43 " fill="none" id="trajectory-backto-adapter" style="stroke:#181818;stroke-width:1.0;"/><polygon fill="#181818" points="134.76,379.27,138.1462,388.5184,138.2378,382.8623,143.8939,382.9539,134.76,379.27" style="stroke:#181818;stroke-width:1.0;"/><text fill="#000000" font-family="sans-serif" font-size="13" lengthAdjust="spacing" textLength="101" x="195" y="423.4951">4. Position points</text><text fill="#000000" font-family="sans-serif" font-size="13" lengthAdjust="spacing" textLength="29" x="231" y="439.8467">array</text></g><!--link trajectory to data--><g id="link_trajectory_data"><path d="M57.48,383.02 C50.36,390.75 44.05,399.5 40,409 C34.08,422.9 34.55,428.91 40,443 C43.56,452.2 49.21,460.88 55.59,468.65 " fill="none" id="trajectory-data" style="stroke:#181818;stroke-width:1.0;"/><polygon fill="#181818" points="61.03,379.31,51.9184,383.0489,57.5739,382.9232,57.6996,388.5787,61.03,379.31" style="stroke:#181818;stroke-width:1.0;"/><polygon fill="#181818" points="59.19,472.87,56.3904,463.4274,55.9443,469.0667,50.3051,468.6206,59.19,472.87" style="stroke:#181818;stroke-width:1.0;"/><text fill="#000000" font-family="sans-serif" font-size="13" lengthAdjust="spacing" textLength="64" x="41" y="431.4951">Query data</text></g><!--link data to collision--><g id="link_data_collision"><path d="M51.18,542.26 C40.31,555.32 33.46,570.66 40,586 C44.05,595.5 50.36,604.25 57.48,611.98 " fill="none" id="data-collision" style="stroke:#181818;stroke-width:1.0;"/><polygon fill="#181818" points="54.68,538.29,45.7354,542.4124,51.3804,542.0467,51.7461,547.6917,54.68,538.29" style="stroke:#181818;stroke-width:1.0;"/><polygon fill="#181818" points="61.03,615.69,57.6996,606.4213,57.5739,612.0768,51.9184,611.9511,61.03,615.69" style="stroke:#181818;stroke-width:1.0;"/><text fill="#000000" font-family="sans-serif" font-size="13" lengthAdjust="spacing" textLength="64" x="41" y="582.4951">Query data</text></g><!--reverse link producer to collision--><g id="link_producer_collision"><path d="M353.19,648.5 C293.99,648.5 210.85,648.5 157.2,648.5 " fill="none" id="producer-backto-collision" style="stroke:#181818;stroke-width:1.0;"/><polygon fill="#181818" points="358.48,648.5,349.48,644.5,353.48,648.5,349.48,652.5,358.48,648.5" style="stroke:#181818;stroke-width:1.0;"/><text fill="#000000" font-family="sans-serif" font-size="13" lengthAdjust="spacing" textLength="111" x="202.25" y="641.9951">5. Event forecasted</text></g><!--link step to messages--><g id="link_step_messages"><path d="M508.77,66 C517.04,66 525.31,66 533.58,66 " fill="none" id="step-to-messages" style="stroke:#181818;stroke-width:1.0;"/><path d="M540.5918,57.5428 A9,9 0 0 0 540.5918 74.4572" fill="none" style="stroke:#181818;stroke-width:1.5;"/></g><!--link step to client--><g id="link_step_client"><path d="M422.73,90.2 C392.12,118.33 349.24,168.18 362,218 C388.56,321.74 461.34,428.29 497.72,477.09 " fill="none" id="step-to-client" style="stroke:#181818;stroke-width:1.0;"/><polygon fill="#181818" points="500.91,481.34,498.71,471.74,497.91,477.34,492.31,476.54,500.91,481.34" style="stroke:#181818;stroke-width:1.0;"/><text fill="#000000" font-family="sans-serif" font-size="13" lengthAdjust="spacing" textLength="76" x="392.5" y="198.4951">1. ASN.1 ITS</text><text fill="#000000" font-family="sans-serif" font-size="13" lengthAdjust="spacing" textLength="135" x="363" y="214.8467">CAN,DENM,CPM,VAM</text></g><!--reverse link step to client--><g id="link_step_client"><path d="M466.85,94.76 C479.16,117.84 495.36,151.97 503,184 C528.91,292.66 524.05,427.71 520.72,481.16 " fill="none" id="step-backto-client" style="stroke:#181818;stroke-width:1.0;"/><polygon fill="#181818" points="464.45,90.29,465.1988,100.1104,466.8222,94.6914,472.2411,96.3148,464.45,90.29" style="stroke:#181818;stroke-width:1.0;"/><text fill="#000000" font-family="sans-serif" font-size="13" lengthAdjust="spacing" textLength="76" x="510" y="198.4951">2. ASN.1 ITS</text><text fill="#000000" font-family="sans-serif" font-size="13" lengthAdjust="spacing" textLength="38" x="529" y="214.8467">DENM</text></g><!--SRC=[ZL9TIyCm57tlhxZqoOUrC3z1HAZT11ys9XLVh0ynpRQuDYb9EXco_-vDqgoR8DY7akIUS-uvoUN2CBKab46S5VDq37doz5B4G3GqJ6koOZgAMa8tk8AuCAo5N3PD9pWbXai1nKuRriJm7G5-RmxneEI6gNShWiKssl-McDRaGwg_1VAQCs6S07NBerfMaTRqwiIlZweB9QkEzkMstxZwmK6kY5uZa5MSMWUXjHDvKUIJKIFLhXIFKZ5AjE5YvUJCeJRWiwta5H6KbIANTSqr2dhVOJTW9yIGKXGeW3uSgC8JLz-xlyyAISsM9haFwMuXlaWXpsQZV34RlMQp-0HSoI-1u90LqJSfJARp7jQB74I748YyJ64XDNVlq4ekZ2u5KOhiF7V0mbteOoqZyxbZU6etlPiG5v5T-nzSC7Ha_2g5wTQ6MlOtpohF2XZmsZuw4gv3qdra1msIHF7LsYJ9sJ2zVS7PF-QEK_0JZ_EEZvVDHrPgkEDmlxObygmCiivFMAxv3m00]--></g></svg>