<?xml version="1.0" encoding="us-ascii" standalone="no"?><svg xmlns="http://www.w3.org/2000/svg" xmlns:xlink="http://www.w3.org/1999/xlink" contentStyleType="text/css" height="728px" preserveAspectRatio="none" style="width:611px;height:728px;background:#FFFFFF;" version="1.1" viewBox="0 0 611 728" width="611px" zoomAndPan="magnify"><defs/><g><!--cluster STEP Communication System--><g id="cluster_STEP Communication System"><path d="M324.5,6 L526.5,6 A3.75,3.75 0 0 1 529,8.5 L536,29.6094 L536.5,29.6094 A2.5,2.5 0 0 1 539,32.1094 L539,103.5 A2.5,2.5 0 0 1 536.5,106 L324.5,106 A2.5,2.5 0 0 1 322,103.5 L322,8.5 A2.5,2.5 0 0 1 324.5,6 " fill="none" style="stroke:#000000;stroke-width:1.5;"/><line style="stroke:#000000;stroke-width:1.5;" x1="322" x2="536" y1="29.6094" y2="29.6094"/><text fill="#000000" font-family="sans-serif" font-size="14" font-weight="bold" lengthAdjust="spacing" textLength="201" x="326" y="22.5332">STEP Communication System</text></g><!--cluster STEP Elaboration System--><g id="cluster_STEP Elaboration System"><path d="M8.5,234 L182.5,234 A3.75,3.75 0 0 1 185,236.5 L192,257.6094 L600.5,257.6094 A2.5,2.5 0 0 1 603,260.1094 L603,718.5 A2.5,2.5 0 0 1 600.5,721 L8.5,721 A2.5,2.5 0 0 1 6,718.5 L6,236.5 A2.5,2.5 0 0 1 8.5,234 " fill="none" style="stroke:#000000;stroke-width:1.5;"/><line style="stroke:#000000;stroke-width:1.5;" x1="6" x2="192" y1="257.6094" y2="257.6094"/><text fill="#000000" font-family="sans-serif" font-size="14" font-weight="bold" lengthAdjust="spacing" textLength="173" x="10" y="250.5332">STEP Elaboration System</text></g><!--cluster Crash Prediction--><g id="cluster_Crash Prediction"><path d="M32.5,278 L150.5,278 A3.75,3.75 0 0 1 153,280.5 L160,301.6094 L175.5,301.6094 A2.5,2.5 0 0 1 178,304.1094 L178,694.5 A2.5,2.5 0 0 1 175.5,697 L32.5,697 A2.5,2.5 0 0 1 30,694.5 L30,280.5 A2.5,2.5 0 0 1 32.5,278 " fill="none" style="stroke:#000000;stroke-width:1.5;"/><line style="stroke:#000000;stroke-width:1.5;" x1="30" x2="160" y1="301.6094" y2="301.6094"/><text fill="#000000" font-family="sans-serif" font-size="14" font-weight="bold" lengthAdjust="spacing" textLength="117" x="34" y="294.5332">Crash Prediction</text></g><!--entity step--><g id="elem_step"><rect fill="#F1F1F1" height="47.6094" rx="2.5" ry="2.5" style="stroke:#181818;stroke-width:0.5;" width="122" x="399" y="42"/><rect fill="#F1F1F1" height="10" style="stroke:#181818;stroke-width:0.5;" width="15" x="501" y="47"/><rect fill="#F1F1F1" height="2" style="stroke:#181818;stroke-width:0.5;" width="4" x="499" y="49"/><rect fill="#F1F1F1" height="2" style="stroke:#181818;stroke-width:0.5;" width="4" x="499" y="53"/><text fill="#000000" font-family="sans-serif" font-size="14" lengthAdjust="spacing" textLength="82" x="414" y="76.5332">STEP Broker</text></g><!--entity client--><g id="elem_client"><rect fill="#F1F1F1" height="47.6094" rx="2.5" ry="2.5" style="stroke:#181818;stroke-width:0.5;" width="116" x="471" y="481.5"/><rect fill="#F1F1F1" height="10" style="stroke:#181818;stroke-width:0.5;" width="15" x="567" y="486.5"/><rect fill="#F1F1F1" height="2" style="stroke:#181818;stroke-width:0.5;" width="4" x="565" y="488.5"/><rect fill="#F1F1F1" height="2" style="stroke:#181818;stroke-width:0.5;" width="4" x="565" y="492.5"/><text fill="#000000" font-family="sans-serif" font-size="14" lengthAdjust="spacing" textLength="76" x="486" y="516.0332">STEP Client</text></g><!--entity adapter--><g id="elem_adapter"><rect fill="#F1F1F1" height="47.6094" rx="2.5" ry="2.5" style="stroke:#181818;stroke-width:0.5;" width="130" x="194" y="481.5"/><rect fill="#F1F1F1" height="10" style="stroke:#181818;stroke-width:0.5;" width="15" x="304" y="486.5"/><rect fill="#F1F1F1" height="2" style="stroke:#181818;stroke-width:0.5;" width="4" x="302" y="488.5"/><rect fill="#F1F1F1" height="2" style="stroke:#181818;stroke-width:0.5;" width="4" x="302" y="492.5"/><text fill="#000000" font-family="sans-serif" font-size="14" lengthAdjust="spacing" textLength="90" x="209" y="516.0332">STEP Adapter</text></g><!--entity Producer--><g id="elem_Producer"><rect fill="#F1F1F1" height="47.6094" rx="2.5" ry="2.5" style="stroke:#181818;stroke-width:0.5;" width="138" x="365" y="624.5"/><rect fill="#F1F1F1" height="10" style="stroke:#181818;stroke-width:0.5;" width="15" x="483" y="629.5"/><rect fill="#F1F1F1" height="2" style="stroke:#181818;stroke-width:0.5;" width="4" x="481" y="631.5"/><rect fill="#F1F1F1" height="2" style="stroke:#181818;stroke-width:0.5;" width="4" x="481" y="635.5"/><text fill="#000000" font-family="sans-serif" font-size="14" lengthAdjust="spacing" textLength="98" x="380" y="659.0332">STEP Producer</text></g><!--entity trajectory--><g id="elem_trajectory"><rect fill="#F1F1F1" height="65.2188" rx="2.5" ry="2.5" style="stroke:#181818;stroke-width:0.5;" width="115" x="46.5" y="314"/><rect fill="#F1F1F1" height="10" style="stroke:#181818;stroke-width:0.5;" width="15" x="141.5" y="319"/><rect fill="#F1F1F1" height="2" style="stroke:#181818;stroke-width:0.5;" width="4" x="139.5" y="321"/><rect fill="#F1F1F1" height="2" style="stroke:#181818;stroke-width:0.5;" width="4" x="139.5" y="325"/><text fill="#000000" font-family="sans-serif" font-size="14" lengthAdjust="spacing" textLength="64" x="61.5" y="348.5332">Trajectory</text><text fill="#000000" font-family="sans-serif" font-size="14" lengthAdjust="spacing" textLength="75" x="61.5" y="366.1426">Forecasting</text></g><!--entity collision--><g id="elem_collision"><rect fill="#F1F1F1" height="65.2188" rx="2.5" ry="2.5" style="stroke:#181818;stroke-width:0.5;" width="106" x="51" y="616"/><rect fill="#F1F1F1" height="10" style="stroke:#181818;stroke-width:0.5;" width="15" x="137" y="621"/><rect fill="#F1F1F1" height="2" style="stroke:#181818;stroke-width:0.5;" width="4" x="135" y="623"/><rect fill="#F1F1F1" height="2" style="stroke:#181818;stroke-width:0.5;" width="4" x="135" y="627"/><text fill="#000000" font-family="sans-serif" font-size="14" lengthAdjust="spacing" textLength="66" x="66" y="650.5332">Avoidance</text><text fill="#000000" font-family="sans-serif" font-size="14" lengthAdjust="spacing" textLength="53" x="66" y="668.1426">Collision</text></g><!--entity data--><g id="elem_data"><rect fill="#F1F1F1" height="65.2188" rx="2.5" ry="2.5" style="stroke:#181818;stroke-width:0.5;" width="90" x="51" y="473"/><rect fill="#F1F1F1" height="10" style="stroke:#181818;stroke-width:0.5;" width="15" x="121" y="478"/><rect fill="#F1F1F1" height="2" style="stroke:#181818;stroke-width:0.5;" width="4" x="119" y="480"/><rect fill="#F1F1F1" height="2" style="stroke:#181818;stroke-width:0.5;" width="4" x="119" y="484"/><text fill="#000000" font-family="sans-serif" font-size="14" lengthAdjust="spacing" textLength="30" x="66" y="507.5332">Data</text><text fill="#000000" font-family="sans-serif" font-size="14" lengthAdjust="spacing" textLength="50" x="66" y="525.1426">Storage</text></g><!--entity messages--><g id="elem_messages"><ellipse cx="565" cy="66" fill="#F1F1F1" rx="8" ry="8" style="stroke:#181818;stroke-width:0.5;"/><text fill="#000000" font-family="sans-serif" font-size="14" lengthAdjust="spacing" textLength="79" x="525.5" y="97.5332">ASN.1 C-ITS</text></g><!--reverse link adapter to client--><g id="link_adapter_client"><path d="M329.06,505.5 C373.16,505.5 429.39,505.5 470.98,505.5 " fill="none" id="adapter-backto-client" style="stroke:#181818;stroke-width:1.0;"/><polygon fill="#181818" points="324.02,505.5,333.02,509.5,329.02,505.5,333.02,501.5,324.02,505.5" style="stroke:#181818;stroke-width:1.0;"/><text fill="#000000" font-family="sans-serif" font-size="13" lengthAdjust="spacing" textLength="110" x="342.5" y="498.9951">3. CAM,CPM,VAM</text></g><!--link client to Producer--><g id="link_client_Producer"><path d="M519.69,529.71 C512.63,546.1 502.11,568.2 490,586 C481.75,598.12 471.24,610.3 461.55,620.59 " fill="none" id="client-to-Producer" style="stroke:#181818;stroke-width:1.0;"/><polygon fill="#181818" points="458.03,624.29,467.1342,620.5332,461.479,620.67,461.3422,615.0148,458.03,624.29" style="stroke:#181818;stroke-width:1.0;"/><text fill="#000000" font-family="sans-serif" font-size="13" lengthAdjust="spacing" textLength="53" x="501" y="582.4951">7. DENM</text></g><!--reverse link client to Producer--><g id="link_client_Producer"><path d="M466.54,530.66 C450.87,539.88 435.97,552.12 427,568 C417.32,585.13 420.54,607.72 425.32,624.44 " fill="none" id="client-backto-Producer" style="stroke:#181818;stroke-width:1.0;"/><polygon fill="#181818" points="470.98,528.14,461.1795,529.1149,466.6344,530.613,465.1363,536.0679,470.98,528.14" style="stroke:#181818;stroke-width:1.0;"/><text fill="#000000" font-family="sans-serif" font-size="13" lengthAdjust="spacing" textLength="53" x="428" y="582.4951">6. DENM</text></g><!--reverse link trajectory to adapter--><g id="link_trajectory_adapter"><path d="M138.93,382.89 C168.7,413.04 210.61,455.49 236.23,481.43 " fill="none" id="trajectory-backto-adapter" style="stroke:#181818;stroke-width:1.0;"/><polygon fill="#181818" points="135.37,379.27,138.8498,388.4836,138.884,382.8269,144.5408,382.8612,135.37,379.27" style="stroke:#181818;stroke-width:1.0;"/><text fill="#000000" font-family="sans-serif" font-size="13" lengthAdjust="spacing" textLength="101" x="197" y="423.4951">4. Position points</text><text fill="#000000" font-family="sans-serif" font-size="13" lengthAdjust="spacing" textLength="29" x="233" y="439.8467">array</text></g><!--link trajectory to data--><g id="link_trajectory_data"><path d="M57.48,383.02 C50.36,390.75 44.05,399.5 40,409 C34.08,422.9 34.55,428.91 40,443 C43.56,452.2 49.21,460.88 55.59,468.65 " fill="none" id="trajectory-data" style="stroke:#181818;stroke-width:1.0;"/><polygon fill="#181818" points="61.03,379.31,51.9184,383.0489,57.5739,382.9232,57.6996,388.5787,61.03,379.31" style="stroke:#181818;stroke-width:1.0;"/><polygon fill="#181818" points="59.19,472.87,56.3904,463.4274,55.9443,469.0667,50.3051,468.6206,59.19,472.87" style="stroke:#181818;stroke-width:1.0;"/><text fill="#000000" font-family="sans-serif" font-size="13" lengthAdjust="spacing" textLength="64" x="41" y="431.4951">Query data</text></g><!--link data to collision--><g id="link_data_collision"><path d="M51.18,542.26 C40.31,555.32 33.46,570.66 40,586 C44.05,595.5 50.36,604.25 57.48,611.98 " fill="none" id="data-collision" style="stroke:#181818;stroke-width:1.0;"/><polygon fill="#181818" points="54.68,538.29,45.7354,542.4124,51.3804,542.0467,51.7461,547.6917,54.68,538.29" style="stroke:#181818;stroke-width:1.0;"/><polygon fill="#181818" points="61.03,615.69,57.6996,606.4213,57.5739,612.0768,51.9184,611.9511,61.03,615.69" style="stroke:#181818;stroke-width:1.0;"/><text fill="#000000" font-family="sans-serif" font-size="13" lengthAdjust="spacing" textLength="64" x="41" y="582.4951">Query data</text></g><!--reverse link Producer to collision--><g id="link_Producer_collision"><path d="M359.61,648.5 C297.97,648.5 211.87,648.5 157.02,648.5 " fill="none" id="Producer-backto-collision" style="stroke:#181818;stroke-width:1.0;"/><polygon fill="#181818" points="364.75,648.5,355.75,644.5,359.75,648.5,355.75,652.5,364.75,648.5" style="stroke:#181818;stroke-width:1.0;"/><text fill="#000000" font-family="sans-serif" font-size="13" lengthAdjust="spacing" textLength="111" x="205.5" y="641.9951">5. Event forecasted</text></g><!--link step to messages--><g id="link_step_messages"><path d="M521.11,66 C529.32,66 537.53,66 545.73,66 " fill="none" id="step-to-messages" style="stroke:#181818;stroke-width:1.0;"/><path d="M552.6618,57.5428 A9,9 0 0 0 552.6618 74.4572" fill="none" style="stroke:#181818;stroke-width:1.5;"/></g><!--link step to client--><g id="link_step_client"><path d="M431.71,90.21 C401.07,118.34 358.18,168.2 371,218 C397.74,321.86 470.98,428.36 507.58,477.11 " fill="none" id="step-to-client" style="stroke:#181818;stroke-width:1.0;"/><polygon fill="#181818" points="510.79,481.36,508.5516,471.7689,507.774,477.372,502.1709,476.5945,510.79,481.36" style="stroke:#181818;stroke-width:1.0;"/><text fill="#000000" font-family="sans-serif" font-size="13" lengthAdjust="spacing" textLength="76" x="401.5" y="198.4951">1. ASN.1 ITS</text><text fill="#000000" font-family="sans-serif" font-size="13" lengthAdjust="spacing" textLength="135" x="372" y="214.8467">CAN,DENM,CPM,VAM</text></g><!--reverse link step to client--><g id="link_step_client"><path d="M475.82,94.76 C488.11,117.85 504.31,151.98 512,184 C538.08,292.63 533.74,427.7 530.63,481.16 " fill="none" id="step-backto-client" style="stroke:#181818;stroke-width:1.0;"/><polygon fill="#181818" points="473.42,90.3,474.1688,100.1204,475.7922,94.7014,481.2111,96.3248,473.42,90.3" style="stroke:#181818;stroke-width:1.0;"/><text fill="#000000" font-family="sans-serif" font-size="13" lengthAdjust="spacing" textLength="76" x="519" y="198.4951">2. ASN.1 ITS</text><text fill="#000000" font-family="sans-serif" font-size="13" lengthAdjust="spacing" textLength="38" x="538" y="214.8467">DENM</text></g><!--SRC=[ZLBDIyCm5B_thtZqv64jp4yG4MfNmSF6fCEBzH3JR8jhavAaof3zxxwapTe9WZsK9B-Fztl9uy8mjIQKGPZaYtWAQVIqoaCW6cgcDTam7GGDeJjSGPYliYMaigvRmIanN0h8zzgmEeJl0F1xTOm79NTClLaJ19lWyDiYgyYxL7yRf1LdmZW3wfOZB2b9Otftqgr7w5B9igKzx3SEFoP85T5Rn5Z9gKtWIpkJbI8VZ1gfzeLub8fHeWqN6sTdZjZ0JpubBucWh12fh2gkqR3BxNS3TqOCAKIE1fZ3aKeySVZ1_RjU8QhOsaJtlhjR22zYI9Fv95tE9o_9F3mXb_9B8DdtYkoR66RPegVr9aVJeGbaNiQmb9gxTsWa5qONWYX5zfrsuCAThsCZe_AvPNXgDtqQtouos-O_F1ze5FmgXkpJDhNkRvwLdSfpeFFkMaV1jU_q4DX1WoXIVBCrKNGsJ6yFkFXZxJI6Rk9ntl7naiN4MWrtxE_NbaITjK7L-OdA5Vy1]--></g></svg>