<svg xmlns="http://www.w3.org/2000/svg" xmlns:xlink="http://www.w3.org/1999/xlink" version="1.1" data-diagram-type="DESCRIPTION" style="width:1755px;height:561px;background:#FFFFFF;" width="1755px" height="561px" viewBox="0 0 1755 561" zoomAndPan="magnify" preserveAspectRatio="none" contentStyleType="text/css"><?plantuml 1.2026.7?><defs/><g font-family="sans-serif" lengthAdjust="spacing"><!--cluster STEP Applications--><g class="cluster" data-qualified-name="STEP Applications" id="ent0001" data-source-line="3"><path d="M227.5,11 L370.462,11 A3.75,3.75 0 0 1 372.962,13.5 L379.962,33.297 L1206.5,33.297 A2.5,2.5 0 0 1 1209,35.797 L1209,105.5 A2.5,2.5 0 0 1 1206.5,108 L227.5,108 A2.5,2.5 0 0 1 225,105.5 L225,13.5 A2.5,2.5 0 0 1 227.5,11" style="stroke:#000;stroke-width:1;" fill="#FFF"/><line x1="225" y1="33.297" x2="379.962" y2="33.297" style="stroke:#000;stroke-width:1;"/><text x="229" y="25.995" fill="#000" font-size="14" textLength="141.962" font-weight="700" font-family="Verdana">STEP Applications</text></g><!--cluster step_redis--><g class="cluster" data-qualified-name="step_redis" id="ent0007" data-source-line="11"><path d="M13.5,157 L95.595,157 A3.75,3.75 0 0 1 98.095,159.5 L105.095,179.297 L1332.5,179.297 A2.5,2.5 0 0 1 1335,181.797 L1335,533.5 A2.5,2.5 0 0 1 1332.5,536 L13.5,536 A2.5,2.5 0 0 1 11,533.5 L11,159.5 A2.5,2.5 0 0 1 13.5,157" style="stroke:#000;stroke-width:1;" fill="#FFF"/><line x1="11" y1="179.297" x2="105.095" y2="179.297" style="stroke:#000;stroke-width:1;"/><text x="15" y="171.995" fill="#000" font-size="14" textLength="81.095" font-weight="700" font-family="Verdana">step_redis</text></g><!--cluster Redis Server--><g class="cluster" data-qualified-name="Redis Server" id="ent0017" data-source-line="23"><path d="M1359,434 C1359,424 1544.5,424 1544.5,424 C1544.5,424 1730,424 1730,434 L1730,526 C1730,536 1544.5,536 1544.5,536 C1544.5,536 1359,536 1359,526 L1359,434" style="stroke:#000;stroke-width:1;" fill="#FFF"/><path d="M1359,434 C1359,444 1544.5,444 1544.5,444 C1544.5,444 1730,444 1730,434" style="stroke:#000;stroke-width:1;" fill="none"/><text x="1494.345" y="458.995" fill="#000" font-size="14" textLength="100.311" font-weight="700" font-family="Verdana">Redis Server</text></g><!--entity step_adapter--><g class="entity" data-qualified-name="STEP Applications.step_adapter" id="ent0002" data-source-line="4"><rect x="241" y="46" width="132.073" height="46.297" fill="#FFF" style="stroke:#000;stroke-width:1;" rx="2.5" ry="2.5"/><rect x="353.073" y="51" width="15" height="10" fill="#FFF" style="stroke:#000;stroke-width:1;"/><rect x="351.073" y="53" width="4" height="2" fill="#FFF" style="stroke:#000;stroke-width:1;"/><rect x="351.073" y="57" width="4" height="2" fill="#FFF" style="stroke:#000;stroke-width:1;"/><text x="256" y="78.995" fill="#000" font-size="14" textLength="92.073" font-family="Verdana">step_adapter</text></g><!--entity step_client--><g class="entity" data-qualified-name="STEP Applications.step_client" id="ent0003" data-source-line="5"><rect x="408" y="46" width="115.735" height="46.297" fill="#FFF" style="stroke:#000;stroke-width:1;" rx="2.5" ry="2.5"/><rect x="503.735" y="51" width="15" height="10" fill="#FFF" style="stroke:#000;stroke-width:1;"/><rect x="501.735" y="53" width="4" height="2" fill="#FFF" style="stroke:#000;stroke-width:1;"/><rect x="501.735" y="57" width="4" height="2" fill="#FFF" style="stroke:#000;stroke-width:1;"/><text x="423" y="78.995" fill="#000" font-size="14" textLength="75.735" font-family="Verdana">step_client</text></g><!--entity step_producer--><g class="entity" data-qualified-name="STEP Applications.step_producer" id="ent0004" data-source-line="6"><rect x="559" y="46" width="140.317" height="46.297" fill="#FFF" style="stroke:#000;stroke-width:1;" rx="2.5" ry="2.5"/><rect x="679.317" y="51" width="15" height="10" fill="#FFF" style="stroke:#000;stroke-width:1;"/><rect x="677.317" y="53" width="4" height="2" fill="#FFF" style="stroke:#000;stroke-width:1;"/><rect x="677.317" y="57" width="4" height="2" fill="#FFF" style="stroke:#000;stroke-width:1;"/><text x="574" y="78.995" fill="#000" font-size="14" textLength="100.317" font-family="Verdana">step_producer</text></g><!--entity step_crash_prediction--><g class="entity" data-qualified-name="STEP Applications.step_crash_prediction" id="ent0005" data-source-line="7"><rect x="734.5" y="46" width="193.029" height="46.297" fill="#FFF" style="stroke:#000;stroke-width:1;" rx="2.5" ry="2.5"/><rect x="907.529" y="51" width="15" height="10" fill="#FFF" style="stroke:#000;stroke-width:1;"/><rect x="905.529" y="53" width="4" height="2" fill="#FFF" style="stroke:#000;stroke-width:1;"/><rect x="905.529" y="57" width="4" height="2" fill="#FFF" style="stroke:#000;stroke-width:1;"/><text x="749.5" y="78.995" fill="#000" font-size="14" textLength="153.029" font-family="Verdana">step_crash_prediction</text></g><!--entity step_trajectory_forecasting--><g class="entity" data-qualified-name="STEP Applications.step_trajectory_forecasting" id="ent0006" data-source-line="8"><rect x="962.5" y="46" width="230.976" height="46.297" fill="#FFF" style="stroke:#000;stroke-width:1;" rx="2.5" ry="2.5"/><rect x="1173.476" y="51" width="15" height="10" fill="#FFF" style="stroke:#000;stroke-width:1;"/><rect x="1171.476" y="53" width="4" height="2" fill="#FFF" style="stroke:#000;stroke-width:1;"/><rect x="1171.476" y="57" width="4" height="2" fill="#FFF" style="stroke:#000;stroke-width:1;"/><text x="977.5" y="78.995" fill="#000" font-size="14" textLength="190.976" font-family="Verdana">step_trajectory_forecasting</text></g><!--entity Pool--><g class="entity" data-qualified-name="step_redis.Pool" id="ent0008" data-source-line="12"><rect x="821" y="315" width="139.75" height="46.297" fill="#FFF" style="stroke:#000;stroke-width:1;" rx="2.5" ry="2.5"/><rect x="940.75" y="320" width="15" height="10" fill="#FFF" style="stroke:#000;stroke-width:1;"/><rect x="938.75" y="322" width="4" height="2" fill="#FFF" style="stroke:#000;stroke-width:1;"/><rect x="938.75" y="326" width="4" height="2" fill="#FFF" style="stroke:#000;stroke-width:1;"/><text x="836" y="347.995" fill="#000" font-size="14" textLength="99.75" font-family="Verdana">StepRedisPool</text></g><!--entity PoolParams--><g class="entity" data-qualified-name="step_redis.PoolParams" id="ent0009" data-source-line="13"><rect x="795" y="474" width="192.038" height="46.297" fill="#FFF" style="stroke:#000;stroke-width:1;" rx="2.5" ry="2.5"/><rect x="967.038" y="479" width="15" height="10" fill="#FFF" style="stroke:#000;stroke-width:1;"/><rect x="965.038" y="481" width="4" height="2" fill="#FFF" style="stroke:#000;stroke-width:1;"/><rect x="965.038" y="485" width="4" height="2" fill="#FFF" style="stroke:#000;stroke-width:1;"/><text x="810" y="506.995" fill="#000" font-size="14" textLength="152.038" font-family="Verdana">StepRedisPoolParams</text></g><!--entity BaseStream--><g class="entity" data-qualified-name="step_redis.BaseStream" id="ent0010" data-source-line="14"><rect x="491.5" y="315" width="161.249" height="46.297" fill="#FFF" style="stroke:#000;stroke-width:1;" rx="2.5" ry="2.5"/><rect x="632.749" y="320" width="15" height="10" fill="#FFF" style="stroke:#000;stroke-width:1;"/><rect x="630.749" y="322" width="4" height="2" fill="#FFF" style="stroke:#000;stroke-width:1;"/><rect x="630.749" y="326" width="4" height="2" fill="#FFF" style="stroke:#000;stroke-width:1;"/><text x="506.5" y="347.995" fill="#000" font-size="14" textLength="121.249" font-family="Verdana">StepRedisStream</text></g><!--entity StreamParams--><g class="entity" data-qualified-name="step_redis.StreamParams" id="ent0011" data-source-line="15"><rect x="465" y="474" width="213.537" height="46.297" fill="#FFF" style="stroke:#000;stroke-width:1;" rx="2.5" ry="2.5"/><rect x="658.537" y="479" width="15" height="10" fill="#FFF" style="stroke:#000;stroke-width:1;"/><rect x="656.537" y="481" width="4" height="2" fill="#FFF" style="stroke:#000;stroke-width:1;"/><rect x="656.537" y="485" width="4" height="2" fill="#FFF" style="stroke:#000;stroke-width:1;"/><text x="480" y="506.995" fill="#000" font-size="14" textLength="173.537" font-family="Verdana">StepRedisStreamParams</text></g><!--entity AdapterStream--><g class="entity" data-qualified-name="step_redis.AdapterStream" id="ent0012" data-source-line="16"><rect x="27.5" y="192" width="217.037" height="46.297" fill="#FFF" style="stroke:#000;stroke-width:1;" rx="2.5" ry="2.5"/><rect x="224.537" y="197" width="15" height="10" fill="#FFF" style="stroke:#000;stroke-width:1;"/><rect x="222.537" y="199" width="4" height="2" fill="#FFF" style="stroke:#000;stroke-width:1;"/><rect x="222.537" y="203" width="4" height="2" fill="#FFF" style="stroke:#000;stroke-width:1;"/><text x="42.5" y="224.995" fill="#000" font-size="14" textLength="177.037" font-family="Verdana">StepAdapterRedisStream</text></g><!--entity ClientStream--><g class="entity" data-qualified-name="step_redis.ClientStream" id="ent0013" data-source-line="17"><rect x="280" y="192" width="201.779" height="46.297" fill="#FFF" style="stroke:#000;stroke-width:1;" rx="2.5" ry="2.5"/><rect x="461.779" y="197" width="15" height="10" fill="#FFF" style="stroke:#000;stroke-width:1;"/><rect x="459.779" y="199" width="4" height="2" fill="#FFF" style="stroke:#000;stroke-width:1;"/><rect x="459.779" y="203" width="4" height="2" fill="#FFF" style="stroke:#000;stroke-width:1;"/><text x="295" y="224.995" fill="#000" font-size="14" textLength="161.779" font-family="Verdana">StepClientRedisStream</text></g><!--entity ProducerStream--><g class="entity" data-qualified-name="step_redis.ProducerStream" id="ent0014" data-source-line="18"><rect x="517" y="192" width="223.839" height="46.297" fill="#FFF" style="stroke:#000;stroke-width:1;" rx="2.5" ry="2.5"/><rect x="720.839" y="197" width="15" height="10" fill="#FFF" style="stroke:#000;stroke-width:1;"/><rect x="718.839" y="199" width="4" height="2" fill="#FFF" style="stroke:#000;stroke-width:1;"/><rect x="718.839" y="203" width="4" height="2" fill="#FFF" style="stroke:#000;stroke-width:1;"/><text x="532" y="224.995" fill="#000" font-size="14" textLength="183.839" font-family="Verdana">StepProducerRedisStream</text></g><!--entity CrashStream--><g class="entity" data-qualified-name="step_redis.CrashStream" id="ent0015" data-source-line="19"><rect x="776" y="192" width="271.629" height="46.297" fill="#FFF" style="stroke:#000;stroke-width:1;" rx="2.5" ry="2.5"/><rect x="1027.629" y="197" width="15" height="10" fill="#FFF" style="stroke:#000;stroke-width:1;"/><rect x="1025.629" y="199" width="4" height="2" fill="#FFF" style="stroke:#000;stroke-width:1;"/><rect x="1025.629" y="203" width="4" height="2" fill="#FFF" style="stroke:#000;stroke-width:1;"/><text x="791" y="224.995" fill="#000" font-size="14" textLength="231.629" font-family="Verdana">StepCrashPredictionRedisStream</text></g><!--entity MonitoringStream--><g class="entity" data-qualified-name="step_redis.MonitoringStream" id="ent0016" data-source-line="20"><rect x="1083" y="192" width="236.116" height="46.297" fill="#FFF" style="stroke:#000;stroke-width:1;" rx="2.5" ry="2.5"/><rect x="1299.116" y="197" width="15" height="10" fill="#FFF" style="stroke:#000;stroke-width:1;"/><rect x="1297.116" y="199" width="4" height="2" fill="#FFF" style="stroke:#000;stroke-width:1;"/><rect x="1297.116" y="203" width="4" height="2" fill="#FFF" style="stroke:#000;stroke-width:1;"/><text x="1098" y="224.995" fill="#000" font-size="14" textLength="196.116" font-family="Verdana">StepMonitoringRedisStream</text></g><!--entity RedisStreams--><g class="entity" data-qualified-name="Redis Server.RedisStreams" id="ent0018" data-source-line="24"><rect x="1375.5" y="474" width="141.117" height="46.297" fill="#FFF" style="stroke:#000;stroke-width:1;" rx="2.5" ry="2.5"/><rect x="1496.617" y="479" width="15" height="10" fill="#FFF" style="stroke:#000;stroke-width:1;"/><rect x="1494.617" y="481" width="4" height="2" fill="#FFF" style="stroke:#000;stroke-width:1;"/><rect x="1494.617" y="485" width="4" height="2" fill="#FFF" style="stroke:#000;stroke-width:1;"/><text x="1390.5" y="506.995" fill="#000" font-size="14" textLength="101.117" font-family="Verdana">Redis Streams</text></g><!--entity RedisConnection--><g class="entity" data-qualified-name="Redis Server.RedisConnection" id="ent0019" data-source-line="25"><rect x="1552" y="474" width="162.076" height="46.297" fill="#FFF" style="stroke:#000;stroke-width:1;" rx="2.5" ry="2.5"/><rect x="1694.076" y="479" width="15" height="10" fill="#FFF" style="stroke:#000;stroke-width:1;"/><rect x="1692.076" y="481" width="4" height="2" fill="#FFF" style="stroke:#000;stroke-width:1;"/><rect x="1692.076" y="485" width="4" height="2" fill="#FFF" style="stroke:#000;stroke-width:1;"/><text x="1567" y="506.995" fill="#000" font-size="14" textLength="122.076" font-family="Verdana">Redis Connection</text></g><!--link step_adapter to AdapterStream--><g class="link" data-entity-1="ent0002" data-entity-2="ent0012" id="lnk20" data-source-line="28" data-link-type="dependency"><path d="M280.66,92.18 C248.52,119.24 198.345,161.5 166.195,188.57" style="stroke:#000;stroke-width:1;" fill="none" id="step_adapter-to-AdapterStream"/><polygon points="162.37,191.79,171.831,189.053,166.195,188.57,166.678,182.933,162.37,191.79" fill="#000" style="stroke:#000;stroke-width:1;stroke-linejoin:miter;stroke-miterlimit:10;"/><text x="243" y="137.067" fill="#000" font-size="13" textLength="29.783" font-family="Verdana">uses</text></g><!--link step_client to ClientStream--><g class="link" data-entity-1="ent0003" data-entity-2="ent0013" id="lnk21" data-source-line="29" data-link-type="dependency"><path d="M452.91,92.18 C436.98,119.17 412.792,160.144 396.792,187.244" style="stroke:#000;stroke-width:1;" fill="none" id="step_client-to-ClientStream"/><polygon points="394.25,191.55,402.27,185.834,396.792,187.244,395.381,181.766,394.25,191.55" fill="#000" style="stroke:#000;stroke-width:1;stroke-linejoin:miter;stroke-miterlimit:10;"/><text x="434" y="137.067" fill="#000" font-size="13" textLength="29.783" font-family="Verdana">uses</text></g><!--link step_producer to ProducerStream--><g class="link" data-entity-1="ent0004" data-entity-2="ent0014" id="lnk22" data-source-line="30" data-link-type="dependency"><path d="M629,92.18 C629,119.17 629,159.45 629,186.55" style="stroke:#000;stroke-width:1;" fill="none" id="step_producer-to-ProducerStream"/><polygon points="629,191.55,633,182.55,629,186.55,625,182.55,629,191.55" fill="#000" style="stroke:#000;stroke-width:1;stroke-linejoin:miter;stroke-miterlimit:10;"/><text x="630" y="137.067" fill="#000" font-size="13" textLength="29.783" font-family="Verdana">uses</text></g><!--link step_crash_prediction to CrashStream--><g class="link" data-entity-1="ent0005" data-entity-2="ent0015" id="lnk23" data-source-line="31" data-link-type="dependency"><path d="M843.48,92.18 C858.66,119.17 881.679,160.092 896.919,187.192" style="stroke:#000;stroke-width:1;" fill="none" id="step_crash_prediction-to-CrashStream"/><polygon points="899.37,191.55,898.445,181.745,896.919,187.192,891.472,185.666,899.37,191.55" fill="#000" style="stroke:#000;stroke-width:1;stroke-linejoin:miter;stroke-miterlimit:10;"/><text x="870" y="137.067" fill="#000" font-size="13" textLength="29.783" font-family="Verdana">uses</text></g><!--link step_trajectory_forecasting to MonitoringStream--><g class="link" data-entity-1="ent0006" data-entity-2="ent0016" id="lnk24" data-source-line="32" data-link-type="dependency"><path d="M1096.95,92.18 C1120,119.17 1155.432,160.648 1178.582,187.748" style="stroke:#000;stroke-width:1;" fill="none" id="step_trajectory_forecasting-to-MonitoringStream"/><polygon points="1181.83,191.55,1179.026,182.109,1178.582,187.748,1172.943,187.305,1181.83,191.55" fill="#000" style="stroke:#000;stroke-width:1;stroke-linejoin:miter;stroke-miterlimit:10;"/><text x="1136" y="137.067" fill="#000" font-size="13" textLength="29.783" font-family="Verdana">uses</text></g><!--link Pool to PoolParams--><g class="link" data-entity-1="ent0008" data-entity-2="ent0009" id="lnk25" data-source-line="34" data-link-type="dependency"><path d="M891,361.16 C891,391.08 891,439.09 891,468.95" style="stroke:#000;stroke-width:1;stroke-dasharray:7,7;" fill="none" id="Pool-to-PoolParams"/><polygon points="891,473.95,895,464.95,891,468.95,887,464.95,891,473.95" fill="#000" style="stroke:#000;stroke-width:1;stroke-linejoin:miter;stroke-miterlimit:10;"/><text x="892" y="404.067" fill="#000" font-size="13" textLength="89.692" font-family="Verdana">configured by</text></g><!--link BaseStream to StreamParams--><g class="link" data-entity-1="ent0010" data-entity-2="ent0011" id="lnk26" data-source-line="35" data-link-type="dependency"><path d="M572,361.16 C572,391.08 572,439.09 572,468.95" style="stroke:#000;stroke-width:1;stroke-dasharray:7,7;" fill="none" id="BaseStream-to-StreamParams"/><polygon points="572,473.95,576,464.95,572,468.95,568,464.95,572,473.95" fill="#000" style="stroke:#000;stroke-width:1;stroke-linejoin:miter;stroke-miterlimit:10;"/><text x="573" y="404.067" fill="#000" font-size="13" textLength="89.692" font-family="Verdana">configured by</text></g><!--link AdapterStream to BaseStream--><g class="link" data-entity-1="ent0012" data-entity-2="ent0010" id="lnk27" data-source-line="37" data-link-type="extension"><path d="M209.19,238.01 C255.71,251.86 317.27,269.89 372,285 C411.08,295.79 437.196,302.713 473.646,312.073" style="stroke:#000;stroke-width:1;" fill="none" id="AdapterStream-to-BaseStream"/><polygon points="491.08,316.55,475.138,306.262,472.153,317.884,491.08,316.55" fill="none" style="stroke:#000;stroke-width:1;stroke-linejoin:miter;stroke-miterlimit:10;"/><text x="373" y="281.067" fill="#000" font-size="13" textLength="52.051" font-family="Verdana">extends</text></g><!--link ClientStream to BaseStream--><g class="link" data-entity-1="ent0013" data-entity-2="ent0010" id="lnk28" data-source-line="38" data-link-type="extension"><path d="M401.77,238.18 C416.26,252.78 436.59,271.6 457,285 C474.58,296.54 478.658,299.527 497.498,307.767" style="stroke:#000;stroke-width:1;" fill="none" id="ClientStream-to-BaseStream"/><polygon points="513.99,314.98,499.903,302.27,495.094,313.264,513.99,314.98" fill="none" style="stroke:#000;stroke-width:1;stroke-linejoin:miter;stroke-miterlimit:10;"/><text x="458" y="281.067" fill="#000" font-size="13" textLength="52.051" font-family="Verdana">extends</text></g><!--link ProducerStream to BaseStream--><g class="link" data-entity-1="ent0014" data-entity-2="ent0010" id="lnk29" data-source-line="39" data-link-type="extension"><path d="M556.35,238.11 C543.1,245.48 530.97,255.21 523,268 C512.97,284.08 512.076,289.489 526.966,302.789" style="stroke:#000;stroke-width:1;" fill="none" id="ProducerStream-to-BaseStream"/><polygon points="540.39,314.78,530.963,298.314,522.969,307.264,540.39,314.78" fill="none" style="stroke:#000;stroke-width:1;stroke-linejoin:miter;stroke-miterlimit:10;"/><text x="524" y="281.067" fill="#000" font-size="13" textLength="52.051" font-family="Verdana">extends</text></g><!--link CrashStream to BaseStream--><g class="link" data-entity-1="ent0015" data-entity-2="ent0010" id="lnk30" data-source-line="40" data-link-type="extension"><path d="M775.61,237.59 C701.78,249.7 624.13,263.29 617,268 C600.05,279.19 595.706,282.905 588.386,298.505" style="stroke:#000;stroke-width:1;" fill="none" id="CrashStream-to-BaseStream"/><polygon points="580.74,314.8,593.818,301.053,582.954,295.956,580.74,314.8" fill="none" style="stroke:#000;stroke-width:1;stroke-linejoin:miter;stroke-miterlimit:10;"/><text x="618" y="281.067" fill="#000" font-size="13" textLength="52.051" font-family="Verdana">extends</text></g><!--link MonitoringStream to BaseStream--><g class="link" data-entity-1="ent0016" data-entity-2="ent0010" id="lnk31" data-source-line="41" data-link-type="extension"><path d="M1127.31,238.07 C1075.55,252.96 1004.51,272.15 941,285 C842.56,304.92 745.682,317.754 670.612,326.384" style="stroke:#000;stroke-width:1;" fill="none" id="MonitoringStream-to-BaseStream"/><polygon points="652.73,328.44,671.297,332.345,669.927,320.424,652.73,328.44" fill="none" style="stroke:#000;stroke-width:1;stroke-linejoin:miter;stroke-miterlimit:10;"/><text x="1014" y="281.067" fill="#000" font-size="13" textLength="52.051" font-family="Verdana">extends</text></g><!--link AdapterStream to Pool--><g class="link" data-entity-1="ent0012" data-entity-2="ent0008" id="lnk32" data-source-line="43" data-link-type="dependency"><path d="M244.83,235.7 C250.63,236.53 256.38,237.31 262,238 C444.66,260.52 498.15,217.06 675,268 C690.48,272.46 692.06,279 707,285 C743.66,299.72 781.146,310.749 815.966,319.669" style="stroke:#000;stroke-width:1;" fill="none" id="AdapterStream-to-Pool"/><polygon points="820.81,320.91,813.084,314.802,815.966,319.669,811.099,322.551,820.81,320.91" fill="#000" style="stroke:#000;stroke-width:1;stroke-linejoin:miter;stroke-miterlimit:10;"/><text x="708" y="281.067" fill="#000" font-size="13" textLength="29.783" font-family="Verdana">uses</text></g><!--link ClientStream to Pool--><g class="link" data-entity-1="ent0013" data-entity-2="ent0008" id="lnk33" data-source-line="44" data-link-type="dependency"><path d="M482.2,235.15 C488.22,236.15 494.19,237.11 500,238 C608.87,254.69 640.93,234.94 746,268 C761.36,272.83 763.57,277.85 778,285 C798.61,295.21 817.078,303.85 836.938,312.88" style="stroke:#000;stroke-width:1;" fill="none" id="ClientStream-to-Pool"/><polygon points="841.49,314.95,834.953,307.584,836.938,312.88,831.641,314.866,841.49,314.95" fill="#000" style="stroke:#000;stroke-width:1;stroke-linejoin:miter;stroke-miterlimit:10;"/><text x="779" y="281.067" fill="#000" font-size="13" textLength="29.783" font-family="Verdana">uses</text></g><!--link ProducerStream to Pool--><g class="link" data-entity-1="ent0014" data-entity-2="ent0008" id="lnk34" data-source-line="45" data-link-type="dependency"><path d="M741.35,237.61 C767.15,245.11 793.8,255.02 817,268 C838.46,280.01 855.216,295.821 869.046,311.031" style="stroke:#000;stroke-width:1;" fill="none" id="ProducerStream-to-Pool"/><polygon points="872.41,314.73,869.315,305.38,869.046,311.031,863.396,310.762,872.41,314.73" fill="#000" style="stroke:#000;stroke-width:1;stroke-linejoin:miter;stroke-miterlimit:10;"/><text x="840" y="281.067" fill="#000" font-size="13" textLength="29.783" font-family="Verdana">uses</text></g><!--link CrashStream to Pool--><g class="link" data-entity-1="ent0015" data-entity-2="ent0008" id="lnk35" data-source-line="46" data-link-type="dependency"><path d="M908.15,238.19 C904.36,260.03 899.465,288.234 895.685,310.024" style="stroke:#000;stroke-width:1;" fill="none" id="CrashStream-to-Pool"/><polygon points="894.83,314.95,900.309,306.766,895.685,310.024,892.427,305.399,894.83,314.95" fill="#000" style="stroke:#000;stroke-width:1;stroke-linejoin:miter;stroke-miterlimit:10;"/><text x="903" y="281.067" fill="#000" font-size="13" textLength="29.783" font-family="Verdana">uses</text></g><!--link MonitoringStream to Pool--><g class="link" data-entity-1="ent0016" data-entity-2="ent0008" id="lnk36" data-source-line="47" data-link-type="dependency"><path d="M1181.36,238.23 C1166.54,253.63 1144.9,273.38 1122,285 C1071.51,310.63 1013.422,323.037 965.962,329.677" style="stroke:#000;stroke-width:1;" fill="none" id="MonitoringStream-to-Pool"/><polygon points="961.01,330.37,970.477,333.084,965.962,329.677,969.369,325.162,961.01,330.37" fill="#000" style="stroke:#000;stroke-width:1;stroke-linejoin:miter;stroke-miterlimit:10;"/><text x="1147" y="281.067" fill="#000" font-size="13" textLength="29.783" font-family="Verdana">uses</text></g><!--link Pool to RedisConnection--><g class="link" data-entity-1="ent0008" data-entity-2="ent0019" id="lnk37" data-source-line="49" data-link-type="dependency"><path d="M961.26,342.34 C1106,350.03 1432.37,371.83 1534,416 C1564.81,429.39 1590.403,451.536 1608.983,470.206" style="stroke:#000;stroke-width:1;" fill="none" id="Pool-to-RedisConnection"/><polygon points="1612.51,473.75,1608.997,464.549,1608.983,470.206,1603.326,470.192,1612.51,473.75" fill="#000" style="stroke:#000;stroke-width:1;stroke-linejoin:miter;stroke-miterlimit:10;"/><text x="1507" y="404.067" fill="#000" font-size="13" textLength="59.858" font-family="Verdana">manages</text></g><!--link BaseStream to RedisStreams--><g class="link" data-entity-1="ent0010" data-entity-2="ent0018" id="lnk38" data-source-line="50" data-link-type="dependency"><path d="M652.67,346.87 C847.26,365.88 1327.06,412.99 1335,416 C1368.98,428.89 1398.266,451.613 1419.336,470.493" style="stroke:#000;stroke-width:1;" fill="none" id="BaseStream-to-RedisStreams"/><polygon points="1423.06,473.83,1419.027,464.845,1419.336,470.493,1413.688,470.803,1423.06,473.83" fill="#000" style="stroke:#000;stroke-width:1;stroke-linejoin:miter;stroke-miterlimit:10;"/><text x="1252" y="404.067" fill="#000" font-size="13" textLength="88.988" font-family="Verdana">interacts with</text></g><?plantuml-src VPHDRi8m48NtFiMKFHoW2oIAkgmKbUugX0Pd0BV1ZcpJ5hMzU_qJ4jk1xf8ttumdpq-vimSw4hGD2ibOY_mTzmIJrSjZ1OksRGH7AvGq4_Xc0F1gBBKRhB6rfDU3mXj1qYP2grLzuZcZqHnSWMh1_SoaP3M-4RTAdpSxfOcZiKBkr-mtMIc0lhdVPUMKPozKIZLhG0F-OLogKEFHz41ypR6LrOJ7W3oWeVXw3KbcfKAFBg8rvT1EBkOkWsib6zK2hJe_I_YYbvEzrrLlzUW8NovQdfGKxWQSxoKzLBeMToqrMjmwfs0IQ5YH_Y1zkPbE2tGqAvbf4cIffAIOXfuQD7zGdZYOJkUvcN0F9qE6PJaCMEfZJlNX35nkOJ6lp6oSFDYNupTo79fA5o-Tp6SIPhDv4avNuqhknFxaJeRjcGsX36GQlH7BSd-cqvzv4cg7qvSbMHkM6NGRA_pvPrvYosrgvCDjTFGbqQEBSyN-UN6qTT6RxPhNhcoO0_7Al5e4rW57bEvtPT8Rwy4k_uuIqdqMSclWKzZ37m00?></g></svg>