<svg xmlns="http://www.w3.org/2000/svg" xmlns:xlink="http://www.w3.org/1999/xlink" version="1.1" data-diagram-type="SEQUENCE" style="width:1855px;height:1088px;background:#FFFFFF;" width="1855px" height="1088px" viewBox="0 0 1855 1088" zoomAndPan="magnify" preserveAspectRatio="none" contentStyleType="text/css"><?plantuml 1.2026.7?><defs/><g font-family="sans-serif" lengthAdjust="spacing"><rect x="40.654" y="358.656" width="1772.427" height="602.133" fill="none" style="stroke:#000;stroke-width:1.5;"/><rect x="1230.165" y="669.789" width="557.917" height="277" fill="none" style="stroke:#000;stroke-width:1.5;"/><g><title>Application</title><rect x="53.154" y="102.594" width="8" height="882.195" fill="#000" fill-opacity="0"/><line x1="56.654" y1="102.594" x2="56.654" y2="984.789" style="stroke:#181818;stroke-width:0.5;stroke-dasharray:5,5;"/></g><g><title>SyncComManager</title><rect x="343.291" y="102.594" width="8" height="882.195" fill="#000" fill-opacity="0"/><line x1="346.791" y1="102.594" x2="346.791" y2="984.789" style="stroke:#181818;stroke-width:0.5;stroke-dasharray:5,5;"/></g><g><title></title><rect x="341.791" y="146.859" width="10" height="439.664" fill="#FFF" style="stroke:#181818;stroke-width:1;"/></g><g><title>PublishWorkerPool</title><rect x="634.548" y="102.594" width="8" height="882.195" fill="#000" fill-opacity="0"/><line x1="638.048" y1="102.594" x2="638.048" y2="984.789" style="stroke:#181818;stroke-width:0.5;stroke-dasharray:5,5;"/></g><g><title></title><rect x="633.048" y="260.258" width="10" height="297.133" fill="#FFF" style="stroke:#181818;stroke-width:1;"/></g><g><title>ZMQ PUSH socket</title><rect x="915.884" y="102.594" width="8" height="882.195" fill="#000" fill-opacity="0"/><line x1="919.384" y1="102.594" x2="919.384" y2="984.789" style="stroke:#181818;stroke-width:0.5;stroke-dasharray:5,5;"/></g><g><title>ZMQ PULL socket</title><rect x="1102.396" y="102.594" width="8" height="882.195" fill="#000" fill-opacity="0"/><line x1="1105.896" y1="102.594" x2="1105.896" y2="984.789" style="stroke:#181818;stroke-width:0.5;stroke-dasharray:5,5;"/></g><g><title>PublishWorker</title><rect x="1242.665" y="102.594" width="8" height="882.195" fill="#000" fill-opacity="0"/><line x1="1246.165" y1="102.594" x2="1246.165" y2="984.789" style="stroke:#181818;stroke-width:0.5;stroke-dasharray:5,5;"/></g><g><title></title><rect x="1241.165" y="615.656" width="10" height="345.133" fill="#FFF" style="stroke:#181818;stroke-width:1;"/></g><g><title>AsyncComManager</title><rect x="1538.664" y="102.594" width="8" height="882.195" fill="#000" fill-opacity="0"/><line x1="1542.164" y1="102.594" x2="1542.164" y2="984.789" style="stroke:#181818;stroke-width:0.5;stroke-dasharray:5,5;"/></g><g><title></title><rect x="1537.164" y="836.258" width="10" height="102.531" fill="#FFF" style="stroke:#181818;stroke-width:1;"/></g><g><title>STEP MQTT Broker</title><rect x="1768.582" y="102.594" width="8" height="882.195" fill="#000" fill-opacity="0"/><line x1="1772.082" y1="102.594" x2="1772.082" y2="984.789" style="stroke:#181818;stroke-width:0.5;stroke-dasharray:5,5;"/></g><text x="14.542" y="82.995" fill="#000" font-size="14" textLength="78.224">Application</text><text x="10" y="99.292" fill="#000" font-size="14" textLength="87.309">(any thread)</text><ellipse cx="56.654" cy="18.5" rx="8" ry="8" fill="#E2E2F0" style="stroke:#181818;stroke-width:0.5;"/><path d="M56.654,26.5 L56.654,53.5 M43.654,34.5 L69.654,34.5 M56.654,53.5 L43.654,68.5 M56.654,53.5 L69.654,68.5" style="stroke:#181818;stroke-width:0.5;" fill="none"/><rect x="276.247" y="71.297" width="141.087" height="30.297" fill="#E2E2F0" style="stroke:#181818;stroke-width:0.5;" rx="2.5" ry="2.5"/><text x="283.247" y="91.292" fill="#000" font-size="14" textLength="127.087">SyncComManager</text><rect x="565.922" y="71.297" width="144.252" height="30.297" fill="#E2E2F0" style="stroke:#181818;stroke-width:0.5;" rx="2.5" ry="2.5"/><text x="572.922" y="91.292" fill="#000" font-size="14" textLength="130.252">PublishWorkerPool</text><rect x="849.654" y="71.297" width="139.46" height="30.297" fill="#E2E2F0" style="stroke:#181818;stroke-width:0.5;" rx="2.5" ry="2.5"/><text x="856.654" y="91.292" fill="#000" font-size="14" textLength="125.46">ZMQ PUSH socket</text><rect x="1038.074" y="71.297" width="135.646" height="30.297" fill="#E2E2F0" style="stroke:#181818;stroke-width:0.5;" rx="2.5" ry="2.5"/><text x="1045.074" y="91.292" fill="#000" font-size="14" textLength="121.646">ZMQ PULL socket</text><rect x="1188.77" y="55" width="114.789" height="46.594" fill="#E2E2F0" style="stroke:#181818;stroke-width:0.5;" rx="2.5" ry="2.5"/><text x="1195.77" y="74.995" fill="#000" font-size="14" textLength="100.789">PublishWorker</text><text x="1196.953" y="91.292" fill="#000" font-size="14" textLength="98.424">(publish_loop)</text><rect x="1467.628" y="55" width="149.071" height="46.594" fill="#E2E2F0" style="stroke:#181818;stroke-width:0.5;" rx="2.5" ry="2.5"/><text x="1474.628" y="74.995" fill="#000" font-size="14" textLength="135.071">AsyncComManager</text><text x="1476.351" y="91.292" fill="#000" font-size="14" textLength="131.626">(private to worker)</text><rect x="1699.966" y="71.297" width="144.231" height="30.297" fill="#E2E2F0" style="stroke:#181818;stroke-width:0.5;" rx="2.5" ry="2.5"/><text x="1706.966" y="91.292" fill="#000" font-size="14" textLength="130.231">STEP MQTT Broker</text><text x="14.542" y="997.784" fill="#000" font-size="14" textLength="78.224">Application</text><text x="10" y="1014.081" fill="#000" font-size="14" textLength="87.309">(any thread)</text><ellipse cx="56.654" cy="1025.883" rx="8" ry="8" fill="#E2E2F0" style="stroke:#181818;stroke-width:0.5;"/><path d="M56.654,1033.883 L56.654,1060.883 M43.654,1041.883 L69.654,1041.883 M56.654,1060.883 L43.654,1075.883 M56.654,1060.883 L69.654,1075.883" style="stroke:#181818;stroke-width:0.5;" fill="none"/><rect x="276.247" y="984.789" width="141.087" height="30.297" fill="#E2E2F0" style="stroke:#181818;stroke-width:0.5;" rx="2.5" ry="2.5"/><text x="283.247" y="1004.784" fill="#000" font-size="14" textLength="127.087">SyncComManager</text><rect x="565.922" y="984.789" width="144.252" height="30.297" fill="#E2E2F0" style="stroke:#181818;stroke-width:0.5;" rx="2.5" ry="2.5"/><text x="572.922" y="1004.784" fill="#000" font-size="14" textLength="130.252">PublishWorkerPool</text><rect x="849.654" y="984.789" width="139.46" height="30.297" fill="#E2E2F0" style="stroke:#181818;stroke-width:0.5;" rx="2.5" ry="2.5"/><text x="856.654" y="1004.784" fill="#000" font-size="14" textLength="125.46">ZMQ PUSH socket</text><rect x="1038.074" y="984.789" width="135.646" height="30.297" fill="#E2E2F0" style="stroke:#181818;stroke-width:0.5;" rx="2.5" ry="2.5"/><text x="1045.074" y="1004.784" fill="#000" font-size="14" textLength="121.646">ZMQ PULL socket</text><rect x="1188.77" y="984.789" width="114.789" height="46.594" fill="#E2E2F0" style="stroke:#181818;stroke-width:0.5;" rx="2.5" ry="2.5"/><text x="1195.77" y="1004.784" fill="#000" font-size="14" textLength="100.789">PublishWorker</text><text x="1196.953" y="1021.081" fill="#000" font-size="14" textLength="98.424">(publish_loop)</text><rect x="1467.628" y="984.789" width="149.071" height="46.594" fill="#E2E2F0" style="stroke:#181818;stroke-width:0.5;" rx="2.5" ry="2.5"/><text x="1474.628" y="1004.784" fill="#000" font-size="14" textLength="135.071">AsyncComManager</text><text x="1476.351" y="1021.081" fill="#000" font-size="14" textLength="131.626">(private to worker)</text><rect x="1699.966" y="984.789" width="144.231" height="30.297" fill="#E2E2F0" style="stroke:#181818;stroke-width:0.5;" rx="2.5" ry="2.5"/><text x="1706.966" y="1004.784" fill="#000" font-size="14" textLength="130.231">STEP MQTT Broker</text><polygon points="329.791,142.859,339.791,146.859,329.791,150.859,333.791,146.859" fill="#181818" style="stroke:#181818;stroke-width:1;stroke-linejoin:miter;stroke-miterlimit:10;"/><line x1="56.654" y1="146.859" x2="335.791" y2="146.859" style="stroke:#181818;stroke-width:1;"/><text x="63.654" y="126.661" fill="#000" font-size="13" textLength="261.136">publish_its_message(message, address,</text><text x="63.654" y="141.793" fill="#000" font-size="13" textLength="230.953">current_position, is_station_mobile)</text><line x1="351.791" y1="175.992" x2="393.791" y2="175.992" style="stroke:#181818;stroke-width:1;"/><line x1="393.791" y1="175.992" x2="393.791" y2="188.992" style="stroke:#181818;stroke-width:1;"/><line x1="352.791" y1="188.992" x2="393.791" y2="188.992" style="stroke:#181818;stroke-width:1;"/><polygon points="362.791,184.992,352.791,188.992,362.791,192.992,358.791,188.992" fill="#181818" style="stroke:#181818;stroke-width:1;stroke-linejoin:miter;stroke-miterlimit:10;"/><text x="358.791" y="170.926" fill="#000" font-size="13" textLength="198.948">check _worker_pool.is_running</text><line x1="351.791" y1="218.125" x2="393.791" y2="218.125" style="stroke:#181818;stroke-width:1;"/><line x1="393.791" y1="218.125" x2="393.791" y2="231.125" style="stroke:#181818;stroke-width:1;"/><line x1="352.791" y1="231.125" x2="393.791" y2="231.125" style="stroke:#181818;stroke-width:1;"/><polygon points="362.791,227.125,352.791,231.125,362.791,235.125,358.791,231.125" fill="#181818" style="stroke:#181818;stroke-width:1;stroke-linejoin:miter;stroke-miterlimit:10;"/><text x="358.791" y="213.059" fill="#000" font-size="13" textLength="272.257">PublishEnvelope.from_domain_objects(...)</text><polygon points="621.048,256.258,631.048,260.258,621.048,264.258,625.048,260.258" fill="#181818" style="stroke:#181818;stroke-width:1;stroke-linejoin:miter;stroke-miterlimit:10;"/><line x1="351.791" y1="260.258" x2="627.048" y2="260.258" style="stroke:#181818;stroke-width:1;"/><text x="358.791" y="255.192" fill="#000" font-size="13" textLength="101.15">send(envelope)</text><line x1="643.048" y1="289.391" x2="685.048" y2="289.391" style="stroke:#181818;stroke-width:1;"/><line x1="685.048" y1="289.391" x2="685.048" y2="302.391" style="stroke:#181818;stroke-width:1;"/><line x1="644.048" y1="302.391" x2="685.048" y2="302.391" style="stroke:#181818;stroke-width:1;"/><polygon points="654.048,298.391,644.048,302.391,654.048,306.391,650.048,302.391" fill="#181818" style="stroke:#181818;stroke-width:1;stroke-linejoin:miter;stroke-miterlimit:10;"/><text x="650.048" y="284.325" fill="#000" font-size="13" textLength="262.336">payload = envelope.model_dump_json()</text><polygon points="907.384,342.656,917.384,346.656,907.384,350.656,911.384,346.656" fill="#181818" style="stroke:#181818;stroke-width:1;stroke-linejoin:miter;stroke-miterlimit:10;"/><line x1="643.048" y1="346.656" x2="913.384" y2="346.656" style="stroke:#181818;stroke-width:1;"/><text x="650.048" y="326.458" fill="#000" font-size="13" textLength="197.19">send(payload, zmq.NOBLOCK)</text><text x="650.048" y="341.59" fill="#000" font-size="13" textLength="134.088">(under _socket_lock)</text><path d="M40.654,358.656 L105.097,358.656 L105.097,365.789 L95.097,375.789 L40.654,375.789 L40.654,358.656" style="stroke:#000;stroke-width:1.5;" fill="#EEE"/><rect x="40.654" y="358.656" width="1772.427" height="602.133" fill="none" style="stroke:#000;stroke-width:1.5;"/><text x="55.654" y="371.723" fill="#000" font-size="13" textLength="19.443" font-weight="700">alt</text><text x="120.097" y="370.867" fill="#000" font-size="11" textLength="321.105" font-weight="700">[every worker pipe at publish_hwm (backpressure)]</text><polygon points="654.048,402.922,644.048,406.922,654.048,410.922,650.048,406.922" fill="#181818" style="stroke:#181818;stroke-width:1;stroke-linejoin:miter;stroke-miterlimit:10;"/><line x1="648.048" y1="406.922" x2="918.384" y2="406.922" style="stroke:#181818;stroke-width:1;stroke-dasharray:2,2;"/><text x="660.048" y="401.856" fill="#000" font-size="13" textLength="68.834">zmq.Again</text><polygon points="362.791,432.055,352.791,436.055,362.791,440.055,358.791,436.055" fill="#181818" style="stroke:#181818;stroke-width:1;stroke-linejoin:miter;stroke-miterlimit:10;"/><line x1="356.791" y1="436.055" x2="632.048" y2="436.055" style="stroke:#181818;stroke-width:1;stroke-dasharray:2,2;"/><text x="368.791" y="430.989" fill="#000" font-size="13" textLength="111.433">raises zmq.Again</text><polygon points="67.654,461.188,57.654,465.188,67.654,469.188,63.654,465.188" fill="#181818" style="stroke:#181818;stroke-width:1;stroke-linejoin:miter;stroke-miterlimit:10;"/><line x1="61.654" y1="465.188" x2="340.791" y2="465.188" style="stroke:#181818;stroke-width:1;stroke-dasharray:2,2;"/><text x="73.654" y="460.122" fill="#000" font-size="13" textLength="211.79">raises StepLibBackpressureError</text><line x1="40.654" y1="474.188" x2="1813.082" y2="474.188" style="stroke:#000;stroke-width:1;stroke-dasharray:2,2;"/><text x="45.654" y="486.398" fill="#000" font-size="11" textLength="98.495" font-weight="700">[pipe has room]</text><line x1="1103.896" y1="528.258" x2="1093.896" y2="524.258" style="stroke:#181818;stroke-width:1;"/><line x1="1103.896" y1="528.258" x2="1093.896" y2="532.258" style="stroke:#181818;stroke-width:1;"/><line x1="919.384" y1="528.258" x2="1104.896" y2="528.258" style="stroke:#181818;stroke-width:1;stroke-dasharray:2,2;"/><text x="926.384" y="508.059" fill="#000" font-size="13" textLength="123.138">round-robin routed</text><text x="926.384" y="523.192" fill="#000" font-size="13" textLength="162.513">to one connected worker</text><polygon points="362.791,553.391,352.791,557.391,362.791,561.391,358.791,557.391" fill="#181818" style="stroke:#181818;stroke-width:1;stroke-linejoin:miter;stroke-miterlimit:10;"/><line x1="356.791" y1="557.391" x2="632.048" y2="557.391" style="stroke:#181818;stroke-width:1;stroke-dasharray:2,2;"/><text x="368.791" y="552.325" fill="#000" font-size="13" textLength="57.18">(returns)</text><polygon points="67.654,582.523,57.654,586.523,67.654,590.523,63.654,586.523" fill="#181818" style="stroke:#181818;stroke-width:1;stroke-linejoin:miter;stroke-miterlimit:10;"/><line x1="61.654" y1="586.523" x2="340.791" y2="586.523" style="stroke:#181818;stroke-width:1;stroke-dasharray:2,2;"/><text x="73.654" y="581.458" fill="#000" font-size="13" textLength="57.18">(returns)</text><polygon points="1229.165,611.656,1239.165,615.656,1229.165,619.656,1233.165,615.656" fill="#181818" style="stroke:#181818;stroke-width:1;stroke-linejoin:miter;stroke-miterlimit:10;"/><line x1="1105.896" y1="615.656" x2="1235.165" y2="615.656" style="stroke:#181818;stroke-width:1;"/><text x="1112.896" y="610.59" fill="#000" font-size="13" textLength="111.268">await sock.recv()</text><line x1="1251.165" y1="644.789" x2="1293.165" y2="644.789" style="stroke:#181818;stroke-width:1;"/><line x1="1293.165" y1="644.789" x2="1293.165" y2="657.789" style="stroke:#181818;stroke-width:1;"/><line x1="1252.165" y1="657.789" x2="1293.165" y2="657.789" style="stroke:#181818;stroke-width:1;"/><polygon points="1262.165,653.789,1252.165,657.789,1262.165,661.789,1258.165,657.789" fill="#181818" style="stroke:#181818;stroke-width:1;stroke-linejoin:miter;stroke-miterlimit:10;"/><text x="1258.165" y="639.723" fill="#000" font-size="13" textLength="276.999">PublishEnvelope.model_validate_json(raw)</text><path d="M1230.165,669.789 L1294.607,669.789 L1294.607,676.922 L1284.607,686.922 L1230.165,686.922 L1230.165,669.789" style="stroke:#000;stroke-width:1.5;" fill="#EEE"/><rect x="1230.165" y="669.789" width="557.917" height="277" fill="none" style="stroke:#000;stroke-width:1.5;"/><text x="1245.165" y="682.856" fill="#000" font-size="13" textLength="19.443" font-weight="700">alt</text><text x="1309.607" y="682" fill="#000" font-size="11" textLength="154.951" font-weight="700">[payload fails validation]</text><line x1="1251.165" y1="718.055" x2="1293.165" y2="718.055" style="stroke:#181818;stroke-width:1;"/><line x1="1293.165" y1="718.055" x2="1293.165" y2="731.055" style="stroke:#181818;stroke-width:1;"/><line x1="1252.165" y1="731.055" x2="1293.165" y2="731.055" style="stroke:#181818;stroke-width:1;"/><polygon points="1262.165,727.055,1252.165,731.055,1262.165,735.055,1258.165,731.055" fill="#181818" style="stroke:#181818;stroke-width:1;stroke-linejoin:miter;stroke-miterlimit:10;"/><text x="1258.165" y="712.989" fill="#000" font-size="13" textLength="228.541">log warning, discard, continue loop</text><line x1="1230.165" y1="740.055" x2="1788.082" y2="740.055" style="stroke:#000;stroke-width:1;stroke-dasharray:2,2;"/><text x="1235.165" y="752.265" fill="#000" font-size="11" textLength="100.477" font-weight="700">[valid envelope]</text><line x1="1251.165" y1="778.992" x2="1293.165" y2="778.992" style="stroke:#181818;stroke-width:1;"/><line x1="1293.165" y1="778.992" x2="1293.165" y2="791.992" style="stroke:#181818;stroke-width:1;"/><line x1="1252.165" y1="791.992" x2="1293.165" y2="791.992" style="stroke:#181818;stroke-width:1;"/><polygon points="1262.165,787.992,1252.165,791.992,1262.165,795.992,1258.165,791.992" fill="#181818" style="stroke:#181818;stroke-width:1;stroke-linejoin:miter;stroke-miterlimit:10;"/><text x="1258.165" y="773.926" fill="#000" font-size="13" textLength="195.59">envelope.to_domain_objects()</text><polygon points="1525.164,832.258,1535.164,836.258,1525.164,840.258,1529.164,836.258" fill="#181818" style="stroke:#181818;stroke-width:1;stroke-linejoin:miter;stroke-miterlimit:10;"/><line x1="1251.165" y1="836.258" x2="1531.164" y2="836.258" style="stroke:#181818;stroke-width:1;"/><text x="1258.165" y="816.059" fill="#000" font-size="13" textLength="261.136">publish_its_message(message, address,</text><text x="1258.165" y="831.192" fill="#000" font-size="13" textLength="230.953">current_position, is_station_mobile)</text><polygon points="1760.082,876.523,1770.082,880.523,1760.082,884.523,1764.082,880.523" fill="#181818" style="stroke:#181818;stroke-width:1;stroke-linejoin:miter;stroke-miterlimit:10;"/><line x1="1547.164" y1="880.523" x2="1766.082" y2="880.523" style="stroke:#181818;stroke-width:1;"/><text x="1554.164" y="860.325" fill="#000" font-size="13" textLength="182.99">MQTT publish (topic derived</text><text x="1554.164" y="875.458" fill="#000" font-size="13" textLength="205.918">from geohash + message type)</text><polygon points="1558.164,905.656,1548.164,909.656,1558.164,913.656,1554.164,909.656" fill="#181818" style="stroke:#181818;stroke-width:1;stroke-linejoin:miter;stroke-miterlimit:10;"/><line x1="1552.164" y1="909.656" x2="1771.082" y2="909.656" style="stroke:#181818;stroke-width:1;stroke-dasharray:2,2;"/><text x="1564.164" y="904.59" fill="#000" font-size="13" textLength="63.229">published</text><polygon points="1262.165,934.789,1252.165,938.789,1262.165,942.789,1258.165,938.789" fill="#181818" style="stroke:#181818;stroke-width:1;stroke-linejoin:miter;stroke-miterlimit:10;"/><line x1="1256.165" y1="938.789" x2="1536.164" y2="938.789" style="stroke:#181818;stroke-width:1;stroke-dasharray:2,2;"/><text x="1268.165" y="933.723" fill="#000" font-size="13" textLength="50.851">success</text><?plantuml-src hLHXQzim4FtkNt7qayDI_u302caf39QiAUaOZ89Hv6kYHjPfafoG_VgTBCUDqxIVLaYZe7Ttx-wzav2175nDhTLAYg38F9jSc0E4ZKDHZQv0UE3Rp0eNb5HMc01NouEHTrJFXH5hT2rcUJSVOXRDIYk_-KLkYsv1f5jOF0nnl-UFiFYv_0QUv1P3GZL-SmarcmrHMdzIanknwNUfYMng9LqDewP-q4wCSsed0a8WsBS1fy7JyqwNJ_SBc3y-FS6jesqtZtJCCfuTND_4yKpWI4S5NzReFLVBk-ynYAfoV1u_6zauXoQKbhoAYen1-TA7LfsoffNIECg438bZ73n_-Y9oWt8BPUBDEKWN7EuQOvHP3v3TjExD3ZLPB5uSrML5jL2cfDKhok3peYX6nw2etGGycYh7BkQ4Hwji_FS6jUAWILJm5OxuegOATLarjIrVFPbyz1R2cdVPkxWn_At_53yURcSFTzz7B4jZAdHG9Wkmg78xoZAX0-0EtQ6J2goo22BqqzxiQyXNGcvjd6_Zc3JmNwm7rptNM6gwvjRJPKlgE2Wdb4T_1cc7mWWMk4Si0zgPMjsU5BjtZbo6scCYjc5lEA9wmE6czJAd8Mxnsh749fu3Li-6FKW6GP8nh0XMNPiNQEOEG-ECJ_rLE9Jc7USFuT5H7JtTIfDyFm6n5ogq6rWubBiyHVPnlzw8fUDfxBdPaX5sGgkAOvCPdDXtALdJetbUXD8UEY1lG0kuN4FJ6lR2HQEFeL9U2iScuia5PHg4-0gqqQqQRSRUc9zaxRqRw7mxHX-6JV_tlXyBdKqxFaP33jEqhEdzcQHtgIC2UI2h96lDxrlqLjnuM2EnAJVm1Jfk40xsf6BArFhcVMzONIf_CZtVICbfUzI9puOTyE9d5m4Pt_m3?></g></svg>