<?xml version="1.0" encoding="us-ascii" standalone="no"?><svg xmlns="http://www.w3.org/2000/svg" xmlns:xlink="http://www.w3.org/1999/xlink" contentStyleType="text/css" height="626px" preserveAspectRatio="none" style="width:509px;height:626px;background:#FFFFFF;" version="1.1" viewBox="0 0 509 626" width="509px" zoomAndPan="magnify"><defs/><g><!--class StepRedisPoolParams--><g id="elem_StepRedisPoolParams"><rect codeLine="4" fill="#FFFFFF" height="384.293" id="StepRedisPoolParams" rx="2.5" ry="2.5" style="stroke:#000000;stroke-width:1.0;" width="328" x="93" y="235"/><ellipse cx="177.75" cy="249" fill="#FFFFFF" rx="9" ry="9" style="stroke:#000000;stroke-width:1.0;"/><path d="M180.5156,250.5313 L182.9063,251.2813 Q182.3594,253.2656 181.0781,254.2344 Q179.8125,255.2031 177.8438,255.2031 Q175.4219,255.2031 173.8594,253.5469 Q172.3125,251.8906 172.3125,249.0156 Q172.3125,245.9844 173.875,244.3125 Q175.4375,242.625 178,242.625 Q180.2344,242.625 181.625,243.9375 Q182.4531,244.7188 182.875,246.1875 L180.4375,246.7656 Q180.2188,245.8125 179.5313,245.2656 Q178.8594,244.7188 177.875,244.7188 Q176.5156,244.7188 175.6719,245.7031 Q174.8438,246.6719 174.8438,248.8438 Q174.8438,251.1406 175.6719,252.125 Q176.5,253.1094 177.8281,253.1094 Q178.8125,253.1094 179.5156,252.4844 Q180.2188,251.8594 180.5156,250.5313 Z " fill="#000000"/><text fill="#000000" font-family="Verdana" font-size="14" lengthAdjust="spacing" textLength="151" x="195.25" y="254.5679">StepRedisPoolParams</text><line style="stroke:#000000;stroke-width:1.0;" x1="94" x2="420" y1="263" y2="263"/><text fill="#000000" font-family="Verdana" font-size="14" lengthAdjust="spacing" textLength="74" x="99" y="281.0752">+host: str</text><text fill="#000000" font-family="Verdana" font-size="14" lengthAdjust="spacing" textLength="70" x="99" y="298.0898">+port: int</text><text fill="#000000" font-family="Verdana" font-size="14" lengthAdjust="spacing" textLength="181" x="99" y="315.1045">+username: Optional[str]</text><text fill="#000000" font-family="Verdana" font-size="14" lengthAdjust="spacing" textLength="110" x="99" y="332.1191">+password: str</text><text fill="#000000" font-family="Verdana" font-size="14" lengthAdjust="spacing" textLength="58" x="99" y="349.1338">+db: int</text><text fill="#000000" font-family="Verdana" font-size="14" lengthAdjust="spacing" textLength="149" x="99" y="366.1484">+socket_timeout: int</text><text fill="#000000" font-family="Verdana" font-size="14" lengthAdjust="spacing" textLength="213" x="99" y="383.1631">+socket_connect_timeout: int</text><text fill="#000000" font-family="Verdana" font-size="14" lengthAdjust="spacing" textLength="160" x="99" y="400.1777">+socket_keep_idle: int</text><text fill="#000000" font-family="Verdana" font-size="14" lengthAdjust="spacing" textLength="179" x="99" y="417.1924">+socket_keep_alive: bool</text><text fill="#000000" font-family="Verdana" font-size="14" lengthAdjust="spacing" textLength="159" x="99" y="434.207">+socket_keep_cnt: int</text><text fill="#000000" font-family="Verdana" font-size="14" lengthAdjust="spacing" textLength="125" x="99" y="451.2217">+ssl_enable: bool</text><text fill="#000000" font-family="Verdana" font-size="14" lengthAdjust="spacing" textLength="237" x="99" y="468.2363">+ssl_client_key_file: Optional[str]</text><text fill="#000000" font-family="Verdana" font-size="14" lengthAdjust="spacing" textLength="314" x="99" y="485.251">+ssl_client_key_file_password: Optional[str]</text><text fill="#000000" font-family="Verdana" font-size="14" lengthAdjust="spacing" textLength="240" x="99" y="502.2656">+ssl_client_cert_file: Optional[str]</text><text fill="#000000" font-family="Verdana" font-size="14" lengthAdjust="spacing" textLength="187" x="99" y="519.2803">+ssl_cert_requested: bool</text><text fill="#000000" font-family="Verdana" font-size="14" lengthAdjust="spacing" textLength="227" x="99" y="536.2949">+ssl_ca_certs_file: Optional[str]</text><text fill="#000000" font-family="Verdana" font-size="14" lengthAdjust="spacing" textLength="191" x="99" y="553.3096">+health_check_interval: int</text><text fill="#000000" font-family="Verdana" font-size="14" lengthAdjust="spacing" textLength="163" x="99" y="570.3242">+max_connections: int</text><text fill="#000000" font-family="Verdana" font-size="14" lengthAdjust="spacing" textLength="316" x="99" y="587.3389">+connection_available_timeout: Optional[int]</text><text fill="#000000" font-family="Verdana" font-size="14" lengthAdjust="spacing" textLength="98" x="99" y="604.3535">+protocol: int</text><line style="stroke:#000000;stroke-width:1.0;" x1="94" x2="420" y1="611.293" y2="611.293"/></g><!--class StepRedisPool--><g id="elem_StepRedisPool"><rect codeLine="27" fill="#FFFFFF" height="163.1025" id="StepRedisPool" rx="2.5" ry="2.5" style="stroke:#000000;stroke-width:1.0;" width="490" x="12" y="12"/><ellipse cx="203.25" cy="26" fill="#FFFFFF" rx="9" ry="9" style="stroke:#000000;stroke-width:1.0;"/><path d="M206.0156,27.5313 L208.4063,28.2813 Q207.8594,30.2656 206.5781,31.2344 Q205.3125,32.2031 203.3438,32.2031 Q200.9219,32.2031 199.3594,30.5469 Q197.8125,28.8906 197.8125,26.0156 Q197.8125,22.9844 199.375,21.3125 Q200.9375,19.625 203.5,19.625 Q205.7344,19.625 207.125,20.9375 Q207.9531,21.7188 208.375,23.1875 L205.9375,23.7656 Q205.7188,22.8125 205.0313,22.2656 Q204.3594,21.7188 203.375,21.7188 Q202.0156,21.7188 201.1719,22.7031 Q200.3438,23.6719 200.3438,25.8438 Q200.3438,28.1406 201.1719,29.125 Q202,30.1094 203.3281,30.1094 Q204.3125,30.1094 205.0156,29.4844 Q205.7188,28.8594 206.0156,27.5313 Z " fill="#000000"/><text fill="#000000" font-family="Verdana" font-size="14" lengthAdjust="spacing" textLength="100" x="220.75" y="31.5679">StepRedisPool</text><line style="stroke:#000000;stroke-width:1.0;" x1="13" x2="501" y1="40" y2="40"/><text fill="#000000" font-family="Verdana" font-size="14" lengthAdjust="spacing" textLength="230" x="18" y="58.0752">-_params: StepRedisPoolParams</text><text fill="#000000" font-family="Verdana" font-size="14" lengthAdjust="spacing" textLength="190" x="18" y="75.0898">-_logger: Optional[Logger]</text><text fill="#000000" font-family="Verdana" font-size="14" lengthAdjust="spacing" textLength="223" x="18" y="92.1045">-_pool: BlockingConnectionPool</text><line style="stroke:#000000;stroke-width:1.0;" x1="13" x2="501" y1="99.0439" y2="99.0439"/><text fill="#000000" font-family="Verdana" font-size="14" lengthAdjust="spacing" textLength="478" x="18" y="117.1191">+__init__(params: StepRedisPoolParams, logger: Optional[Logger])</text><text fill="#000000" font-family="Verdana" font-size="14" lengthAdjust="spacing" textLength="215" x="18" y="134.1338">+__aenter__(): StepRedisPool</text><text fill="#000000" font-family="Verdana" font-size="14" lengthAdjust="spacing" textLength="324" x="18" y="151.1484">+__aexit__(exc_type, exc_val, exc_tb): None</text><text fill="#000000" font-family="Verdana" font-size="14" lengthAdjust="spacing" textLength="262" x="18" y="168.1631">+get_pool(): BlockingConnectionPool</text></g><!--reverse link StepRedisPool to StepRedisPoolParams--><g id="link_StepRedisPool_StepRedisPoolParams"><path codeLine="37" d="M257,188.41 C257,203.12 257,218.78 257,234.76 " fill="none" id="StepRedisPool-backto-StepRedisPoolParams" style="stroke:#000000;stroke-width:1.0;"/><polygon fill="none" points="257,175.17,253,181.17,257,187.17,261,181.17,257,175.17" style="stroke:#000000;stroke-width:1.0;"/></g><!--SRC=[VL9DJyCm3BttLuGR4vl4UJVWX8HWOaSqHMbgsgXfN19tR23-EqwxhVjeTulzdj-p7TzG0HM8sYhZab0QLoklAg6j2k61o9kq8NZMw9Rc1yHzahI8M1BKxv2Pi42qYrWIn6yYXBWhCD1S1F9jLAFdo3XgeoQ0Twg2kNYhoQ1JzeE9gux9ij_eixusI_lAWBe4acGgm8OkyjoV0psEbm2rD9c5OKHPisOevLakCEsEvOALu5HgJzYSrDQ0YnLR-Mdiu803DDaFVPMlmTDrtKZmyDL08CZEUrCj7aOL2b2M2gaBqANaKS6lbUs7hjHcls0k33tG9wLQAsFZNlelEFWmVVV57WarxgJ_1c-fkwAPRC-GlGOEhIDOp7FmHpOlRMArAyTeysZv8utBdmwDBlQBaJoe8IblhnXDnPZ9PAUX86wBLIPd0WTyqvh0HalQrZ0LySNRxHwKSjqhEcZfEPzSx3kAZNJEEplT5ivcGvt_0m00]--></g></svg>