<?xml version="1.0" encoding="us-ascii" standalone="no"?><svg xmlns="http://www.w3.org/2000/svg" xmlns:xlink="http://www.w3.org/1999/xlink" contentStyleType="text/css" height="328px" preserveAspectRatio="none" style="width:655px;height:328px;background:#FFFFFF;" version="1.1" viewBox="0 0 655 328" width="655px" zoomAndPan="magnify"><defs/><g><line style="stroke:#181818;stroke-width:0.5;stroke-dasharray:5.0,5.0;" x1="61" x2="61" y1="37.6094" y2="291.4219"/><line style="stroke:#181818;stroke-width:0.5;stroke-dasharray:5.0,5.0;" x1="262" x2="262" y1="37.6094" y2="291.4219"/><line style="stroke:#181818;stroke-width:0.5;stroke-dasharray:5.0,5.0;" x1="394" x2="394" y1="37.6094" y2="291.4219"/><line style="stroke:#181818;stroke-width:0.5;stroke-dasharray:5.0,5.0;" x1="579.5" x2="579.5" y1="37.6094" y2="291.4219"/><rect fill="#E2E2F0" height="31.6094" rx="2.5" ry="2.5" style="stroke:#181818;stroke-width:0.5;" width="112" x="5" y="5"/><text fill="#000000" font-family="sans-serif" font-size="14" lengthAdjust="spacing" textLength="98" x="12" y="26.5332">STEP Producer</text><rect fill="#E2E2F0" height="31.6094" rx="2.5" ry="2.5" style="stroke:#181818;stroke-width:0.5;" width="112" x="5" y="290.4219"/><text fill="#000000" font-family="sans-serif" font-size="14" lengthAdjust="spacing" textLength="98" x="12" y="311.9551">STEP Producer</text><rect fill="#E2E2F0" height="31.6094" rx="2.5" ry="2.5" style="stroke:#181818;stroke-width:0.5;" width="160" x="182" y="5"/><text fill="#000000" font-family="sans-serif" font-size="14" lengthAdjust="spacing" textLength="146" x="189" y="26.5332">StepClientRedisStream</text><rect fill="#E2E2F0" height="31.6094" rx="2.5" ry="2.5" style="stroke:#181818;stroke-width:0.5;" width="160" x="182" y="290.4219"/><text fill="#000000" font-family="sans-serif" font-size="14" lengthAdjust="spacing" textLength="146" x="189" y="311.9551">StepClientRedisStream</text><rect fill="#E2E2F0" height="31.6094" rx="2.5" ry="2.5" style="stroke:#181818;stroke-width:0.5;" width="85" x="352" y="5"/><text fill="#000000" font-family="sans-serif" font-size="14" lengthAdjust="spacing" textLength="71" x="359" y="26.5332">StepBroker</text><rect fill="#E2E2F0" height="31.6094" rx="2.5" ry="2.5" style="stroke:#181818;stroke-width:0.5;" width="85" x="352" y="290.4219"/><text fill="#000000" font-family="sans-serif" font-size="14" lengthAdjust="spacing" textLength="71" x="359" y="311.9551">StepBroker</text><rect fill="#E2E2F0" height="31.6094" rx="2.5" ry="2.5" style="stroke:#181818;stroke-width:0.5;" width="140" x="509.5" y="5"/><text fill="#000000" font-family="sans-serif" font-size="14" lengthAdjust="spacing" textLength="126" x="516.5" y="26.5332">STEP MQTT Broker</text><rect fill="#E2E2F0" height="31.6094" rx="2.5" ry="2.5" style="stroke:#181818;stroke-width:0.5;" width="140" x="509.5" y="290.4219"/><text fill="#000000" font-family="sans-serif" font-size="14" lengthAdjust="spacing" textLength="126" x="516.5" y="311.9551">STEP MQTT Broker</text><polygon fill="#181818" points="250,65.9609,260,69.9609,250,73.9609,254,69.9609" style="stroke:#181818;stroke-width:1.0;"/><line style="stroke:#181818;stroke-width:1.0;" x1="61" x2="256" y1="69.9609" y2="69.9609"/><text fill="#000000" font-family="sans-serif" font-size="13" lengthAdjust="spacing" textLength="177" x="68" y="65.1045">redis_stream(JSON_message)</text><polygon fill="#181818" points="382.5,96.3125,392.5,100.3125,382.5,104.3125,386.5,100.3125" style="stroke:#181818;stroke-width:1.0;"/><line style="stroke:#181818;stroke-width:1.0;" x1="262" x2="388.5" y1="100.3125" y2="100.3125"/><text fill="#000000" font-family="sans-serif" font-size="13" lengthAdjust="spacing" textLength="94" x="269" y="95.4561">JSON_message</text><path d="M314,113.3125 L314,172.3125 L474,172.3125 L474,123.3125 L464,113.3125 L314,113.3125 " fill="#FEFFDD" style="stroke:#181818;stroke-width:0.5;"/><path d="M464,113.3125 L464,123.3125 L474,123.3125 L464,113.3125 " fill="#FEFFDD" style="stroke:#181818;stroke-width:0.5;"/><text fill="#000000" font-family="sans-serif" font-size="13" lengthAdjust="spacing" textLength="100" x="320" y="131.8076">Convert message</text><text fill="#000000" font-family="sans-serif" font-size="13" lengthAdjust="spacing" textLength="139" x="320" y="148.1592">from JSON cloud events</text><text fill="#000000" font-family="sans-serif" font-size="13" lengthAdjust="spacing" textLength="74" x="320" y="164.5107">to ITS format</text><line style="stroke:#181818;stroke-width:1.0;" x1="394.5" x2="436.5" y1="199.7188" y2="199.7188"/><line style="stroke:#181818;stroke-width:1.0;" x1="436.5" x2="436.5" y1="199.7188" y2="212.7188"/><line style="stroke:#181818;stroke-width:1.0;" x1="395.5" x2="436.5" y1="212.7188" y2="212.7188"/><polygon fill="#181818" points="405.5,208.7188,395.5,212.7188,405.5,216.7188,401.5,212.7188" style="stroke:#181818;stroke-width:1.0;"/><text fill="#000000" font-family="sans-serif" font-size="13" lengthAdjust="spacing" textLength="170" x="401.5" y="194.8623">encode_ITS(JSON_message)</text><polygon fill="#181818" points="567.5,239.0703,577.5,243.0703,567.5,247.0703,571.5,243.0703" style="stroke:#181818;stroke-width:1.0;"/><line style="stroke:#181818;stroke-width:1.0;" x1="394.5" x2="573.5" y1="243.0703" y2="243.0703"/><text fill="#000000" font-family="sans-serif" font-size="13" lengthAdjust="spacing" textLength="161" x="401.5" y="238.2139">mqtt_publish(ITS_message)</text><polygon fill="#181818" points="405.5,269.4219,395.5,273.4219,405.5,277.4219,401.5,273.4219" style="stroke:#181818;stroke-width:1.0;"/><line style="stroke:#181818;stroke-width:1.0;stroke-dasharray:2.0,2.0;" x1="399.5" x2="578.5" y1="273.4219" y2="273.4219"/><text fill="#000000" font-family="sans-serif" font-size="13" lengthAdjust="spacing" textLength="97" x="411.5" y="268.5654">publish_success</text><!--SRC=[PO_1JiCm38RlUGfhf-sm5-Y10zCqWGGCsdkK9Hv4Q-AGk4EyFKdMGZTEbktF__yxgCXMsw0ymwBjjdlOHpA3nhW0bNuR4Quunh3fBNf-GsDJon6Lgtpj_yFtaKwZuaunVgdl6wOOFxrs7Sp8qWin9O3rtKKT6eYbobHjbu_joxDqc99wnvMu89aTVHgOxuKdHg1pbfjo0C26V9umJ50U7IEvUWcwfy40dlEpgMoOuA5huKZHAHRe3HHDCShDd7DEz9eCoipVf9pHzUi6t2Up3CEXj-bZcG_-s0gihtH7JgP1wupz0000]--></g></svg>