<svg xmlns="http://www.w3.org/2000/svg" xmlns:xlink="http://www.w3.org/1999/xlink" contentStyleType="text/css" data-diagram-type="CLASS" height="486px" preserveAspectRatio="none" style="width:726px;height:486px;background:#FFFFFF;" version="1.1" viewBox="0 0 726 486" width="726px" zoomAndPan="magnify"><?plantuml 1.2026.6?><defs/><g><!--cluster step_message_save--><g class="cluster" data-qualified-name="step_message_save" data-source-line="5" id="ent0001"><path d="M13.5,11 L169.1563,11 A3.75,3.75 0 0 1 171.6563,13.5 L178.6563,33.2969 L708.5,33.2969 A2.5,2.5 0 0 1 711,35.7969 L711,468.5 A2.5,2.5 0 0 1 708.5,471 L13.5,471 A2.5,2.5 0 0 1 11,468.5 L11,13.5 A2.5,2.5 0 0 1 13.5,11" fill="#FFFFFF" style="stroke:#000000;stroke-width:1;"/><line style="stroke:#000000;stroke-width:1;" x1="11" x2="178.6563" y1="33.2969" y2="33.2969"/><text fill="#000000" font-family="Verdana" font-size="14" font-weight="700" lengthAdjust="spacing" textLength="154.6563" x="15" y="25.9951">step_message_save</text></g><!--class StepBroker--><g class="entity" data-qualified-name="step_message_save.StepBroker" data-source-line="6" id="ent0002"><rect fill="#FFFFFF" height="109.1875" rx="2.5" ry="2.5" style="stroke:#000000;stroke-width:1;" width="264.7246" x="206.5" y="46"/><ellipse cx="295.9731" cy="60" fill="#FFFFFF" rx="9" ry="9" style="stroke:#000000;stroke-width:1;"/><path d="M298.9419,65.6406 Q298.3638,65.9375 297.7231,66.0781 Q297.0825,66.2344 296.3794,66.2344 Q293.8794,66.2344 292.5513,64.5938 Q291.2388,62.9375 291.2388,59.8125 Q291.2388,56.6875 292.5513,55.0313 Q293.8794,53.375 296.3794,53.375 Q297.0825,53.375 297.7231,53.5313 Q298.3794,53.6875 298.9419,53.9844 L298.9419,56.7031 Q298.3169,56.125 297.7231,55.8594 Q297.1294,55.5781 296.5044,55.5781 Q295.1606,55.5781 294.4731,56.6563 Q293.7856,57.7188 293.7856,59.8125 Q293.7856,61.9063 294.4731,62.9844 Q295.1606,64.0469 296.5044,64.0469 Q297.1294,64.0469 297.7231,63.7813 Q298.3169,63.5 298.9419,62.9219 L298.9419,65.6406 Z " fill="#000000"/><text fill="#000000" font-family="Verdana" font-size="14" lengthAdjust="spacing" textLength="78.2783" x="313.4731" y="64.8467">StepBroker</text><line style="stroke:#000000;stroke-width:1;" x1="207.5" x2="470.2246" y1="74" y2="74"/><text fill="#000000" font-family="Verdana" font-size="14" lengthAdjust="spacing" textLength="252.7246" x="212.5" y="90.9951">+its_messages: ItsMessagesIterator</text><line style="stroke:#000000;stroke-width:1;" x1="207.5" x2="470.2246" y1="98.2969" y2="98.2969"/><text fill="#000000" font-family="Verdana" font-size="14" lengthAdjust="spacing" textLength="141.7568" x="212.5" y="115.292">+async __aenter__()</text><text fill="#000000" font-family="Verdana" font-size="14" lengthAdjust="spacing" textLength="130.6895" x="212.5" y="131.5889">+async __aexit__()</text><text fill="#000000" font-family="Verdana" font-size="14" lengthAdjust="spacing" textLength="210.9229" x="212.5" y="147.8857">+async subscribe_execution()</text></g><!--class StepMessageSaveConfig--><g class="entity" data-qualified-name="step_message_save.StepMessageSaveConfig" data-source-line="13" id="ent0003"><rect fill="#FFFFFF" height="223.2656" rx="2.5" ry="2.5" style="stroke:#000000;stroke-width:1;" width="243.2256" x="451.5" y="232"/><ellipse cx="483.7182" cy="246" fill="#FFFFFF" rx="9" ry="9" style="stroke:#000000;stroke-width:1;"/><path d="M486.6869,251.6406 Q486.1088,251.9375 485.4682,252.0781 Q484.8275,252.2344 484.1244,252.2344 Q481.6244,252.2344 480.2963,250.5938 Q478.9838,248.9375 478.9838,245.8125 Q478.9838,242.6875 480.2963,241.0313 Q481.6244,239.375 484.1244,239.375 Q484.8275,239.375 485.4682,239.5313 Q486.1244,239.6875 486.6869,239.9844 L486.6869,242.7031 Q486.0619,242.125 485.4682,241.8594 Q484.8744,241.5781 484.2494,241.5781 Q482.9057,241.5781 482.2182,242.6563 Q481.5307,243.7188 481.5307,245.8125 Q481.5307,247.9063 482.2182,248.9844 Q482.9057,250.0469 484.2494,250.0469 Q484.8744,250.0469 485.4682,249.7813 Q486.0619,249.5 486.6869,248.9219 L486.6869,251.6406 Z " fill="#000000"/><text fill="#000000" font-family="Verdana" font-size="14" lengthAdjust="spacing" textLength="172.5186" x="499.9889" y="250.8467">StepMessageSaveConfig</text><line style="stroke:#000000;stroke-width:1;" x1="452.5" x2="693.7256" y1="260" y2="260"/><text fill="#000000" font-family="Verdana" font-size="14" lengthAdjust="spacing" textLength="155.2031" x="457.5" y="276.9951">+templateVersion: str</text><text fill="#000000" font-family="Verdana" font-size="14" lengthAdjust="spacing" textLength="110.0586" x="457.5" y="293.292">+outputFile: str</text><text fill="#000000" font-family="Verdana" font-size="14" lengthAdjust="spacing" textLength="186.8672" x="457.5" y="309.5889">+stepReceiverNumber: int</text><text fill="#000000" font-family="Verdana" font-size="14" lengthAdjust="spacing" textLength="231.2256" x="457.5" y="325.8857">+maxFileWriterQueueRooms: int</text><text fill="#000000" font-family="Verdana" font-size="14" lengthAdjust="spacing" textLength="162.9414" x="457.5" y="342.1826">+reconnectInterval: int</text><text fill="#000000" font-family="Verdana" font-size="14" lengthAdjust="spacing" textLength="220.7803" x="457.5" y="358.4795">+stepBroker: StepBrokerConfig</text><text fill="#000000" font-family="Verdana" font-size="14" lengthAdjust="spacing" textLength="112.4102" x="457.5" y="374.7764">+log: LogConfig</text><line style="stroke:#000000;stroke-width:1;" x1="452.5" x2="693.7256" y1="382.0781" y2="382.0781"/><text fill="#000000" font-family="Verdana" font-size="14" lengthAdjust="spacing" textLength="101.9033" x="457.5" y="399.0732">+get_default()</text><text fill="#000000" font-family="Verdana" font-size="14" lengthAdjust="spacing" textLength="165.0811" x="457.5" y="415.3701">+model_validate_json()</text><text fill="#000000" font-family="Verdana" font-size="14" lengthAdjust="spacing" textLength="167.084" x="457.5" y="431.667">+print_config_schema()</text><text fill="#000000" font-family="Verdana" font-size="14" lengthAdjust="spacing" textLength="172.8945" x="457.5" y="447.9639">+print_config_example()</text></g><!--class StepLogger--><g class="entity" data-qualified-name="step_message_save.StepLogger" data-source-line="27" id="ent0004"><rect fill="#FFFFFF" height="76.5938" rx="2.5" ry="2.5" style="stroke:#000000;stroke-width:1;" width="164.0107" x="252" y="305"/><ellipse cx="290.0635" cy="319" fill="#FFFFFF" rx="9" ry="9" style="stroke:#000000;stroke-width:1;"/><path d="M293.0322,324.6406 Q292.4541,324.9375 291.8135,325.0781 Q291.1729,325.2344 290.4697,325.2344 Q287.9697,325.2344 286.6416,323.5938 Q285.3291,321.9375 285.3291,318.8125 Q285.3291,315.6875 286.6416,314.0313 Q287.9697,312.375 290.4697,312.375 Q291.1729,312.375 291.8135,312.5313 Q292.4697,312.6875 293.0322,312.9844 L293.0322,315.7031 Q292.4072,315.125 291.8135,314.8594 Q291.2197,314.5781 290.5947,314.5781 Q289.251,314.5781 288.5635,315.6563 Q287.876,316.7188 287.876,318.8125 Q287.876,320.9063 288.5635,321.9844 Q289.251,323.0469 290.5947,323.0469 Q291.2197,323.0469 291.8135,322.7813 Q292.4072,322.5 293.0322,321.9219 L293.0322,324.6406 Z " fill="#000000"/><text fill="#000000" font-family="Verdana" font-size="14" lengthAdjust="spacing" textLength="80.3838" x="307.5635" y="323.8467">StepLogger</text><line style="stroke:#000000;stroke-width:1;" x1="253" x2="415.0107" y1="333" y2="333"/><line style="stroke:#000000;stroke-width:1;" x1="253" x2="415.0107" y1="341" y2="341"/><text fill="#000000" font-family="Verdana" font-size="14" lengthAdjust="spacing" textLength="97.2412" x="258" y="357.9951">+get_logger()</text><text fill="#000000" font-family="Verdana" font-size="14" lengthAdjust="spacing" textLength="152.0107" x="258" y="374.292">+logger_force_write()</text></g><!--class StepMessageSaveError--><g class="entity" data-qualified-name="step_message_save.StepMessageSaveError" data-source-line="32" id="ent0005"><rect fill="#FFFFFF" height="44" rx="2.5" ry="2.5" style="stroke:#000000;stroke-width:1;" width="190.2783" x="27" y="321.5"/><ellipse cx="40" cy="335.5" fill="#FFFFFF" rx="9" ry="9" style="stroke:#000000;stroke-width:1;"/><path d="M42.9688,341.1406 Q42.3906,341.4375 41.75,341.5781 Q41.1094,341.7344 40.4063,341.7344 Q37.9063,341.7344 36.5781,340.0938 Q35.2656,338.4375 35.2656,335.3125 Q35.2656,332.1875 36.5781,330.5313 Q37.9063,328.875 40.4063,328.875 Q41.1094,328.875 41.75,329.0313 Q42.4063,329.1875 42.9688,329.4844 L42.9688,332.2031 Q42.3438,331.625 41.75,331.3594 Q41.1563,331.0781 40.5313,331.0781 Q39.1875,331.0781 38.5,332.1563 Q37.8125,333.2188 37.8125,335.3125 Q37.8125,337.4063 38.5,338.4844 Q39.1875,339.5469 40.5313,339.5469 Q41.1563,339.5469 41.75,339.2813 Q42.3438,339 42.9688,338.4219 L42.9688,341.1406 Z " fill="#000000"/><text fill="#000000" font-family="Verdana" font-size="14" lengthAdjust="spacing" textLength="162.2783" x="52" y="340.3467">StepMessageSaveError</text><line style="stroke:#000000;stroke-width:1;" x1="28" x2="216.2783" y1="349.5" y2="349.5"/><line style="stroke:#000000;stroke-width:1;" x1="28" x2="216.2783" y1="357.5" y2="357.5"/></g><!--class StepCliError--><g class="entity" data-qualified-name="step_message_save.StepCliError" data-source-line="33" id="ent0006"><rect fill="#FFFFFF" height="44" rx="2.5" ry="2.5" style="stroke:#000000;stroke-width:1;" width="112.1094" x="59" y="78.5"/><ellipse cx="72" cy="92.5" fill="#FFFFFF" rx="9" ry="9" style="stroke:#000000;stroke-width:1;"/><path d="M74.9688,98.1406 Q74.3906,98.4375 73.75,98.5781 Q73.1094,98.7344 72.4063,98.7344 Q69.9063,98.7344 68.5781,97.0938 Q67.2656,95.4375 67.2656,92.3125 Q67.2656,89.1875 68.5781,87.5313 Q69.9063,85.875 72.4063,85.875 Q73.1094,85.875 73.75,86.0313 Q74.4063,86.1875 74.9688,86.4844 L74.9688,89.2031 Q74.3438,88.625 73.75,88.3594 Q73.1563,88.0781 72.5313,88.0781 Q71.1875,88.0781 70.5,89.1563 Q69.8125,90.2188 69.8125,92.3125 Q69.8125,94.4063 70.5,95.4844 Q71.1875,96.5469 72.5313,96.5469 Q73.1563,96.5469 73.75,96.2813 Q74.3438,96 74.9688,95.4219 L74.9688,98.1406 Z " fill="#000000"/><text fill="#000000" font-family="Verdana" font-size="14" lengthAdjust="spacing" textLength="84.1094" x="84" y="97.3467">StepCliError</text><line style="stroke:#000000;stroke-width:1;" x1="60" x2="170.1094" y1="106.5" y2="106.5"/><line style="stroke:#000000;stroke-width:1;" x1="60" x2="170.1094" y1="114.5" y2="114.5"/></g><!--link StepCliError to StepMessageSaveError--><g class="link" data-entity-1="ent0006" data-entity-2="ent0005" data-link-type="extension" data-source-line="34" id="lnk7"><path codeLine="34" d="M115.62,122.89 C116.95,168.62 119.5263,257.4776 120.8563,303.1676" fill="none" id="StepCliError-to-StepMessageSaveError" style="stroke:#000000;stroke-width:1;"/><polygon fill="none" points="121.38,321.16,126.8537,302.993,114.8588,303.3422,121.38,321.16" style="stroke:#000000;stroke-width:1;stroke-linejoin:miter;stroke-miterlimit:10;"/></g><!--link StepBroker to StepMessageSaveConfig--><g class="link" data-entity-1="ent0002" data-entity-2="ent0003" data-link-type="dependency" data-source-line="37" id="lnk8"><path codeLine="37" d="M391.22,155.29 C413.18,177.9 436.0968,201.5029 461.8868,228.0629" fill="none" id="StepBroker-to-StepMessageSaveConfig" style="stroke:#000000;stroke-width:1;"/><polygon fill="#000000" points="465.37,231.65,461.97,222.4066,461.8868,228.0629,456.2306,227.9797,465.37,231.65" style="stroke:#000000;stroke-width:1;stroke-linejoin:miter;stroke-miterlimit:10;"/><text fill="#000000" font-family="Verdana" font-size="13" lengthAdjust="spacing" textLength="29.7832" x="436" y="198.0669">uses</text></g><!--link StepBroker to StepLogger--><g class="link" data-entity-1="ent0002" data-entity-2="ent0004" data-link-type="dependency" data-source-line="38" id="lnk9"><path codeLine="38" d="M337.88,155.29 C336.94,200.79 335.7133,259.8211 334.8833,299.9711" fill="none" id="StepBroker-to-StepLogger" style="stroke:#000000;stroke-width:1;"/><polygon fill="#000000" points="334.78,304.97,338.9652,296.0546,334.8833,299.9711,330.9669,295.8893,334.78,304.97" style="stroke:#000000;stroke-width:1;stroke-linejoin:miter;stroke-miterlimit:10;"/><text fill="#000000" font-family="Verdana" font-size="13" lengthAdjust="spacing" textLength="29.7832" x="338" y="198.0669">uses</text></g><!--link StepBroker to StepMessageSaveError--><g class="link" data-entity-1="ent0002" data-entity-2="ent0005" data-link-type="dependency" data-source-line="39" id="lnk10"><path codeLine="39" d="M290.57,155.29 C243.48,207.59 177.6857,280.6543 144.5057,317.5043" fill="none" id="StepBroker-to-StepMessageSaveError" style="stroke:#000000;stroke-width:1;"/><polygon fill="#000000" points="141.16,321.22,150.1548,317.2082,144.5057,317.5043,144.2096,311.8552,141.16,321.22" style="stroke:#000000;stroke-width:1;stroke-linejoin:miter;stroke-miterlimit:10;"/><text fill="#000000" font-family="Verdana" font-size="13" lengthAdjust="spacing" textLength="44.04" x="263" y="198.0669">throws</text></g><?plantuml-src TL9DRzim3BtxLsWzTHW2xEn3WQtOW03RW3R0TXGKvSNL8ai6IQNPrtyVNIUrtIQwaU-HV7ha6tb02zD55rB5kv0wHwurFZhc3o8KraMmz3cjmc-OzrNLERzp3SmL2phRWbaZoswFA_EdCcOeDIj5FrBUWOQildUEVoLlh7L80hBs-krhv13aDS1bpLwbmE80NoJaD5A2y4a6rsOf_FKOB7M8aqmzyLyrbtRah5JsRKxRq8mg1Qsw8VWEOXrK6nOwORb8L-HpY9YbUolkuH7se6-bNODg4vASuDOT-f8V55JHNK71VSujppW4zJZ1oxBtPk_Y3ELdD-k9iuFo4oVcfZPVSZFFDX2xmTQLAADbRTuWMXqIDlfH-vEdVdQaWwr_wcBPwtcu2o0EJgt2WBvqM9Kqq-NtGk9JRkmsn7QRoSC-zlQSxpNPrYUYOQCZUXl3StOQcyNYxytvUXqmET35ukR2KTIcCFWSz_YzouINCvKg3vGVkVeF?></g></svg>