<?xml version="1.0" encoding="us-ascii" standalone="no"?><svg xmlns="http://www.w3.org/2000/svg" xmlns:xlink="http://www.w3.org/1999/xlink" contentStyleType="text/css" height="728px" preserveAspectRatio="none" style="width:661px;height:728px;background:#FFFFFF;" version="1.1" viewBox="0 0 661 728" width="661px" zoomAndPan="magnify"><defs/><g><!--cluster Step Communication System--><g id="cluster_Step Communication System"><path d="M377.5,6 L576.5,6 A3.75,3.75 0 0 1 579,8.5 L586,29.6094 L586.5,29.6094 A2.5,2.5 0 0 1 589,32.1094 L589,103.5 A2.5,2.5 0 0 1 586.5,106 L377.5,106 A2.5,2.5 0 0 1 375,103.5 L375,8.5 A2.5,2.5 0 0 1 377.5,6 " fill="none" style="stroke:#000000;stroke-width:1.5;"/><line style="stroke:#000000;stroke-width:1.5;" x1="375" x2="586" y1="29.6094" y2="29.6094"/><text fill="#000000" font-family="sans-serif" font-size="14" font-weight="bold" lengthAdjust="spacing" textLength="198" x="379" y="22.5332">Step Communication System</text></g><!--cluster Step Elaboration System--><g id="cluster_Step Elaboration System"><path d="M8.5,234 L179.5,234 A3.75,3.75 0 0 1 182,236.5 L189,257.6094 L629.5,257.6094 A2.5,2.5 0 0 1 632,260.1094 L632,718.5 A2.5,2.5 0 0 1 629.5,721 L8.5,721 A2.5,2.5 0 0 1 6,718.5 L6,236.5 A2.5,2.5 0 0 1 8.5,234 " fill="none" style="stroke:#000000;stroke-width:1.5;"/><line style="stroke:#000000;stroke-width:1.5;" x1="6" x2="189" y1="257.6094" y2="257.6094"/><text fill="#000000" font-family="sans-serif" font-size="14" font-weight="bold" lengthAdjust="spacing" textLength="170" x="10" y="250.5332">Step Elaboration System</text></g><!--cluster Machine Learning--><g id="cluster_Machine Learning"><path d="M32.5,278 L159.5,278 A3.75,3.75 0 0 1 162,280.5 L169,301.6094 L175.5,301.6094 A2.5,2.5 0 0 1 178,304.1094 L178,694.5 A2.5,2.5 0 0 1 175.5,697 L32.5,697 A2.5,2.5 0 0 1 30,694.5 L30,280.5 A2.5,2.5 0 0 1 32.5,278 " fill="none" style="stroke:#000000;stroke-width:1.5;"/><line style="stroke:#000000;stroke-width:1.5;" x1="30" x2="169" y1="301.6094" y2="301.6094"/><text fill="#000000" font-family="sans-serif" font-size="14" font-weight="bold" lengthAdjust="spacing" textLength="126" x="34" y="294.5332">Machine Learning</text></g><!--entity step--><g id="elem_step"><rect fill="#F1F1F1" height="47.6094" rx="2.5" ry="2.5" style="stroke:#181818;stroke-width:0.5;" width="115" x="455.5" y="42"/><rect fill="#F1F1F1" height="10" style="stroke:#181818;stroke-width:0.5;" width="15" x="550.5" y="47"/><rect fill="#F1F1F1" height="2" style="stroke:#181818;stroke-width:0.5;" width="4" x="548.5" y="49"/><rect fill="#F1F1F1" height="2" style="stroke:#181818;stroke-width:0.5;" width="4" x="548.5" y="53"/><text fill="#000000" font-family="sans-serif" font-size="14" lengthAdjust="spacing" textLength="75" x="470.5" y="76.5332">Step Broker</text></g><!--entity client--><g id="elem_client"><rect fill="#F1F1F1" height="47.6094" rx="2.5" ry="2.5" style="stroke:#181818;stroke-width:0.5;" width="109" x="506.5" y="481.5"/><rect fill="#F1F1F1" height="10" style="stroke:#181818;stroke-width:0.5;" width="15" x="595.5" y="486.5"/><rect fill="#F1F1F1" height="2" style="stroke:#181818;stroke-width:0.5;" width="4" x="593.5" y="488.5"/><rect fill="#F1F1F1" height="2" style="stroke:#181818;stroke-width:0.5;" width="4" x="593.5" y="492.5"/><text fill="#000000" font-family="sans-serif" font-size="14" lengthAdjust="spacing" textLength="69" x="521.5" y="516.0332">Step Client</text></g><!--entity adapter--><g id="elem_adapter"><rect fill="#F1F1F1" height="47.6094" rx="2.5" ry="2.5" style="stroke:#181818;stroke-width:0.5;" width="123" x="194.5" y="481.5"/><rect fill="#F1F1F1" height="10" style="stroke:#181818;stroke-width:0.5;" width="15" x="297.5" y="486.5"/><rect fill="#F1F1F1" height="2" style="stroke:#181818;stroke-width:0.5;" width="4" x="295.5" y="488.5"/><rect fill="#F1F1F1" height="2" style="stroke:#181818;stroke-width:0.5;" width="4" x="295.5" y="492.5"/><text fill="#000000" font-family="sans-serif" font-size="14" lengthAdjust="spacing" textLength="83" x="209.5" y="516.0332">Step Adapter</text></g><!--entity producer--><g id="elem_producer"><rect fill="#F1F1F1" height="47.6094" rx="2.5" ry="2.5" style="stroke:#181818;stroke-width:0.5;" width="131" x="400.5" y="624.5"/><rect fill="#F1F1F1" height="10" style="stroke:#181818;stroke-width:0.5;" width="15" x="511.5" y="629.5"/><rect fill="#F1F1F1" height="2" style="stroke:#181818;stroke-width:0.5;" width="4" x="509.5" y="631.5"/><rect fill="#F1F1F1" height="2" style="stroke:#181818;stroke-width:0.5;" width="4" x="509.5" y="635.5"/><text fill="#000000" font-family="sans-serif" font-size="14" lengthAdjust="spacing" textLength="91" x="415.5" y="659.0332">Step Producer</text></g><!--entity trajectory--><g id="elem_trajectory"><rect fill="#F1F1F1" height="65.2188" rx="2.5" ry="2.5" style="stroke:#181818;stroke-width:0.5;" width="115" x="46.5" y="314"/><rect fill="#F1F1F1" height="10" style="stroke:#181818;stroke-width:0.5;" width="15" x="141.5" y="319"/><rect fill="#F1F1F1" height="2" style="stroke:#181818;stroke-width:0.5;" width="4" x="139.5" y="321"/><rect fill="#F1F1F1" height="2" style="stroke:#181818;stroke-width:0.5;" width="4" x="139.5" y="325"/><text fill="#000000" font-family="sans-serif" font-size="14" lengthAdjust="spacing" textLength="64" x="61.5" y="348.5332">Trajectory</text><text fill="#000000" font-family="sans-serif" font-size="14" lengthAdjust="spacing" textLength="75" x="61.5" y="366.1426">Forecasting</text></g><!--entity collision--><g id="elem_collision"><rect fill="#F1F1F1" height="65.2188" rx="2.5" ry="2.5" style="stroke:#181818;stroke-width:0.5;" width="106" x="51" y="616"/><rect fill="#F1F1F1" height="10" style="stroke:#181818;stroke-width:0.5;" width="15" x="137" y="621"/><rect fill="#F1F1F1" height="2" style="stroke:#181818;stroke-width:0.5;" width="4" x="135" y="623"/><rect fill="#F1F1F1" height="2" style="stroke:#181818;stroke-width:0.5;" width="4" x="135" y="627"/><text fill="#000000" font-family="sans-serif" font-size="14" lengthAdjust="spacing" textLength="66" x="66" y="650.5332">Avoidance</text><text fill="#000000" font-family="sans-serif" font-size="14" lengthAdjust="spacing" textLength="53" x="66" y="668.1426">Collision</text></g><!--entity data--><g id="elem_data"><rect fill="#F1F1F1" height="65.2188" rx="2.5" ry="2.5" style="stroke:#181818;stroke-width:0.5;" width="90" x="51" y="473"/><rect fill="#F1F1F1" height="10" style="stroke:#181818;stroke-width:0.5;" width="15" x="121" y="478"/><rect fill="#F1F1F1" height="2" style="stroke:#181818;stroke-width:0.5;" width="4" x="119" y="480"/><rect fill="#F1F1F1" height="2" style="stroke:#181818;stroke-width:0.5;" width="4" x="119" y="484"/><text fill="#000000" font-family="sans-serif" font-size="14" lengthAdjust="spacing" textLength="30" x="66" y="507.5332">Data</text><text fill="#000000" font-family="sans-serif" font-size="14" lengthAdjust="spacing" textLength="50" x="66" y="525.1426">Storage</text></g><!--entity messages--><g id="elem_messages"><ellipse cx="615" cy="66" fill="#F1F1F1" rx="8" ry="8" style="stroke:#181818;stroke-width:0.5;"/><text fill="#000000" font-family="sans-serif" font-size="14" lengthAdjust="spacing" textLength="79" x="575.5" y="97.5332">ASN.1 C-ITS</text></g><!--reverse link adapter to client--><g id="link_adapter_client"><path d="M322.97,505.5 C377.98,505.5 454.92,505.5 506.28,505.5 " fill="none" id="adapter-backto-client" style="stroke:#181818;stroke-width:1.0;"/><polygon fill="#181818" points="317.72,505.5,326.72,509.5,322.72,505.5,326.72,501.5,317.72,505.5" style="stroke:#181818;stroke-width:1.0;"/><text fill="#000000" font-family="sans-serif" font-size="13" lengthAdjust="spacing" textLength="152" x="336" y="498.9951">3. CAM,DENM,CPM,VAM</text></g><!--link client to producer--><g id="link_client_producer"><path d="M551.69,529.71 C544.63,546.1 534.11,568.2 522,586 C513.75,598.12 503.24,610.3 493.55,620.59 " fill="none" id="client-to-producer" style="stroke:#181818;stroke-width:1.0;"/><polygon fill="#181818" points="490.03,624.29,499.1342,620.5332,493.479,620.67,493.3422,615.0148,490.03,624.29" style="stroke:#181818;stroke-width:1.0;"/><text fill="#000000" font-family="sans-serif" font-size="13" lengthAdjust="spacing" textLength="53" x="533" y="582.4951">7. DENM</text></g><!--reverse link client to producer--><g id="link_client_producer"><path d="M501.72,528.84 C484.9,538.25 468.57,551.05 459,568 C449.32,585.13 452.54,607.72 457.32,624.44 " fill="none" id="client-backto-producer" style="stroke:#181818;stroke-width:1.0;"/><polygon fill="#181818" points="506.47,526.27,496.6496,527.0188,502.0686,528.6422,500.4452,534.0611,506.47,526.27" style="stroke:#181818;stroke-width:1.0;"/><text fill="#000000" font-family="sans-serif" font-size="13" lengthAdjust="spacing" textLength="53" x="460" y="582.4951">6. DENM</text></g><!--reverse link trajectory to adapter--><g id="link_trajectory_adapter"><path d="M138.26,382.89 C167.45,413.04 208.55,455.49 233.67,481.43 " fill="none" id="trajectory-backto-adapter" style="stroke:#181818;stroke-width:1.0;"/><polygon fill="#181818" points="134.76,379.27,138.1462,388.5184,138.2378,382.8623,143.8939,382.9539,134.76,379.27" style="stroke:#181818;stroke-width:1.0;"/><text fill="#000000" font-family="sans-serif" font-size="13" lengthAdjust="spacing" textLength="101" x="195" y="423.4951">4. Position points</text><text fill="#000000" font-family="sans-serif" font-size="13" lengthAdjust="spacing" textLength="29" x="231" y="439.8467">array</text></g><!--link trajectory to data--><g id="link_trajectory_data"><path d="M57.48,383.02 C50.36,390.75 44.05,399.5 40,409 C34.08,422.9 34.55,428.91 40,443 C43.56,452.2 49.21,460.88 55.59,468.65 " fill="none" id="trajectory-data" style="stroke:#181818;stroke-width:1.0;"/><polygon fill="#181818" points="61.03,379.31,51.9184,383.0489,57.5739,382.9232,57.6996,388.5787,61.03,379.31" style="stroke:#181818;stroke-width:1.0;"/><polygon fill="#181818" points="59.19,472.87,56.3904,463.4274,55.9443,469.0667,50.3051,468.6206,59.19,472.87" style="stroke:#181818;stroke-width:1.0;"/><text fill="#000000" font-family="sans-serif" font-size="13" lengthAdjust="spacing" textLength="64" x="41" y="431.4951">Query data</text></g><!--link data to collision--><g id="link_data_collision"><path d="M51.18,542.26 C40.31,555.32 33.46,570.66 40,586 C44.05,595.5 50.36,604.25 57.48,611.98 " fill="none" id="data-collision" style="stroke:#181818;stroke-width:1.0;"/><polygon fill="#181818" points="54.68,538.29,45.7354,542.4124,51.3804,542.0467,51.7461,547.6917,54.68,538.29" style="stroke:#181818;stroke-width:1.0;"/><polygon fill="#181818" points="61.03,615.69,57.6996,606.4213,57.5739,612.0768,51.9184,611.9511,61.03,615.69" style="stroke:#181818;stroke-width:1.0;"/><text fill="#000000" font-family="sans-serif" font-size="13" lengthAdjust="spacing" textLength="64" x="41" y="582.4951">Query data</text></g><!--reverse link producer to collision--><g id="link_producer_collision"><path d="M394.85,648.5 C324.96,648.5 219.9,648.5 157.03,648.5 " fill="none" id="producer-backto-collision" style="stroke:#181818;stroke-width:1.0;"/><polygon fill="#181818" points="400.24,648.5,391.24,644.5,395.24,648.5,391.24,652.5,400.24,648.5" style="stroke:#181818;stroke-width:1.0;"/><text fill="#000000" font-family="sans-serif" font-size="13" lengthAdjust="spacing" textLength="111" x="223.25" y="641.9951">5. Event forecasted</text></g><!--link step to messages--><g id="link_step_messages"><path d="M570.77,66 C579.04,66 587.31,66 595.58,66 " fill="none" id="step-to-messages" style="stroke:#181818;stroke-width:1.0;"/><path d="M602.5918,57.5428 A9,9 0 0 0 602.5918 74.4572" fill="none" style="stroke:#181818;stroke-width:1.5;"/></g><!--link step to client--><g id="link_step_client"><path d="M485.21,90.09 C455.06,118.1 412.63,167.85 424,218 C447.08,319.78 510.93,427.68 542.64,477.01 " fill="none" id="step-to-client" style="stroke:#181818;stroke-width:1.0;"/><polygon fill="#181818" points="545.42,481.31,543.8945,471.58,542.7061,477.1106,537.1755,475.9222,545.42,481.31" style="stroke:#181818;stroke-width:1.0;"/><text fill="#000000" font-family="sans-serif" font-size="13" lengthAdjust="spacing" textLength="76" x="454.5" y="198.4951">1. ASN.1 ITS</text><text fill="#000000" font-family="sans-serif" font-size="13" lengthAdjust="spacing" textLength="135" x="425" y="214.8467">CAN,DENM,CPM,VAM</text></g><!--reverse link step to client--><g id="link_step_client"><path d="M529.28,94.66 C541.83,117.68 558.16,151.79 565,184 C588.16,293.14 572.59,427.92 564.75,481.23 " fill="none" id="step-backto-client" style="stroke:#181818;stroke-width:1.0;"/><polygon fill="#181818" points="526.82,90.21,527.6561,100.0233,529.2312,94.5902,534.6644,96.1653,526.82,90.21" style="stroke:#181818;stroke-width:1.0;"/><text fill="#000000" font-family="sans-serif" font-size="13" lengthAdjust="spacing" textLength="76" x="571" y="198.4951">2. ASN.1 ITS</text><text fill="#000000" font-family="sans-serif" font-size="13" lengthAdjust="spacing" textLength="38" x="590" y="214.8467">DENM</text></g><!--SRC=[ZL9TIyCm57tlhxZqoOUrC3z1HAXrWc37fEABzU6QPZFQ9IN99aFstxrDcdKJ1FjGajnppZqdkK9QhkV8ECHPEKt7a2VtJsKCQ639ZS45Dr7K8lka5SIbvItaQhbSIS7G2YMXt1ZBbp5yHq3VYqFSQFN9zMidGiKsslwMc3JuflJV0daZkBHEWBdbNYshiRMzElhrNdMcLRrYVRdjDww-Sr0WUnUImmD7BOLSXDPEv4dZ1sTMwKqbxvJc38qbZ9Epkzg0pzPAr2WPhsIkcaOOYkHzXzs0lKMBbIn9W7muK4qdhhvrVvyLaeRFRN8Tqbr2V992dXMZsycq6EMpOlIS5V41erPVaXWXC54kKkZW7jOhxPI798GyJM6cZ72FqIeXhQaaQeqRpnsmS1NwTBw9-RZYTDfjUZSXCo5NxNzmmT2UyRCK9kikrBo_VbvxLi20r_RHYN0UacwZRjeWIRHOlDiaEHf6k2yu-_lSSGf-x6dewGMpwQyx3lVRjIHU9qEiumEMQ_u3]--></g></svg>