<svg xmlns="http://www.w3.org/2000/svg" xmlns:xlink="http://www.w3.org/1999/xlink" version="1.1" data-diagram-type="SEQUENCE" style="width:815px;height:531px;background:#FFFFFF;" width="815px" height="531px" viewBox="0 0 815 531" zoomAndPan="magnify" preserveAspectRatio="none" contentStyleType="text/css"><?plantuml 1.2026.7?><defs/><g font-family="sans-serif" lengthAdjust="spacing"><rect x="472.958" y="69.594" width="322.215" height="56.266" fill="none" style="stroke:#000;stroke-width:1.5;"/><rect x="72.33" y="143.859" width="648.801" height="304.867" fill="none" style="stroke:#000;stroke-width:1.5;"/><rect x="232.785" y="233.258" width="463.345" height="201.469" fill="none" style="stroke:#000;stroke-width:1.5;"/><g><title>Health-check thread</title><rect x="84.83" y="57.594" width="8" height="415.133" fill="#000" fill-opacity="0"/><line x1="88.33" y1="57.594" x2="88.33" y2="472.727" style="stroke:#181818;stroke-width:0.5;stroke-dasharray:5,5;"/></g><g><title>PublishWorkerPool</title><rect x="245.285" y="57.594" width="8" height="415.133" fill="#000" fill-opacity="0"/><line x1="248.785" y1="57.594" x2="248.785" y2="472.727" style="stroke:#181818;stroke-width:0.5;stroke-dasharray:5,5;"/></g><g><title>Shared heartbeat</title><rect x="485.458" y="57.594" width="8" height="415.133" fill="#000" fill-opacity="0"/><line x1="488.958" y1="57.594" x2="488.958" y2="472.727" style="stroke:#181818;stroke-width:0.5;stroke-dasharray:5,5;"/></g><g><title>PublishWorker</title><rect x="676.63" y="57.594" width="8" height="415.133" fill="#000" fill-opacity="0"/><line x1="680.13" y1="57.594" x2="680.13" y2="472.727" style="stroke:#181818;stroke-width:0.5;stroke-dasharray:5,5;"/></g><rect x="10" y="26.297" width="156.659" height="30.297" fill="#E2E2F0" style="stroke:#181818;stroke-width:0.5;" rx="2.5" ry="2.5"/><text x="17" y="46.292" fill="#000" font-size="14" textLength="142.659">Health-check thread</text><rect x="176.659" y="26.297" width="144.252" height="30.297" fill="#E2E2F0" style="stroke:#181818;stroke-width:0.5;" rx="2.5" ry="2.5"/><text x="183.659" y="46.292" fill="#000" font-size="14" textLength="130.252">PublishWorkerPool</text><rect x="398.738" y="10" width="180.441" height="46.594" fill="#E2E2F0" style="stroke:#181818;stroke-width:0.5;" rx="2.5" ry="2.5"/><text x="427.497" y="29.995" fill="#000" font-size="14" textLength="122.924">Shared heartbeat</text><text x="405.738" y="46.292" fill="#000" font-size="14" textLength="166.441">(multiprocessing.Value)</text><rect x="611.275" y="10" width="137.71" height="46.594" fill="#E2E2F0" style="stroke:#181818;stroke-width:0.5;" rx="2.5" ry="2.5"/><text x="629.736" y="29.995" fill="#000" font-size="14" textLength="100.789">PublishWorker</text><text x="618.275" y="46.292" fill="#000" font-size="14" textLength="123.71">(_heartbeat_loop)</text><rect x="10" y="472.727" width="156.659" height="30.297" fill="#E2E2F0" style="stroke:#181818;stroke-width:0.5;" rx="2.5" ry="2.5"/><text x="17" y="492.722" fill="#000" font-size="14" textLength="142.659">Health-check thread</text><rect x="176.659" y="472.727" width="144.252" height="30.297" fill="#E2E2F0" style="stroke:#181818;stroke-width:0.5;" rx="2.5" ry="2.5"/><text x="183.659" y="492.722" fill="#000" font-size="14" textLength="130.252">PublishWorkerPool</text><rect x="398.738" y="472.727" width="180.441" height="46.594" fill="#E2E2F0" style="stroke:#181818;stroke-width:0.5;" rx="2.5" ry="2.5"/><text x="427.497" y="492.722" fill="#000" font-size="14" textLength="122.924">Shared heartbeat</text><text x="405.738" y="509.019" fill="#000" font-size="14" textLength="166.441">(multiprocessing.Value)</text><rect x="611.275" y="472.727" width="137.71" height="46.594" fill="#E2E2F0" style="stroke:#181818;stroke-width:0.5;" rx="2.5" ry="2.5"/><text x="629.736" y="492.722" fill="#000" font-size="14" textLength="100.789">PublishWorker</text><text x="618.275" y="509.019" fill="#000" font-size="14" textLength="123.71">(_heartbeat_loop)</text><path d="M472.958,69.594 L549.583,69.594 L549.583,76.727 L539.583,86.727 L472.958,86.727 L472.958,69.594" style="stroke:#000;stroke-width:1.5;" fill="#EEE"/><rect x="472.958" y="69.594" width="322.215" height="56.266" fill="none" style="stroke:#000;stroke-width:1.5;"/><text x="487.958" y="82.661" fill="#000" font-size="13" textLength="31.624" font-weight="700">loop</text><text x="564.583" y="81.804" fill="#000" font-size="11" textLength="214.591" font-weight="700">[every publish_heartbeat_interval]</text><polygon points="499.958,113.859,489.958,117.859,499.958,121.859,495.958,117.859" fill="#181818" style="stroke:#181818;stroke-width:1;stroke-linejoin:miter;stroke-miterlimit:10;"/><line x1="493.958" y1="117.859" x2="679.13" y2="117.859" style="stroke:#181818;stroke-width:1;"/><text x="505.958" y="112.793" fill="#000" font-size="13" textLength="167.172">value = time.monotonic()</text><path d="M72.33,143.859 L148.954,143.859 L148.954,150.992 L138.954,160.992 L72.33,160.992 L72.33,143.859" style="stroke:#000;stroke-width:1.5;" fill="#EEE"/><rect x="72.33" y="143.859" width="648.801" height="304.867" fill="none" style="stroke:#000;stroke-width:1.5;"/><text x="87.33" y="156.926" fill="#000" font-size="13" textLength="31.624" font-weight="700">loop</text><text x="163.954" y="156.07" fill="#000" font-size="11" textLength="233.9" font-weight="700">[every publish_health_check_interval]</text><polygon points="236.785,188.125,246.785,192.125,236.785,196.125,240.785,192.125" fill="#181818" style="stroke:#181818;stroke-width:1;stroke-linejoin:miter;stroke-miterlimit:10;"/><line x1="88.33" y1="192.125" x2="242.785" y2="192.125" style="stroke:#181818;stroke-width:1;"/><text x="95.33" y="187.059" fill="#000" font-size="13" textLength="95.856">check_health()</text><polygon points="476.958,217.258,486.958,221.258,476.958,225.258,480.958,221.258" fill="#181818" style="stroke:#181818;stroke-width:1;stroke-linejoin:miter;stroke-miterlimit:10;"/><line x1="248.785" y1="221.258" x2="482.958" y2="221.258" style="stroke:#181818;stroke-width:1;"/><text x="255.785" y="216.192" fill="#000" font-size="13" textLength="75.29">now - value</text><path d="M232.785,233.258 L297.228,233.258 L297.228,240.391 L287.228,250.391 L232.785,250.391 L232.785,233.258" style="stroke:#000;stroke-width:1.5;" fill="#EEE"/><rect x="232.785" y="233.258" width="463.345" height="201.469" fill="none" style="stroke:#000;stroke-width:1.5;"/><text x="247.785" y="246.325" fill="#000" font-size="13" textLength="19.443" font-weight="700">alt</text><text x="312.228" y="245.468" fill="#000" font-size="11" textLength="264.87" font-weight="700">[now - value > publish_heartbeat_timeout]</text><line x1="248.785" y1="281.523" x2="290.785" y2="281.523" style="stroke:#181818;stroke-width:1;"/><line x1="290.785" y1="281.523" x2="290.785" y2="294.523" style="stroke:#181818;stroke-width:1;"/><line x1="249.785" y1="294.523" x2="290.785" y2="294.523" style="stroke:#181818;stroke-width:1;"/><polygon points="259.785,290.523,249.785,294.523,259.785,298.523,255.785,294.523" fill="#181818" style="stroke:#181818;stroke-width:1;stroke-linejoin:miter;stroke-miterlimit:10;"/><text x="255.785" y="276.458" fill="#000" font-size="13" textLength="226.173">worker_index in blocked_workers()</text><polygon points="668.13,319.656,678.13,323.656,668.13,327.656,672.13,323.656" fill="#181818" style="stroke:#181818;stroke-width:1;stroke-linejoin:miter;stroke-miterlimit:10;"/><line x1="248.785" y1="323.656" x2="674.13" y2="323.656" style="stroke:#181818;stroke-width:1;"/><text x="255.785" y="318.59" fill="#000" font-size="13" textLength="115.312">terminate() / kill()</text><line x1="248.785" y1="352.789" x2="290.785" y2="352.789" style="stroke:#181818;stroke-width:1;"/><line x1="290.785" y1="352.789" x2="290.785" y2="365.789" style="stroke:#181818;stroke-width:1;"/><line x1="249.785" y1="365.789" x2="290.785" y2="365.789" style="stroke:#181818;stroke-width:1;"/><polygon points="259.785,361.789,249.785,365.789,259.785,369.789,255.785,365.789" fill="#181818" style="stroke:#181818;stroke-width:1;stroke-linejoin:miter;stroke-miterlimit:10;"/><text x="255.785" y="347.723" fill="#000" font-size="13" textLength="198.663">_restart_worker(worker_index)</text><line x1="232.785" y1="374.789" x2="696.13" y2="374.789" style="stroke:#000;stroke-width:1;stroke-dasharray:2,2;"/><text x="237.785" y="387" fill="#000" font-size="11" textLength="42.104" font-weight="700">[fresh]</text><line x1="248.785" y1="413.727" x2="290.785" y2="413.727" style="stroke:#181818;stroke-width:1;"/><line x1="290.785" y1="413.727" x2="290.785" y2="426.727" style="stroke:#181818;stroke-width:1;"/><line x1="249.785" y1="426.727" x2="290.785" y2="426.727" style="stroke:#181818;stroke-width:1;"/><polygon points="259.785,422.727,249.785,426.727,259.785,430.727,255.785,426.727" fill="#181818" style="stroke:#181818;stroke-width:1;stroke-linejoin:miter;stroke-miterlimit:10;"/><text x="255.785" y="408.661" fill="#000" font-size="13" textLength="173.481">worker considered healthy</text><?plantuml-src VL9DQuD04BtxAuQSz61w5vf3Jpq62kcb8EiwxIwkExAxckRVTzP9Yu4qWY1ltiVCmqc5PBMTb4-mUqNbagcrGJr0CW5LlmCLGV1YsdAFS-TiDEyK1Wn78hSoyySjxyseW3qOPB13bJvyESuksIcGnXYj_zgVb9knagIN1oaiRVzyMaSqYKYcHP4Hm0N31IRHRUZM9moBSWNm8mge3npOm9BpuHcI7N4_agT4tkgoAj3t_xbo7-tQqwsnD9MDSnCD24NuR9WfUV2RxEaCjUIlCwPjCJZSEIHlINDQ-Li_2Jolb_5IFNw3zT0vqWFshU3nkiDM9rqqm5UCrgk4PGLFC5Zdxf0bf0qO4-zpTIsteQ915n4-cMOUxWcQVBGzNlyGBkaYSYwUtny0?></g></svg>