<?xml version="1.0" encoding="us-ascii" standalone="no"?><svg xmlns="http://www.w3.org/2000/svg" xmlns:xlink="http://www.w3.org/1999/xlink" contentStyleType="text/css" height="364px" preserveAspectRatio="none" style="width:715px;height:364px;background:#FFFFFF;" version="1.1" viewBox="0 0 715 364" width="715px" zoomAndPan="magnify"><defs/><g><line style="stroke:#181818;stroke-width:0.5;stroke-dasharray:5.0,5.0;" x1="50" x2="50" y1="37.6094" y2="327.4766"/><line style="stroke:#181818;stroke-width:0.5;stroke-dasharray:5.0,5.0;" x1="193" x2="193" y1="37.6094" y2="327.4766"/><line style="stroke:#181818;stroke-width:0.5;stroke-dasharray:5.0,5.0;" x1="338" x2="338" y1="37.6094" y2="327.4766"/><line style="stroke:#181818;stroke-width:0.5;stroke-dasharray:5.0,5.0;" x1="588.5" x2="588.5" y1="37.6094" y2="327.4766"/><rect fill="#E2E2F0" height="31.6094" rx="2.5" ry="2.5" style="stroke:#181818;stroke-width:0.5;" width="90" x="5" y="5"/><text fill="#000000" font-family="sans-serif" font-size="14" lengthAdjust="spacing" textLength="76" x="12" y="26.5332">STEP Client</text><rect fill="#E2E2F0" height="31.6094" rx="2.5" ry="2.5" style="stroke:#181818;stroke-width:0.5;" width="90" x="5" y="326.4766"/><text fill="#000000" font-family="sans-serif" font-size="14" lengthAdjust="spacing" textLength="76" x="12" y="348.0098">STEP Client</text><rect fill="#E2E2F0" height="31.6094" rx="2.5" ry="2.5" style="stroke:#181818;stroke-width:0.5;" width="174" x="106" y="5"/><text fill="#000000" font-family="sans-serif" font-size="14" lengthAdjust="spacing" textLength="160" x="113" y="26.5332">StepAdapterRedisStream</text><rect fill="#E2E2F0" height="31.6094" rx="2.5" ry="2.5" style="stroke:#181818;stroke-width:0.5;" width="174" x="106" y="326.4766"/><text fill="#000000" font-family="sans-serif" font-size="14" lengthAdjust="spacing" textLength="160" x="113" y="348.0098">StepAdapterRedisStream</text><rect fill="#E2E2F0" height="31.6094" rx="2.5" ry="2.5" style="stroke:#181818;stroke-width:0.5;" width="96" x="290" y="5"/><text fill="#000000" font-family="sans-serif" font-size="14" lengthAdjust="spacing" textLength="82" x="297" y="26.5332">ActorDataset</text><rect fill="#E2E2F0" height="31.6094" rx="2.5" ry="2.5" style="stroke:#181818;stroke-width:0.5;" width="96" x="290" y="326.4766"/><text fill="#000000" font-family="sans-serif" font-size="14" lengthAdjust="spacing" textLength="82" x="297" y="348.0098">ActorDataset</text><rect fill="#E2E2F0" height="31.6094" rx="2.5" ry="2.5" style="stroke:#181818;stroke-width:0.5;" width="95" x="541.5" y="5"/><text fill="#000000" font-family="sans-serif" font-size="14" lengthAdjust="spacing" textLength="81" x="548.5" y="26.5332">PointDataset</text><rect fill="#E2E2F0" height="31.6094" rx="2.5" ry="2.5" style="stroke:#181818;stroke-width:0.5;" width="95" x="541.5" y="326.4766"/><text fill="#000000" font-family="sans-serif" font-size="14" lengthAdjust="spacing" textLength="81" x="548.5" y="348.0098">PointDataset</text><polygon fill="#181818" points="181,65.9609,191,69.9609,181,73.9609,185,69.9609" style="stroke:#181818;stroke-width:1.0;"/><line style="stroke:#181818;stroke-width:1.0;" x1="50" x2="187" y1="69.9609" y2="69.9609"/><text fill="#000000" font-family="sans-serif" font-size="13" lengthAdjust="spacing" textLength="119" x="57" y="65.1045">CAM/CPM Message</text><polygon fill="#181818" points="326,96.3125,336,100.3125,326,104.3125,330,100.3125" style="stroke:#181818;stroke-width:1.0;"/><line style="stroke:#181818;stroke-width:1.0;" x1="193" x2="332" y1="100.3125" y2="100.3125"/><text fill="#000000" font-family="sans-serif" font-size="13" lengthAdjust="spacing" textLength="78" x="200" y="95.4561">Position Data</text><polygon fill="#181818" points="577,126.6641,587,130.6641,577,134.6641,581,130.6641" style="stroke:#181818;stroke-width:1.0;"/><line style="stroke:#181818;stroke-width:1.0;" x1="338" x2="583" y1="130.6641" y2="130.6641"/><text fill="#000000" font-family="sans-serif" font-size="13" lengthAdjust="spacing" textLength="64" x="345" y="125.8076">add_point()</text><path d="M470,143.6641 L470,251.6641 L708,251.6641 L708,153.6641 L698,143.6641 L470,143.6641 " fill="#FEFFDD" style="stroke:#181818;stroke-width:0.5;"/><path d="M698,143.6641 L698,153.6641 L708,153.6641 L698,143.6641 " fill="#FEFFDD" style="stroke:#181818;stroke-width:0.5;"/><text fill="#000000" font-family="sans-serif" font-size="13" lengthAdjust="spacing" textLength="129" x="476" y="162.1592">Validate position data,</text><text fill="#000000" font-family="sans-serif" font-size="13" lengthAdjust="spacing" textLength="134" x="476" y="178.5107">update actor metadata,</text><text fill="#000000" font-family="sans-serif" font-size="13" lengthAdjust="spacing" textLength="178" x="476" y="194.8623">apply cubic spline interpolation</text><text fill="#000000" font-family="sans-serif" font-size="13" lengthAdjust="spacing" textLength="156" x="476" y="211.2139">using SciPy's CubicSpline,</text><text fill="#000000" font-family="sans-serif" font-size="13" lengthAdjust="spacing" textLength="198" x="476" y="227.5654">generate smooth trajectory points,</text><text fill="#000000" font-family="sans-serif" font-size="13" lengthAdjust="spacing" textLength="217" x="476" y="243.917">append received position as last point</text><polygon fill="#181818" points="349,275.125,339,279.125,349,283.125,345,279.125" style="stroke:#181818;stroke-width:1.0;"/><line style="stroke:#181818;stroke-width:1.0;" x1="343" x2="588" y1="279.125" y2="279.125"/><text fill="#000000" font-family="sans-serif" font-size="13" lengthAdjust="spacing" textLength="227" x="355" y="274.2686">Interpolated Points + Received Position</text><polygon fill="#181818" points="204,305.4766,194,309.4766,204,313.4766,200,309.4766" style="stroke:#181818;stroke-width:1.0;"/><line style="stroke:#181818;stroke-width:1.0;" x1="198" x2="337" y1="309.4766" y2="309.4766"/><text fill="#000000" font-family="sans-serif" font-size="13" lengthAdjust="spacing" textLength="82" x="210" y="304.6201">Position Array</text><!--SRC=[PP5FImGn3CNl_HHXBoegtZq8m-Z1myBWY5U9qp1cwRIbpIxCjxVj_h5bRstUh- -bYSSWFB57Ax0PFzy6w0sJbGrWF1sLRnWXtsdqGk63DCTH0k5IyEhUlkacSU4L1ICTZUj2YmwEhTHeNL3gs14yljHXy0nzjttgXoriAKQSITLgWkkyH0ykih2pa4kg4HDS9oOOjVxskNHxfwmJ0dUWqBO505zeM6DI_TaxtV0XItjV1Cmni93WHK7lpGhJ_eSdYDwm9KYk5Bmpc3tAwyXsXd7YORr96ydiMD3YC9EbaDtZufpyWWJSKGvQeVGSppbaDGIQY0-a_tjCypKOvSYgpEGVgcO2r-Dxl_IOl0eRuJujvEH-dkxLODkLNPRGXO3h7m00]--></g></svg>