<?xml version="1.0" encoding="us-ascii" standalone="no"?><svg xmlns="http://www.w3.org/2000/svg" xmlns:xlink="http://www.w3.org/1999/xlink" contentStyleType="text/css" height="559px" preserveAspectRatio="none" style="width:1088px;height:559px;background:#FFFFFF;" version="1.1" viewBox="0 0 1088 559" width="1088px" zoomAndPan="magnify"><defs/><g><!--cluster STEP Adapter--><g id="cluster_STEP Adapter"><path d="M8.5,6 L103.5,6 A3.75,3.75 0 0 1 106,8.5 L113,29.6094 L1078.5,29.6094 A2.5,2.5 0 0 1 1081,32.1094 L1081,549.5 A2.5,2.5 0 0 1 1078.5,552 L8.5,552 A2.5,2.5 0 0 1 6,549.5 L6,8.5 A2.5,2.5 0 0 1 8.5,6 " fill="none" style="stroke:#000000;stroke-width:1.5;"/><line style="stroke:#000000;stroke-width:1.5;" x1="6" x2="113" y1="29.6094" y2="29.6094"/><text fill="#000000" font-family="sans-serif" font-size="14" font-weight="bold" lengthAdjust="spacing" textLength="94" x="10" y="22.5332">STEP Adapter</text></g><!--cluster Position Processing--><g id="cluster_Position Processing"><path d="M32.5,50 L173.5,50 A3.75,3.75 0 0 1 176,52.5 L183,73.6094 L410.5,73.6094 A2.5,2.5 0 0 1 413,76.1094 L413,421.5 A2.5,2.5 0 0 1 410.5,424 L32.5,424 A2.5,2.5 0 0 1 30,421.5 L30,52.5 A2.5,2.5 0 0 1 32.5,50 " fill="none" style="stroke:#000000;stroke-width:1.5;"/><line style="stroke:#000000;stroke-width:1.5;" x1="30" x2="183" y1="73.6094" y2="73.6094"/><text fill="#000000" font-family="sans-serif" font-size="14" font-weight="bold" lengthAdjust="spacing" textLength="140" x="34" y="66.5332">Position Processing</text></g><!--cluster Redis Proxy--><g id="cluster_Redis Proxy"><path d="M644.5,198 L728.5,198 A3.75,3.75 0 0 1 731,200.5 L738,221.6094 L1054.5,221.6094 A2.5,2.5 0 0 1 1057,224.1094 L1057,421.5 A2.5,2.5 0 0 1 1054.5,424 L644.5,424 A2.5,2.5 0 0 1 642,421.5 L642,200.5 A2.5,2.5 0 0 1 644.5,198 " fill="none" style="stroke:#000000;stroke-width:1.5;"/><line style="stroke:#000000;stroke-width:1.5;" x1="642" x2="738" y1="221.6094" y2="221.6094"/><text fill="#000000" font-family="sans-serif" font-size="14" font-weight="bold" lengthAdjust="spacing" textLength="83" x="646" y="214.5332">Redis Proxy</text></g><!--entity Config--><g id="elem_Config"><rect fill="#F1F1F1" height="47.6094" rx="2.5" ry="2.5" style="stroke:#181818;stroke-width:0.5;" width="160" x="429" y="234"/><rect fill="#F1F1F1" height="10" style="stroke:#181818;stroke-width:0.5;" width="15" x="569" y="239"/><rect fill="#F1F1F1" height="2" style="stroke:#181818;stroke-width:0.5;" width="4" x="567" y="241"/><rect fill="#F1F1F1" height="2" style="stroke:#181818;stroke-width:0.5;" width="4" x="567" y="245"/><text fill="#000000" font-family="sans-serif" font-size="14" lengthAdjust="spacing" textLength="120" x="444" y="268.5332">StepAdapterConfig</text></g><!--entity Logger--><g id="elem_Logger"><rect fill="#F1F1F1" height="47.6094" rx="2.5" ry="2.5" style="stroke:#181818;stroke-width:0.5;" width="114" x="410" y="488"/><rect fill="#F1F1F1" height="10" style="stroke:#181818;stroke-width:0.5;" width="15" x="504" y="493"/><rect fill="#F1F1F1" height="2" style="stroke:#181818;stroke-width:0.5;" width="4" x="502" y="495"/><rect fill="#F1F1F1" height="2" style="stroke:#181818;stroke-width:0.5;" width="4" x="502" y="499"/><text fill="#000000" font-family="sans-serif" font-size="14" lengthAdjust="spacing" textLength="74" x="425" y="522.5332">StepLogger</text></g><!--entity AD--><g id="elem_AD"><rect fill="#F1F1F1" height="47.6094" rx="2.5" ry="2.5" style="stroke:#181818;stroke-width:0.5;" width="122" x="275" y="86"/><rect fill="#F1F1F1" height="10" style="stroke:#181818;stroke-width:0.5;" width="15" x="377" y="91"/><rect fill="#F1F1F1" height="2" style="stroke:#181818;stroke-width:0.5;" width="4" x="375" y="93"/><rect fill="#F1F1F1" height="2" style="stroke:#181818;stroke-width:0.5;" width="4" x="375" y="97"/><text fill="#000000" font-family="sans-serif" font-size="14" lengthAdjust="spacing" textLength="82" x="290" y="120.5332">ActorDataset</text></g><!--entity PD--><g id="elem_PD"><rect fill="#F1F1F1" height="47.6094" rx="2.5" ry="2.5" style="stroke:#181818;stroke-width:0.5;" width="121" x="232.5" y="234"/><rect fill="#F1F1F1" height="10" style="stroke:#181818;stroke-width:0.5;" width="15" x="333.5" y="239"/><rect fill="#F1F1F1" height="2" style="stroke:#181818;stroke-width:0.5;" width="4" x="331.5" y="241"/><rect fill="#F1F1F1" height="2" style="stroke:#181818;stroke-width:0.5;" width="4" x="331.5" y="245"/><text fill="#000000" font-family="sans-serif" font-size="14" lengthAdjust="spacing" textLength="81" x="247.5" y="268.5332">PointDataset</text></g><!--entity PI--><g id="elem_PI"><rect fill="#F1F1F1" height="47.6094" rx="2.5" ry="2.5" style="stroke:#181818;stroke-width:0.5;" width="150" x="46" y="360"/><rect fill="#F1F1F1" height="10" style="stroke:#181818;stroke-width:0.5;" width="15" x="176" y="365"/><rect fill="#F1F1F1" height="2" style="stroke:#181818;stroke-width:0.5;" width="4" x="174" y="367"/><rect fill="#F1F1F1" height="2" style="stroke:#181818;stroke-width:0.5;" width="4" x="174" y="371"/><text fill="#000000" font-family="sans-serif" font-size="14" lengthAdjust="spacing" textLength="110" x="61" y="394.5332">PointInterpolation</text></g><g id="elem_GMN7"><path d="M56.5,88.5 L56.5,131.2031 A0,0 0 0 0 56.5,131.2031 L239.5,131.2031 A0,0 0 0 0 239.5,131.2031 L239.5,114 L274.75,110 L239.5,106 L239.5,98.5 L229.5,88.5 L56.5,88.5 A0,0 0 0 0 56.5,88.5 " fill="#FEFFDD" style="stroke:#181818;stroke-width:0.5;"/><path d="M229.5,88.5 L229.5,98.5 L239.5,98.5 L229.5,88.5 " fill="#FEFFDD" style="stroke:#181818;stroke-width:0.5;"/><text fill="#000000" font-family="sans-serif" font-size="13" lengthAdjust="spacing" textLength="162" x="62.5" y="106.9951">Multi-actor coordination with</text><text fill="#000000" font-family="sans-serif" font-size="13" lengthAdjust="spacing" textLength="102" x="62.5" y="123.3467">temporal indexing</text></g><g id="elem_GMN10"><path d="M231,362.5 L231,380 L196.01,384 L231,388 L231,405.2031 A0,0 0 0 0 231,405.2031 L397,405.2031 A0,0 0 0 0 397,405.2031 L397,372.5 L387,362.5 L231,362.5 A0,0 0 0 0 231,362.5 " fill="#FEFFDD" style="stroke:#181818;stroke-width:0.5;"/><path d="M387,362.5 L387,372.5 L397,372.5 L387,362.5 " fill="#FEFFDD" style="stroke:#181818;stroke-width:0.5;"/><text fill="#000000" font-family="sans-serif" font-size="13" lengthAdjust="spacing" textLength="145" x="237" y="380.9951">Cubic spline interpolation</text><text fill="#000000" font-family="sans-serif" font-size="13" lengthAdjust="spacing" textLength="136" x="237" y="397.3467">for trajectory smoothing</text></g><!--entity AdapterRedisPool--><g id="elem_AdapterRedisPool"><rect fill="#F1F1F1" height="47.6094" rx="2.5" ry="2.5" style="stroke:#181818;stroke-width:0.5;" width="183" x="658.5" y="360"/><rect fill="#F1F1F1" height="10" style="stroke:#181818;stroke-width:0.5;" width="15" x="821.5" y="365"/><rect fill="#F1F1F1" height="2" style="stroke:#181818;stroke-width:0.5;" width="4" x="819.5" y="367"/><rect fill="#F1F1F1" height="2" style="stroke:#181818;stroke-width:0.5;" width="4" x="819.5" y="371"/><text fill="#000000" font-family="sans-serif" font-size="14" lengthAdjust="spacing" textLength="143" x="673.5" y="394.5332">StepAdapterRedisPool</text></g><!--entity AdapterRedisStream--><g id="elem_AdapterRedisStream"><rect fill="#F1F1F1" height="47.6094" rx="2.5" ry="2.5" style="stroke:#181818;stroke-width:0.5;" width="200" x="661" y="234"/><rect fill="#F1F1F1" height="10" style="stroke:#181818;stroke-width:0.5;" width="15" x="841" y="239"/><rect fill="#F1F1F1" height="2" style="stroke:#181818;stroke-width:0.5;" width="4" x="839" y="241"/><rect fill="#F1F1F1" height="2" style="stroke:#181818;stroke-width:0.5;" width="4" x="839" y="245"/><text fill="#000000" font-family="sans-serif" font-size="14" lengthAdjust="spacing" textLength="160" x="676" y="268.5332">StepAdapterRedisStream</text></g><g id="elem_GMN16"><path d="M877,362.5 L877,405.2031 L1041,405.2031 L1041,372.5 L1031,362.5 L877,362.5 " fill="#FEFFDD" style="stroke:#181818;stroke-width:0.5;"/><path d="M1031,362.5 L1031,372.5 L1041,372.5 L1031,362.5 " fill="#FEFFDD" style="stroke:#181818;stroke-width:1.0;"/><text fill="#000000" font-family="sans-serif" font-size="13" lengthAdjust="spacing" textLength="104" x="883" y="380.9951">Redis Streams for</text><text fill="#000000" font-family="sans-serif" font-size="13" lengthAdjust="spacing" textLength="143" x="883" y="397.3467">ITS message processing</text></g><!--link AdapterRedisStream to GMN16--><g id="link_AdapterRedisStream_GMN16"><path d="M831.95,282.09 C851.59,290.07 872.35,300.06 890,312 C910.64,325.96 930.04,346.89 942.98,362.41 " fill="none" id="AdapterRedisStream-GMN16" style="stroke:#181818;stroke-width:1.0;stroke-dasharray:7.0,7.0;"/></g><!--link AD to PD--><g id="link_AD_PD"><path d="M274.83,131.1 C240.58,142.97 203.79,157.01 199,164 C180.64,190.79 211.29,216.38 242.39,233.91 " fill="none" id="AD-PD" style="stroke:#181818;stroke-width:1.0;"/><text fill="#000000" font-family="sans-serif" font-size="13" lengthAdjust="spacing" textLength="102" x="200" y="178.4951">manages multiple</text></g><!--link PD to PI--><g id="link_PD_PI"><path d="M232.41,265.1 C173.73,272.41 90.79,286.92 71,312 C58.76,327.5 72.14,345.73 88.13,359.84 " fill="none" id="PD-PI" style="stroke:#181818;stroke-width:1.0;"/><text fill="#000000" font-family="sans-serif" font-size="13" lengthAdjust="spacing" textLength="130" x="72" y="326.4951">delegates interpolation</text></g><!--link AD to AdapterRedisStream--><g id="link_AD_AdapterRedisStream"><path d="M397.3,115.81 C481.31,123.21 627.15,139.19 674,164 C704.87,180.35 730.77,211.94 746.08,233.74 " fill="none" id="AD-AdapterRedisStream" style="stroke:#181818;stroke-width:1.0;"/><text fill="#000000" font-family="sans-serif" font-size="13" lengthAdjust="spacing" textLength="144" x="700" y="178.4951">publishes position arrays</text></g><!--link AD to Logger--><g id="link_AD_Logger"><path d="M397.23,120.15 C469.21,132.31 582.04,156.27 607,190 C631.32,222.87 627.87,246.84 607,282 C592.79,305.94 566.51,288.24 552,312 C545.05,323.38 554.37,419.79 549,432 C539.05,454.62 519.26,473.98 501.62,487.88 " fill="none" id="AD-Logger" style="stroke:#181818;stroke-width:1.0;"/><text fill="#000000" font-family="sans-serif" font-size="13" lengthAdjust="spacing" textLength="88" x="553" y="326.4951">logs operations</text></g><!--link AD to Config--><g id="link_AD_Config"><path d="M363.41,134.13 C395.81,161.47 449.38,206.68 481.72,233.97 " fill="none" id="AD-Config" style="stroke:#181818;stroke-width:1.0;"/><text fill="#000000" font-family="sans-serif" font-size="13" lengthAdjust="spacing" textLength="95" x="418" y="178.4951">get configuration</text></g><!--link PD to Logger--><g id="link_PD_Logger"><path d="M330.81,282.15 C357.67,300.33 392.78,327.9 415,360 C442.85,400.24 457.02,456.77 463.13,488 " fill="none" id="PD-Logger" style="stroke:#181818;stroke-width:1.0;"/><text fill="#000000" font-family="sans-serif" font-size="13" lengthAdjust="spacing" textLength="91" x="449" y="389.4951">logs processing</text></g><!--link PI to Logger--><g id="link_PI_Logger"><path d="M162.43,408.07 C178.01,416.23 196.06,425.1 213,432 C278.97,458.88 357.65,482.05 409.78,496.22 " fill="none" id="PI-Logger" style="stroke:#181818;stroke-width:1.0;"/><text fill="#000000" font-family="sans-serif" font-size="13" lengthAdjust="spacing" textLength="98" x="282" y="454.4951">logs interpolation</text></g><!--link AdapterRedisStream to AdapterRedisPool--><g id="link_AdapterRedisStream_AdapterRedisPool"><path d="M758.96,282.03 C756.99,304.17 754.04,337.44 752.07,359.67 " fill="none" id="AdapterRedisStream-AdapterRedisPool" style="stroke:#181818;stroke-width:1.0;"/><text fill="#000000" font-family="sans-serif" font-size="13" lengthAdjust="spacing" textLength="124" x="757" y="326.4951">channel management</text></g><!--SRC=[TLB1Ri8m3Btp5HPtVc2t2dP0sgHgS9js2AsRPalZA34QQEBVvpGjj21wIlFUytjsx5NrepJ2ShT_BQ6ebMSCI_XR080ViPAYOKCEoa0LncYS7YZf-omgfh1Hh2Bo5wW8nUQAbMGSJx7o3jiwCVHaLJB8ZEt8SCG85Xi6QYP50TwFbirA9L-eY49jNA-7NyFjZSROUGhAWd4rdYJr2A6h- -8pes1qsplT0W2iZmTJGVJME9GoawmtJYCfEAXlJ7dE43iYRf-uNMQ3_S3Qn3JLqtawq1sZ7vwYPvH4DW_sxlAfOiS1LVUWoTUphW_4J5q_uAT4-NBIV1rJnnDikzz19skHMlBN3NdQ_JJicbnZT9yp7w-4Dz8QGu_au-AoA3QmMia6mGjqoebTX2vjWhUuA3Es5Qn6YrgneFC7o_B7DaNYZmThOYiIF-ww2a6Tuo3A4OHeIKSWZw4lES8vky0QMHOo_HmpOyWrrq-6984VuBlKZtdlkaYR8DggLSwX7KRJeUD_]--></g></svg>