<?xml version="1.0" encoding="us-ascii" standalone="no"?><svg xmlns="http://www.w3.org/2000/svg" xmlns:xlink="http://www.w3.org/1999/xlink" contentStyleType="text/css" height="594px" preserveAspectRatio="none" style="width:723px;height:594px;background:#FFFFFF;" version="1.1" viewBox="0 0 723 594" width="723px" zoomAndPan="magnify"><defs/><g><!--class StepBroker--><g id="elem_StepBroker"><rect codeLine="4" fill="#FFFFFF" height="180.1172" id="StepBroker" rx="2.5" ry="2.5" style="stroke:#000000;stroke-width:1.0;" width="161" x="353" y="12"/><ellipse cx="389.85" cy="26" fill="#FFFFFF" rx="9" ry="9" style="stroke:#000000;stroke-width:1.0;"/><path d="M392.6156,27.5313 L395.0063,28.2813 Q394.4594,30.2656 393.1781,31.2344 Q391.9125,32.2031 389.9438,32.2031 Q387.5219,32.2031 385.9594,30.5469 Q384.4125,28.8906 384.4125,26.0156 Q384.4125,22.9844 385.975,21.3125 Q387.5375,19.625 390.1,19.625 Q392.3344,19.625 393.725,20.9375 Q394.5531,21.7188 394.975,23.1875 L392.5375,23.7656 Q392.3188,22.8125 391.6313,22.2656 Q390.9594,21.7188 389.975,21.7188 Q388.6156,21.7188 387.7719,22.7031 Q386.9438,23.6719 386.9438,25.8438 Q386.9438,28.1406 387.7719,29.125 Q388.6,30.1094 389.9281,30.1094 Q390.9125,30.1094 391.6156,29.4844 Q392.3188,28.8594 392.6156,27.5313 Z " fill="#000000"/><text fill="#000000" font-family="Verdana" font-size="14" lengthAdjust="spacing" textLength="80" x="407.15" y="31.5679">StepBroker</text><line style="stroke:#000000;stroke-width:1.0;" x1="354" x2="513" y1="40" y2="40"/><line style="stroke:#000000;stroke-width:1.0;" x1="354" x2="513" y1="48" y2="48"/><text fill="#000000" font-family="Verdana" font-size="14" lengthAdjust="spacing" textLength="149" x="359" y="66.0752">+async __aenter__()</text><text fill="#000000" font-family="Verdana" font-size="14" lengthAdjust="spacing" textLength="138" x="359" y="83.0898">+async __aexit__()</text><text fill="#000000" font-family="Verdana" font-size="14" lengthAdjust="spacing" textLength="111" x="359" y="100.1045">+async aclose()</text><text fill="#000000" font-family="Verdana" font-size="14" lengthAdjust="spacing" textLength="78" x="359" y="117.1191">+connect()</text><text fill="#000000" font-family="Verdana" font-size="14" lengthAdjust="spacing" textLength="98" x="359" y="134.1338">+disconnect()</text><text fill="#000000" font-family="Verdana" font-size="14" lengthAdjust="spacing" textLength="90" x="359" y="151.1484">+subscribe()</text><text fill="#000000" font-family="Verdana" font-size="14" lengthAdjust="spacing" textLength="108" x="359" y="168.1631">+unsubscribe()</text><text fill="#000000" font-family="Verdana" font-size="14" lengthAdjust="spacing" textLength="73" x="359" y="185.1777">+publish()</text></g><!--class StepClientConfig--><g id="elem_StepClientConfig"><rect codeLine="15" fill="#FFFFFF" height="146.0879" id="StepClientConfig" rx="2.5" ry="2.5" style="stroke:#000000;stroke-width:1.0;" width="145" x="12" y="269"/><ellipse cx="25" cy="283" fill="#FFFFFF" rx="9" ry="9" style="stroke:#000000;stroke-width:1.0;"/><path d="M27.7656,284.5313 L30.1563,285.2813 Q29.6094,287.2656 28.3281,288.2344 Q27.0625,289.2031 25.0938,289.2031 Q22.6719,289.2031 21.1094,287.5469 Q19.5625,285.8906 19.5625,283.0156 Q19.5625,279.9844 21.125,278.3125 Q22.6875,276.625 25.25,276.625 Q27.4844,276.625 28.875,277.9375 Q29.7031,278.7188 30.125,280.1875 L27.6875,280.7656 Q27.4688,279.8125 26.7813,279.2656 Q26.1094,278.7188 25.125,278.7188 Q23.7656,278.7188 22.9219,279.7031 Q22.0938,280.6719 22.0938,282.8438 Q22.0938,285.1406 22.9219,286.125 Q23.75,287.1094 25.0781,287.1094 Q26.0625,287.1094 26.7656,286.4844 Q27.4688,285.8594 27.7656,284.5313 Z " fill="#000000"/><text fill="#000000" font-family="Verdana" font-size="14" lengthAdjust="spacing" textLength="117" x="37" y="288.5679">StepClientConfig</text><line style="stroke:#000000;stroke-width:1.0;" x1="13" x2="156" y1="297" y2="297"/><text fill="#000000" font-family="Verdana" font-size="14" lengthAdjust="spacing" textLength="90" x="18" y="315.0752">+mqtt_client</text><text fill="#000000" font-family="Verdana" font-size="14" lengthAdjust="spacing" textLength="112" x="18" y="332.0898">+mqtt_protocol</text><text fill="#000000" font-family="Verdana" font-size="14" lengthAdjust="spacing" textLength="90" x="18" y="349.1045">+redis_client</text><text fill="#000000" font-family="Verdana" font-size="14" lengthAdjust="spacing" textLength="62" x="18" y="366.1191">+logging</text><line style="stroke:#000000;stroke-width:1.0;" x1="13" x2="156" y1="373.0586" y2="373.0586"/><text fill="#000000" font-family="Verdana" font-size="14" lengthAdjust="spacing" textLength="103" x="18" y="391.1338">+get_default()</text><text fill="#000000" font-family="Verdana" font-size="14" lengthAdjust="spacing" textLength="127" x="18" y="408.1484">+model_validate()</text></g><!--class StepClientRedisPool--><g id="elem_StepClientRedisPool"><rect codeLine="24" fill="#FFFFFF" height="95.0439" id="StepClientRedisPool" rx="2.5" ry="2.5" style="stroke:#000000;stroke-width:1.0;" width="167" x="203" y="492"/><ellipse cx="216" cy="506" fill="#FFFFFF" rx="9" ry="9" style="stroke:#000000;stroke-width:1.0;"/><path d="M218.7656,507.5313 L221.1563,508.2813 Q220.6094,510.2656 219.3281,511.2344 Q218.0625,512.2031 216.0938,512.2031 Q213.6719,512.2031 212.1094,510.5469 Q210.5625,508.8906 210.5625,506.0156 Q210.5625,502.9844 212.125,501.3125 Q213.6875,499.625 216.25,499.625 Q218.4844,499.625 219.875,500.9375 Q220.7031,501.7188 221.125,503.1875 L218.6875,503.7656 Q218.4688,502.8125 217.7813,502.2656 Q217.1094,501.7188 216.125,501.7188 Q214.7656,501.7188 213.9219,502.7031 Q213.0938,503.6719 213.0938,505.8438 Q213.0938,508.1406 213.9219,509.125 Q214.75,510.1094 216.0781,510.1094 Q217.0625,510.1094 217.7656,509.4844 Q218.4688,508.8594 218.7656,507.5313 Z " fill="#000000"/><text fill="#000000" font-family="Verdana" font-size="14" lengthAdjust="spacing" textLength="139" x="228" y="511.5679">StepClientRedisPool</text><line style="stroke:#000000;stroke-width:1.0;" x1="204" x2="369" y1="520" y2="520"/><line style="stroke:#000000;stroke-width:1.0;" x1="204" x2="369" y1="528" y2="528"/><text fill="#000000" font-family="Verdana" font-size="14" lengthAdjust="spacing" textLength="149" x="209" y="546.0752">+async __aenter__()</text><text fill="#000000" font-family="Verdana" font-size="14" lengthAdjust="spacing" textLength="138" x="209" y="563.0898">+async __aexit__()</text><text fill="#000000" font-family="Verdana" font-size="14" lengthAdjust="spacing" textLength="131" x="209" y="580.1045">+get_connection()</text></g><!--class StepClientRedisStream--><g id="elem_StepClientRedisStream"><rect codeLine="30" fill="#FFFFFF" height="129.0732" id="StepClientRedisStream" rx="2.5" ry="2.5" style="stroke:#000000;stroke-width:1.0;" width="189" x="192" y="277.5"/><ellipse cx="205" cy="291.5" fill="#FFFFFF" rx="9" ry="9" style="stroke:#000000;stroke-width:1.0;"/><path d="M207.7656,293.0313 L210.1563,293.7813 Q209.6094,295.7656 208.3281,296.7344 Q207.0625,297.7031 205.0938,297.7031 Q202.6719,297.7031 201.1094,296.0469 Q199.5625,294.3906 199.5625,291.5156 Q199.5625,288.4844 201.125,286.8125 Q202.6875,285.125 205.25,285.125 Q207.4844,285.125 208.875,286.4375 Q209.7031,287.2188 210.125,288.6875 L207.6875,289.2656 Q207.4688,288.3125 206.7813,287.7656 Q206.1094,287.2188 205.125,287.2188 Q203.7656,287.2188 202.9219,288.2031 Q202.0938,289.1719 202.0938,291.3438 Q202.0938,293.6406 202.9219,294.625 Q203.75,295.6094 205.0781,295.6094 Q206.0625,295.6094 206.7656,294.9844 Q207.4688,294.3594 207.7656,293.0313 Z " fill="#000000"/><text fill="#000000" font-family="Verdana" font-size="14" lengthAdjust="spacing" textLength="161" x="217" y="297.0679">StepClientRedisStream</text><line style="stroke:#000000;stroke-width:1.0;" x1="193" x2="380" y1="305.5" y2="305.5"/><line style="stroke:#000000;stroke-width:1.0;" x1="193" x2="380" y1="313.5" y2="313.5"/><text fill="#000000" font-family="Verdana" font-size="14" lengthAdjust="spacing" textLength="149" x="198" y="331.5752">+async __aenter__()</text><text fill="#000000" font-family="Verdana" font-size="14" lengthAdjust="spacing" textLength="138" x="198" y="348.5898">+async __aexit__()</text><text fill="#000000" font-family="Verdana" font-size="14" lengthAdjust="spacing" textLength="73" x="198" y="365.6045">+publish()</text><text fill="#000000" font-family="Verdana" font-size="14" lengthAdjust="spacing" textLength="71" x="198" y="382.6191">+receive()</text><text fill="#000000" font-family="Verdana" font-size="14" lengthAdjust="spacing" textLength="169" x="198" y="399.6338">+create_input_stream()</text></g><!--class StepLogger--><g id="elem_StepLogger"><rect codeLine="38" fill="#FFFFFF" height="78.0293" id="StepLogger" rx="2.5" ry="2.5" style="stroke:#000000;stroke-width:1.0;" width="135" x="416" y="303"/><ellipse cx="440.25" cy="317" fill="#FFFFFF" rx="9" ry="9" style="stroke:#000000;stroke-width:1.0;"/><path d="M443.0156,318.5313 L445.4063,319.2813 Q444.8594,321.2656 443.5781,322.2344 Q442.3125,323.2031 440.3438,323.2031 Q437.9219,323.2031 436.3594,321.5469 Q434.8125,319.8906 434.8125,317.0156 Q434.8125,313.9844 436.375,312.3125 Q437.9375,310.625 440.5,310.625 Q442.7344,310.625 444.125,311.9375 Q444.9531,312.7188 445.375,314.1875 L442.9375,314.7656 Q442.7188,313.8125 442.0313,313.2656 Q441.3594,312.7188 440.375,312.7188 Q439.0156,312.7188 438.1719,313.7031 Q437.3438,314.6719 437.3438,316.8438 Q437.3438,319.1406 438.1719,320.125 Q439,321.1094 440.3281,321.1094 Q441.3125,321.1094 442.0156,320.4844 Q442.7188,319.8594 443.0156,318.5313 Z " fill="#000000"/><text fill="#000000" font-family="Verdana" font-size="14" lengthAdjust="spacing" textLength="82" x="454.75" y="322.5679">StepLogger</text><line style="stroke:#000000;stroke-width:1.0;" x1="417" x2="550" y1="331" y2="331"/><line style="stroke:#000000;stroke-width:1.0;" x1="417" x2="550" y1="339" y2="339"/><text fill="#000000" font-family="Verdana" font-size="14" lengthAdjust="spacing" textLength="123" x="422" y="357.0752">+setup_logging()</text><text fill="#000000" font-family="Verdana" font-size="14" lengthAdjust="spacing" textLength="99" x="422" y="374.0898">+get_logger()</text></g><!--class StepException--><g id="elem_StepException"><rect codeLine="43" fill="#FFFFFF" height="44" id="StepException" rx="2.5" ry="2.5" style="stroke:#000000;stroke-width:1.0;" width="130" x="586.5" y="320"/><ellipse cx="599.5" cy="334" fill="#FFFFFF" rx="9" ry="9" style="stroke:#000000;stroke-width:1.0;"/><path d="M602.2656,335.5313 L604.6563,336.2813 Q604.1094,338.2656 602.8281,339.2344 Q601.5625,340.2031 599.5938,340.2031 Q597.1719,340.2031 595.6094,338.5469 Q594.0625,336.8906 594.0625,334.0156 Q594.0625,330.9844 595.625,329.3125 Q597.1875,327.625 599.75,327.625 Q601.9844,327.625 603.375,328.9375 Q604.2031,329.7188 604.625,331.1875 L602.1875,331.7656 Q601.9688,330.8125 601.2813,330.2656 Q600.6094,329.7188 599.625,329.7188 Q598.2656,329.7188 597.4219,330.7031 Q596.5938,331.6719 596.5938,333.8438 Q596.5938,336.1406 597.4219,337.125 Q598.25,338.1094 599.5781,338.1094 Q600.5625,338.1094 601.2656,337.4844 Q601.9688,336.8594 602.2656,335.5313 Z " fill="#000000"/><text fill="#000000" font-family="Verdana" font-size="14" lengthAdjust="spacing" textLength="102" x="611.5" y="339.5679">StepException</text><line style="stroke:#000000;stroke-width:1.0;" x1="587.5" x2="715.5" y1="348" y2="348"/><line style="stroke:#000000;stroke-width:1.0;" x1="587.5" x2="715.5" y1="356" y2="356"/></g><!--link StepBroker to StepClientConfig--><g id="link_StepBroker_StepClientConfig"><path codeLine="46" d="M352.72,151.74 C300.89,183.75 232.65,227.28 174.5,269 C170.14,272.13 165.71,275.39 161.27,278.72 " fill="none" id="StepBroker-to-StepClientConfig" style="stroke:#000000;stroke-width:1.0;"/><polygon fill="#000000" points="157.19,281.8,166.7811,279.5616,161.178,278.784,161.9555,273.1809,157.19,281.8" style="stroke:#000000;stroke-width:1.0;"/><text fill="#000000" font-family="Verdana" font-size="13" lengthAdjust="spacing" textLength="30" x="238.5" y="236.0698">uses</text></g><!--link StepBroker to StepClientRedisStream--><g id="link_StepBroker_StepClientRedisStream"><path codeLine="47" d="M378.34,192.3 C361.86,218.98 344.07,247.79 328.57,272.89 " fill="none" id="StepBroker-to-StepClientRedisStream" style="stroke:#000000;stroke-width:1.0;"/><polygon fill="#000000" points="325.9,277.2,334.0318,271.6436,328.5269,272.9456,327.2248,267.4407,325.9,277.2" style="stroke:#000000;stroke-width:1.0;"/><text fill="#000000" font-family="Verdana" font-size="13" lengthAdjust="spacing" textLength="30" x="361.5" y="236.0698">uses</text></g><!--link StepBroker to StepLogger--><g id="link_StepBroker_StepLogger"><path codeLine="48" d="M452.26,192.3 C459.86,228.46 468.27,268.53 474.46,297.95 " fill="none" id="StepBroker-to-StepLogger" style="stroke:#000000;stroke-width:1.0;"/><polygon fill="#000000" points="475.51,302.95,477.5701,293.319,474.4799,298.0573,469.7417,294.9671,475.51,302.95" style="stroke:#000000;stroke-width:1.0;"/><text fill="#000000" font-family="Verdana" font-size="13" lengthAdjust="spacing" textLength="30" x="462.5" y="236.0698">uses</text></g><!--link StepBroker to StepException--><g id="link_StepBroker_StepException"><path codeLine="49" d="M514.06,190.95 C554.92,235.55 601.51,286.42 628.6,316 " fill="none" id="StepBroker-to-StepException" style="stroke:#000000;stroke-width:1.0;"/><polygon fill="#000000" points="632.13,319.85,628.9873,310.516,628.7475,316.1678,623.0957,315.928,632.13,319.85" style="stroke:#000000;stroke-width:1.0;"/><text fill="#000000" font-family="Verdana" font-size="13" lengthAdjust="spacing" textLength="45" x="557.5" y="236.0698">throws</text></g><!--link StepClientRedisStream to StepClientRedisPool--><g id="link_StepClientRedisStream_StepClientRedisPool"><path codeLine="50" d="M286.5,406.74 C286.5,432.65 286.5,462.19 286.5,486.73 " fill="none" id="StepClientRedisStream-to-StepClientRedisPool" style="stroke:#000000;stroke-width:1.0;"/><polygon fill="#000000" points="286.5,491.88,290.5,482.88,286.5,486.88,282.5,482.88,286.5,491.88" style="stroke:#000000;stroke-width:1.0;"/><text fill="#000000" font-family="Verdana" font-size="13" lengthAdjust="spacing" textLength="30" x="287.5" y="459.0698">uses</text></g><!--SRC=[dLB1JWCX4BtlL-1DOvfuxi546myc7epz04BPwNPI5f0PQjNuxxAKjjkkxg4tvl6OztWpLxo25eGt2cr5QxHU1TKARHJH0tF0HMHurixEyGl4NLNjhiISmJy6juOWlYiXnAsYJwk5b0eiGv3o-kOCtYAVeKeRHr2W9651Swbgf5E0ue9qShEdHtkE-BWmIAkk-ZcnEJEOFCsSNM9JpBRlp59d_5ZxuDXfPp8I85deKunh6hHDFZV0ieQbYcPlhtKr6BbH1cl5y9-7jwxfgtFcaimwqP89EZigCUS0QOWNYFH2p25emCrXGgafWqmh4bbIbXYwU4an7NQ2WAEN9RdUDqmc3Hy_RJNuxdVT- -wgjsMJoVrmcbCH2MY4ruzZX5nSZp2ErgQ2Ly5z5DfGvWy3UUIxvhy0]--></g></svg>