<?xml version="1.0" encoding="us-ascii" standalone="no"?><svg xmlns="http://www.w3.org/2000/svg" xmlns:xlink="http://www.w3.org/1999/xlink" contentStyleType="text/css" height="560px" preserveAspectRatio="none" style="width:698px;height:560px;background:#FFFFFF;" version="1.1" viewBox="0 0 698 560" width="698px" zoomAndPan="magnify"><defs/><g><!--cluster Client Application--><g id="cluster_Client Application"><path d="M541.5,11 L677.5,11 A3.75,3.75 0 0 1 680,13.5 L687,34.0146 L688.5,34.0146 A2.5,2.5 0 0 1 691,36.5146 L691,107.5 A2.5,2.5 0 0 1 688.5,110 L541.5,110 A2.5,2.5 0 0 1 539,107.5 L539,13.5 A2.5,2.5 0 0 1 541.5,11 " fill="#FFFFFF" style="stroke:#000000;stroke-width:1.0;"/><line style="stroke:#000000;stroke-width:1.0;" x1="539" x2="687" y1="34.0146" y2="34.0146"/><text fill="#000000" font-family="Verdana" font-size="14" font-weight="bold" lengthAdjust="spacing" textLength="135" x="543" y="27.0752">Client Application</text></g><!--cluster step_redis--><g id="cluster_step_redis"><path d="M408.5,159 L490.5,159 A3.75,3.75 0 0 1 493,161.5 L500,182.0146 L627.5,182.0146 A2.5,2.5 0 0 1 630,184.5146 L630,540.5 A2.5,2.5 0 0 1 627.5,543 L408.5,543 A2.5,2.5 0 0 1 406,540.5 L406,161.5 A2.5,2.5 0 0 1 408.5,159 " fill="#FFFFFF" style="stroke:#000000;stroke-width:1.0;"/><line style="stroke:#000000;stroke-width:1.0;" x1="406" x2="500" y1="182.0146" y2="182.0146"/><text fill="#000000" font-family="Verdana" font-size="14" font-weight="bold" lengthAdjust="spacing" textLength="81" x="410" y="175.0752">step_redis</text></g><!--cluster Redis Server--><g id="cluster_Redis Server"><path d="M11,439 C11,429 196.5,429 196.5,429 C196.5,429 382,429 382,439 L382,533 C382,543 196.5,543 196.5,543 C196.5,543 11,543 11,533 L11,439 " fill="#FFFFFF" style="stroke:#000000;stroke-width:1.0;"/><path d="M11,439 C11,449 196.5,449 196.5,449 C196.5,449 382,449 382,439 " fill="none" style="stroke:#000000;stroke-width:1.0;"/><text fill="#000000" font-family="Verdana" font-size="14" font-weight="bold" lengthAdjust="spacing" textLength="98" x="147.5" y="465.0752">Redis Server</text></g><!--entity Client Code--><g id="elem_Client Code"><rect fill="#FFFFFF" height="47.0146" rx="2.5" ry="2.5" style="stroke:#000000;stroke-width:1.0;" width="120" x="555" y="47"/><rect fill="#FFFFFF" height="10" style="stroke:#000000;stroke-width:1.0;" width="15" x="655" y="52"/><rect fill="#FFFFFF" height="2" style="stroke:#000000;stroke-width:1.0;" width="4" x="653" y="54"/><rect fill="#FFFFFF" height="2" style="stroke:#000000;stroke-width:1.0;" width="4" x="653" y="58"/><text fill="#000000" font-family="Verdana" font-size="14" lengthAdjust="spacing" textLength="80" x="570" y="81.0752">Client Code</text></g><!--entity Pool--><g id="elem_Pool"><rect fill="#FFFFFF" height="47.0146" rx="2.5" ry="2.5" style="stroke:#000000;stroke-width:1.0;" width="140" x="442" y="319"/><rect fill="#FFFFFF" height="10" style="stroke:#000000;stroke-width:1.0;" width="15" x="562" y="324"/><rect fill="#FFFFFF" height="2" style="stroke:#000000;stroke-width:1.0;" width="4" x="560" y="326"/><rect fill="#FFFFFF" height="2" style="stroke:#000000;stroke-width:1.0;" width="4" x="560" y="330"/><text fill="#000000" font-family="Verdana" font-size="14" lengthAdjust="spacing" textLength="100" x="457" y="353.0752">StepRedisPool</text></g><!--entity Stream--><g id="elem_Stream"><rect fill="#FFFFFF" height="47.0146" rx="2.5" ry="2.5" style="stroke:#000000;stroke-width:1.0;" width="162" x="422" y="195"/><rect fill="#FFFFFF" height="10" style="stroke:#000000;stroke-width:1.0;" width="15" x="564" y="200"/><rect fill="#FFFFFF" height="2" style="stroke:#000000;stroke-width:1.0;" width="4" x="562" y="202"/><rect fill="#FFFFFF" height="2" style="stroke:#000000;stroke-width:1.0;" width="4" x="562" y="206"/><text fill="#000000" font-family="Verdana" font-size="14" lengthAdjust="spacing" textLength="122" x="437" y="229.0752">StepRedisStream</text></g><!--entity Params--><g id="elem_Params"><rect fill="#FFFFFF" height="47.0146" rx="2.5" ry="2.5" style="stroke:#000000;stroke-width:1.0;" width="191" x="422.5" y="480"/><rect fill="#FFFFFF" height="10" style="stroke:#000000;stroke-width:1.0;" width="15" x="593.5" y="485"/><rect fill="#FFFFFF" height="2" style="stroke:#000000;stroke-width:1.0;" width="4" x="591.5" y="487"/><rect fill="#FFFFFF" height="2" style="stroke:#000000;stroke-width:1.0;" width="4" x="591.5" y="491"/><text fill="#000000" font-family="Verdana" font-size="14" lengthAdjust="spacing" textLength="151" x="437.5" y="514.0752">StepRedisPoolParams</text></g><!--entity RedisStreams--><g id="elem_RedisStreams"><rect fill="#FFFFFF" height="47.0146" rx="2.5" ry="2.5" style="stroke:#000000;stroke-width:1.0;" width="142" x="27" y="480"/><rect fill="#FFFFFF" height="10" style="stroke:#000000;stroke-width:1.0;" width="15" x="149" y="485"/><rect fill="#FFFFFF" height="2" style="stroke:#000000;stroke-width:1.0;" width="4" x="147" y="487"/><rect fill="#FFFFFF" height="2" style="stroke:#000000;stroke-width:1.0;" width="4" x="147" y="491"/><text fill="#000000" font-family="Verdana" font-size="14" lengthAdjust="spacing" textLength="102" x="42" y="514.0752">Redis Streams</text></g><!--entity RedisConnection--><g id="elem_RedisConnection"><rect fill="#FFFFFF" height="47.0146" rx="2.5" ry="2.5" style="stroke:#000000;stroke-width:1.0;" width="162" x="204" y="480"/><rect fill="#FFFFFF" height="10" style="stroke:#000000;stroke-width:1.0;" width="15" x="346" y="485"/><rect fill="#FFFFFF" height="2" style="stroke:#000000;stroke-width:1.0;" width="4" x="344" y="487"/><rect fill="#FFFFFF" height="2" style="stroke:#000000;stroke-width:1.0;" width="4" x="344" y="491"/><text fill="#000000" font-family="Verdana" font-size="14" lengthAdjust="spacing" textLength="122" x="219" y="514.0752">Redis Connection</text></g><!--link Client Code to Stream--><g id="link_Client Code_Stream"><path d="M597.5,94.31 C577.53,120.35 544.89,162.89 523.68,190.54 " fill="none" id="Client Code-to-Stream" style="stroke:#000000;stroke-width:1.0;"/><polygon fill="#000000" points="520.38,194.85,529.0289,190.1387,523.421,190.881,522.6786,185.2731,520.38,194.85" style="stroke:#000000;stroke-width:1.0;"/><text fill="#000000" font-family="Verdana" font-size="13" lengthAdjust="spacing" textLength="30" x="573" y="140.0698">uses</text></g><!--link Client Code to Pool--><g id="link_Client Code_Pool"><path d="M617.92,94.18 C621.28,127.99 623.81,192.89 602,242 C589.24,270.74 564.91,296.84 544.76,315.09 " fill="none" id="Client Code-to-Pool" style="stroke:#000000;stroke-width:1.0;"/><polygon fill="#000000" points="540.79,318.63,550.1677,315.6203,544.5199,315.3002,544.8401,309.6524,540.79,318.63" style="stroke:#000000;stroke-width:1.0;"/><text fill="#000000" font-family="Verdana" font-size="13" lengthAdjust="spacing" textLength="50" x="620" y="224.0698">creates</text></g><!--link Pool to Params--><g id="link_Pool_Params"><path d="M512.86,366.28 C513.94,394.85 515.79,443.82 516.95,474.61 " fill="none" id="Pool-to-Params" style="stroke:#000000;stroke-width:1.0;stroke-dasharray:7.0,7.0;"/><polygon fill="#000000" points="517.14,479.76,520.8032,470.6177,516.9544,474.7634,512.8087,470.9147,517.14,479.76" style="stroke:#000000;stroke-width:1.0;"/><text fill="#000000" font-family="Verdana" font-size="13" lengthAdjust="spacing" textLength="90" x="515" y="410.0698">configured by</text></g><!--link Stream to Pool--><g id="link_Stream_Pool"><path d="M504.67,242.16 C506.17,262.45 508.37,292.25 509.97,313.92 " fill="none" id="Stream-to-Pool" style="stroke:#000000;stroke-width:1.0;"/><polygon fill="#000000" points="510.34,318.96,513.6603,309.6877,509.9685,313.9738,505.6824,310.282,510.34,318.96" style="stroke:#000000;stroke-width:1.0;"/><text fill="#000000" font-family="Verdana" font-size="13" lengthAdjust="spacing" textLength="30" x="509" y="286.0698">uses</text></g><!--link Pool to RedisConnection--><g id="link_Pool_RedisConnection"><path d="M479.48,366.28 C437.67,395.56 365.29,446.26 321.6,476.86 " fill="none" id="Pool-to-RedisConnection" style="stroke:#000000;stroke-width:1.0;"/><polygon fill="#000000" points="317.46,479.76,327.1265,477.8735,321.5555,476.8917,322.5373,471.3207,317.46,479.76" style="stroke:#000000;stroke-width:1.0;"/><text fill="#000000" font-family="Verdana" font-size="13" lengthAdjust="spacing" textLength="58" x="433" y="410.0698">manages</text></g><!--link Stream to RedisStreams--><g id="link_Stream_RedisStreams"><path d="M461.36,242.18 C426.12,261.7 374.55,291.06 331,319 C264.99,361.35 248.04,371.75 187,421 C165.32,438.49 142.16,459.79 124.9,476.23 " fill="none" id="Stream-to-RedisStreams" style="stroke:#000000;stroke-width:1.0;"/><polygon fill="#000000" points="121.08,479.88,130.3487,476.5496,124.6932,476.4239,124.8189,470.7684,121.08,479.88" style="stroke:#000000;stroke-width:1.0;"/><text fill="#000000" font-family="Verdana" font-size="13" lengthAdjust="spacing" textLength="92" x="332" y="348.0698">interacts with</text></g><!--SRC=[RL1BRW8n3Dtd52vxE40NIDLS037B2Y6JCH1r9ebYqwggUdUSJ121TlVoFdvsNkHC4q4SqNbZ8jeFF14ikj6H5tYBSNGMnGM_W1y30EzLwS90E_FRH5WexXCDZc_MNfbj9ZOXZ3j0XWmUfLuIuLJ46VvDRZ3Xn7E-m5mxeE01MNkB3tfAdvHkpPKh0-TaKyQDfGlUaytttLrtBXSz70pBvRgEXLUuCF4_UjvPLQikKKDvhbRhkdnMWZ-wqqN_2WxVfevhacLkmPbysadr2Rt-EBV9zZnrE2-Kq0h3bvFp5G00]--></g></svg>