<?plantuml 1.2026.1?><svg xmlns="http://www.w3.org/2000/svg" xmlns:xlink="http://www.w3.org/1999/xlink" contentStyleType="text/css" data-diagram-type="DESCRIPTION" height="465px" preserveAspectRatio="none" style="width:1329px;height:465px;background:#FFFFFF;" version="1.1" viewBox="0 0 1329 465" width="1329px" zoomAndPan="magnify"><defs/><g><!--cluster STEP Producer--><g class="cluster" data-qualified-name="STEP Producer" data-source-line="1" id="ent0002"><path d="M26.99,6 L129.907,6 A3.75,3.75 0 0 1 132.407,8.5 L139.407,29.6094 L834.99,29.6094 A2.5,2.5 0 0 1 837.49,32.1094 L837.49,447 A2.5,2.5 0 0 1 834.99,449.5 L26.99,449.5 A2.5,2.5 0 0 1 24.49,447 L24.49,8.5 A2.5,2.5 0 0 1 26.99,6" fill="none" style="stroke:#000000;stroke-width:1.5;"/><line style="stroke:#000000;stroke-width:1.5;" x1="24.49" x2="139.407" y1="29.6094" y2="29.6094"/><text fill="#000000" font-family="sans-serif" font-size="14" font-weight="bold" lengthAdjust="spacing" textLength="101.917" x="28.49" y="22.5332">STEP Producer</text></g><!--cluster DenService--><g class="cluster" data-qualified-name="STEP Producer.DenService" data-source-line="2" id="ent0003"><path d="M50.99,50 L128.2586,50 A3.75,3.75 0 0 1 130.7586,52.5 L137.7586,73.6094 L473.99,73.6094 A2.5,2.5 0 0 1 476.49,76.1094 L476.49,304 A2.5,2.5 0 0 1 473.99,306.5 L50.99,306.5 A2.5,2.5 0 0 1 48.49,304 L48.49,52.5 A2.5,2.5 0 0 1 50.99,50" fill="none" style="stroke:#000000;stroke-width:1.5;"/><line style="stroke:#000000;stroke-width:1.5;" x1="48.49" x2="137.7586" y1="73.6094" y2="73.6094"/><text fill="#000000" font-family="sans-serif" font-size="14" font-weight="bold" lengthAdjust="spacing" textLength="76.2686" x="52.49" y="66.5332">DenService</text></g><!--cluster Redis Integration--><g class="cluster" data-qualified-name="Redis Integration" data-source-line="17" id="ent0014"><path d="M863.99,198 L979.3347,198 A3.75,3.75 0 0 1 981.8347,200.5 L988.8347,221.6094 L1319.99,221.6094 A2.5,2.5 0 0 1 1322.49,224.1094 L1322.49,455.5 A2.5,2.5 0 0 1 1319.99,458 L863.99,458 A2.5,2.5 0 0 1 861.49,455.5 L861.49,200.5 A2.5,2.5 0 0 1 863.99,198" fill="none" style="stroke:#000000;stroke-width:1.5;"/><line style="stroke:#000000;stroke-width:1.5;" x1="861.49" x2="988.8347" y1="221.6094" y2="221.6094"/><text fill="#000000" font-family="sans-serif" font-size="14" font-weight="bold" lengthAdjust="spacing" textLength="114.3447" x="865.49" y="214.5332">Redis Integration</text></g><!--entity Config--><g class="entity" data-qualified-name="STEP Producer.Config" data-source-line="14" id="ent0012"><rect fill="#F1F1F1" height="47.6094" rx="2.5" ry="2.5" style="stroke:#181818;stroke-width:0.5;" width="166.0752" x="495.49" y="242.5"/><rect fill="#F1F1F1" height="10" style="stroke:#181818;stroke-width:0.5;" width="15" x="641.5652" y="247.5"/><rect fill="#F1F1F1" height="2" style="stroke:#181818;stroke-width:0.5;" width="4" x="639.5652" y="249.5"/><rect fill="#F1F1F1" height="2" style="stroke:#181818;stroke-width:0.5;" width="4" x="639.5652" y="253.5"/><text fill="#000000" font-family="sans-serif" font-size="14" lengthAdjust="spacing" textLength="126.0752" x="510.49" y="277.0332">StepProducerConfig</text></g><!--entity Logger--><g class="entity" data-qualified-name="STEP Producer.Logger" data-source-line="15" id="ent0013"><rect fill="#F1F1F1" height="47.6094" rx="2.5" ry="2.5" style="stroke:#181818;stroke-width:0.5;" width="112.3926" x="533.49" y="385.5"/><rect fill="#F1F1F1" height="10" style="stroke:#181818;stroke-width:0.5;" width="15" x="625.8826" y="390.5"/><rect fill="#F1F1F1" height="2" style="stroke:#181818;stroke-width:0.5;" width="4" x="623.8826" y="392.5"/><rect fill="#F1F1F1" height="2" style="stroke:#181818;stroke-width:0.5;" width="4" x="623.8826" y="396.5"/><text fill="#000000" font-family="sans-serif" font-size="14" lengthAdjust="spacing" textLength="72.3926" x="548.49" y="420.0332">StepLogger</text></g><!--entity DSM--><g class="entity" data-qualified-name="STEP Producer.DenService.DSM" data-source-line="3" id="ent0004"><rect fill="#F1F1F1" height="47.6094" rx="2.5" ry="2.5" style="stroke:#181818;stroke-width:0.5;" width="167.6201" x="292.49" y="86"/><rect fill="#F1F1F1" height="10" style="stroke:#181818;stroke-width:0.5;" width="15" x="440.1101" y="91"/><rect fill="#F1F1F1" height="2" style="stroke:#181818;stroke-width:0.5;" width="4" x="438.1101" y="93"/><rect fill="#F1F1F1" height="2" style="stroke:#181818;stroke-width:0.5;" width="4" x="438.1101" y="97"/><text fill="#000000" font-family="sans-serif" font-size="14" lengthAdjust="spacing" textLength="127.6201" x="307.49" y="120.5332">DenServiceManager</text></g><!--entity DSDM--><g class="entity" data-qualified-name="STEP Producer.DenService.DSDM" data-source-line="4" id="ent0005"><rect fill="#F1F1F1" height="47.6094" rx="2.5" ry="2.5" style="stroke:#181818;stroke-width:0.5;" width="197.1924" x="64.99" y="242.5"/><rect fill="#F1F1F1" height="10" style="stroke:#181818;stroke-width:0.5;" width="15" x="242.1824" y="247.5"/><rect fill="#F1F1F1" height="2" style="stroke:#181818;stroke-width:0.5;" width="4" x="240.1824" y="249.5"/><rect fill="#F1F1F1" height="2" style="stroke:#181818;stroke-width:0.5;" width="4" x="240.1824" y="253.5"/><text fill="#000000" font-family="sans-serif" font-size="14" lengthAdjust="spacing" textLength="157.1924" x="79.99" y="277.0332">DenServiceDataManager</text></g><g class="entity" data-qualified-name="STEP Producer.DenService.GMN6" data-source-line="6" id="ent0007"><path d="M109.99,88.5 L109.99,131.2031 A0,0 0 0 0 109.99,131.2031 L256.718,131.2031 A0,0 0 0 0 256.718,131.2031 L256.718,114 L292.47,110 L256.718,106 L256.718,98.5 L246.718,88.5 L109.99,88.5 A0,0 0 0 0 109.99,88.5" fill="#FEFFDD" style="stroke:#181818;stroke-width:0.5;"/><path d="M246.718,88.5 L246.718,98.5 L256.718,98.5 L246.718,88.5" fill="#FEFFDD" style="stroke:#181818;stroke-width:0.5;"/><text fill="#000000" font-family="sans-serif" font-size="13" lengthAdjust="spacing" textLength="116.3018" x="115.99" y="106.9951">Orchestrates DENM</text><text fill="#000000" font-family="sans-serif" font-size="13" lengthAdjust="spacing" textLength="125.728" x="115.99" y="123.3467">lifecycle management</text></g><g class="entity" data-qualified-name="STEP Producer.DenService.GMN9" data-source-line="10" id="ent0010"><path d="M296.99,245 L296.99,262.5 L262.17,266.5 L296.99,270.5 L296.99,287.7031 A0,0 0 0 0 296.99,287.7031 L460.3171,287.7031 A0,0 0 0 0 460.3171,287.7031 L460.3171,255 L450.3171,245 L296.99,245 A0,0 0 0 0 296.99,245" fill="#FEFFDD" style="stroke:#181818;stroke-width:0.5;"/><path d="M450.3171,245 L450.3171,255 L460.3171,255 L450.3171,245" fill="#FEFFDD" style="stroke:#181818;stroke-width:0.5;"/><text fill="#000000" font-family="sans-serif" font-size="13" lengthAdjust="spacing" textLength="142.3271" x="302.99" y="263.4951">Manages DENM records</text><text fill="#000000" font-family="sans-serif" font-size="13" lengthAdjust="spacing" textLength="136.5571" x="302.99" y="279.8467">with multi-index storage</text></g><!--entity RedisPool--><g class="entity" data-qualified-name="Redis Integration.RedisPool" data-source-line="18" id="ent0015"><rect fill="#F1F1F1" height="65.2188" rx="2.5" ry="2.5" style="stroke:#181818;stroke-width:0.5;" width="132.6133" x="931.99" y="377"/><rect fill="#F1F1F1" height="10" style="stroke:#181818;stroke-width:0.5;" width="15" x="1044.6033" y="382"/><rect fill="#F1F1F1" height="2" style="stroke:#181818;stroke-width:0.5;" width="4" x="1042.6033" y="384"/><rect fill="#F1F1F1" height="2" style="stroke:#181818;stroke-width:0.5;" width="4" x="1042.6033" y="388"/><text fill="#000000" font-family="sans-serif" font-size="14" font-style="italic" lengthAdjust="spacing" textLength="80.165" x="953.2141" y="411.5332">&#171;step_redis&#187;</text><text fill="#000000" font-family="sans-serif" font-size="14" lengthAdjust="spacing" textLength="92.6133" x="946.99" y="429.1426">StepRedisPool</text></g><!--entity ProducerRedisStream--><g class="entity" data-qualified-name="Redis Integration.ProducerRedisStream" data-source-line="19" id="ent0016"><rect fill="#F1F1F1" height="65.2188" rx="2.5" ry="2.5" style="stroke:#181818;stroke-width:0.5;" width="206.5234" x="1098.99" y="234"/><rect fill="#F1F1F1" height="10" style="stroke:#181818;stroke-width:0.5;" width="15" x="1285.5134" y="239"/><rect fill="#F1F1F1" height="2" style="stroke:#181818;stroke-width:0.5;" width="4" x="1283.5134" y="241"/><rect fill="#F1F1F1" height="2" style="stroke:#181818;stroke-width:0.5;" width="4" x="1283.5134" y="245"/><text fill="#000000" font-family="sans-serif" font-size="14" font-style="italic" lengthAdjust="spacing" textLength="80.165" x="1157.1692" y="268.5332">&#171;step_redis&#187;</text><text fill="#000000" font-family="sans-serif" font-size="14" lengthAdjust="spacing" textLength="166.5234" x="1113.99" y="286.1426">StepProducerRedisStream</text></g><!--entity ClientRedisStream--><g class="entity" data-qualified-name="Redis Integration.ClientRedisStream" data-source-line="20" id="ent0017"><rect fill="#F1F1F1" height="65.2188" rx="2.5" ry="2.5" style="stroke:#181818;stroke-width:0.5;" width="185.5098" x="877.49" y="234"/><rect fill="#F1F1F1" height="10" style="stroke:#181818;stroke-width:0.5;" width="15" x="1042.9998" y="239"/><rect fill="#F1F1F1" height="2" style="stroke:#181818;stroke-width:0.5;" width="4" x="1040.9998" y="241"/><rect fill="#F1F1F1" height="2" style="stroke:#181818;stroke-width:0.5;" width="4" x="1040.9998" y="245"/><text fill="#000000" font-family="sans-serif" font-size="14" font-style="italic" lengthAdjust="spacing" textLength="80.165" x="925.1624" y="268.5332">&#171;step_redis&#187;</text><text fill="#000000" font-family="sans-serif" font-size="14" lengthAdjust="spacing" textLength="145.5098" x="892.49" y="286.1426">StepClientRedisStream</text></g><g class="entity" data-qualified-name="Redis Integration.GMN18" data-source-line="22" id="ent0019"><path d="M1146.49,380 L1146.49,439.0547 L1306.948,439.0547 L1306.948,390 L1296.948,380 L1146.49,380" fill="#FEFFDD" style="stroke:#181818;stroke-width:0.5;"/><path d="M1296.948,380 L1296.948,390 L1306.948,390 L1296.948,380" fill="#FEFFDD" style="stroke:#181818;stroke-width:1;"/><text fill="#000000" font-family="sans-serif" font-size="13" lengthAdjust="spacing" textLength="101.8608" x="1152.49" y="398.4951">Redis streams for</text><text fill="#000000" font-family="sans-serif" font-size="13" lengthAdjust="spacing" textLength="102.6289" x="1152.49" y="414.8467">message queuing</text><text fill="#000000" font-family="sans-serif" font-size="13" lengthAdjust="spacing" textLength="139.458" x="1152.49" y="431.1982">(provided by step_redis)</text></g><!--link ProducerRedisStream to GMN18--><g class="link" data-entity-1="ent0016" data-entity-2="ent0019" data-link-type="association" data-source-line="22" id="lnk20"><path d="M1226.6,299.11 C1232.28,308.27 1237.54,318.62 1240.49,329 C1245.2,345.58 1242.15,364.58 1237.71,379.85" fill="none" id="ProducerRedisStream-GMN18" style="stroke:#181818;stroke-width:1;stroke-dasharray:7,7;"/></g><!--link DSM to DSDM--><g class="link" data-entity-1="ent0004" data-entity-2="ent0005" data-link-type="association" data-source-line="27" id="lnk21"><path d="M292.29,130.66 C286.28,131.86 280.3,132.99 274.49,134 C221.32,143.28 69.22,123.55 33.49,164 C6,195.12 51.36,223.55 95.86,242.35" fill="none" id="DSM-DSDM" style="stroke:#181818;stroke-width:1;"/><text fill="#000000" font-family="sans-serif" font-size="13" lengthAdjust="spacing" textLength="149.6143" x="34.49" y="178.4951">delegates data operations</text></g><!--link DSM to ProducerRedisStream--><g class="link" data-entity-1="ent0004" data-entity-2="ent0016" data-link-type="association" data-source-line="28" id="lnk22"><path d="M460.66,115.75 C621.97,125.62 968.65,150.75 1081.49,190 C1110.37,200.05 1139.55,217.97 1162.01,233.83" fill="none" id="DSM-ProducerRedisStream" style="stroke:#181818;stroke-width:1;"/><text fill="#000000" font-family="sans-serif" font-size="13" lengthAdjust="spacing" textLength="159.6753" x="1051.49" y="178.4951">publishes DENM messages</text></g><!--link DSM to Logger--><g class="link" data-entity-1="ent0004" data-entity-2="ent0013" data-link-type="association" data-source-line="29" id="lnk23"><path d="M460.77,121.42 C540.84,133.26 652.86,155.53 679.49,190 C713.32,233.78 700.11,263.15 679.49,314.5 C667.87,343.43 642.63,368.49 621.82,385.44" fill="none" id="DSM-Logger" style="stroke:#181818;stroke-width:1;"/><text fill="#000000" font-family="sans-serif" font-size="13" lengthAdjust="spacing" textLength="88.1689" x="700.49" y="271.9951">logs operations</text></g><!--link DSM to Config--><g class="link" data-entity-1="ent0004" data-entity-2="ent0012" data-link-type="association" data-source-line="30" id="lnk24"><path d="M406.73,134.13 C444.92,163.34 510.24,213.3 548.37,242.46" fill="none" id="DSM-Config" style="stroke:#181818;stroke-width:1;"/><text fill="#000000" font-family="sans-serif" font-size="13" lengthAdjust="spacing" textLength="105.5107" x="465.49" y="178.4951">uses configuration</text></g><!--link DSDM to Logger--><g class="link" data-entity-1="ent0005" data-entity-2="ent0013" data-link-type="association" data-source-line="31" id="lnk25"><path d="M217.39,290.52 C236.82,298.5 259,307.26 279.49,314.5 C367.12,345.47 470.79,375.62 533.28,393.11" fill="none" id="DSDM-Logger" style="stroke:#181818;stroke-width:1;"/><text fill="#000000" font-family="sans-serif" font-size="13" lengthAdjust="spacing" textLength="117.0825" x="373.49" y="343.4951">logs data operations</text></g><!--link ProducerRedisStream to RedisPool--><g class="link" data-entity-1="ent0016" data-entity-2="ent0015" data-link-type="association" data-source-line="32" id="lnk26"><path d="M1152.93,299.31 C1138.51,308.73 1122.79,319.16 1108.49,329 C1086.07,344.42 1061.49,362.11 1041.26,376.88" fill="none" id="ProducerRedisStream-RedisPool" style="stroke:#181818;stroke-width:1;"/><text fill="#000000" font-family="sans-serif" font-size="13" lengthAdjust="spacing" textLength="122.1416" x="1109.49" y="343.4951">uses connection pool</text></g><!--link ClientRedisStream to RedisPool--><g class="link" data-entity-1="ent0017" data-entity-2="ent0015" data-link-type="association" data-source-line="33" id="lnk27"><path d="M952.8,299.16 C946.86,313.86 942.98,331.48 948.49,347 C952.31,357.76 958.91,368.01 966.09,376.95" fill="none" id="ClientRedisStream-RedisPool" style="stroke:#181818;stroke-width:1;"/><text fill="#000000" font-family="sans-serif" font-size="13" lengthAdjust="spacing" textLength="122.1416" x="949.49" y="343.4951">uses connection pool</text></g><?plantuml-src ZLBBJiCm4BpdArOzmQ4_WAfUcXwGA5I4MuMGQsyS2ySEjbEeKFyTnywB9aZu4CMpC-Frh2j2tmb7M6GlsptiZMOrHRE0xmG0ggwOeihGd0J5jkBNOG1tH7cQUGLY8SrsKq9A7FbDIZkMqWv1Okv0voEnNq-65cYT8GwzOliuAacH8prJYL06rnALQwkeMF0Ssnl1YzO_7Rd4Zg8t6AJQC3jKFuKheAob4qkX67w1TTfu_imvb-Ppo1nMNO0RhNB1mrtZRyzuqBnB8VucbwJF-HcPi72l779_RQ5L6tTGXk9UQnd4_GvMA-khRwO1rkj9Au6OEOEa3C8P_2-BZHG-s6k32JeZ3x4VjNEwR7AVEREDCTxO1iX2hasBbsXj4yb7ZRLGl4LlAgDFWY63unc6Cs-JyK0kYNz6i5o6QSCTC9J8moDY_Xc2hZ1cQplUN29tKDL7AMpHlO-seLuKX-TvKdCxOnh7xkkrzHOqxEh8IK9Z4u_hxkRQyg9Xy8EtGjfeeF9mCftFFrG_?></g></svg>