<?xml version="1.0" encoding="us-ascii" standalone="no"?><svg xmlns="http://www.w3.org/2000/svg" xmlns:xlink="http://www.w3.org/1999/xlink" contentStyleType="text/css" height="1072px" preserveAspectRatio="none" style="width:939px;height:1072px;background:#FFFFFF;" version="1.1" viewBox="0 0 939 1072" width="939px" zoomAndPan="magnify"><defs/><g><!--class ActorDataset--><g id="elem_ActorDataset"><rect codeLine="4" fill="#FFFFFF" height="214.1465" id="ActorDataset" rx="2.5" ry="2.5" style="stroke:#000000;stroke-width:1.0;" width="190" x="261.5" y="12"/><ellipse cx="306.25" cy="26" fill="#FFFFFF" rx="9" ry="9" style="stroke:#000000;stroke-width:1.0;"/><path d="M309.0156,27.5313 L311.4063,28.2813 Q310.8594,30.2656 309.5781,31.2344 Q308.3125,32.2031 306.3438,32.2031 Q303.9219,32.2031 302.3594,30.5469 Q300.8125,28.8906 300.8125,26.0156 Q300.8125,22.9844 302.375,21.3125 Q303.9375,19.625 306.5,19.625 Q308.7344,19.625 310.125,20.9375 Q310.9531,21.7188 311.375,23.1875 L308.9375,23.7656 Q308.7188,22.8125 308.0313,22.2656 Q307.3594,21.7188 306.375,21.7188 Q305.0156,21.7188 304.1719,22.7031 Q303.3438,23.6719 303.3438,25.8438 Q303.3438,28.1406 304.1719,29.125 Q305,30.1094 306.3281,30.1094 Q307.3125,30.1094 308.0156,29.4844 Q308.7188,28.8594 309.0156,27.5313 Z " fill="#000000"/><text fill="#000000" font-family="Verdana" font-size="14" lengthAdjust="spacing" textLength="93" x="323.75" y="31.5679">ActorDataset</text><line style="stroke:#000000;stroke-width:1.0;" x1="262.5" x2="450.5" y1="40" y2="40"/><text fill="#000000" font-family="Verdana" font-size="14" lengthAdjust="spacing" textLength="60" x="267.5" y="58.0752">-_actors</text><text fill="#000000" font-family="Verdana" font-size="14" lengthAdjust="spacing" textLength="125" x="267.5" y="75.0898">-_temporal_index</text><text fill="#000000" font-family="Verdana" font-size="14" lengthAdjust="spacing" textLength="58" x="267.5" y="92.1045">-_config</text><text fill="#000000" font-family="Verdana" font-size="14" lengthAdjust="spacing" textLength="60" x="267.5" y="109.1191">-_logger</text><text fill="#000000" font-family="Verdana" font-size="14" lengthAdjust="spacing" textLength="43" x="267.5" y="126.1338">-_lock</text><text fill="#000000" font-family="Verdana" font-size="14" lengthAdjust="spacing" textLength="68" x="267.5" y="143.1484">+__init__</text><text fill="#000000" font-family="Verdana" font-size="14" lengthAdjust="spacing" textLength="147" x="267.5" y="160.1631">+add_actor_position</text><text fill="#000000" font-family="Verdana" font-size="14" lengthAdjust="spacing" textLength="152" x="267.5" y="177.1777">+get_position_arrays</text><text fill="#000000" font-family="Verdana" font-size="14" lengthAdjust="spacing" textLength="178" x="267.5" y="194.1924">+cleanup_expired_actors</text><text fill="#000000" font-family="Verdana" font-size="14" lengthAdjust="spacing" textLength="177" x="267.5" y="211.207">+get_active_actor_count</text><line style="stroke:#000000;stroke-width:1.0;" x1="262.5" x2="450.5" y1="218.1465" y2="218.1465"/></g><!--class PointDataset--><g id="elem_PointDataset"><rect codeLine="17" fill="#FFFFFF" height="214.1465" id="PointDataset" rx="2.5" ry="2.5" style="stroke:#000000;stroke-width:1.0;" width="212" x="74.5" y="303"/><ellipse cx="131.75" cy="317" fill="#FFFFFF" rx="9" ry="9" style="stroke:#000000;stroke-width:1.0;"/><path d="M134.5156,318.5313 L136.9063,319.2813 Q136.3594,321.2656 135.0781,322.2344 Q133.8125,323.2031 131.8438,323.2031 Q129.4219,323.2031 127.8594,321.5469 Q126.3125,319.8906 126.3125,317.0156 Q126.3125,313.9844 127.875,312.3125 Q129.4375,310.625 132,310.625 Q134.2344,310.625 135.625,311.9375 Q136.4531,312.7188 136.875,314.1875 L134.4375,314.7656 Q134.2188,313.8125 133.5313,313.2656 Q132.8594,312.7188 131.875,312.7188 Q130.5156,312.7188 129.6719,313.7031 Q128.8438,314.6719 128.8438,316.8438 Q128.8438,319.1406 129.6719,320.125 Q130.5,321.1094 131.8281,321.1094 Q132.8125,321.1094 133.5156,320.4844 Q134.2188,319.8594 134.5156,318.5313 Z " fill="#000000"/><text fill="#000000" font-family="Verdana" font-size="14" lengthAdjust="spacing" textLength="90" x="149.25" y="322.5679">PointDataset</text><line style="stroke:#000000;stroke-width:1.0;" x1="75.5" x2="285.5" y1="331" y2="331"/><text fill="#000000" font-family="Verdana" font-size="14" lengthAdjust="spacing" textLength="104" x="80.5" y="349.0752">-_interpolation</text><text fill="#000000" font-family="Verdana" font-size="14" lengthAdjust="spacing" textLength="115" x="80.5" y="366.0898">-_vehicle_length</text><text fill="#000000" font-family="Verdana" font-size="14" lengthAdjust="spacing" textLength="160" x="80.5" y="383.1045">-_reference_station_id</text><text fill="#000000" font-family="Verdana" font-size="14" lengthAdjust="spacing" textLength="155" x="80.5" y="400.1191">-_reference_object_id</text><text fill="#000000" font-family="Verdana" font-size="14" lengthAdjust="spacing" textLength="58" x="80.5" y="417.1338">-_config</text><text fill="#000000" font-family="Verdana" font-size="14" lengthAdjust="spacing" textLength="60" x="80.5" y="434.1484">-_logger</text><text fill="#000000" font-family="Verdana" font-size="14" lengthAdjust="spacing" textLength="68" x="80.5" y="451.1631">+__init__</text><text fill="#000000" font-family="Verdana" font-size="14" lengthAdjust="spacing" textLength="102" x="80.5" y="468.1777">+add_position</text><text fill="#000000" font-family="Verdana" font-size="14" lengthAdjust="spacing" textLength="200" x="80.5" y="485.1924">+get_interpolated_positions</text><text fill="#000000" font-family="Verdana" font-size="14" lengthAdjust="spacing" textLength="83" x="80.5" y="502.207">+is_expired</text><line style="stroke:#000000;stroke-width:1.0;" x1="75.5" x2="285.5" y1="509.1465" y2="509.1465"/></g><!--class PointInterpolation--><g id="elem_PointInterpolation"><rect codeLine="30" fill="#FFFFFF" height="214.1465" id="PointInterpolation" rx="2.5" ry="2.5" style="stroke:#000000;stroke-width:1.0;" width="225" x="12" y="594"/><ellipse cx="58.25" cy="608" fill="#FFFFFF" rx="9" ry="9" style="stroke:#000000;stroke-width:1.0;"/><path d="M61.0156,609.5313 L63.4063,610.2813 Q62.8594,612.2656 61.5781,613.2344 Q60.3125,614.2031 58.3438,614.2031 Q55.9219,614.2031 54.3594,612.5469 Q52.8125,610.8906 52.8125,608.0156 Q52.8125,604.9844 54.375,603.3125 Q55.9375,601.625 58.5,601.625 Q60.7344,601.625 62.125,602.9375 Q62.9531,603.7188 63.375,605.1875 L60.9375,605.7656 Q60.7188,604.8125 60.0313,604.2656 Q59.3594,603.7188 58.375,603.7188 Q57.0156,603.7188 56.1719,604.7031 Q55.3438,605.6719 55.3438,607.8438 Q55.3438,610.1406 56.1719,611.125 Q57,612.1094 58.3281,612.1094 Q59.3125,612.1094 60.0156,611.4844 Q60.7188,610.8594 61.0156,609.5313 Z " fill="#000000"/><text fill="#000000" font-family="Verdana" font-size="14" lengthAdjust="spacing" textLength="125" x="75.75" y="613.5679">PointInterpolation</text><line style="stroke:#000000;stroke-width:1.0;" x1="13" x2="236" y1="622" y2="622"/><text fill="#000000" font-family="Verdana" font-size="14" lengthAdjust="spacing" textLength="104" x="18" y="640.0752">-_input_queue</text><text fill="#000000" font-family="Verdana" font-size="14" lengthAdjust="spacing" textLength="116" x="18" y="657.0898">-_output_queue</text><text fill="#000000" font-family="Verdana" font-size="14" lengthAdjust="spacing" textLength="58" x="18" y="674.1045">-_config</text><text fill="#000000" font-family="Verdana" font-size="14" lengthAdjust="spacing" textLength="60" x="18" y="691.1191">-_logger</text><text fill="#000000" font-family="Verdana" font-size="14" lengthAdjust="spacing" textLength="68" x="18" y="708.1338">+__init__</text><text fill="#000000" font-family="Verdana" font-size="14" lengthAdjust="spacing" textLength="82" x="18" y="725.1484">+add_point</text><text fill="#000000" font-family="Verdana" font-size="14" lengthAdjust="spacing" textLength="180" x="18" y="742.1631">+get_interpolated_values</text><text fill="#000000" font-family="Verdana" font-size="14" lengthAdjust="spacing" textLength="101" x="18" y="759.1777">+clear_history</text><text fill="#000000" font-family="Verdana" font-size="14" lengthAdjust="spacing" textLength="213" x="18" y="776.1924">-_compute_spline_coefficients</text><text fill="#000000" font-family="Verdana" font-size="14" lengthAdjust="spacing" textLength="188" x="18" y="793.207">-_generate_output_points</text><line style="stroke:#000000;stroke-width:1.0;" x1="13" x2="236" y1="800.1465" y2="800.1465"/></g><!--class StepAdapterConfig--><g id="elem_StepAdapterConfig"><rect codeLine="43" fill="#FFFFFF" height="180.1172" id="StepAdapterConfig" rx="2.5" ry="2.5" style="stroke:#000000;stroke-width:1.0;" width="174" x="476.5" y="885"/><ellipse cx="494.9" cy="899" fill="#FFFFFF" rx="9" ry="9" style="stroke:#000000;stroke-width:1.0;"/><path d="M497.6656,900.5313 L500.0563,901.2813 Q499.5094,903.2656 498.2281,904.2344 Q496.9625,905.2031 494.9938,905.2031 Q492.5719,905.2031 491.0094,903.5469 Q489.4625,901.8906 489.4625,899.0156 Q489.4625,895.9844 491.025,894.3125 Q492.5875,892.625 495.15,892.625 Q497.3844,892.625 498.775,893.9375 Q499.6031,894.7188 500.025,896.1875 L497.5875,896.7656 Q497.3688,895.8125 496.6813,895.2656 Q496.0094,894.7188 495.025,894.7188 Q493.6656,894.7188 492.8219,895.7031 Q491.9938,896.6719 491.9938,898.8438 Q491.9938,901.1406 492.8219,902.125 Q493.65,903.1094 494.9781,903.1094 Q495.9625,903.1094 496.6656,902.4844 Q497.3688,901.8594 497.6656,900.5313 Z " fill="#000000"/><text fill="#000000" font-family="Verdana" font-size="14" lengthAdjust="spacing" textLength="134" x="508.1" y="904.5679">StepAdapterConfig</text><line style="stroke:#000000;stroke-width:1.0;" x1="477.5" x2="649.5" y1="913" y2="913"/><text fill="#000000" font-family="Verdana" font-size="14" lengthAdjust="spacing" textLength="125" x="482.5" y="931.0752">+templateVersion</text><text fill="#000000" font-family="Verdana" font-size="14" lengthAdjust="spacing" textLength="108" x="482.5" y="948.0898">+instanceName</text><text fill="#000000" font-family="Verdana" font-size="14" lengthAdjust="spacing" textLength="133" x="482.5" y="965.1045">+reconnectInterval</text><text fill="#000000" font-family="Verdana" font-size="14" lengthAdjust="spacing" textLength="45" x="482.5" y="982.1191">+redis</text><text fill="#000000" font-family="Verdana" font-size="14" lengthAdjust="spacing" textLength="32" x="482.5" y="999.1338">+log</text><text fill="#000000" font-family="Verdana" font-size="14" lengthAdjust="spacing" text-decoration="underline" textLength="91" x="482.5" y="1016.1484">+get_default</text><text fill="#000000" font-family="Verdana" font-size="14" lengthAdjust="spacing" text-decoration="underline" textLength="157" x="482.5" y="1033.1631">+print_config_schema</text><text fill="#000000" font-family="Verdana" font-size="14" lengthAdjust="spacing" text-decoration="underline" textLength="162" x="482.5" y="1050.1777">+print_config_example</text><line style="stroke:#000000;stroke-width:1.0;" x1="477.5" x2="649.5" y1="1057.1172" y2="1057.1172"/></g><!--class StepAdapterRedisPool--><g id="elem_StepAdapterRedisPool"><rect codeLine="54" fill="#FFFFFF" height="112.0586" id="StepAdapterRedisPool" rx="2.5" ry="2.5" style="stroke:#000000;stroke-width:1.0;" width="184" x="615.5" y="645"/><ellipse cx="628.5" cy="659" fill="#FFFFFF" rx="9" ry="9" style="stroke:#000000;stroke-width:1.0;"/><path d="M631.2656,660.5313 L633.6563,661.2813 Q633.1094,663.2656 631.8281,664.2344 Q630.5625,665.2031 628.5938,665.2031 Q626.1719,665.2031 624.6094,663.5469 Q623.0625,661.8906 623.0625,659.0156 Q623.0625,655.9844 624.625,654.3125 Q626.1875,652.625 628.75,652.625 Q630.9844,652.625 632.375,653.9375 Q633.2031,654.7188 633.625,656.1875 L631.1875,656.7656 Q630.9688,655.8125 630.2813,655.2656 Q629.6094,654.7188 628.625,654.7188 Q627.2656,654.7188 626.4219,655.7031 Q625.5938,656.6719 625.5938,658.8438 Q625.5938,661.1406 626.4219,662.125 Q627.25,663.1094 628.5781,663.1094 Q629.5625,663.1094 630.2656,662.4844 Q630.9688,661.8594 631.2656,660.5313 Z " fill="#000000"/><text fill="#000000" font-family="Verdana" font-size="14" lengthAdjust="spacing" textLength="156" x="640.5" y="664.5679">StepAdapterRedisPool</text><line style="stroke:#000000;stroke-width:1.0;" x1="616.5" x2="798.5" y1="673" y2="673"/><text fill="#000000" font-family="Verdana" font-size="14" lengthAdjust="spacing" textLength="156" x="621.5" y="691.0752">+MAX_CONNECTIONS</text><text fill="#000000" font-family="Verdana" font-size="14" lengthAdjust="spacing" textLength="68" x="621.5" y="708.0898">+__init__</text><text fill="#000000" font-family="Verdana" font-size="14" lengthAdjust="spacing" textLength="137" x="621.5" y="725.1045">+async __aenter__</text><text fill="#000000" font-family="Verdana" font-size="14" lengthAdjust="spacing" textLength="126" x="621.5" y="742.1191">+async __aexit__</text><line style="stroke:#000000;stroke-width:1.0;" x1="616.5" x2="798.5" y1="749.0586" y2="749.0586"/></g><!--class StepAdapterRedisStream--><g id="elem_StepAdapterRedisStream"><rect codeLine="61" fill="#FFFFFF" height="180.1172" id="StepAdapterRedisStream" rx="2.5" ry="2.5" style="stroke:#000000;stroke-width:1.0;" width="259" x="477" y="320"/><ellipse cx="513.85" cy="334" fill="#FFFFFF" rx="9" ry="9" style="stroke:#000000;stroke-width:1.0;"/><path d="M516.6156,335.5313 L519.0063,336.2813 Q518.4594,338.2656 517.1781,339.2344 Q515.9125,340.2031 513.9438,340.2031 Q511.5219,340.2031 509.9594,338.5469 Q508.4125,336.8906 508.4125,334.0156 Q508.4125,330.9844 509.975,329.3125 Q511.5375,327.625 514.1,327.625 Q516.3344,327.625 517.725,328.9375 Q518.5531,329.7188 518.975,331.1875 L516.5375,331.7656 Q516.3188,330.8125 515.6313,330.2656 Q514.9594,329.7188 513.975,329.7188 Q512.6156,329.7188 511.7719,330.7031 Q510.9438,331.6719 510.9438,333.8438 Q510.9438,336.1406 511.7719,337.125 Q512.6,338.1094 513.9281,338.1094 Q514.9125,338.1094 515.6156,337.4844 Q516.3188,336.8594 516.6156,335.5313 Z " fill="#000000"/><text fill="#000000" font-family="Verdana" font-size="14" lengthAdjust="spacing" textLength="178" x="531.15" y="339.5679">StepAdapterRedisStream</text><line style="stroke:#000000;stroke-width:1.0;" x1="478" x2="735" y1="348" y2="348"/><text fill="#000000" font-family="Verdana" font-size="14" lengthAdjust="spacing" textLength="132" x="483" y="366.0752">-_consumer_name</text><text fill="#000000" font-family="Verdana" font-size="14" lengthAdjust="spacing" textLength="58" x="483" y="383.0898">-_config</text><text fill="#000000" font-family="Verdana" font-size="14" lengthAdjust="spacing" textLength="89" x="483" y="400.1045">-_stream_ttl</text><text fill="#000000" font-family="Verdana" font-size="14" lengthAdjust="spacing" textLength="68" x="483" y="417.1191">+__init__</text><text fill="#000000" font-family="Verdana" font-size="14" lengthAdjust="spacing" textLength="137" x="483" y="434.1338">+async __aenter__</text><text fill="#000000" font-family="Verdana" font-size="14" lengthAdjust="spacing" textLength="247" x="483" y="451.1484">+async create_client_input_stream</text><text fill="#000000" font-family="Verdana" font-size="14" lengthAdjust="spacing" textLength="216" x="483" y="468.1631">+async publish_position_array</text><text fill="#000000" font-family="Verdana" font-size="14" lengthAdjust="spacing" textLength="238" x="483" y="485.1777">+async receive_adapter_message</text><line style="stroke:#000000;stroke-width:1.0;" x1="478" x2="735" y1="492.1172" y2="492.1172"/></g><!--class StepLogger--><g id="elem_StepLogger"><rect codeLine="72" fill="#FFFFFF" height="78.0293" id="StepLogger" rx="2.5" ry="2.5" style="stroke:#000000;stroke-width:1.0;" width="123" x="272" y="662"/><ellipse cx="290.85" cy="676" fill="#FFFFFF" rx="9" ry="9" style="stroke:#000000;stroke-width:1.0;"/><path d="M293.6156,677.5313 L296.0063,678.2813 Q295.4594,680.2656 294.1781,681.2344 Q292.9125,682.2031 290.9438,682.2031 Q288.5219,682.2031 286.9594,680.5469 Q285.4125,678.8906 285.4125,676.0156 Q285.4125,672.9844 286.975,671.3125 Q288.5375,669.625 291.1,669.625 Q293.3344,669.625 294.725,670.9375 Q295.5531,671.7188 295.975,673.1875 L293.5375,673.7656 Q293.3188,672.8125 292.6313,672.2656 Q291.9594,671.7188 290.975,671.7188 Q289.6156,671.7188 288.7719,672.7031 Q287.9438,673.6719 287.9438,675.8438 Q287.9438,678.1406 288.7719,679.125 Q289.6,680.1094 290.9281,680.1094 Q291.9125,680.1094 292.6156,679.4844 Q293.3188,678.8594 293.6156,677.5313 Z " fill="#000000"/><text fill="#000000" font-family="Verdana" font-size="14" lengthAdjust="spacing" textLength="82" x="304.15" y="681.5679">StepLogger</text><line style="stroke:#000000;stroke-width:1.0;" x1="273" x2="394" y1="690" y2="690"/><text fill="#000000" font-family="Verdana" font-size="14" lengthAdjust="spacing" text-decoration="underline" textLength="111" x="278" y="708.0752">+setup_logging</text><text fill="#000000" font-family="Verdana" font-size="14" lengthAdjust="spacing" text-decoration="underline" textLength="87" x="278" y="725.0898">+get_logger</text><line style="stroke:#000000;stroke-width:1.0;" x1="273" x2="394" y1="732.0293" y2="732.0293"/></g><!--class StepRedisPool--><g id="elem_StepRedisPool"><rect fill="#FFFFFF" height="44" id="StepRedisPool" rx="2.5" ry="2.5" style="stroke:#000000;stroke-width:1.0;" width="128" x="685.5" y="953"/><ellipse cx="698.5" cy="967" fill="#FFFFFF" rx="9" ry="9" style="stroke:#000000;stroke-width:1.0;"/><path d="M701.2656,968.5313 L703.6563,969.2813 Q703.1094,971.2656 701.8281,972.2344 Q700.5625,973.2031 698.5938,973.2031 Q696.1719,973.2031 694.6094,971.5469 Q693.0625,969.8906 693.0625,967.0156 Q693.0625,963.9844 694.625,962.3125 Q696.1875,960.625 698.75,960.625 Q700.9844,960.625 702.375,961.9375 Q703.2031,962.7188 703.625,964.1875 L701.1875,964.7656 Q700.9688,963.8125 700.2813,963.2656 Q699.6094,962.7188 698.625,962.7188 Q697.2656,962.7188 696.4219,963.7031 Q695.5938,964.6719 695.5938,966.8438 Q695.5938,969.1406 696.4219,970.125 Q697.25,971.1094 698.5781,971.1094 Q699.5625,971.1094 700.2656,970.4844 Q700.9688,969.8594 701.2656,968.5313 Z " fill="#000000"/><text fill="#000000" font-family="Verdana" font-size="14" lengthAdjust="spacing" textLength="100" x="710.5" y="972.5679">StepRedisPool</text><line style="stroke:#000000;stroke-width:1.0;" x1="686.5" x2="812.5" y1="981" y2="981"/><line style="stroke:#000000;stroke-width:1.0;" x1="686.5" x2="812.5" y1="989" y2="989"/></g><!--class StepRedisStream--><g id="elem_StepRedisStream"><rect fill="#FFFFFF" height="44" id="StepRedisStream" rx="2.5" ry="2.5" style="stroke:#000000;stroke-width:1.0;" width="150" x="430.5" y="679"/><ellipse cx="443.5" cy="693" fill="#FFFFFF" rx="9" ry="9" style="stroke:#000000;stroke-width:1.0;"/><path d="M446.2656,694.5313 L448.6563,695.2813 Q448.1094,697.2656 446.8281,698.2344 Q445.5625,699.2031 443.5938,699.2031 Q441.1719,699.2031 439.6094,697.5469 Q438.0625,695.8906 438.0625,693.0156 Q438.0625,689.9844 439.625,688.3125 Q441.1875,686.625 443.75,686.625 Q445.9844,686.625 447.375,687.9375 Q448.2031,688.7188 448.625,690.1875 L446.1875,690.7656 Q445.9688,689.8125 445.2813,689.2656 Q444.6094,688.7188 443.625,688.7188 Q442.2656,688.7188 441.4219,689.7031 Q440.5938,690.6719 440.5938,692.8438 Q440.5938,695.1406 441.4219,696.125 Q442.25,697.1094 443.5781,697.1094 Q444.5625,697.1094 445.2656,696.4844 Q445.9688,695.8594 446.2656,694.5313 Z " fill="#000000"/><text fill="#000000" font-family="Verdana" font-size="14" lengthAdjust="spacing" textLength="122" x="455.5" y="698.5679">StepRedisStream</text><line style="stroke:#000000;stroke-width:1.0;" x1="431.5" x2="579.5" y1="707" y2="707"/><line style="stroke:#000000;stroke-width:1.0;" x1="431.5" x2="579.5" y1="715" y2="715"/></g><!--link ActorDataset to PointDataset--><g id="link_ActorDataset_PointDataset"><path codeLine="77" d="M288.8,226.33 C282.57,236.34 276.39,246.34 270.5,256 C262.14,269.71 253.45,284.18 244.92,298.53 " fill="none" id="ActorDataset-to-PointDataset" style="stroke:#000000;stroke-width:1.0;"/><polygon fill="#000000" points="242.27,302.97,250.3082,297.279,244.8257,298.6725,243.4322,293.19,242.27,302.97" style="stroke:#000000;stroke-width:1.0;"/><text fill="#000000" font-family="Verdana" font-size="13" lengthAdjust="spacing" textLength="58" x="271.5" y="270.0698">manages</text></g><!--link ActorDataset to StepAdapterRedisStream--><g id="link_ActorDataset_StepAdapterRedisStream"><path codeLine="78" d="M448.53,226.38 C473.98,255.8 501.39,287.49 526.12,316.08 " fill="none" id="ActorDataset-to-StepAdapterRedisStream" style="stroke:#000000;stroke-width:1.0;"/><polygon fill="#000000" points="529.43,319.91,526.5923,310.4788,526.169,316.1198,520.528,315.6964,529.43,319.91" style="stroke:#000000;stroke-width:1.0;"/><text fill="#000000" font-family="Verdana" font-size="13" lengthAdjust="spacing" textLength="79" x="482.5" y="270.0698">publishes to</text></g><!--link ActorDataset to StepLogger--><g id="link_ActorDataset_StepLogger"><path codeLine="79" d="M352.29,226.04 C347.19,354.89 338.8,566.24 335.22,656.71 " fill="none" id="ActorDataset-to-StepLogger" style="stroke:#000000;stroke-width:1.0;"/><polygon fill="#000000" points="335.01,661.97,339.3665,653.1371,335.2098,656.974,331.3729,652.8173,335.01,661.97" style="stroke:#000000;stroke-width:1.0;"/><text fill="#000000" font-family="Verdana" font-size="13" lengthAdjust="spacing" textLength="59" x="350.5" y="415.5698">logs with</text></g><!--link PointDataset to PointInterpolation--><g id="link_PointDataset_PointInterpolation"><path codeLine="81" d="M159.89,517.38 C155.37,540.67 150.58,565.38 146.04,588.85 " fill="none" id="PointDataset-to-PointInterpolation" style="stroke:#000000;stroke-width:1.0;"/><polygon fill="#000000" points="145.07,593.84,150.7168,585.7707,146.0259,588.9322,142.8644,584.2413,145.07,593.84" style="stroke:#000000;stroke-width:1.0;"/><text fill="#000000" font-family="Verdana" font-size="13" lengthAdjust="spacing" textLength="30" x="153.5" y="561.0698">uses</text></g><!--link PointDataset to StepLogger--><g id="link_PointDataset_StepLogger"><path codeLine="82" d="M236.82,517.38 C262.42,565.75 291.28,620.25 310.75,657.02 " fill="none" id="PointDataset-to-StepLogger" style="stroke:#000000;stroke-width:1.0;"/><polygon fill="#000000" points="313.31,661.86,312.6619,652.0325,310.983,657.4345,305.581,655.7556,313.31,661.86" style="stroke:#000000;stroke-width:1.0;"/><text fill="#000000" font-family="Verdana" font-size="13" lengthAdjust="spacing" textLength="59" x="258.5" y="561.0698">logs with</text></g><!--link StepAdapterRedisStream to StepAdapterRedisPool--><g id="link_StepAdapterRedisStream_StepAdapterRedisPool"><path codeLine="84" d="M637.63,500.07 C653.5,545.49 672.38,599.52 686.52,639.96 " fill="none" id="StepAdapterRedisStream-to-StepAdapterRedisPool" style="stroke:#000000;stroke-width:1.0;"/><polygon fill="#000000" points="688.22,644.82,689.0183,635.0036,686.5663,640.1014,681.4685,637.6494,688.22,644.82" style="stroke:#000000;stroke-width:1.0;"/><text fill="#000000" font-family="Verdana" font-size="13" lengthAdjust="spacing" textLength="30" x="657.5" y="561.0698">uses</text></g><!--link StepAdapterRedisStream to StepAdapterConfig--><g id="link_StepAdapterRedisStream_StepAdapterConfig"><path codeLine="85" d="M736.12,493.14 C768.79,520.85 799.63,554.85 817.5,594 C856.99,680.53 840.52,715.72 817.5,808 C811.77,830.96 811.2,840.5 792.5,855 C747.69,889.75 719.05,859.31 668.5,885 C663.95,887.31 659.42,889.86 654.95,892.59 " fill="none" id="StepAdapterRedisStream-to-StepAdapterConfig" style="stroke:#000000;stroke-width:1.0;"/><polygon fill="#000000" points="650.5,895.37,660.2507,893.9832,654.7376,892.7162,656.0046,887.203,650.5,895.37" style="stroke:#000000;stroke-width:1.0;"/><text fill="#000000" font-family="Verdana" font-size="13" lengthAdjust="spacing" textLength="90" x="841.5" y="706.5698">configured by</text></g><!--link StepAdapterRedisPool to StepAdapterConfig--><g id="link_StepAdapterRedisPool_StepAdapterConfig"><path codeLine="87" d="M674.19,757.02 C659.69,781.55 642.79,810.96 628.5,838 C621.36,851.51 614.1,865.94 607.14,880.16 " fill="none" id="StepAdapterRedisPool-to-StepAdapterConfig" style="stroke:#000000;stroke-width:1.0;"/><polygon fill="#000000" points="604.79,884.97,612.3281,878.6315,606.9801,880.4752,605.1364,875.1272,604.79,884.97" style="stroke:#000000;stroke-width:1.0;"/><text fill="#000000" font-family="Verdana" font-size="13" lengthAdjust="spacing" textLength="90" x="629.5" y="852.0698">configured by</text></g><!--link StepLogger to StepAdapterConfig--><g id="link_StepLogger_StepAdapterConfig"><path codeLine="89" d="M360.77,740.46 C375.61,760.89 394.55,786.21 412.5,808 C432.49,832.26 454.88,857.71 476.17,881.2 " fill="none" id="StepLogger-to-StepAdapterConfig" style="stroke:#000000;stroke-width:1.0;"/><polygon fill="#000000" points="479.58,884.96,476.4947,875.6069,476.2202,881.2571,470.57,880.9826,479.58,884.96" style="stroke:#000000;stroke-width:1.0;"/><text fill="#000000" font-family="Verdana" font-size="13" lengthAdjust="spacing" textLength="90" x="453.5" y="852.0698">configured by</text></g><!--link StepAdapterRedisPool to StepRedisPool--><g id="link_StepAdapterRedisPool_StepRedisPool"><path codeLine="91" d="M716,757.04 C724.05,809.17 735.95,886.25 743.19,933.13 " fill="none" id="StepAdapterRedisPool-to-StepRedisPool" style="stroke:#000000;stroke-width:1.0;"/><polygon fill="none" points="750.11,932.07,746.24,952.91,736.27,934.21,750.11,932.07" style="stroke:#000000;stroke-width:1.0;"/><text fill="#000000" font-family="Verdana" font-size="13" lengthAdjust="spacing" textLength="52" x="731.5" y="852.0698">extends</text></g><!--link StepAdapterRedisStream to StepRedisStream--><g id="link_StepAdapterRedisStream_StepRedisStream"><path codeLine="92" d="M575.37,500.07 C556.72,553.45 533.9,618.74 519.53,659.86 " fill="none" id="StepAdapterRedisStream-to-StepRedisStream" style="stroke:#000000;stroke-width:1.0;"/><polygon fill="none" points="526.06,662.4,512.85,678.97,512.84,657.78,526.06,662.4" style="stroke:#000000;stroke-width:1.0;"/><text fill="#000000" font-family="Verdana" font-size="13" lengthAdjust="spacing" textLength="52" x="556.5" y="561.0698">extends</text></g><!--SRC=[fLHDZzCm4BttLvXpLObp3qXLuL09kYkA43VBTQQfMSSszhYqbFtlJ6odNqbNk-8KPpmpxxtvy3lSGWFCQQ7CA3mfuuGN3PDQX313z6eT4HRIcfNw0-pzQ9Hks4oYzHy5YW38ZYF6s8IBrXRo6Q5nrWlDbQbWdssKPAFgVDQshi5tP_dKdiQSl1Loddv4LUMCtDcWK5cJp3NWoS25z-AG4CTIWp3HSTWxvQ6w89D2w5Vje2IKDXeSFNTQ7gqoUAE5BE2TrQ83dl0TR1MXS0scncssUTY01oE11qokN5MtDtRz4oIUBeQhqDVUKtsc1EVRh525JlUDgiMbZBCs5v7_YX0X6sp46ylhIHB8CCETq17ElV5ygm8L_z01D0H9PNDQ6Q1Vs6oKL62m350D1ZmbwiWbf72Mjq9miqeuGfmdibdTk1sybi1tyA6hdZBK7Mh5KZH9tzW32JJKbLGVObgibSg4INBw7bDNvJDhrLMm4L7ZzONpHAkKYmT9koHUS82z87OmgE9hY_vehIv2lin-yFd3Slbf_ctni5mDr3ySZ6IS2sX5z8pxv7WNQOKUQC-Fftw7s50MKqfqFG8XEND4_IOQagAeWrAtVIrZbrDTEBcurYfiRvRwme6Q1MbtCtlUG0YYlYdYvpIafNIdujD2qvFG3h0o0nqjaqs9hfwpoUJ3zPimPOqm11dwVdVAEkraGM1eXyCAvIaZ6e7zLlIcZAvWJpokjtZAOY0gFTTxEUzG76AVng_aVrrOsRqfo-CIQOVO-j07JPdV45k4_1_QtnnyAGts2APwGTrbpAcP9UeV]--></g></svg>