<?xml version="1.0" encoding="us-ascii" standalone="no"?><svg xmlns="http://www.w3.org/2000/svg" xmlns:xlink="http://www.w3.org/1999/xlink" contentStyleType="text/css" height="358px" preserveAspectRatio="none" style="width:688px;height:358px;background:#FFFFFF;" version="1.1" viewBox="0 0 688 358" width="688px" zoomAndPan="magnify"><defs/><g><line style="stroke:#181818;stroke-width:0.5;stroke-dasharray:5.0,5.0;" x1="75" x2="75" y1="37.6094" y2="321.7734"/><line style="stroke:#181818;stroke-width:0.5;stroke-dasharray:5.0,5.0;" x1="259.5" x2="259.5" y1="37.6094" y2="321.7734"/><line style="stroke:#181818;stroke-width:0.5;stroke-dasharray:5.0,5.0;" x1="429" x2="429" y1="37.6094" y2="321.7734"/><line style="stroke:#181818;stroke-width:0.5;stroke-dasharray:5.0,5.0;" x1="630" x2="630" y1="37.6094" y2="321.7734"/><rect fill="#E2E2F0" height="31.6094" rx="2.5" ry="2.5" style="stroke:#181818;stroke-width:0.5;" width="140" x="5" y="5"/><text fill="#000000" font-family="sans-serif" font-size="14" lengthAdjust="spacing" textLength="126" x="12" y="26.5332">STEP MQTT Broker</text><rect fill="#E2E2F0" height="31.6094" rx="2.5" ry="2.5" style="stroke:#181818;stroke-width:0.5;" width="140" x="5" y="320.7734"/><text fill="#000000" font-family="sans-serif" font-size="14" lengthAdjust="spacing" textLength="126" x="12" y="342.3066">STEP MQTT Broker</text><rect fill="#E2E2F0" height="31.6094" rx="2.5" ry="2.5" style="stroke:#181818;stroke-width:0.5;" width="85" x="217.5" y="5"/><text fill="#000000" font-family="sans-serif" font-size="14" lengthAdjust="spacing" textLength="71" x="224.5" y="26.5332">StepBroker</text><rect fill="#E2E2F0" height="31.6094" rx="2.5" ry="2.5" style="stroke:#181818;stroke-width:0.5;" width="85" x="217.5" y="320.7734"/><text fill="#000000" font-family="sans-serif" font-size="14" lengthAdjust="spacing" textLength="71" x="224.5" y="342.3066">StepBroker</text><rect fill="#E2E2F0" height="31.6094" rx="2.5" ry="2.5" style="stroke:#181818;stroke-width:0.5;" width="160" x="349" y="5"/><text fill="#000000" font-family="sans-serif" font-size="14" lengthAdjust="spacing" textLength="146" x="356" y="26.5332">StepClientRedisStream</text><rect fill="#E2E2F0" height="31.6094" rx="2.5" ry="2.5" style="stroke:#181818;stroke-width:0.5;" width="160" x="349" y="320.7734"/><text fill="#000000" font-family="sans-serif" font-size="14" lengthAdjust="spacing" textLength="146" x="356" y="342.3066">StepClientRedisStream</text><rect fill="#E2E2F0" height="31.6094" rx="2.5" ry="2.5" style="stroke:#181818;stroke-width:0.5;" width="104" x="578" y="5"/><text fill="#000000" font-family="sans-serif" font-size="14" lengthAdjust="spacing" textLength="90" x="585" y="26.5332">STEP Adapter</text><rect fill="#E2E2F0" height="31.6094" rx="2.5" ry="2.5" style="stroke:#181818;stroke-width:0.5;" width="104" x="578" y="320.7734"/><text fill="#000000" font-family="sans-serif" font-size="14" lengthAdjust="spacing" textLength="90" x="585" y="342.3066">STEP Adapter</text><polygon fill="#181818" points="86,65.9609,76,69.9609,86,73.9609,82,69.9609" style="stroke:#181818;stroke-width:1.0;"/><line style="stroke:#181818;stroke-width:1.0;" x1="80" x2="259" y1="69.9609" y2="69.9609"/><text fill="#000000" font-family="sans-serif" font-size="13" lengthAdjust="spacing" textLength="125" x="92" y="65.1045">mqtt_subscribe(topic)</text><polygon fill="#181818" points="248,96.3125,258,100.3125,248,104.3125,252,100.3125" style="stroke:#181818;stroke-width:1.0;"/><line style="stroke:#181818;stroke-width:1.0;" x1="75" x2="254" y1="100.3125" y2="100.3125"/><text fill="#000000" font-family="sans-serif" font-size="13" lengthAdjust="spacing" textLength="49" x="82" y="95.4561">success</text><polygon fill="#181818" points="248,126.6641,258,130.6641,248,134.6641,252,130.6641" style="stroke:#181818;stroke-width:1.0;"/><line style="stroke:#181818;stroke-width:1.0;" x1="75" x2="254" y1="130.6641" y2="130.6641"/><text fill="#000000" font-family="sans-serif" font-size="13" lengthAdjust="spacing" textLength="161" x="82" y="125.8076">on_message(ITS_message)</text><path d="M187,143.6641 L187,202.6641 L333,202.6641 L333,153.6641 L323,143.6641 L187,143.6641 " fill="#FEFFDD" style="stroke:#181818;stroke-width:0.5;"/><path d="M323,143.6641 L323,153.6641 L333,153.6641 L323,143.6641 " fill="#FEFFDD" style="stroke:#181818;stroke-width:0.5;"/><text fill="#000000" font-family="sans-serif" font-size="13" lengthAdjust="spacing" textLength="100" x="193" y="162.1592">Convert message</text><text fill="#000000" font-family="sans-serif" font-size="13" lengthAdjust="spacing" textLength="88" x="193" y="178.5107">from ITS format</text><text fill="#000000" font-family="sans-serif" font-size="13" lengthAdjust="spacing" textLength="125" x="193" y="194.8623">to JSON cloud events</text><line style="stroke:#181818;stroke-width:1.0;" x1="260" x2="302" y1="230.0703" y2="230.0703"/><line style="stroke:#181818;stroke-width:1.0;" x1="302" x2="302" y1="230.0703" y2="243.0703"/><line style="stroke:#181818;stroke-width:1.0;" x1="261" x2="302" y1="243.0703" y2="243.0703"/><polygon fill="#181818" points="271,239.0703,261,243.0703,271,247.0703,267,243.0703" style="stroke:#181818;stroke-width:1.0;"/><text fill="#000000" font-family="sans-serif" font-size="13" lengthAdjust="spacing" textLength="155" x="267" y="225.2139">ITS_decode(ITS_message)</text><polygon fill="#181818" points="417,269.4219,427,273.4219,417,277.4219,421,273.4219" style="stroke:#181818;stroke-width:1.0;"/><line style="stroke:#181818;stroke-width:1.0;" x1="260" x2="423" y1="273.4219" y2="273.4219"/><text fill="#000000" font-family="sans-serif" font-size="13" lengthAdjust="spacing" textLength="94" x="267" y="268.5654">JSON_message</text><polygon fill="#181818" points="618,299.7734,628,303.7734,618,307.7734,622,303.7734" style="stroke:#181818;stroke-width:1.0;"/><line style="stroke:#181818;stroke-width:1.0;" x1="429" x2="624" y1="303.7734" y2="303.7734"/><text fill="#000000" font-family="sans-serif" font-size="13" lengthAdjust="spacing" textLength="177" x="436" y="298.917">redis_stream(JSON_message)</text><!--SRC=[PP3RJiCm38RlynJMhjgBlK25a61222IExNsL9TuKiSGXSOTuUvAGLcNSsRy__pvu6TWeuwLZsFJ3tIiylGq3t0RwmB016Kik_1-CqQ-0Uydu9R__CxkJGSVlg4tiEQ2q1I_v1PpdtcZfkLhMM8Zg3Tlhtxqwi9_COvpsKGMpnuR96zKktDLsvkAa5COeIfhQAz41kT6cWZnYyp3qSzmAHun0PmpBGG2m8vSKXafbwH38Gkg40mKhEKjCyDY_F8CwqQG1p-dgAD1fo9xh6vObycIDYlJ54Yks_AahndDT52qNwuCw25aPOtblisRR7m00]--></g></svg>