<?plantuml 1.2026.1?><svg xmlns="http://www.w3.org/2000/svg" xmlns:xlink="http://www.w3.org/1999/xlink" contentStyleType="text/css" data-diagram-type="CLASS" height="1261px" preserveAspectRatio="none" style="width:1063px;height:1261px;background:#FFFFFF;" version="1.1" viewBox="0 0 1063 1261" width="1063px" zoomAndPan="magnify"><defs/><g><!--cluster step_redis--><g class="cluster" data-qualified-name="step_redis" data-source-line="56" id="ent0005"><path d="M13.5,360.5 L97.3584,360.5 A3.75,3.75 0 0 1 99.8584,363 L106.8584,383.5146 L644.5,383.5146 A2.5,2.5 0 0 1 647,386.0146 L647,889.5 A2.5,2.5 0 0 1 644.5,892 L13.5,892 A2.5,2.5 0 0 1 11,889.5 L11,363 A2.5,2.5 0 0 1 13.5,360.5" fill="#FFFFFF" style="stroke:#000000;stroke-width:1;"/><line style="stroke:#000000;stroke-width:1;" x1="11" x2="106.8584" y1="383.5146" y2="383.5146"/><text fill="#000000" font-family="Verdana" font-size="14" font-weight="bold" lengthAdjust="spacing" textLength="82.8584" x="15" y="376.5752">step_redis</text></g><!--class StepRedisPool--><g class="entity" data-qualified-name="step_redis.StepRedisPool" data-source-line="57" id="ent0006"><rect fill="#FFFFFF" height="95.0439" rx="2.5" ry="2.5" style="stroke:#000000;stroke-width:1;" width="149.5596" x="110" y="755.5"/><ellipse cx="132.9896" cy="769.5" fill="#FFFFFF" rx="9" ry="9" style="stroke:#000000;stroke-width:1;"/><path d="M135.7553,771.0313 L138.1459,771.7813 Q137.599,773.7656 136.3178,774.7344 Q135.0521,775.7031 133.0834,775.7031 Q130.6615,775.7031 129.099,774.0469 Q127.5521,772.3906 127.5521,769.5156 Q127.5521,766.4844 129.1146,764.8125 Q130.6771,763.125 133.2396,763.125 Q135.474,763.125 136.8646,764.4375 Q137.6928,765.2188 138.1146,766.6875 L135.6771,767.2656 Q135.4584,766.3125 134.7709,765.7656 Q134.099,765.2188 133.1146,765.2188 Q131.7553,765.2188 130.9115,766.2031 Q130.0834,767.1719 130.0834,769.3438 Q130.0834,771.6406 130.9115,772.625 Q131.7396,773.6094 133.0678,773.6094 Q134.0521,773.6094 134.7553,772.9844 Q135.4584,772.3594 135.7553,771.0313 Z " fill="#000000"/><text fill="#000000" font-family="Verdana" font-size="14" lengthAdjust="spacing" textLength="99.3604" x="147.2096" y="775.0679">StepRedisPool</text><line style="stroke:#000000;stroke-width:1;" x1="111" x2="258.5596" y1="783.5" y2="783.5"/><text fill="#000000" font-family="Verdana" font-size="14" lengthAdjust="spacing" textLength="69.1182" x="116" y="801.5752">+__init__</text><text fill="#000000" font-family="Verdana" font-size="14" lengthAdjust="spacing" textLength="137.5596" x="116" y="818.5898">+async __aenter__</text><text fill="#000000" font-family="Verdana" font-size="14" lengthAdjust="spacing" textLength="126.5127" x="116" y="835.6045">+async __aexit__</text><line style="stroke:#000000;stroke-width:1;" x1="111" x2="258.5596" y1="842.5439" y2="842.5439"/></g><!--class StepRedisStream--><g class="entity" data-qualified-name="step_redis.StepRedisStream" data-source-line="63" id="ent0007"><rect fill="#FFFFFF" height="146.0879" rx="2.5" ry="2.5" style="stroke:#000000;stroke-width:1;" width="215.1436" x="295.5" y="730"/><ellipse cx="338.5674" cy="744" fill="#FFFFFF" rx="9" ry="9" style="stroke:#000000;stroke-width:1;"/><path d="M341.333,745.5313 L343.7236,746.2813 Q343.1768,748.2656 341.8955,749.2344 Q340.6299,750.2031 338.6611,750.2031 Q336.2393,750.2031 334.6768,748.5469 Q333.1299,746.8906 333.1299,744.0156 Q333.1299,740.9844 334.6924,739.3125 Q336.2549,737.625 338.8174,737.625 Q341.0518,737.625 342.4424,738.9375 Q343.2705,739.7188 343.6924,741.1875 L341.2549,741.7656 Q341.0361,740.8125 340.3486,740.2656 Q339.6768,739.7188 338.6924,739.7188 Q337.333,739.7188 336.4893,740.7031 Q335.6611,741.6719 335.6611,743.8438 Q335.6611,746.1406 336.4893,747.125 Q337.3174,748.1094 338.6455,748.1094 Q339.6299,748.1094 340.333,747.4844 Q341.0361,746.8594 341.333,745.5313 Z " fill="#000000"/><text fill="#000000" font-family="Verdana" font-size="14" lengthAdjust="spacing" textLength="121.5088" x="356.0674" y="749.5679">StepRedisStream</text><line style="stroke:#000000;stroke-width:1;" x1="296.5" x2="509.6436" y1="758" y2="758"/><text fill="#000000" font-family="Verdana" font-size="14" lengthAdjust="spacing" textLength="69.1182" x="301.5" y="776.0752">+__init__</text><text fill="#000000" font-family="Verdana" font-size="14" lengthAdjust="spacing" textLength="137.5596" x="301.5" y="793.0898">+async __aenter__</text><text fill="#000000" font-family="Verdana" font-size="14" lengthAdjust="spacing" textLength="126.5127" x="301.5" y="810.1045">+async __aexit__</text><text fill="#000000" font-family="Verdana" font-size="14" lengthAdjust="spacing" textLength="203.1436" x="301.5" y="827.1191">+async create_input_stream</text><text fill="#000000" font-family="Verdana" font-size="14" lengthAdjust="spacing" textLength="177.5771" x="301.5" y="844.1338">+async publish_message</text><text fill="#000000" font-family="Verdana" font-size="14" lengthAdjust="spacing" textLength="177.8506" x="301.5" y="861.1484">+async receive_message</text><line style="stroke:#000000;stroke-width:1;" x1="296.5" x2="509.6436" y1="868.0879" y2="868.0879"/></g><!--class StepAdapterRedisStream--><g class="entity" data-qualified-name="step_redis.StepAdapterRedisStream" data-source-line="72" id="ent0008"><rect fill="#FFFFFF" height="112.0586" rx="2.5" ry="2.5" style="stroke:#000000;stroke-width:1;" width="252.8438" x="377.5" y="396.5"/><ellipse cx="412.136" cy="410.5" fill="#FFFFFF" rx="9" ry="9" style="stroke:#000000;stroke-width:1;"/><path d="M414.9017,412.0313 L417.2923,412.7813 Q416.7454,414.7656 415.4642,415.7344 Q414.1985,416.7031 412.2298,416.7031 Q409.8079,416.7031 408.2454,415.0469 Q406.6985,413.3906 406.6985,410.5156 Q406.6985,407.4844 408.261,405.8125 Q409.8235,404.125 412.386,404.125 Q414.6204,404.125 416.011,405.4375 Q416.8392,406.2188 417.261,407.6875 L414.8235,408.2656 Q414.6048,407.3125 413.9173,406.7656 Q413.2454,406.2188 412.261,406.2188 Q410.9017,406.2188 410.0579,407.2031 Q409.2298,408.1719 409.2298,410.3438 Q409.2298,412.6406 410.0579,413.625 Q410.886,414.6094 412.2142,414.6094 Q413.1985,414.6094 413.9017,413.9844 Q414.6048,413.3594 414.9017,412.0313 Z " fill="#000000"/><text fill="#000000" font-family="Verdana" font-size="14" lengthAdjust="spacing" textLength="176.7637" x="428.944" y="416.0679">StepAdapterRedisStream</text><line style="stroke:#000000;stroke-width:1;" x1="378.5" x2="629.3438" y1="424.5" y2="424.5"/><text fill="#000000" font-family="Verdana" font-size="14" lengthAdjust="spacing" textLength="69.1182" x="383.5" y="442.5752">+__init__</text><text fill="#000000" font-family="Verdana" font-size="14" lengthAdjust="spacing" textLength="137.5596" x="383.5" y="459.5898">+async __aenter__</text><text fill="#000000" font-family="Verdana" font-size="14" lengthAdjust="spacing" textLength="215.7969" x="383.5" y="476.6045">+async publish_cam_message</text><text fill="#000000" font-family="Verdana" font-size="14" lengthAdjust="spacing" textLength="240.8438" x="383.5" y="493.6191">+async receive_adapter_message</text><line style="stroke:#000000;stroke-width:1;" x1="378.5" x2="629.3438" y1="500.5586" y2="500.5586"/></g><!--class StepCrashPredictionRedisStream--><g class="entity" data-qualified-name="step_redis.StepCrashPredictionRedisStream" data-source-line="79" id="ent0009"><rect fill="#FFFFFF" height="112.0586" rx="2.5" ry="2.5" style="stroke:#000000;stroke-width:1;" width="315.0918" x="27.5" y="396.5"/><ellipse cx="65.7207" cy="410.5" fill="#FFFFFF" rx="9" ry="9" style="stroke:#000000;stroke-width:1;"/><path d="M68.4863,412.0313 L70.877,412.7813 Q70.3301,414.7656 69.0488,415.7344 Q67.7832,416.7031 65.8145,416.7031 Q63.3926,416.7031 61.8301,415.0469 Q60.2832,413.3906 60.2832,410.5156 Q60.2832,407.4844 61.8457,405.8125 Q63.4082,404.125 65.9707,404.125 Q68.2051,404.125 69.5957,405.4375 Q70.4238,406.2188 70.8457,407.6875 L68.4082,408.2656 Q68.1895,407.3125 67.502,406.7656 Q66.8301,406.2188 65.8457,406.2188 Q64.4863,406.2188 63.6426,407.2031 Q62.8145,408.1719 62.8145,410.3438 Q62.8145,412.6406 63.6426,413.625 Q64.4707,414.6094 65.7988,414.6094 Q66.7832,414.6094 67.4863,413.9844 Q68.1895,413.3594 68.4863,412.0313 Z " fill="#000000"/><text fill="#000000" font-family="Verdana" font-size="14" lengthAdjust="spacing" textLength="231.1504" x="83.2207" y="416.0679">StepCrashPredictionRedisStream</text><line style="stroke:#000000;stroke-width:1;" x1="28.5" x2="341.5918" y1="424.5" y2="424.5"/><text fill="#000000" font-family="Verdana" font-size="14" lengthAdjust="spacing" textLength="69.1182" x="33.5" y="442.5752">+__init__</text><text fill="#000000" font-family="Verdana" font-size="14" lengthAdjust="spacing" textLength="137.5596" x="33.5" y="459.5898">+async __aenter__</text><text fill="#000000" font-family="Verdana" font-size="14" lengthAdjust="spacing" textLength="216.583" x="33.5" y="476.6045">+async publish_position_array</text><text fill="#000000" font-family="Verdana" font-size="14" lengthAdjust="spacing" textLength="303.0918" x="33.5" y="493.6191">+async receive_crash_prediction_message</text><line style="stroke:#000000;stroke-width:1;" x1="28.5" x2="341.5918" y1="500.5586" y2="500.5586"/></g><!--class ActorDataset--><g class="entity" data-qualified-name="ActorDataset" data-source-line="4" id="ent0002"><rect fill="#FFFFFF" height="163.1025" rx="2.5" ry="2.5" style="stroke:#000000;stroke-width:1;" width="226.7715" x="570.5" y="12"/><ellipse cx="634.5742" cy="26" fill="#FFFFFF" rx="9" ry="9" style="stroke:#000000;stroke-width:1;"/><path d="M637.3398,27.5313 L639.7305,28.2813 Q639.1836,30.2656 637.9023,31.2344 Q636.6367,32.2031 634.668,32.2031 Q632.2461,32.2031 630.6836,30.5469 Q629.1367,28.8906 629.1367,26.0156 Q629.1367,22.9844 630.6992,21.3125 Q632.2617,19.625 634.8242,19.625 Q637.0586,19.625 638.4492,20.9375 Q639.2773,21.7188 639.6992,23.1875 L637.2617,23.7656 Q637.043,22.8125 636.3555,22.2656 Q635.6836,21.7188 634.6992,21.7188 Q633.3398,21.7188 632.4961,22.7031 Q631.668,23.6719 631.668,25.8438 Q631.668,28.1406 632.4961,29.125 Q633.3242,30.1094 634.6523,30.1094 Q635.6367,30.1094 636.3398,29.4844 Q637.043,28.8594 637.3398,27.5313 Z " fill="#000000"/><text fill="#000000" font-family="Verdana" font-size="14" lengthAdjust="spacing" textLength="91.123" x="652.0742" y="31.5679">ActorDataset</text><line style="stroke:#000000;stroke-width:1;" x1="571.5" x2="796.2715" y1="40" y2="40"/><text fill="#000000" font-family="Verdana" font-size="14" lengthAdjust="spacing" textLength="112.0547" x="576.5" y="58.0752">-_actor_dataset</text><text fill="#000000" font-family="Verdana" font-size="14" lengthAdjust="spacing" textLength="214.7715" x="576.5" y="75.0898">-_last_ordered_recorded_time</text><text fill="#000000" font-family="Verdana" font-size="14" lengthAdjust="spacing" textLength="57.3945" x="576.5" y="92.1045">-_config</text><text fill="#000000" font-family="Verdana" font-size="14" lengthAdjust="spacing" textLength="59.3564" x="576.5" y="109.1191">-_logger</text><text fill="#000000" font-family="Verdana" font-size="14" lengthAdjust="spacing" textLength="69.1182" x="576.5" y="126.1338">+__init__</text><text fill="#000000" font-family="Verdana" font-size="14" lengthAdjust="spacing" textLength="146.4463" x="576.5" y="143.1484">+add_cam_message</text><text fill="#000000" font-family="Verdana" font-size="14" lengthAdjust="spacing" textLength="126.9092" x="576.5" y="160.1631">+clear_old_points</text><line style="stroke:#000000;stroke-width:1;" x1="571.5" x2="796.2715" y1="167.1025" y2="167.1025"/></g><!--class PointDataset--><g class="entity" data-qualified-name="PointDataset" data-source-line="14" id="ent0003"><rect fill="#FFFFFF" height="401.3076" rx="2.5" ry="2.5" style="stroke:#000000;stroke-width:1;" width="254.7578" x="665.5" y="252"/><ellipse cx="744.415" cy="266" fill="#FFFFFF" rx="9" ry="9" style="stroke:#000000;stroke-width:1;"/><path d="M747.1807,267.5313 L749.5713,268.2813 Q749.0244,270.2656 747.7432,271.2344 Q746.4775,272.2031 744.5088,272.2031 Q742.0869,272.2031 740.5244,270.5469 Q738.9775,268.8906 738.9775,266.0156 Q738.9775,262.9844 740.54,261.3125 Q742.1025,259.625 744.665,259.625 Q746.8994,259.625 748.29,260.9375 Q749.1182,261.7188 749.54,263.1875 L747.1025,263.7656 Q746.8838,262.8125 746.1963,262.2656 Q745.5244,261.7188 744.54,261.7188 Q743.1807,261.7188 742.3369,262.7031 Q741.5088,263.6719 741.5088,265.8438 Q741.5088,268.1406 742.3369,269.125 Q743.165,270.1094 744.4932,270.1094 Q745.4775,270.1094 746.1807,269.4844 Q746.8838,268.8594 747.1807,267.5313 Z " fill="#000000"/><text fill="#000000" font-family="Verdana" font-size="14" lengthAdjust="spacing" textLength="89.4277" x="761.915" y="271.5679">PointDataset</text><line style="stroke:#000000;stroke-width:1;" x1="666.5" x2="919.2578" y1="280" y2="280"/><text fill="#000000" font-family="Verdana" font-size="14" lengthAdjust="spacing" textLength="154.7109" x="671.5" y="298.0752">-_input_points_queue</text><text fill="#000000" font-family="Verdana" font-size="14" lengthAdjust="spacing" textLength="242.7578" x="671.5" y="315.0898">-_np_input_points_timestamp_ms</text><text fill="#000000" font-family="Verdana" font-size="14" lengthAdjust="spacing" textLength="191.1191" x="671.5" y="332.1045">-_np_input_points_latitude</text><text fill="#000000" font-family="Verdana" font-size="14" lengthAdjust="spacing" textLength="203.2734" x="671.5" y="349.1191">-_np_input_points_longitude</text><text fill="#000000" font-family="Verdana" font-size="14" lengthAdjust="spacing" textLength="191.1191" x="671.5" y="366.1338">-_np_input_points_altitude</text><text fill="#000000" font-family="Verdana" font-size="14" lengthAdjust="spacing" textLength="117.0996" x="671.5" y="383.1484">-_vehicle_length</text><text fill="#000000" font-family="Verdana" font-size="14" lengthAdjust="spacing" textLength="111.3574" x="671.5" y="400.1631">-_vehicle_width</text><text fill="#000000" font-family="Verdana" font-size="14" lengthAdjust="spacing" textLength="50.9482" x="671.5" y="417.1777">-_actor</text><text fill="#000000" font-family="Verdana" font-size="14" lengthAdjust="spacing" textLength="57.3945" x="671.5" y="434.1924">-_config</text><text fill="#000000" font-family="Verdana" font-size="14" lengthAdjust="spacing" textLength="59.3564" x="671.5" y="451.207">-_logger</text><text fill="#000000" font-family="Verdana" font-size="14" lengthAdjust="spacing" textLength="69.1182" x="671.5" y="468.2217">+__init__</text><text fill="#000000" font-family="Verdana" font-size="14" lengthAdjust="spacing" textLength="81.6484" x="671.5" y="485.2363">+add_point</text><text fill="#000000" font-family="Verdana" font-size="14" lengthAdjust="spacing" textLength="47.1475" x="671.5" y="502.251">+actor</text><text fill="#000000" font-family="Verdana" font-size="14" lengthAdjust="spacing" textLength="113.2988" x="671.5" y="519.2656">+vehicle_length</text><text fill="#000000" font-family="Verdana" font-size="14" lengthAdjust="spacing" textLength="107.5566" x="671.5" y="536.2803">+vehicle_width</text><text fill="#000000" font-family="Verdana" font-size="14" lengthAdjust="spacing" textLength="130.4365" x="671.5" y="553.2949">+last_record_time</text><text fill="#000000" font-family="Verdana" font-size="14" lengthAdjust="spacing" textLength="205.8574" x="671.5" y="570.3096">-_create_interpolated_arrays</text><text fill="#000000" font-family="Verdana" font-size="14" lengthAdjust="spacing" textLength="216.583" x="671.5" y="587.3242">-_create_interpolated_position</text><text fill="#000000" font-family="Verdana" font-size="14" lengthAdjust="spacing" textLength="159.79" x="671.5" y="604.3389">-_create_positions_list</text><text fill="#000000" font-family="Verdana" font-size="14" lengthAdjust="spacing" textLength="199.999" x="671.5" y="621.3535">-_check_position_coherence</text><text fill="#000000" font-family="Verdana" font-size="14" lengthAdjust="spacing" textLength="106.2852" x="671.5" y="638.3682">-_clear_history</text><line style="stroke:#000000;stroke-width:1;" x1="666.5" x2="919.2578" y1="645.3076" y2="645.3076"/></g><!--class StepAdapterConfig--><g class="entity" data-qualified-name="StepAdapterConfig" data-source-line="38" id="ent0004"><rect fill="#FFFFFF" height="299.2197" rx="2.5" ry="2.5" style="stroke:#000000;stroke-width:1;" width="252.1875" x="616" y="955"/><ellipse cx="672.3325" cy="969" fill="#FFFFFF" rx="9" ry="9" style="stroke:#000000;stroke-width:1;"/><path d="M675.0981,970.5313 L677.4888,971.2813 Q676.9419,973.2656 675.6606,974.2344 Q674.395,975.2031 672.4263,975.2031 Q670.0044,975.2031 668.4419,973.5469 Q666.895,971.8906 666.895,969.0156 Q666.895,965.9844 668.4575,964.3125 Q670.02,962.625 672.5825,962.625 Q674.8169,962.625 676.2075,963.9375 Q677.0356,964.7188 677.4575,966.1875 L675.02,966.7656 Q674.8013,965.8125 674.1138,965.2656 Q673.4419,964.7188 672.4575,964.7188 Q671.0981,964.7188 670.2544,965.7031 Q669.4263,966.6719 669.4263,968.8438 Q669.4263,971.1406 670.2544,972.125 Q671.0825,973.1094 672.4106,973.1094 Q673.395,973.1094 674.0981,972.4844 Q674.8013,971.8594 675.0981,970.5313 Z " fill="#000000"/><text fill="#000000" font-family="Verdana" font-size="14" lengthAdjust="spacing" textLength="132.0225" x="689.8325" y="974.5679">StepAdapterConfig</text><line style="stroke:#000000;stroke-width:1;" x1="617" x2="867.1875" y1="983" y2="983"/><text fill="#000000" font-family="Verdana" font-size="14" lengthAdjust="spacing" textLength="126.1367" x="622" y="1001.0752">+templateVersion</text><text fill="#000000" font-family="Verdana" font-size="14" lengthAdjust="spacing" textLength="219.6934" x="622" y="1018.0898">+maxActorHistoryPointNumber</text><text fill="#000000" font-family="Verdana" font-size="14" lengthAdjust="spacing" textLength="119.5674" x="622" y="1035.1045">+inputMaxPeriod</text><text fill="#000000" font-family="Verdana" font-size="14" lengthAdjust="spacing" textLength="212.3857" x="622" y="1052.1191">+inputLocalTimeMaxDeviation</text><text fill="#000000" font-family="Verdana" font-size="14" lengthAdjust="spacing" textLength="180.6875" x="622" y="1069.1338">+inputOldestAllowedTime</text><text fill="#000000" font-family="Verdana" font-size="14" lengthAdjust="spacing" textLength="240.1875" x="622" y="1086.1484">+outputNominalSampleFrequency</text><text fill="#000000" font-family="Verdana" font-size="14" lengthAdjust="spacing" textLength="196.1162" x="622" y="1103.1631">+outputPeriodMaxDeviation</text><text fill="#000000" font-family="Verdana" font-size="14" lengthAdjust="spacing" textLength="158.0332" x="622" y="1120.1777">+receiveClientNumber</text><text fill="#000000" font-family="Verdana" font-size="14" lengthAdjust="spacing" textLength="117.6328" x="622" y="1137.1924">+cleanerInterval</text><text fill="#000000" font-family="Verdana" font-size="14" lengthAdjust="spacing" textLength="135.5498" x="622" y="1154.207">+reconnectInterval</text><text fill="#000000" font-family="Verdana" font-size="14" lengthAdjust="spacing" textLength="45.6299" x="622" y="1171.2217">+redis</text><text fill="#000000" font-family="Verdana" font-size="14" lengthAdjust="spacing" textLength="32.5186" x="622" y="1188.2363">+log</text><text fill="#000000" font-family="Verdana" font-size="14" lengthAdjust="spacing" text-decoration="underline" textLength="91.5469" x="622" y="1205.251">+get_default</text><text fill="#000000" font-family="Verdana" font-size="14" lengthAdjust="spacing" text-decoration="underline" textLength="158.1221" x="622" y="1222.2656">+print_config_schema</text><text fill="#000000" font-family="Verdana" font-size="14" lengthAdjust="spacing" text-decoration="underline" textLength="163.8643" x="622" y="1239.2803">+print_config_example</text><line style="stroke:#000000;stroke-width:1;" x1="617" x2="867.1875" y1="1246.2197" y2="1246.2197"/></g><!--class StepLogger--><g class="entity" data-qualified-name="StepLogger" data-source-line="87" id="ent0010"><rect fill="#FFFFFF" height="78.0293" rx="2.5" ry="2.5" style="stroke:#000000;stroke-width:1;" width="155.5137" x="868" y="764"/><ellipse cx="902.2915" cy="778" fill="#FFFFFF" rx="9" ry="9" style="stroke:#000000;stroke-width:1;"/><path d="M905.0571,779.5313 L907.4478,780.2813 Q906.9009,782.2656 905.6196,783.2344 Q904.354,784.2031 902.3853,784.2031 Q899.9634,784.2031 898.4009,782.5469 Q896.854,780.8906 896.854,778.0156 Q896.854,774.9844 898.4165,773.3125 Q899.979,771.625 902.5415,771.625 Q904.7759,771.625 906.1665,772.9375 Q906.9946,773.7188 907.4165,775.1875 L904.979,775.7656 Q904.7603,774.8125 904.0728,774.2656 Q903.4009,773.7188 902.4165,773.7188 Q901.0571,773.7188 900.2134,774.7031 Q899.3853,775.6719 899.3853,777.8438 Q899.3853,780.1406 900.2134,781.125 Q901.0415,782.1094 902.3696,782.1094 Q903.354,782.1094 904.0571,781.4844 Q904.7603,780.8594 905.0571,779.5313 Z " fill="#000000"/><text fill="#000000" font-family="Verdana" font-size="14" lengthAdjust="spacing" textLength="80.1992" x="919.0229" y="783.5679">StepLogger</text><line style="stroke:#000000;stroke-width:1;" x1="869" x2="1022.5137" y1="792" y2="792"/><text fill="#000000" font-family="Verdana" font-size="14" lengthAdjust="spacing" text-decoration="underline" textLength="87.0352" x="874" y="810.0752">+get_logger</text><text fill="#000000" font-family="Verdana" font-size="14" lengthAdjust="spacing" text-decoration="underline" textLength="143.5137" x="874" y="827.0898">+logger_force_write</text><line style="stroke:#000000;stroke-width:1;" x1="869" x2="1022.5137" y1="834.0293" y2="834.0293"/></g><!--link ActorDataset to PointDataset--><g class="link" data-entity-1="ent0002" data-entity-2="ent0003" data-link-type="dependency" data-source-line="92" id="lnk11"><path codeLine="92" d="M708.6,175.06 C715.69,198.3 722.0187,219.0113 730.2887,246.1113" fill="none" id="ActorDataset-to-PointDataset" style="stroke:#000000;stroke-width:1;"/><polygon fill="#000000" points="732.04,251.85,733.2389,242.0744,730.5806,247.0677,725.5873,244.4094,732.04,251.85" style="stroke:#000000;stroke-width:1;"/><text fill="#000000" font-family="Verdana" font-size="13" lengthAdjust="spacing" textLength="59.103" x="723" y="219.0698">manages</text></g><!--link StepAdapterRedisStream to ActorDataset--><g class="link" data-entity-1="ent0008" data-entity-2="ent0002" data-link-type="dependency" data-source-line="93" id="lnk12"><path codeLine="93" d="M531.75,396.46 C561.59,337.28 606.619,247.9777 640.679,180.4177" fill="none" id="StepAdapterRedisStream-to-ActorDataset" style="stroke:#000000;stroke-width:1;"/><polygon fill="#000000" points="643.38,175.06,635.7567,181.2958,641.1291,179.5247,642.9002,184.8972,643.38,175.06" style="stroke:#000000;stroke-width:1;"/><text fill="#000000" font-family="Verdana" font-size="13" lengthAdjust="spacing" textLength="65.0508" x="626" y="219.0698">consumes</text></g><!--link ActorDataset to StepCrashPredictionRedisStream--><g class="link" data-entity-1="ent0002" data-entity-2="ent0009" data-link-type="dependency" data-source-line="94" id="lnk13"><path codeLine="94" d="M570.12,136.68 C504.97,163.92 423.78,203.35 360,252 C306.15,293.07 260.0425,347.9619 227.4725,391.3419" fill="none" id="ActorDataset-to-StepCrashPredictionRedisStream" style="stroke:#000000;stroke-width:1;"/><polygon fill="#000000" points="223.87,396.14,232.4725,391.3444,226.8721,392.1415,226.075,386.5411,223.87,396.14" style="stroke:#000000;stroke-width:1;"/><text fill="#000000" font-family="Verdana" font-size="13" lengthAdjust="spacing" textLength="78.6602" x="427" y="219.0698">publishes to</text></g><!--link ActorDataset to StepLogger--><g class="link" data-entity-1="ent0002" data-entity-2="ent0010" data-link-type="dependency" data-source-line="95" id="lnk14"><path codeLine="95" d="M797.63,136.43 C849.47,161.69 906.25,199.35 938,252 C1038.6,418.83 985.5574,663.2493 959.2074,758.0093" fill="none" id="ActorDataset-to-StepLogger" style="stroke:#000000;stroke-width:1;"/><polygon fill="#000000" points="957.6,763.79,963.8649,756.1906,958.9395,758.9728,956.1574,754.0474,957.6,763.79" style="stroke:#000000;stroke-width:1;"/><text fill="#000000" font-family="Verdana" font-size="13" lengthAdjust="spacing" textLength="58.4556" x="997" y="458.0698">logs with</text></g><!--link PointDataset to StepLogger--><g class="link" data-entity-1="ent0003" data-entity-2="ent0010" data-link-type="dependency" data-source-line="97" id="lnk15"><path codeLine="97" d="M880.67,653.19 C899.3,695.63 914.6073,730.5065 926.8873,758.4665" fill="none" id="PointDataset-to-StepLogger" style="stroke:#000000;stroke-width:1;"/><polygon fill="#000000" points="929.3,763.96,929.3432,754.1112,927.2894,759.3821,922.0185,757.3282,929.3,763.96" style="stroke:#000000;stroke-width:1;"/><text fill="#000000" font-family="Verdana" font-size="13" lengthAdjust="spacing" textLength="58.4556" x="901" y="697.0698">logs with</text></g><!--link StepAdapterRedisStream to StepRedisPool--><g class="link" data-entity-1="ent0008" data-entity-2="ent0006" data-link-type="dependency" data-source-line="99" id="lnk16"><path codeLine="99" d="M479,508.61 C451.88,563.22 404.03,646.27 342,700 C318.26,720.57 304.8,713.62 278,730 C265.63,737.56 257.7603,742.8471 245.9203,751.7771" fill="none" id="StepAdapterRedisStream-to-StepRedisPool" style="stroke:#000000;stroke-width:1;"/><polygon fill="#000000" points="241.13,755.39,250.724,753.1641,245.1219,752.3792,245.9068,746.7771,241.13,755.39" style="stroke:#000000;stroke-width:1;"/><text fill="#000000" font-family="Verdana" font-size="13" lengthAdjust="spacing" textLength="29.5166" x="361" y="697.0698">uses</text></g><!--link StepCrashPredictionRedisStream to StepRedisPool--><g class="link" data-entity-1="ent0009" data-entity-2="ent0006" data-link-type="dependency" data-source-line="100" id="lnk17"><path codeLine="100" d="M185,508.72 C185,576.86 185,685.5 185,749.4" fill="none" id="StepCrashPredictionRedisStream-to-StepRedisPool" style="stroke:#000000;stroke-width:1;"/><polygon fill="#000000" points="185,755.4,189,746.4,185,750.4,181,746.4,185,755.4" style="stroke:#000000;stroke-width:1;"/><text fill="#000000" font-family="Verdana" font-size="13" lengthAdjust="spacing" textLength="29.5166" x="186" y="697.0698">uses</text></g><!--link StepAdapterRedisStream to StepAdapterConfig--><g class="link" data-entity-1="ent0008" data-entity-2="ent0004" data-link-type="dependency" data-source-line="101" id="lnk18"><path codeLine="101" d="M548.66,508.65 C589.47,562.02 648.16,646.83 680,730 C707.32,801.36 721.8922,878.9743 730.4422,948.9443" fill="none" id="StepAdapterRedisStream-to-StepAdapterConfig" style="stroke:#000000;stroke-width:1;"/><polygon fill="#000000" points="731.17,954.9,734.0488,945.4813,730.5635,949.9369,726.1079,946.4516,731.17,954.9" style="stroke:#000000;stroke-width:1;"/><text fill="#000000" font-family="Verdana" font-size="13" lengthAdjust="spacing" textLength="89.1084" x="723" y="808.5698">configured by</text></g><!--link StepCrashPredictionRedisStream to StepAdapterConfig--><g class="link" data-entity-1="ent0009" data-entity-2="ent0004" data-link-type="dependency" data-source-line="102" id="lnk19"><path codeLine="102" d="M218.93,508.81 C249.97,554.59 300.09,617.64 360,653 C413.68,684.68 445.61,647.72 497,683 C550.44,719.69 559.59,859.45 581,900 C591.1,919.12 599.6497,933.3003 612.4297,951.7203" fill="none" id="StepCrashPredictionRedisStream-to-StepAdapterConfig" style="stroke:#000000;stroke-width:1;"/><polygon fill="#000000" points="615.85,956.65,614.0061,946.9753,612.9998,952.5419,607.4331,951.5357,615.85,956.65" style="stroke:#000000;stroke-width:1;"/><text fill="#000000" font-family="Verdana" font-size="13" lengthAdjust="spacing" textLength="89.1084" x="582" y="808.5698">configured by</text></g><!--link StepLogger to StepAdapterConfig--><g class="link" data-entity-1="ent0010" data-entity-2="ent0004" data-link-type="dependency" data-source-line="104" id="lnk20"><path codeLine="104" d="M919.96,842.24 C900.19,871.25 875.0279,908.2012 846.5679,949.9812" fill="none" id="StepLogger-to-StepAdapterConfig" style="stroke:#000000;stroke-width:1;"/><polygon fill="#000000" points="843.19,954.94,851.5627,949.7537,846.0049,950.8076,844.9509,945.2498,843.19,954.94" style="stroke:#000000;stroke-width:1;"/><text fill="#000000" font-family="Verdana" font-size="13" lengthAdjust="spacing" textLength="89.1084" x="875" y="922.0698">configured by</text></g><!--link StepAdapterRedisStream to StepRedisStream--><g class="link" data-entity-1="ent0008" data-entity-2="ent0007" data-link-type="extension" data-source-line="106" id="lnk21"><path codeLine="106" d="M488,508.72 C470.67,568.51 447.9703,646.8114 428.9303,712.5114" fill="none" id="StepAdapterRedisStream-to-StepRedisStream" style="stroke:#000000;stroke-width:1;"/><polygon fill="none" points="423.92,729.8,434.6932,714.1815,423.1674,710.8413,423.92,729.8" style="stroke:#000000;stroke-width:1;"/><text fill="#000000" font-family="Verdana" font-size="13" lengthAdjust="spacing" textLength="51.4033" x="437" y="697.0698">extends</text></g><!--link StepCrashPredictionRedisStream to StepRedisStream--><g class="link" data-entity-1="ent0009" data-entity-2="ent0007" data-link-type="extension" data-source-line="107" id="lnk22"><path codeLine="107" d="M199.21,508.64 C214.55,561.2 242.64,640.87 285,700 C292.41,710.35 288.4895,707.4661 297.6995,716.8761" fill="none" id="StepCrashPredictionRedisStream-to-StepRedisStream" style="stroke:#000000;stroke-width:1;"/><polygon fill="none" points="310.29,729.74,301.9875,712.6793,293.4116,721.0729,310.29,729.74" style="stroke:#000000;stroke-width:1;"/><text fill="#000000" font-family="Verdana" font-size="13" lengthAdjust="spacing" textLength="51.4033" x="286" y="697.0698">extends</text></g><?plantuml-src hLLDRzim3BtxLsYz6WLspg50q6BOWAuBbc9NWP7OMAWiUPAS9klwtqV9Tc8bgTS2lLdyq2FvdkXFeS8QMQD1cS8_AjE0Wve93TxFGt1grGRy9gnPgZ_8FXT5yh2v2DRTG02FWJqNZB5B3j76PMViJ1GRk7KI7KhkKCHFoOEgiVFJlGzgtSVQzHfT_2uvLqO5pjC1fEG2QbwZzx1EYQNG28vRBNbZbGc-U1aAMyJpKM7KL1lwIFwxnRP7DqtkYdNv07N3Qty-GaDGePMlv6jhrXDkqEFa3LQAsk0QpJfKkUr9oS6KXlg-OIMuxZGabwTevGbOcTZgM1fpv1024aX0rrYQ0348pi7El-vlh5T1MPD534OQbFAzG4I5ud7leHOhaeeH0tIYkQ9ewtO7ZfS1cxc4XW2lqqmweik0THFnVw7pFNXPmpPfzMjtIPB7NLkl-k4bWhx3Te5EMNamtLe1-fvcGBuRt2WOkkdSFxGafSorjayex_jHbRODvBkpjJAWbwGZZLySak2Cs8q2EgoJYsdmg3PuhHLc9SOX67JVudmte8TOQmoAS6ILodTCsgIJyfda79HuOMiCNE83j3haZiRHG7ffSKzqr30HWDlKLQIY0V58pv5TU6A39-YBZeS3IJ-ZTM6jxXp7QaqIzJiZ6EU0iPDpzkqGJg2djoy3YQl-aFiFvhsau-lr2I4FQDeLQRWQxwI3ioTox3mklLVl1tGmL7Aq8K-hWGvoggfh1xvQH2f5LEK7LhT_u6bnd2zGH7JUxE7pIhF7VvksN__gCusFzkBUtjduWtM2jfrJ8Uat-uDTNbxbVuuPgy4Gk2zUeIjcP5VC6BqHtrBHfrV_PxYpOKxeMR3dq_kMPx4RpvuKhUmYgtWgSAA7_9dEMElxdYVgdSoRmCbtTXeOVRI4mLQxju9ENrACHl2EZBD5_xqwMJCpXjk0HhvXH5FP_m00?></g></svg>