<?xml version="1.0" encoding="us-ascii" standalone="no"?><svg xmlns="http://www.w3.org/2000/svg" xmlns:xlink="http://www.w3.org/1999/xlink" contentStyleType="text/css" height="1344px" preserveAspectRatio="none" style="width:1077px;height:1344px;background:#FFFFFF;" version="1.1" viewBox="0 0 1077 1344" width="1077px" zoomAndPan="magnify"><defs/><g><!--class DenServiceManager--><g id="elem_DenServiceManager"><rect codeLine="4" fill="#FFFFFF" height="163.1025" id="DenServiceManager" rx="2.5" ry="2.5" style="stroke:#000000;stroke-width:1.0;" width="318" x="318.5" y="12"/><ellipse cx="405.25" cy="26" fill="#FFFFFF" rx="9" ry="9" style="stroke:#000000;stroke-width:1.0;"/><path d="M408.0156,27.5313 L410.4063,28.2813 Q409.8594,30.2656 408.5781,31.2344 Q407.3125,32.2031 405.3438,32.2031 Q402.9219,32.2031 401.3594,30.5469 Q399.8125,28.8906 399.8125,26.0156 Q399.8125,22.9844 401.375,21.3125 Q402.9375,19.625 405.5,19.625 Q407.7344,19.625 409.125,20.9375 Q409.9531,21.7188 410.375,23.1875 L407.9375,23.7656 Q407.7188,22.8125 407.0313,22.2656 Q406.3594,21.7188 405.375,21.7188 Q404.0156,21.7188 403.1719,22.7031 Q402.3438,23.6719 402.3438,25.8438 Q402.3438,28.1406 403.1719,29.125 Q404,30.1094 405.3281,30.1094 Q406.3125,30.1094 407.0156,29.4844 Q407.7188,28.8594 408.0156,27.5313 Z " fill="#000000"/><text fill="#000000" font-family="Verdana" font-size="14" lengthAdjust="spacing" textLength="137" x="422.75" y="31.5679">DenServiceManager</text><line style="stroke:#000000;stroke-width:1.0;" x1="319.5" x2="635.5" y1="40" y2="40"/><text fill="#000000" font-family="Verdana" font-size="14" lengthAdjust="spacing" textLength="152" x="324.5" y="58.0752">-_denm_service_data</text><text fill="#000000" font-family="Verdana" font-size="14" lengthAdjust="spacing" textLength="60" x="324.5" y="75.0898">-_logger</text><text fill="#000000" font-family="Verdana" font-size="14" lengthAdjust="spacing" textLength="68" x="324.5" y="92.1045">+__init__</text><text fill="#000000" font-family="Verdana" font-size="14" lengthAdjust="spacing" textLength="306" x="324.5" y="109.1191">+async process_station_collisions_received</text><text fill="#000000" font-family="Verdana" font-size="14" lengthAdjust="spacing" textLength="279" x="324.5" y="126.1338">+async process_denm_record_received</text><text fill="#000000" font-family="Verdana" font-size="14" lengthAdjust="spacing" textLength="216" x="324.5" y="143.1484">+async periodical_cleanup_run</text><text fill="#000000" font-family="Verdana" font-size="14" lengthAdjust="spacing" textLength="187" x="324.5" y="160.1631">-denm_create_cancellation</text><line style="stroke:#000000;stroke-width:1.0;" x1="319.5" x2="635.5" y1="167.1025" y2="167.1025"/></g><!--class DenServiceDataManager--><g id="elem_DenServiceDataManager"><rect codeLine="14" fill="#FFFFFF" height="333.249" id="DenServiceDataManager" rx="2.5" ry="2.5" style="stroke:#000000;stroke-width:1.0;" width="335" x="72" y="252"/><ellipse cx="150.75" cy="266" fill="#FFFFFF" rx="9" ry="9" style="stroke:#000000;stroke-width:1.0;"/><path d="M153.5156,267.5313 L155.9063,268.2813 Q155.3594,270.2656 154.0781,271.2344 Q152.8125,272.2031 150.8438,272.2031 Q148.4219,272.2031 146.8594,270.5469 Q145.3125,268.8906 145.3125,266.0156 Q145.3125,262.9844 146.875,261.3125 Q148.4375,259.625 151,259.625 Q153.2344,259.625 154.625,260.9375 Q155.4531,261.7188 155.875,263.1875 L153.4375,263.7656 Q153.2188,262.8125 152.5313,262.2656 Q151.8594,261.7188 150.875,261.7188 Q149.5156,261.7188 148.6719,262.7031 Q147.8438,263.6719 147.8438,265.8438 Q147.8438,268.1406 148.6719,269.125 Q149.5,270.1094 150.8281,270.1094 Q151.8125,270.1094 152.5156,269.4844 Q153.2188,268.8594 153.5156,267.5313 Z " fill="#000000"/><text fill="#000000" font-family="Verdana" font-size="14" lengthAdjust="spacing" textLength="170" x="168.25" y="271.5679">DenServiceDataManager</text><line style="stroke:#000000;stroke-width:1.0;" x1="73" x2="406" y1="280" y2="280"/><text fill="#000000" font-family="Verdana" font-size="14" lengthAdjust="spacing" textLength="172" x="78" y="298.0752">-_denm_sorted_records</text><text fill="#000000" font-family="Verdana" font-size="14" lengthAdjust="spacing" textLength="141" x="78" y="315.0898">-_record_key_index</text><text fill="#000000" font-family="Verdana" font-size="14" lengthAdjust="spacing" textLength="126" x="78" y="332.1045">-_action_id_index</text><text fill="#000000" font-family="Verdana" font-size="14" lengthAdjust="spacing" textLength="86" x="78" y="349.1191">-_station_id</text><text fill="#000000" font-family="Verdana" font-size="14" lengthAdjust="spacing" textLength="145" x="78" y="366.1338">-_sequence_number</text><text fill="#000000" font-family="Verdana" font-size="14" lengthAdjust="spacing" textLength="151" x="78" y="383.1484">-_time_after_collision</text><text fill="#000000" font-family="Verdana" font-size="14" lengthAdjust="spacing" textLength="261" x="78" y="400.1631">-_denm_last_update_max_delay_ms</text><text fill="#000000" font-family="Verdana" font-size="14" lengthAdjust="spacing" textLength="294" x="78" y="417.1777">-_denm_check_last_update_max_interval</text><text fill="#000000" font-family="Verdana" font-size="14" lengthAdjust="spacing" textLength="60" x="78" y="434.1924">-_logger</text><text fill="#000000" font-family="Verdana" font-size="14" lengthAdjust="spacing" textLength="43" x="78" y="451.207">-_lock</text><text fill="#000000" font-family="Verdana" font-size="14" lengthAdjust="spacing" textLength="68" x="78" y="468.2217">+__init__</text><text fill="#000000" font-family="Verdana" font-size="14" lengthAdjust="spacing" textLength="217" x="78" y="485.2363">+insert_station_collision_array</text><text fill="#000000" font-family="Verdana" font-size="14" lengthAdjust="spacing" textLength="323" x="78" y="502.251">+get_denm_records_clean_reference_expired</text><text fill="#000000" font-family="Verdana" font-size="14" lengthAdjust="spacing" textLength="234" x="78" y="519.2656">+get_interval_oldest_update_ms</text><text fill="#000000" font-family="Verdana" font-size="14" lengthAdjust="spacing" textLength="165" x="78" y="536.2803">+remove_denm_record</text><text fill="#000000" font-family="Verdana" font-size="14" lengthAdjust="spacing" textLength="112" x="78" y="553.2949">-_station_order</text><text fill="#000000" font-family="Verdana" font-size="14" lengthAdjust="spacing" textLength="107" x="78" y="570.3096">-_create_denm</text><line style="stroke:#000000;stroke-width:1.0;" x1="73" x2="406" y1="577.249" y2="577.249"/></g><!--class DenmRecord--><g id="elem_DenmRecord"><rect codeLine="34" fill="#FFFFFF" height="350.2637" id="DenmRecord" rx="2.5" ry="2.5" style="stroke:#000000;stroke-width:1.0;" width="345" x="12" y="662"/><ellipse cx="135.75" cy="676" fill="#FFFFFF" rx="9" ry="9" style="stroke:#000000;stroke-width:1.0;"/><path d="M138.5156,677.5313 L140.9063,678.2813 Q140.3594,680.2656 139.0781,681.2344 Q137.8125,682.2031 135.8438,682.2031 Q133.4219,682.2031 131.8594,680.5469 Q130.3125,678.8906 130.3125,676.0156 Q130.3125,672.9844 131.875,671.3125 Q133.4375,669.625 136,669.625 Q138.2344,669.625 139.625,670.9375 Q140.4531,671.7188 140.875,673.1875 L138.4375,673.7656 Q138.2188,672.8125 137.5313,672.2656 Q136.8594,671.7188 135.875,671.7188 Q134.5156,671.7188 133.6719,672.7031 Q132.8438,673.6719 132.8438,675.8438 Q132.8438,678.1406 133.6719,679.125 Q134.5,680.1094 135.8281,680.1094 Q136.8125,680.1094 137.5156,679.4844 Q138.2188,678.8594 138.5156,677.5313 Z " fill="#000000"/><text fill="#000000" font-family="Verdana" font-size="14" lengthAdjust="spacing" textLength="90" x="153.25" y="681.5679">DenmRecord</text><line style="stroke:#000000;stroke-width:1.0;" x1="13" x2="356" y1="690" y2="690"/><text fill="#000000" font-family="Verdana" font-size="14" lengthAdjust="spacing" textLength="55" x="18" y="708.0752">-_denm</text><text fill="#000000" font-family="Verdana" font-size="14" lengthAdjust="spacing" textLength="120" x="18" y="725.0898">-_reference_time</text><text fill="#000000" font-family="Verdana" font-size="14" lengthAdjust="spacing" textLength="94" x="18" y="742.1045">-_record_key</text><text fill="#000000" font-family="Verdana" font-size="14" lengthAdjust="spacing" textLength="126" x="18" y="759.1191">-_action_id_index</text><text fill="#000000" font-family="Verdana" font-size="14" lengthAdjust="spacing" textLength="68" x="18" y="776.1338">+__init__</text><text fill="#000000" font-family="Verdana" font-size="14" lengthAdjust="spacing" textLength="238" x="18" y="793.1484">+denm: DenmDataV1 &#171;property&#187;</text><text fill="#000000" font-family="Verdana" font-size="14" lengthAdjust="spacing" textLength="262" x="18" y="810.1631">+reference_time: ItsTime &#171;property&#187;</text><text fill="#000000" font-family="Verdana" font-size="14" lengthAdjust="spacing" textLength="309" x="18" y="827.1777">+action_id_index: tuple[int, int] &#171;property&#187;</text><text fill="#000000" font-family="Verdana" font-size="14" lengthAdjust="spacing" textLength="333" x="18" y="844.1924">+record_key: tuple[int, int, int, int] &#171;property&#187;</text><text fill="#000000" font-family="Verdana" font-size="14" lengthAdjust="spacing" textLength="64" x="18" y="861.207">+__eq__</text><text fill="#000000" font-family="Verdana" font-size="14" lengthAdjust="spacing" textLength="64" x="18" y="878.2217">+__ne__</text><text fill="#000000" font-family="Verdana" font-size="14" lengthAdjust="spacing" textLength="56" x="18" y="895.2363">+__lt__</text><text fill="#000000" font-family="Verdana" font-size="14" lengthAdjust="spacing" textLength="58" x="18" y="912.251">+__le__</text><text fill="#000000" font-family="Verdana" font-size="14" lengthAdjust="spacing" textLength="62" x="18" y="929.2656">+__gt__</text><text fill="#000000" font-family="Verdana" font-size="14" lengthAdjust="spacing" textLength="64" x="18" y="946.2803">+__ge__</text><text fill="#000000" font-family="Verdana" font-size="14" lengthAdjust="spacing" textLength="81" x="18" y="963.2949">+__hash__</text><text fill="#000000" font-family="Verdana" font-size="14" lengthAdjust="spacing" textLength="67" x="18" y="980.3096">+__str__</text><text fill="#000000" font-family="Verdana" font-size="14" lengthAdjust="spacing" textLength="76" x="18" y="997.3242">+__repr__</text><line style="stroke:#000000;stroke-width:1.0;" x1="13" x2="356" y1="1004.2637" y2="1004.2637"/></g><!--class StepProducerConfig--><g id="elem_StepProducerConfig"><rect codeLine="55" fill="#FFFFFF" height="248.1758" id="StepProducerConfig" rx="2.5" ry="2.5" style="stroke:#000000;stroke-width:1.0;" width="265" x="510" y="1089"/><ellipse cx="568.75" cy="1103" fill="#FFFFFF" rx="9" ry="9" style="stroke:#000000;stroke-width:1.0;"/><path d="M571.5156,1104.5313 L573.9063,1105.2813 Q573.3594,1107.2656 572.0781,1108.2344 Q570.8125,1109.2031 568.8438,1109.2031 Q566.4219,1109.2031 564.8594,1107.5469 Q563.3125,1105.8906 563.3125,1103.0156 Q563.3125,1099.9844 564.875,1098.3125 Q566.4375,1096.625 569,1096.625 Q571.2344,1096.625 572.625,1097.9375 Q573.4531,1098.7188 573.875,1100.1875 L571.4375,1100.7656 Q571.2188,1099.8125 570.5313,1099.2656 Q569.8594,1098.7188 568.875,1098.7188 Q567.5156,1098.7188 566.6719,1099.7031 Q565.8438,1100.6719 565.8438,1102.8438 Q565.8438,1105.1406 566.6719,1106.125 Q567.5,1107.1094 568.8281,1107.1094 Q569.8125,1107.1094 570.5156,1106.4844 Q571.2188,1105.8594 571.5156,1104.5313 Z " fill="#000000"/><text fill="#000000" font-family="Verdana" font-size="14" lengthAdjust="spacing" textLength="140" x="586.25" y="1108.5679">StepProducerConfig</text><line style="stroke:#000000;stroke-width:1.0;" x1="511" x2="774" y1="1117" y2="1117"/><text fill="#000000" font-family="Verdana" font-size="14" lengthAdjust="spacing" textLength="125" x="516" y="1135.0752">+templateVersion</text><text fill="#000000" font-family="Verdana" font-size="14" lengthAdjust="spacing" textLength="108" x="516" y="1152.0898">+instanceName</text><text fill="#000000" font-family="Verdana" font-size="14" lengthAdjust="spacing" textLength="74" x="516" y="1169.1045">+stationId</text><text fill="#000000" font-family="Verdana" font-size="14" lengthAdjust="spacing" textLength="133" x="516" y="1186.1191">+timeAfterCollision</text><text fill="#000000" font-family="Verdana" font-size="14" lengthAdjust="spacing" textLength="196" x="516" y="1203.1338">+denmLastUpdateMaxDelay</text><text fill="#000000" font-family="Verdana" font-size="14" lengthAdjust="spacing" textLength="253" x="516" y="1220.1484">+denmCheckLastUpdateMaxInterval</text><text fill="#000000" font-family="Verdana" font-size="14" lengthAdjust="spacing" textLength="133" x="516" y="1237.1631">+reconnectInterval</text><text fill="#000000" font-family="Verdana" font-size="14" lengthAdjust="spacing" textLength="45" x="516" y="1254.1777">+redis</text><text fill="#000000" font-family="Verdana" font-size="14" lengthAdjust="spacing" textLength="32" x="516" y="1271.1924">+log</text><text fill="#000000" font-family="Verdana" font-size="14" lengthAdjust="spacing" text-decoration="underline" textLength="91" x="516" y="1288.207">+get_default</text><text fill="#000000" font-family="Verdana" font-size="14" lengthAdjust="spacing" text-decoration="underline" textLength="157" x="516" y="1305.2217">+print_config_schema</text><text fill="#000000" font-family="Verdana" font-size="14" lengthAdjust="spacing" text-decoration="underline" textLength="162" x="516" y="1322.2363">+print_config_example</text><line style="stroke:#000000;stroke-width:1.0;" x1="511" x2="774" y1="1329.1758" y2="1329.1758"/></g><!--class StepProducerRedisPool--><g id="elem_StepProducerRedisPool"><rect codeLine="70" fill="#FFFFFF" height="112.0586" id="StepProducerRedisPool" rx="2.5" ry="2.5" style="stroke:#000000;stroke-width:1.0;" width="190" x="735.5" y="781"/><ellipse cx="748.5" cy="795" fill="#FFFFFF" rx="9" ry="9" style="stroke:#000000;stroke-width:1.0;"/><path d="M751.2656,796.5313 L753.6563,797.2813 Q753.1094,799.2656 751.8281,800.2344 Q750.5625,801.2031 748.5938,801.2031 Q746.1719,801.2031 744.6094,799.5469 Q743.0625,797.8906 743.0625,795.0156 Q743.0625,791.9844 744.625,790.3125 Q746.1875,788.625 748.75,788.625 Q750.9844,788.625 752.375,789.9375 Q753.2031,790.7188 753.625,792.1875 L751.1875,792.7656 Q750.9688,791.8125 750.2813,791.2656 Q749.6094,790.7188 748.625,790.7188 Q747.2656,790.7188 746.4219,791.7031 Q745.5938,792.6719 745.5938,794.8438 Q745.5938,797.1406 746.4219,798.125 Q747.25,799.1094 748.5781,799.1094 Q749.5625,799.1094 750.2656,798.4844 Q750.9688,797.8594 751.2656,796.5313 Z " fill="#000000"/><text fill="#000000" font-family="Verdana" font-size="14" lengthAdjust="spacing" textLength="162" x="760.5" y="800.5679">StepProducerRedisPool</text><line style="stroke:#000000;stroke-width:1.0;" x1="736.5" x2="924.5" y1="809" y2="809"/><text fill="#000000" font-family="Verdana" font-size="14" lengthAdjust="spacing" textLength="156" x="741.5" y="827.0752">+MAX_CONNECTIONS</text><text fill="#000000" font-family="Verdana" font-size="14" lengthAdjust="spacing" textLength="68" x="741.5" y="844.0898">+__init__</text><text fill="#000000" font-family="Verdana" font-size="14" lengthAdjust="spacing" textLength="137" x="741.5" y="861.1045">+async __aenter__</text><text fill="#000000" font-family="Verdana" font-size="14" lengthAdjust="spacing" textLength="126" x="741.5" y="878.1191">+async __aexit__</text><line style="stroke:#000000;stroke-width:1.0;" x1="736.5" x2="924.5" y1="885.0586" y2="885.0586"/></g><!--class StepProducerRedisStream--><g id="elem_StepProducerRedisStream"><rect codeLine="77" fill="#FFFFFF" height="180.1172" id="StepProducerRedisStream" rx="2.5" ry="2.5" style="stroke:#000000;stroke-width:1.0;" width="259" x="598" y="328.5"/><ellipse cx="632.15" cy="342.5" fill="#FFFFFF" rx="9" ry="9" style="stroke:#000000;stroke-width:1.0;"/><path d="M634.9156,344.0313 L637.3063,344.7813 Q636.7594,346.7656 635.4781,347.7344 Q634.2125,348.7031 632.2438,348.7031 Q629.8219,348.7031 628.2594,347.0469 Q626.7125,345.3906 626.7125,342.5156 Q626.7125,339.4844 628.275,337.8125 Q629.8375,336.125 632.4,336.125 Q634.6344,336.125 636.025,337.4375 Q636.8531,338.2188 637.275,339.6875 L634.8375,340.2656 Q634.6188,339.3125 633.9313,338.7656 Q633.2594,338.2188 632.275,338.2188 Q630.9156,338.2188 630.0719,339.2031 Q629.2438,340.1719 629.2438,342.3438 Q629.2438,344.6406 630.0719,345.625 Q630.9,346.6094 632.2281,346.6094 Q633.2125,346.6094 633.9156,345.9844 Q634.6188,345.3594 634.9156,344.0313 Z " fill="#000000"/><text fill="#000000" font-family="Verdana" font-size="14" lengthAdjust="spacing" textLength="184" x="648.85" y="348.0679">StepProducerRedisStream</text><line style="stroke:#000000;stroke-width:1.0;" x1="599" x2="856" y1="356.5" y2="356.5"/><text fill="#000000" font-family="Verdana" font-size="14" lengthAdjust="spacing" textLength="132" x="604" y="374.5752">-_consumer_name</text><text fill="#000000" font-family="Verdana" font-size="14" lengthAdjust="spacing" textLength="58" x="604" y="391.5898">-_config</text><text fill="#000000" font-family="Verdana" font-size="14" lengthAdjust="spacing" textLength="89" x="604" y="408.6045">-_stream_ttl</text><text fill="#000000" font-family="Verdana" font-size="14" lengthAdjust="spacing" textLength="68" x="604" y="425.6191">+__init__</text><text fill="#000000" font-family="Verdana" font-size="14" lengthAdjust="spacing" textLength="137" x="604" y="442.6338">+async __aenter__</text><text fill="#000000" font-family="Verdana" font-size="14" lengthAdjust="spacing" textLength="247" x="604" y="459.6484">+async create_client_input_stream</text><text fill="#000000" font-family="Verdana" font-size="14" lengthAdjust="spacing" textLength="203" x="604" y="476.6631">+async publish_its_message</text><text fill="#000000" font-family="Verdana" font-size="14" lengthAdjust="spacing" textLength="247" x="604" y="493.6777">+async receive_producer_message</text><line style="stroke:#000000;stroke-width:1.0;" x1="599" x2="856" y1="500.6172" y2="500.6172"/></g><!--class StepLogger--><g id="elem_StepLogger"><rect codeLine="88" fill="#FFFFFF" height="78.0293" id="StepLogger" rx="2.5" ry="2.5" style="stroke:#000000;stroke-width:1.0;" width="123" x="392" y="798"/><ellipse cx="410.85" cy="812" fill="#FFFFFF" rx="9" ry="9" style="stroke:#000000;stroke-width:1.0;"/><path d="M413.6156,813.5313 L416.0063,814.2813 Q415.4594,816.2656 414.1781,817.2344 Q412.9125,818.2031 410.9438,818.2031 Q408.5219,818.2031 406.9594,816.5469 Q405.4125,814.8906 405.4125,812.0156 Q405.4125,808.9844 406.975,807.3125 Q408.5375,805.625 411.1,805.625 Q413.3344,805.625 414.725,806.9375 Q415.5531,807.7188 415.975,809.1875 L413.5375,809.7656 Q413.3188,808.8125 412.6313,808.2656 Q411.9594,807.7188 410.975,807.7188 Q409.6156,807.7188 408.7719,808.7031 Q407.9438,809.6719 407.9438,811.8438 Q407.9438,814.1406 408.7719,815.125 Q409.6,816.1094 410.9281,816.1094 Q411.9125,816.1094 412.6156,815.4844 Q413.3188,814.8594 413.6156,813.5313 Z " fill="#000000"/><text fill="#000000" font-family="Verdana" font-size="14" lengthAdjust="spacing" textLength="82" x="424.15" y="817.5679">StepLogger</text><line style="stroke:#000000;stroke-width:1.0;" x1="393" x2="514" y1="826" y2="826"/><text fill="#000000" font-family="Verdana" font-size="14" lengthAdjust="spacing" text-decoration="underline" textLength="111" x="398" y="844.0752">+setup_logging</text><text fill="#000000" font-family="Verdana" font-size="14" lengthAdjust="spacing" text-decoration="underline" textLength="87" x="398" y="861.0898">+get_logger</text><line style="stroke:#000000;stroke-width:1.0;" x1="393" x2="514" y1="868.0293" y2="868.0293"/></g><!--class StepRedisPool--><g id="elem_StepRedisPool"><rect fill="#FFFFFF" height="44" id="StepRedisPool" rx="2.5" ry="2.5" style="stroke:#000000;stroke-width:1.0;" width="128" x="810.5" y="1191"/><ellipse cx="823.5" cy="1205" fill="#FFFFFF" rx="9" ry="9" style="stroke:#000000;stroke-width:1.0;"/><path d="M826.2656,1206.5313 L828.6563,1207.2813 Q828.1094,1209.2656 826.8281,1210.2344 Q825.5625,1211.2031 823.5938,1211.2031 Q821.1719,1211.2031 819.6094,1209.5469 Q818.0625,1207.8906 818.0625,1205.0156 Q818.0625,1201.9844 819.625,1200.3125 Q821.1875,1198.625 823.75,1198.625 Q825.9844,1198.625 827.375,1199.9375 Q828.2031,1200.7188 828.625,1202.1875 L826.1875,1202.7656 Q825.9688,1201.8125 825.2813,1201.2656 Q824.6094,1200.7188 823.625,1200.7188 Q822.2656,1200.7188 821.4219,1201.7031 Q820.5938,1202.6719 820.5938,1204.8438 Q820.5938,1207.1406 821.4219,1208.125 Q822.25,1209.1094 823.5781,1209.1094 Q824.5625,1209.1094 825.2656,1208.4844 Q825.9688,1207.8594 826.2656,1206.5313 Z " fill="#000000"/><text fill="#000000" font-family="Verdana" font-size="14" lengthAdjust="spacing" textLength="100" x="835.5" y="1210.5679">StepRedisPool</text><line style="stroke:#000000;stroke-width:1.0;" x1="811.5" x2="937.5" y1="1219" y2="1219"/><line style="stroke:#000000;stroke-width:1.0;" x1="811.5" x2="937.5" y1="1227" y2="1227"/></g><!--class StepRedisStream--><g id="elem_StepRedisStream"><rect fill="#FFFFFF" height="44" id="StepRedisStream" rx="2.5" ry="2.5" style="stroke:#000000;stroke-width:1.0;" width="150" x="550.5" y="815"/><ellipse cx="563.5" cy="829" fill="#FFFFFF" rx="9" ry="9" style="stroke:#000000;stroke-width:1.0;"/><path d="M566.2656,830.5313 L568.6563,831.2813 Q568.1094,833.2656 566.8281,834.2344 Q565.5625,835.2031 563.5938,835.2031 Q561.1719,835.2031 559.6094,833.5469 Q558.0625,831.8906 558.0625,829.0156 Q558.0625,825.9844 559.625,824.3125 Q561.1875,822.625 563.75,822.625 Q565.9844,822.625 567.375,823.9375 Q568.2031,824.7188 568.625,826.1875 L566.1875,826.7656 Q565.9688,825.8125 565.2813,825.2656 Q564.6094,824.7188 563.625,824.7188 Q562.2656,824.7188 561.4219,825.7031 Q560.5938,826.6719 560.5938,828.8438 Q560.5938,831.1406 561.4219,832.125 Q562.25,833.1094 563.5781,833.1094 Q564.5625,833.1094 565.2656,832.4844 Q565.9688,831.8594 566.2656,830.5313 Z " fill="#000000"/><text fill="#000000" font-family="Verdana" font-size="14" lengthAdjust="spacing" textLength="122" x="575.5" y="834.5679">StepRedisStream</text><line style="stroke:#000000;stroke-width:1.0;" x1="551.5" x2="699.5" y1="843" y2="843"/><line style="stroke:#000000;stroke-width:1.0;" x1="551.5" x2="699.5" y1="851" y2="851"/></g><!--link DenServiceManager to DenServiceDataManager--><g id="link_DenServiceManager_DenServiceDataManager"><path codeLine="93" d="M418.06,175.17 C401.65,197.43 383.22,222.45 364.58,247.74 " fill="none" id="DenServiceManager-to-DenServiceDataManager" style="stroke:#000000;stroke-width:1.0;"/><polygon fill="#000000" points="361.59,251.8,370.1514,246.9314,364.5579,247.7762,363.7132,242.1827,361.59,251.8" style="stroke:#000000;stroke-width:1.0;"/><text fill="#000000" font-family="Verdana" font-size="13" lengthAdjust="spacing" textLength="30" x="395.5" y="219.0698">uses</text></g><!--link DenServiceManager to StepProducerRedisStream--><g id="link_DenServiceManager_StepProducerRedisStream"><path codeLine="94" d="M539.94,175.17 C575.04,220.52 619,277.32 655.54,324.53 " fill="none" id="DenServiceManager-to-StepProducerRedisStream" style="stroke:#000000;stroke-width:1.0;"/><polygon fill="#000000" points="658.6,328.49,656.2631,318.9224,655.5432,324.5333,649.9323,323.8133,658.6,328.49" style="stroke:#000000;stroke-width:1.0;"/><text fill="#000000" font-family="Verdana" font-size="13" lengthAdjust="spacing" textLength="79" x="574.5" y="219.0698">publishes to</text></g><!--link DenServiceManager to StepLogger--><g id="link_DenServiceManager_StepLogger"><path codeLine="95" d="M474.89,175.27 C469.82,331.9 458.8,672.12 454.9,792.62 " fill="none" id="DenServiceManager-to-StepLogger" style="stroke:#000000;stroke-width:1.0;"/><polygon fill="#000000" points="454.73,797.85,459.0107,788.9801,454.8871,792.8525,451.0147,788.7288,454.73,797.85" style="stroke:#000000;stroke-width:1.0;"/><text fill="#000000" font-family="Verdana" font-size="13" lengthAdjust="spacing" textLength="59" x="473.5" y="424.0698">logs with</text></g><!--link DenServiceDataManager to DenmRecord--><g id="link_DenServiceDataManager_DenmRecord"><path codeLine="97" d="M217.64,585.01 C214.52,608.64 211.3,633.03 208.15,656.91 " fill="none" id="DenServiceDataManager-to-DenmRecord" style="stroke:#000000;stroke-width:1.0;"/><polygon fill="#000000" points="207.48,661.99,212.6042,653.5792,208.123,657.0315,204.6707,652.5503,207.48,661.99" style="stroke:#000000;stroke-width:1.0;"/><text fill="#000000" font-family="Verdana" font-size="13" lengthAdjust="spacing" textLength="58" x="215.5" y="629.0698">manages</text></g><!--link DenServiceDataManager to StepLogger--><g id="link_DenServiceDataManager_StepLogger"><path codeLine="98" d="M334.09,585.19 C347.99,610.73 361.86,636.94 374.5,662 C396.73,706.08 419.81,757.71 435.24,793.22 " fill="none" id="DenServiceDataManager-to-StepLogger" style="stroke:#000000;stroke-width:1.0;"/><polygon fill="#000000" points="437.27,797.9,437.3643,788.0516,435.2832,793.3117,430.0231,791.2305,437.27,797.9" style="stroke:#000000;stroke-width:1.0;"/><text fill="#000000" font-family="Verdana" font-size="13" lengthAdjust="spacing" textLength="59" x="358.5" y="629.0698">logs with</text></g><!--link StepProducerRedisStream to StepProducerRedisPool--><g id="link_StepProducerRedisStream_StepProducerRedisPool"><path codeLine="100" d="M749.53,508.59 C769.47,589.22 798.29,705.77 815.63,775.87 " fill="none" id="StepProducerRedisStream-to-StepProducerRedisPool" style="stroke:#000000;stroke-width:1.0;"/><polygon fill="#000000" points="816.86,780.84,818.5846,771.1433,815.6608,775.9859,810.8181,773.0621,816.86,780.84" style="stroke:#000000;stroke-width:1.0;"/><text fill="#000000" font-family="Verdana" font-size="13" lengthAdjust="spacing" textLength="30" x="779.5" y="629.0698">uses</text></g><!--link StepProducerRedisStream to StepProducerConfig--><g id="link_StepProducerRedisStream_StepProducerConfig"><path codeLine="101" d="M835.74,508.76 C877.86,550.4 921.28,603.65 943.5,662 C998.86,807.37 982.38,861.38 943.5,1012 C937.53,1035.11 936.48,1044.53 917.5,1059 C872.41,1093.38 844.3,1063.8 793.5,1089 C788.96,1091.25 784.43,1093.67 779.93,1096.21 " fill="none" id="StepProducerRedisStream-to-StepProducerConfig" style="stroke:#000000;stroke-width:1.0;"/><polygon fill="#000000" points="775.43,1098.8,785.2255,1097.7765,779.7633,1096.3055,781.2343,1090.8433,775.43,1098.8" style="stroke:#000000;stroke-width:1.0;"/><text fill="#000000" font-family="Verdana" font-size="13" lengthAdjust="spacing" textLength="90" x="979.5" y="842.5698">configured by</text></g><!--link StepProducerRedisPool to StepProducerConfig--><g id="link_StepProducerRedisPool_StepProducerConfig"><path codeLine="103" d="M802.76,893.18 C777.57,943.29 739.48,1019.08 706.75,1084.19 " fill="none" id="StepProducerRedisPool-to-StepProducerConfig" style="stroke:#000000;stroke-width:1.0;"/><polygon fill="#000000" points="704.4,1088.86,712.0106,1082.6087,706.6418,1084.3907,704.8598,1079.0219,704.4,1088.86" style="stroke:#000000;stroke-width:1.0;"/><text fill="#000000" font-family="Verdana" font-size="13" lengthAdjust="spacing" textLength="90" x="725.5" y="1056.0698">configured by</text></g><!--link StepLogger to StepProducerConfig--><g id="link_StepLogger_StepProducerConfig"><path codeLine="105" d="M469.78,876.07 C485.21,911.59 509.39,965.88 532.5,1012 C544.32,1035.6 557.44,1060.45 570.38,1084.32 " fill="none" id="StepLogger-to-StepProducerConfig" style="stroke:#000000;stroke-width:1.0;"/><polygon fill="#000000" points="572.79,1088.76,572.0031,1078.9426,570.4008,1084.3678,564.9756,1082.7654,572.79,1088.76" style="stroke:#000000;stroke-width:1.0;"/><text fill="#000000" font-family="Verdana" font-size="13" lengthAdjust="spacing" textLength="90" x="556.5" y="1056.0698">configured by</text></g><!--link StepProducerRedisPool to StepRedisPool--><g id="link_StepProducerRedisPool_StepRedisPool"><path codeLine="107" d="M836.99,893.18 C845.88,968.76 861.65,1102.79 869.61,1170.45 " fill="none" id="StepProducerRedisPool-to-StepRedisPool" style="stroke:#000000;stroke-width:1.0;"/><polygon fill="none" points="876.61,1170,871.99,1190.68,862.7,1171.63,876.61,1170" style="stroke:#000000;stroke-width:1.0;"/><text fill="#000000" font-family="Verdana" font-size="13" lengthAdjust="spacing" textLength="52" x="856.5" y="1056.0698">extends</text></g><!--link StepProducerRedisStream to StepRedisStream--><g id="link_StepProducerRedisStream_StepRedisStream"><path codeLine="108" d="M704.99,508.5 C696.6,541.89 687.04,580.17 678.5,615 C663.07,677.92 645.63,751.04 635.11,795.4 " fill="none" id="StepProducerRedisStream-to-StepRedisStream" style="stroke:#000000;stroke-width:1.0;"/><polygon fill="none" points="641.89,797.11,630.47,814.96,628.27,793.88,641.89,797.11" style="stroke:#000000;stroke-width:1.0;"/><text fill="#000000" font-family="Verdana" font-size="13" lengthAdjust="spacing" textLength="52" x="679.5" y="629.0698">extends</text></g><!--SRC=[fLNVRzem47xdh_2U6TBs6bMLAhe7f9PMfQicJPDbd0Ci72UrBmpMxN_VsN62WO1MxGNi- -7xxhwxomTSGG6iqaAPWLihKmah2YQrSEu6qQfvZJ2HfPcfNy0-3GP1msx1pC1kb8HxOSGIB7iRCCP6F0TJSDUeU2vGD69TBid8duUSAwEGyt0HRcSagsmfmJdkKA0g3PUbrihHoN4B4jG6yXxh48hqfSrxpS2gCbTIQ2ur25DNtDOcm0cUqe90u58O2Lg7m8C_f_dTKWwzEPOM8O_nNQE8ODQmennps3PI8KDIAa-5RQegZtTuhO6GS5CNywPI8uwg02uM27PVaWG28KLULxbFen1R4cgnuuLBJEGAvFh4K1bwSYFqCJV-BDUdB2b3ZE8fFLnOAtR1P0cO4kAQcjDj0JRa1TjAsKYGDsuny5BdaC0Bw8SMYd83wOk7PID12pdow4qF-2kUWbzAMijIYydNzvYvivmTbiG_buKmla5UFhEhA-fBwZdSNL_75D8m6PkWUwR3gU5Hh8nXNMduJWNwoEZdHz_JBTfZu_rFZnldy1hXSswWEshS7_VIvLwwt4jNmgswYqFRdIrK_j8nC4Ee7csPrnBik3GBjMoO628Kj6qGNi2s_UmR3FqSJaL3o33oF6dwnHVmne_1E9s2mC4TjVRNq3htOdlh1w1JZNtl7-WdIT-78Xe34e-akMfQaCOY_By5BF8FQrfy8MgDXuhAKhrfAdoItD785UA20Mm55G3wA_Namp-MfOx5kh_vniSFq-cNyVFaOJexjq0v5-2pE15kW-7vK3EawIdQ6I64hYxe6IFQmMX0jyFdZJcYVXUETj5gHJhogMgCJwNRkfuJiokkqF62jZljsqGRrpkl8lREv22pkx38OkMwuZkW4GbBJfaUHkFseuTElscZqVMPBq76QWVkZCkvAcTjbk0ObXUSOo8P8t2E_LIuIj6bE2B2TjTbh0WATy7yN81pg7ip2YqQY_2lZd4BPApfgPf6ZSrtFO73u-_nZkdyRy3VZNkQ86mHJ7ufnzIfupcw_GK0]--></g></svg>