<?xml version="1.0" encoding="us-ascii" standalone="no"?><svg xmlns="http://www.w3.org/2000/svg" xmlns:xlink="http://www.w3.org/1999/xlink" contentStyleType="text/css" height="457px" preserveAspectRatio="none" style="width:1253px;height:457px;background:#FFFFFF;" version="1.1" viewBox="0 0 1253 457" width="1253px" zoomAndPan="magnify"><defs/><g><!--cluster STEP Producer--><g id="cluster_STEP Producer"><path d="M23.67,6 L128.67,6 A3.75,3.75 0 0 1 131.17,8.5 L138.17,29.6094 L1243.67,29.6094 A2.5,2.5 0 0 1 1246.17,32.1094 L1246.17,447.5 A2.5,2.5 0 0 1 1243.67,450 L23.67,450 A2.5,2.5 0 0 1 21.17,447.5 L21.17,8.5 A2.5,2.5 0 0 1 23.67,6 " fill="none" style="stroke:#000000;stroke-width:1.5;"/><line style="stroke:#000000;stroke-width:1.5;" x1="21.17" x2="138.17" y1="29.6094" y2="29.6094"/><text fill="#000000" font-family="sans-serif" font-size="14" font-weight="bold" lengthAdjust="spacing" textLength="104" x="25.17" y="22.5332">STEP Producer</text></g><!--cluster DenService--><g id="cluster_DenService"><path d="M47.67,50 L130.67,50 A3.75,3.75 0 0 1 133.17,52.5 L140.17,73.6094 L472.67,73.6094 A2.5,2.5 0 0 1 475.17,76.1094 L475.17,295.5 A2.5,2.5 0 0 1 472.67,298 L47.67,298 A2.5,2.5 0 0 1 45.17,295.5 L45.17,52.5 A2.5,2.5 0 0 1 47.67,50 " fill="none" style="stroke:#000000;stroke-width:1.5;"/><line style="stroke:#000000;stroke-width:1.5;" x1="45.17" x2="140.17" y1="73.6094" y2="73.6094"/><text fill="#000000" font-family="sans-serif" font-size="14" font-weight="bold" lengthAdjust="spacing" textLength="82" x="49.17" y="66.5332">DenService</text></g><!--cluster Redis Proxy--><g id="cluster_Redis Proxy"><path d="M840.67,198 L924.67,198 A3.75,3.75 0 0 1 927.17,200.5 L934.17,221.6094 L1219.67,221.6094 A2.5,2.5 0 0 1 1222.17,224.1094 L1222.17,423.5 A2.5,2.5 0 0 1 1219.67,426 L840.67,426 A2.5,2.5 0 0 1 838.17,423.5 L838.17,200.5 A2.5,2.5 0 0 1 840.67,198 " fill="none" style="stroke:#000000;stroke-width:1.5;"/><line style="stroke:#000000;stroke-width:1.5;" x1="838.17" x2="934.17" y1="221.6094" y2="221.6094"/><text fill="#000000" font-family="sans-serif" font-size="14" font-weight="bold" lengthAdjust="spacing" textLength="83" x="842.17" y="214.5332">Redis Proxy</text></g><!--entity Config--><g id="elem_Config"><rect fill="#F1F1F1" height="47.6094" rx="2.5" ry="2.5" style="stroke:#181818;stroke-width:0.5;" width="168" x="494.17" y="234"/><rect fill="#F1F1F1" height="10" style="stroke:#181818;stroke-width:0.5;" width="15" x="642.17" y="239"/><rect fill="#F1F1F1" height="2" style="stroke:#181818;stroke-width:0.5;" width="4" x="640.17" y="241"/><rect fill="#F1F1F1" height="2" style="stroke:#181818;stroke-width:0.5;" width="4" x="640.17" y="245"/><text fill="#000000" font-family="sans-serif" font-size="14" lengthAdjust="spacing" textLength="128" x="509.17" y="268.5332">StepProducerConfig</text></g><!--entity Logger--><g id="elem_Logger"><rect fill="#F1F1F1" height="47.6094" rx="2.5" ry="2.5" style="stroke:#181818;stroke-width:0.5;" width="114" x="532.17" y="362"/><rect fill="#F1F1F1" height="10" style="stroke:#181818;stroke-width:0.5;" width="15" x="626.17" y="367"/><rect fill="#F1F1F1" height="2" style="stroke:#181818;stroke-width:0.5;" width="4" x="624.17" y="369"/><rect fill="#F1F1F1" height="2" style="stroke:#181818;stroke-width:0.5;" width="4" x="624.17" y="373"/><text fill="#000000" font-family="sans-serif" font-size="14" lengthAdjust="spacing" textLength="74" x="547.17" y="396.5332">StepLogger</text></g><!--entity DSM--><g id="elem_DSM"><rect fill="#F1F1F1" height="47.6094" rx="2.5" ry="2.5" style="stroke:#181818;stroke-width:0.5;" width="169" x="289.67" y="86"/><rect fill="#F1F1F1" height="10" style="stroke:#181818;stroke-width:0.5;" width="15" x="438.67" y="91"/><rect fill="#F1F1F1" height="2" style="stroke:#181818;stroke-width:0.5;" width="4" x="436.67" y="93"/><rect fill="#F1F1F1" height="2" style="stroke:#181818;stroke-width:0.5;" width="4" x="436.67" y="97"/><text fill="#000000" font-family="sans-serif" font-size="14" lengthAdjust="spacing" textLength="129" x="304.67" y="120.5332">DenServiceManager</text></g><!--entity DSDM--><g id="elem_DSDM"><rect fill="#F1F1F1" height="47.6094" rx="2.5" ry="2.5" style="stroke:#181818;stroke-width:0.5;" width="199" x="61.67" y="234"/><rect fill="#F1F1F1" height="10" style="stroke:#181818;stroke-width:0.5;" width="15" x="240.67" y="239"/><rect fill="#F1F1F1" height="2" style="stroke:#181818;stroke-width:0.5;" width="4" x="238.67" y="241"/><rect fill="#F1F1F1" height="2" style="stroke:#181818;stroke-width:0.5;" width="4" x="238.67" y="245"/><text fill="#000000" font-family="sans-serif" font-size="14" lengthAdjust="spacing" textLength="159" x="76.67" y="268.5332">DenServiceDataManager</text></g><g id="elem_GMN6"><path d="M107.67,88.5 L107.67,131.2031 A0,0 0 0 0 107.67,131.2031 L254.67,131.2031 A0,0 0 0 0 254.67,131.2031 L254.67,114 L289.22,110 L254.67,106 L254.67,98.5 L244.67,88.5 L107.67,88.5 A0,0 0 0 0 107.67,88.5 " fill="#FEFFDD" style="stroke:#181818;stroke-width:0.5;"/><path d="M244.67,88.5 L244.67,98.5 L254.67,98.5 L244.67,88.5 " fill="#FEFFDD" style="stroke:#181818;stroke-width:0.5;"/><text fill="#000000" font-family="sans-serif" font-size="13" lengthAdjust="spacing" textLength="117" x="113.67" y="106.9951">Orchestrates DENM</text><text fill="#000000" font-family="sans-serif" font-size="13" lengthAdjust="spacing" textLength="126" x="113.67" y="123.3467">lifecycle management</text></g><g id="elem_GMN9"><path d="M295.67,236.5 L295.67,254 L260.73,258 L295.67,262 L295.67,279.2031 A0,0 0 0 0 295.67,279.2031 L458.67,279.2031 A0,0 0 0 0 458.67,279.2031 L458.67,246.5 L448.67,236.5 L295.67,236.5 A0,0 0 0 0 295.67,236.5 " fill="#FEFFDD" style="stroke:#181818;stroke-width:0.5;"/><path d="M448.67,236.5 L448.67,246.5 L458.67,246.5 L448.67,236.5 " fill="#FEFFDD" style="stroke:#181818;stroke-width:0.5;"/><text fill="#000000" font-family="sans-serif" font-size="13" lengthAdjust="spacing" textLength="142" x="301.67" y="254.9951">Manages DENM records</text><text fill="#000000" font-family="sans-serif" font-size="13" lengthAdjust="spacing" textLength="137" x="301.67" y="271.3467">with multi-index storage</text></g><!--entity ProducerRedisPool--><g id="elem_ProducerRedisPool"><rect fill="#F1F1F1" height="47.6094" rx="2.5" ry="2.5" style="stroke:#181818;stroke-width:0.5;" width="191" x="854.67" y="362"/><rect fill="#F1F1F1" height="10" style="stroke:#181818;stroke-width:0.5;" width="15" x="1025.67" y="367"/><rect fill="#F1F1F1" height="2" style="stroke:#181818;stroke-width:0.5;" width="4" x="1023.67" y="369"/><rect fill="#F1F1F1" height="2" style="stroke:#181818;stroke-width:0.5;" width="4" x="1023.67" y="373"/><text fill="#000000" font-family="sans-serif" font-size="14" lengthAdjust="spacing" textLength="151" x="869.67" y="396.5332">StepProducerRedisPool</text></g><!--entity ProducerRedisStream--><g id="elem_ProducerRedisStream"><rect fill="#F1F1F1" height="47.6094" rx="2.5" ry="2.5" style="stroke:#181818;stroke-width:0.5;" width="208" x="857.17" y="234"/><rect fill="#F1F1F1" height="10" style="stroke:#181818;stroke-width:0.5;" width="15" x="1045.17" y="239"/><rect fill="#F1F1F1" height="2" style="stroke:#181818;stroke-width:0.5;" width="4" x="1043.17" y="241"/><rect fill="#F1F1F1" height="2" style="stroke:#181818;stroke-width:0.5;" width="4" x="1043.17" y="245"/><text fill="#000000" font-family="sans-serif" font-size="14" lengthAdjust="spacing" textLength="168" x="872.17" y="268.5332">StepProducerRedisStream</text></g><g id="elem_GMN15"><path d="M1080.67,364.5 L1080.67,407.2031 L1205.67,407.2031 L1205.67,374.5 L1195.67,364.5 L1080.67,364.5 " fill="#FEFFDD" style="stroke:#181818;stroke-width:0.5;"/><path d="M1195.67,364.5 L1195.67,374.5 L1205.67,374.5 L1195.67,364.5 " fill="#FEFFDD" style="stroke:#181818;stroke-width:1.0;"/><text fill="#000000" font-family="sans-serif" font-size="13" lengthAdjust="spacing" textLength="104" x="1086.67" y="382.9951">Redis Streams for</text><text fill="#000000" font-family="sans-serif" font-size="13" lengthAdjust="spacing" textLength="102" x="1086.67" y="399.3467">message queuing</text></g><!--link ProducerRedisStream to GMN15--><g id="link_ProducerRedisStream_GMN15"><path d="M1033.49,282 C1053.05,290.24 1073.42,300.83 1090.17,314 C1107.7,327.79 1122.38,348.73 1131.81,364.31 " fill="none" id="ProducerRedisStream-GMN15" style="stroke:#181818;stroke-width:1.0;stroke-dasharray:7.0,7.0;"/></g><!--link DSM to DSDM--><g id="link_DSM_DSDM"><path d="M289.42,130.77 C283.59,131.93 277.8,133.02 272.17,134 C219,143.28 66.9,123.55 31.17,164 C6,192.49 45,217.13 86.7,233.87 " fill="none" id="DSM-DSDM" style="stroke:#181818;stroke-width:1.0;"/><text fill="#000000" font-family="sans-serif" font-size="13" lengthAdjust="spacing" textLength="149" x="32.17" y="178.4951">delegates data operations</text></g><!--link DSM to ProducerRedisStream--><g id="link_DSM_ProducerRedisStream"><path d="M458.91,115.93 C571.16,123.31 762.62,139.08 828.17,164 C870.05,179.92 911.21,211.94 936.39,233.92 " fill="none" id="DSM-ProducerRedisStream" style="stroke:#181818;stroke-width:1.0;"/><text fill="#000000" font-family="sans-serif" font-size="13" lengthAdjust="spacing" textLength="161" x="864.17" y="178.4951">publishes DENM messages</text></g><!--link DSM to Logger--><g id="link_DSM_Logger"><path d="M458.89,121.25 C539.77,132.98 653.21,155.19 680.17,190 C711.74,230.76 701.57,259.09 680.17,306 C669.58,329.22 648.41,348.25 629.16,361.81 " fill="none" id="DSM-Logger" style="stroke:#181818;stroke-width:1.0;"/><text fill="#000000" font-family="sans-serif" font-size="13" lengthAdjust="spacing" textLength="88" x="701.17" y="263.4951">logs operations</text></g><!--link DSM to Config--><g id="link_DSM_Config"><path d="M406.49,134.13 C444.69,161.47 507.86,206.68 546,233.97 " fill="none" id="DSM-Config" style="stroke:#181818;stroke-width:1.0;"/><text fill="#000000" font-family="sans-serif" font-size="13" lengthAdjust="spacing" textLength="95" x="470.17" y="178.4951">get configuration</text></g><!--link DSDM to Logger--><g id="link_DSDM_Logger"><path d="M214.2,282.04 C234.06,290.21 256.94,299.07 278.17,306 C365.42,334.47 469.18,359.01 532.06,372.89 " fill="none" id="DSDM-Logger" style="stroke:#181818;stroke-width:1.0;"/><text fill="#000000" font-family="sans-serif" font-size="13" lengthAdjust="spacing" textLength="117" x="363.17" y="328.4951">logs data operations</text></g><!--link ProducerRedisStream to ProducerRedisPool--><g id="link_ProducerRedisStream_ProducerRedisPool"><path d="M959.15,282.11 C957.18,304.7 954.19,338.92 952.21,361.61 " fill="none" id="ProducerRedisStream-ProducerRedisPool" style="stroke:#181818;stroke-width:1.0;"/><text fill="#000000" font-family="sans-serif" font-size="13" lengthAdjust="spacing" textLength="124" x="957.17" y="328.4951">channel management</text></g><!--SRC=[VLBBSeCm3Bpp5PhS-O5UIsvDcoczTNfmZ32U6elQeascat-liKC22IadezsLLezEo4-X45RbsteBMqTLBz6ju3S3W6u42xGbkcyjyOGCt_ibkX4syDm720z5kLbW58B5d5MSQPOOmM3DGFLK3l3YP8EUdM0CalNp13AwHdcG1g6DQLkqFA9egvXqLi1frPmg59CyoLJA3WubkSfVq1_D3RIzOPrhM-4UF9CB_ALAnzd8Nh7IVXZe_Z2TMSdOZLEEb2sHYHEvYTxNbEnGjBUg59zrlIDcQeUs_s66BzbDOGyrkGdMelT3JryzzjggkxtFZ3wIhRMA7jFpp7WYDLv1UcR7B6mTyZok1XwWGeCgxhmAPmFKORW0JTQFl8LUWgphTqRxPbpcoVPPb8e5dY7b5v8ccm5No23ZJvyeMVHra-BQt9AhQxF3OeDUDi9QD9FR_GC0]--></g></svg>