<?plantuml 1.2026.1?><svg xmlns="http://www.w3.org/2000/svg" xmlns:xlink="http://www.w3.org/1999/xlink" contentStyleType="text/css" data-diagram-type="DESCRIPTION" height="689px" preserveAspectRatio="none" style="width:792px;height:689px;background:#FFFFFF;" version="1.1" viewBox="0 0 792 689" width="792px" zoomAndPan="magnify"><defs/><g><!--cluster STEP Publisher Pickle--><g class="cluster" data-qualified-name="STEP Publisher Pickle" data-source-line="1" id="ent0002"><path d="M189,96 L338.6133,96 A3.75,3.75 0 0 1 341.1133,98.5 L348.1133,119.6094 L783,119.6094 A2.5,2.5 0 0 1 785.5,122.1094 L785.5,456.5 A2.5,2.5 0 0 1 783,459 L189,459 A2.5,2.5 0 0 1 186.5,456.5 L186.5,98.5 A2.5,2.5 0 0 1 189,96" fill="none" style="stroke:#000000;stroke-width:1.5;"/><line style="stroke:#000000;stroke-width:1.5;" x1="186.5" x2="348.1133" y1="119.6094" y2="119.6094"/><text fill="#000000" font-family="sans-serif" font-size="14" font-weight="bold" lengthAdjust="spacing" textLength="148.6133" x="190.5" y="112.5332">STEP Publisher Pickle</text></g><!--entity Main--><g class="entity" data-qualified-name="STEP Publisher Pickle.Main" data-source-line="2" id="ent0003"><rect fill="#F1F1F1" height="47.6094" rx="2.5" ry="2.5" style="stroke:#181818;stroke-width:0.5;" width="142.7236" x="428" y="263.5"/><rect fill="#F1F1F1" height="10" style="stroke:#181818;stroke-width:0.5;" width="15" x="550.7236" y="268.5"/><rect fill="#F1F1F1" height="2" style="stroke:#181818;stroke-width:0.5;" width="4" x="548.7236" y="270.5"/><rect fill="#F1F1F1" height="2" style="stroke:#181818;stroke-width:0.5;" width="4" x="548.7236" y="274.5"/><text fill="#000000" font-family="sans-serif" font-size="14" lengthAdjust="spacing" textLength="102.7236" x="443" y="298.0332">Main Application</text></g><!--entity Broker--><g class="entity" data-qualified-name="STEP Publisher Pickle.Broker" data-source-line="3" id="ent0004"><rect fill="#F1F1F1" height="47.6094" rx="2.5" ry="2.5" style="stroke:#181818;stroke-width:0.5;" width="110.0342" x="596.5" y="395"/><rect fill="#F1F1F1" height="10" style="stroke:#181818;stroke-width:0.5;" width="15" x="686.5342" y="400"/><rect fill="#F1F1F1" height="2" style="stroke:#181818;stroke-width:0.5;" width="4" x="684.5342" y="402"/><rect fill="#F1F1F1" height="2" style="stroke:#181818;stroke-width:0.5;" width="4" x="684.5342" y="406"/><text fill="#000000" font-family="sans-serif" font-size="14" lengthAdjust="spacing" textLength="70.0342" x="611.5" y="429.5332">StepBroker</text></g><!--entity Scenario--><g class="entity" data-qualified-name="STEP Publisher Pickle.Scenario" data-source-line="4" id="ent0005"><rect fill="#F1F1F1" height="47.6094" rx="2.5" ry="2.5" style="stroke:#181818;stroke-width:0.5;" width="95.2549" x="224" y="395"/><rect fill="#F1F1F1" height="10" style="stroke:#181818;stroke-width:0.5;" width="15" x="299.2549" y="400"/><rect fill="#F1F1F1" height="2" style="stroke:#181818;stroke-width:0.5;" width="4" x="297.2549" y="402"/><rect fill="#F1F1F1" height="2" style="stroke:#181818;stroke-width:0.5;" width="4" x="297.2549" y="406"/><text fill="#000000" font-family="sans-serif" font-size="14" lengthAdjust="spacing" textLength="55.2549" x="239" y="429.5332">Scenario</text></g><!--entity Config--><g class="entity" data-qualified-name="STEP Publisher Pickle.Config" data-source-line="5" id="ent0006"><rect fill="#F1F1F1" height="47.6094" rx="2.5" ry="2.5" style="stroke:#181818;stroke-width:0.5;" width="187.082" x="417" y="132"/><rect fill="#F1F1F1" height="10" style="stroke:#181818;stroke-width:0.5;" width="15" x="584.082" y="137"/><rect fill="#F1F1F1" height="2" style="stroke:#181818;stroke-width:0.5;" width="4" x="582.082" y="139"/><rect fill="#F1F1F1" height="2" style="stroke:#181818;stroke-width:0.5;" width="4" x="582.082" y="143"/><text fill="#000000" font-family="sans-serif" font-size="14" lengthAdjust="spacing" textLength="147.082" x="432" y="166.5332">StepPublisherPklConfig</text></g><!--entity Logger--><g class="entity" data-qualified-name="STEP Publisher Pickle.Logger" data-source-line="6" id="ent0007"><rect fill="#F1F1F1" height="47.6094" rx="2.5" ry="2.5" style="stroke:#181818;stroke-width:0.5;" width="112.3926" x="643.5" y="132"/><rect fill="#F1F1F1" height="10" style="stroke:#181818;stroke-width:0.5;" width="15" x="735.8926" y="137"/><rect fill="#F1F1F1" height="2" style="stroke:#181818;stroke-width:0.5;" width="4" x="733.8926" y="139"/><rect fill="#F1F1F1" height="2" style="stroke:#181818;stroke-width:0.5;" width="4" x="733.8926" y="143"/><text fill="#000000" font-family="sans-serif" font-size="14" lengthAdjust="spacing" textLength="72.3926" x="658.5" y="166.5332">StepLogger</text></g><!--entity Exception--><g class="entity" data-qualified-name="STEP Publisher Pickle.Exception" data-source-line="7" id="ent0008"><rect fill="#F1F1F1" height="47.6094" rx="2.5" ry="2.5" style="stroke:#181818;stroke-width:0.5;" width="177.7236" x="383.5" y="395"/><rect fill="#F1F1F1" height="10" style="stroke:#181818;stroke-width:0.5;" width="15" x="541.2236" y="400"/><rect fill="#F1F1F1" height="2" style="stroke:#181818;stroke-width:0.5;" width="4" x="539.2236" y="402"/><rect fill="#F1F1F1" height="2" style="stroke:#181818;stroke-width:0.5;" width="4" x="539.2236" y="406"/><text fill="#000000" font-family="sans-serif" font-size="14" lengthAdjust="spacing" textLength="137.7236" x="398.5" y="429.5332">StepPublisherPklError</text></g><g class="entity" data-qualified-name="STEP Publisher Pickle.GMN9" data-source-line="9" id="ent0010"><path d="M202.5,258 L202.5,317.0547 A0,0 0 0 0 202.5,317.0547 L392.5952,317.0547 A0,0 0 0 0 392.5952,317.0547 L392.5952,291.5 L427.66,287.5 L392.5952,283.5 L392.5952,268 L382.5952,258 L202.5,258 A0,0 0 0 0 202.5,258" fill="#FEFFDD" style="stroke:#181818;stroke-width:0.5;"/><path d="M382.5952,258 L382.5952,268 L392.5952,268 L382.5952,258" fill="#FEFFDD" style="stroke:#181818;stroke-width:0.5;"/><text fill="#000000" font-family="sans-serif" font-size="13" lengthAdjust="spacing" textLength="138.7471" x="208.5" y="276.4951">Asynchronous publisher</text><text fill="#000000" font-family="sans-serif" font-size="13" lengthAdjust="spacing" textLength="119.9326" x="208.5" y="292.8467">orchestrator with CLI</text><text fill="#000000" font-family="sans-serif" font-size="13" lengthAdjust="spacing" textLength="169.0952" x="208.5" y="309.1982">and TaskGroup management</text></g><!--entity MQTT--><g class="entity" data-qualified-name="MQTT" data-source-line="15" id="ent0012"><path d="M603.5962,536.9073 C606.4405,531.6027 610.9755,529.8558 615.4351,535.0932 C617.8087,529.31 623.6838,527.3728 628.1338,532.7254 C631.1184,527.0233 636.1657,527.4694 639.0559,532.8187 C641.9743,524.873 647.5098,523.1965 653.4228,529.8773 C658.1407,523.9288 662.5938,524.6466 665.4922,531.5818 C669.2231,525.6598 675.4108,525.3112 678.2391,532.4619 C682.6672,527.455 687.6515,529.3445 689.7677,534.9688 C694.2163,530.6828 698.6751,531.5326 701.2997,537.103 C710.4866,536.5938 713.9396,543.1433 709.9308,550.8932 C715.0219,560.8258 712.5161,566.2905 700.9919,567.0046 C698.5646,572.8518 693.5731,574.2298 689.3783,568.8297 C685.6961,574.0218 681.4447,576.0659 677.0754,569.5518 C673.79,574.5772 667.746,576.1224 664.523,569.4846 C660.2977,574.4488 655.828,575.8079 652.0287,569.0313 C647.6653,574.2386 643.1106,574.0522 639.0731,568.6339 C635.1748,574.6958 631.5088,575.0376 627.1834,569.0555 C622.4012,575.1001 617.9793,574.5976 614.8805,567.4819 C612.025,574.1864 606.7877,574.497 602.8604,568.4959 C591.4013,566.9811 587.7628,561.0211 594.3756,550.8277 C590.121,541.8933 594.181,536.7872 603.5962,536.9073" fill="#F1F1F1" style="stroke:#181818;stroke-width:0.5;"/><text fill="#000000" font-family="sans-serif" font-size="14" lengthAdjust="spacing" textLength="84.7793" x="609" y="556.5332">MQTT Broker</text></g><!--entity PKL--><g class="entity" data-qualified-name="PKL" data-source-line="16" id="ent0013"><path d="M223.5,523 L264.5,523 A3.75,3.75 0 0 1 267,525.5 L274,544 L319.293,544 A2.5,2.5 0 0 1 321.793,546.5 L321.793,576.1094 A2.5,2.5 0 0 1 319.293,578.6094 L223.5,578.6094 A2.5,2.5 0 0 1 221,576.1094 L221,525.5 A2.5,2.5 0 0 1 223.5,523" fill="#F1F1F1" style="stroke:#181818;stroke-width:0.5;"/><line style="stroke:#181818;stroke-width:0.5;" x1="221" x2="274" y1="544" y2="544"/><text fill="#000000" font-family="sans-serif" font-size="14" lengthAdjust="spacing" textLength="70.793" x="231" y="565.5332">Pickle Files</text></g><g class="entity" data-qualified-name="GMN27" data-source-line="29" id="ent0028"><path d="M593,640 L593,682.7031 A0,0 0 0 0 593,682.7031 L710.0972,682.7031 A0,0 0 0 0 710.0972,682.7031 L710.0972,650 L700.0972,640 L655.5,640 L651.5,575.01 L647.5,640 L593,640 A0,0 0 0 0 593,640" fill="#FEFFDD" style="stroke:#181818;stroke-width:0.5;"/><path d="M700.0972,640 L700.0972,650 L710.0972,650 L700.0972,640" fill="#FEFFDD" style="stroke:#181818;stroke-width:0.5;"/><text fill="#000000" font-family="sans-serif" font-size="13" lengthAdjust="spacing" textLength="70.0972" x="599" y="658.4951">Publish only</text><text fill="#000000" font-family="sans-serif" font-size="13" lengthAdjust="spacing" textLength="96.0972" x="599" y="674.8467">(no subscription)</text></g><g class="entity" data-qualified-name="GMN30" data-source-line="34" id="ent0031"><path d="M199,640 L199,682.7031 A0,0 0 0 0 199,682.7031 L344.2681,682.7031 A0,0 0 0 0 344.2681,682.7031 L344.2681,650 L334.2681,640 L275.5,640 L271.5,579.1 L267.5,640 L199,640 A0,0 0 0 0 199,640" fill="#FEFFDD" style="stroke:#181818;stroke-width:0.5;"/><path d="M334.2681,640 L334.2681,650 L344.2681,650 L334.2681,640" fill="#FEFFDD" style="stroke:#181818;stroke-width:0.5;"/><text fill="#000000" font-family="sans-serif" font-size="13" lengthAdjust="spacing" textLength="106.228" x="205" y="658.4951">CARLA-generated</text><text fill="#000000" font-family="sans-serif" font-size="13" lengthAdjust="spacing" textLength="124.2681" x="205" y="674.8467">vehicle trajectory files</text></g><g class="entity" data-qualified-name="GMN33" data-source-line="39" id="ent0034"><path d="M421,6 L421,48.7031 A0,0 0 0 0 421,48.7031 L506.5,48.7031 L510.5,131.83 L514.5,48.7031 L599.5044,48.7031 A0,0 0 0 0 599.5044,48.7031 L599.5044,16 L589.5044,6 L421,6 A0,0 0 0 0 421,6" fill="#FEFFDD" style="stroke:#181818;stroke-width:0.5;"/><path d="M589.5044,6 L589.5044,16 L599.5044,16 L589.5044,6" fill="#FEFFDD" style="stroke:#181818;stroke-width:0.5;"/><text fill="#000000" font-family="sans-serif" font-size="13" lengthAdjust="spacing" textLength="156.8188" x="427" y="24.4951">Configuration management</text><text fill="#000000" font-family="sans-serif" font-size="13" lengthAdjust="spacing" textLength="157.5044" x="427" y="40.8467">with JSON schema support</text></g><g class="entity" data-qualified-name="GMN36" data-source-line="44" id="ent0037"><path d="M6,266 L6,308.7031 A0,0 0 0 0 6,308.7031 L111.81,308.7031 L238.58,394.96 L119.81,308.7031 L167.1689,308.7031 A0,0 0 0 0 167.1689,308.7031 L167.1689,276 L157.1689,266 L6,266 A0,0 0 0 0 6,266" fill="#FEFFDD" style="stroke:#181818;stroke-width:0.5;"/><path d="M157.1689,266 L157.1689,276 L167.1689,276 L157.1689,266" fill="#FEFFDD" style="stroke:#181818;stroke-width:0.5;"/><text fill="#000000" font-family="sans-serif" font-size="13" lengthAdjust="spacing" textLength="140.1689" x="12" y="284.4951">CARLA trajectory loader</text><text fill="#000000" font-family="sans-serif" font-size="13" lengthAdjust="spacing" textLength="114.8989" x="12" y="300.8467">and timing manager</text></g><!--link Main to Broker--><g class="link" data-entity-1="ent0003" data-entity-2="ent0004" data-link-type="dependency" data-source-line="18" id="lnk14"><path d="M526.67,311.65 C554.26,335.15 592.153,367.4386 619.733,390.9386" fill="none" id="Main-to-Broker" style="stroke:#181818;stroke-width:1;"/><polygon fill="#181818" points="624.3,394.83,620.0438,385.9483,620.4942,391.5872,614.8553,392.0376,624.3,394.83" style="stroke:#181818;stroke-width:1;"/><text fill="#000000" font-family="sans-serif" font-size="13" lengthAdjust="spacing" textLength="27.46" x="589.5" y="361.4951">uses</text></g><!--link Main to Scenario--><g class="link" data-entity-1="ent0003" data-entity-2="ent0005" data-link-type="dependency" data-source-line="19" id="lnk15"><path d="M459,311.5 C417.54,335.05 358.6871,368.4766 317.2271,392.0266" fill="none" id="Main-to-Scenario" style="stroke:#181818;stroke-width:1;"/><polygon fill="#181818" points="312.01,394.99,321.8113,394.023,316.3576,392.5205,317.8601,387.0668,312.01,394.99" style="stroke:#181818;stroke-width:1;"/><text fill="#000000" font-family="sans-serif" font-size="13" lengthAdjust="spacing" textLength="27.46" x="392.5" y="361.4951">uses</text></g><!--reverse link Config to Main--><g class="link" data-entity-1="ent0006" data-entity-2="ent0003" data-link-type="dependency" data-source-line="20" id="lnk17"><path d="M508.0222,186.1285 C506.0322,209.5585 503.48,239.6 501.49,263.11" fill="none" id="Config-backto-Main" style="stroke:#181818;stroke-width:1;"/><polygon fill="#181818" points="508.53,180.15,503.7827,188.7792,508.1069,185.1321,511.754,189.4562,508.53,180.15" style="stroke:#181818;stroke-width:1;"/><text fill="#000000" font-family="sans-serif" font-size="13" lengthAdjust="spacing" textLength="31.0781" x="506.5" y="224.4951">loads</text></g><!--reverse link Config to Broker--><g class="link" data-entity-1="ent0006" data-entity-2="ent0004" data-link-type="dependency" data-source-line="21" id="lnk19"><path d="M606.1712,182.8403 C620.1112,190.2303 627.53,197.16 636.5,210 C643.31,219.76 640.64,305.13 641.5,317 C643.45,343.71 646.61,374.31 648.85,394.76" fill="none" id="Config-backto-Broker" style="stroke:#181818;stroke-width:1;"/><polygon fill="#181818" points="600.87,180.03,606.9482,187.7795,605.2876,182.3719,610.6953,180.7113,600.87,180.03" style="stroke:#181818;stroke-width:1;"/><text fill="#000000" font-family="sans-serif" font-size="13" lengthAdjust="spacing" textLength="27.46" x="642.5" y="292.9951">uses</text></g><!--link Broker to MQTT--><g class="link" data-entity-1="ent0004" data-entity-2="ent0012" data-link-type="dependency" data-source-line="22" id="lnk20"><path d="M651.5,443.24 C651.5,466.9 651.5,497.37 651.5,520.96" fill="none" id="Broker-to-MQTT" style="stroke:#181818;stroke-width:1;"/><polygon fill="#181818" points="651.5,526.96,655.5,517.96,651.5,521.96,647.5,517.96,651.5,526.96" style="stroke:#181818;stroke-width:1;"/><text fill="#000000" font-family="sans-serif" font-size="13" lengthAdjust="spacing" textLength="87.4263" x="652.5" y="489.4951">publishes CAM</text></g><!--link Scenario to PKL--><g class="link" data-entity-1="ent0005" data-entity-2="ent0013" data-link-type="dependency" data-source-line="23" id="lnk21"><path d="M271.5,443.24 C271.5,465.59 271.5,510.61 271.5,534.16" fill="none" id="Scenario-to-PKL" style="stroke:#181818;stroke-width:1;"/><polygon fill="#181818" points="271.5,540.16,275.5,531.16,271.5,535.16,267.5,531.16,271.5,540.16" style="stroke:#181818;stroke-width:1;"/><text fill="#000000" font-family="sans-serif" font-size="13" lengthAdjust="spacing" textLength="104.0698" x="272.5" y="489.4951">loads vehicle data</text></g><!--reverse link Logger to Main--><g class="link" data-entity-1="ent0007" data-entity-2="ent0003" data-link-type="dependency" data-source-line="24" id="lnk23"><path d="M658.7037,183.4113 C622.4137,206.9113 571.58,239.83 535.28,263.33" fill="none" id="Logger-backto-Main" style="stroke:#181818;stroke-width:1;"/><polygon fill="#181818" points="663.74,180.15,654.0114,181.6844,659.5431,182.8677,658.3598,188.3994,663.74,180.15" style="stroke:#181818;stroke-width:1;"/><text fill="#000000" font-family="sans-serif" font-size="13" lengthAdjust="spacing" textLength="27.46" x="617.5" y="224.4951">uses</text></g><!--reverse link Logger to Broker--><g class="link" data-entity-1="ent0007" data-entity-2="ent0004" data-link-type="dependency" data-source-line="25" id="lnk25"><path d="M696.833,186.1822 C693.813,217.4422 688.07,268.77 678.5,317 C673.13,344.06 664.62,374.59 658.59,394.94" fill="none" id="Logger-backto-Broker" style="stroke:#181818;stroke-width:1;"/><polygon fill="#181818" points="697.41,180.21,692.5631,188.7836,696.9292,185.1868,700.526,189.5529,697.41,180.21" style="stroke:#181818;stroke-width:1;"/><text fill="#000000" font-family="sans-serif" font-size="13" lengthAdjust="spacing" textLength="27.46" x="688.5" y="292.9951">uses</text></g><!--link Main to Exception--><g class="link" data-entity-1="ent0003" data-entity-2="ent0008" data-link-type="dependency" data-source-line="26" id="lnk26"><path d="M494.67,311.65 C489.79,335.08 483.5042,365.2262 478.6042,388.7362" fill="none" id="Main-to-Exception" style="stroke:#181818;stroke-width:1;"/><polygon fill="#181818" points="477.38,394.61,483.1322,386.6155,478.4002,389.7152,475.3005,384.9832,477.38,394.61" style="stroke:#181818;stroke-width:1;"/><text fill="#000000" font-family="sans-serif" font-size="13" lengthAdjust="spacing" textLength="38.2891" x="487.5" y="361.4951">throws</text></g><?plantuml-src TLDDZzCm4BtxLunoOW_z0tj02bL1B2rajxqX3gupIKmSZsKxMoh4VySVIMYZvMRFctapVczikEXvYr0SJxiAgl6ifElGGYL5hx20tmm0lX-ur50QewJWNfB-0Tn132RqwD5yiDIZJV5yp8X0pQsa59ylIytIhUhLbdGZsvINZqlMdjfsOix7D-jtrb9EslqIQEAGCK-JHr3OUA1c6RXqLoqwIvf61sOcYGXPqQ7pbdkoS96-W-t-SmIuhk74NV_9qcXWu3feDg3s4SE0nJxi3sD2qLX3SNW-dIOTYYHLkBE6L1sKBRAqy54gT0cjlkmPIn9lQhhepVkf51vXTEZkeLd5Ut0q0Sh21K0HhnsRI5POAfgXYJED-xX84Ime3snfD6U5CMTkUCLEYl28cdj-Eq9sQDtc3UZkJOjb0VN1c8jZB3bt9kzfIDv51OFOa-T0MbtZ_PqcSEFP2IiJmmDRx5XJH9b3nRPysPUR5ZK6cx6EeVarmVYVA8BtLsYYEsikJoOI_LlGV1fj-XIhjKZhytJyzXLSMAg1Xp6D8Ul_GthxEzA8jzD4qVE6naNqSf2wdThPXUyl?></g></svg>