<?plantuml 1.2026.1?><svg xmlns="http://www.w3.org/2000/svg" xmlns:xlink="http://www.w3.org/1999/xlink" contentStyleType="text/css" data-diagram-type="DESCRIPTION" height="560px" preserveAspectRatio="none" style="width:1476px;height:560px;background:#FFFFFF;" version="1.1" viewBox="0 0 1476 560" width="1476px" zoomAndPan="magnify"><defs/><g><!--cluster STEP Applications--><g class="cluster" data-qualified-name="STEP Applications" data-source-line="3" id="ent0002"><path d="M192.5,11 L334.2588,11 A3.75,3.75 0 0 1 336.7588,13.5 L343.7588,34.0146 L911.5,34.0146 A2.5,2.5 0 0 1 914,36.5146 L914,107.5 A2.5,2.5 0 0 1 911.5,110 L192.5,110 A2.5,2.5 0 0 1 190,107.5 L190,13.5 A2.5,2.5 0 0 1 192.5,11" fill="#FFFFFF" style="stroke:#000000;stroke-width:1;"/><line style="stroke:#000000;stroke-width:1;" x1="190" x2="343.7588" y1="34.0146" y2="34.0146"/><text fill="#000000" font-family="Verdana" font-size="14" font-weight="bold" lengthAdjust="spacing" textLength="140.7588" x="194" y="27.0752">STEP Applications</text></g><!--cluster step_redis--><g class="cluster" data-qualified-name="step_redis" data-source-line="10" id="ent0007"><path d="M13.5,159 L97.3584,159 A3.75,3.75 0 0 1 99.8584,161.5 L106.8584,182.0146 L1061.5,182.0146 A2.5,2.5 0 0 1 1064,184.5146 L1064,540.5 A2.5,2.5 0 0 1 1061.5,543 L13.5,543 A2.5,2.5 0 0 1 11,540.5 L11,161.5 A2.5,2.5 0 0 1 13.5,159" fill="#FFFFFF" style="stroke:#000000;stroke-width:1;"/><line style="stroke:#000000;stroke-width:1;" x1="11" x2="106.8584" y1="182.0146" y2="182.0146"/><text fill="#000000" font-family="Verdana" font-size="14" font-weight="bold" lengthAdjust="spacing" textLength="82.8584" x="15" y="175.0752">step_redis</text></g><!--cluster Redis Server--><g class="cluster" data-qualified-name="Redis Server" data-source-line="21" id="ent0016"><path d="M1088,439 C1088,429 1273.5,429 1273.5,429 C1273.5,429 1459,429 1459,439 L1459,533 C1459,543 1273.5,543 1273.5,543 C1273.5,543 1088,543 1088,533 L1088,439" fill="#FFFFFF" style="stroke:#000000;stroke-width:1;"/><path d="M1088,439 C1088,449 1273.5,449 1273.5,449 C1273.5,449 1459,449 1459,439" fill="none" style="stroke:#000000;stroke-width:1;"/><text fill="#000000" font-family="Verdana" font-size="14" font-weight="bold" lengthAdjust="spacing" textLength="99.4697" x="1223.7651" y="465.0752">Redis Server</text></g><!--entity step_adapter--><g class="entity" data-qualified-name="STEP Applications.step_adapter" data-source-line="4" id="ent0003"><rect fill="#FFFFFF" height="47.0146" rx="2.5" ry="2.5" style="stroke:#000000;stroke-width:1;" width="132.8662" x="206.5" y="47"/><rect fill="#FFFFFF" height="10" style="stroke:#000000;stroke-width:1;" width="15" x="319.3662" y="52"/><rect fill="#FFFFFF" height="2" style="stroke:#000000;stroke-width:1;" width="4" x="317.3662" y="54"/><rect fill="#FFFFFF" height="2" style="stroke:#000000;stroke-width:1;" width="4" x="317.3662" y="58"/><text fill="#000000" font-family="Verdana" font-size="14" lengthAdjust="spacing" textLength="92.8662" x="221.5" y="81.0752">step_adapter</text></g><!--entity step_client--><g class="entity" data-qualified-name="STEP Applications.step_client" data-source-line="5" id="ent0004"><rect fill="#FFFFFF" height="47.0146" rx="2.5" ry="2.5" style="stroke:#000000;stroke-width:1;" width="116.4668" x="375" y="47"/><rect fill="#FFFFFF" height="10" style="stroke:#000000;stroke-width:1;" width="15" x="471.4668" y="52"/><rect fill="#FFFFFF" height="2" style="stroke:#000000;stroke-width:1;" width="4" x="469.4668" y="54"/><rect fill="#FFFFFF" height="2" style="stroke:#000000;stroke-width:1;" width="4" x="469.4668" y="58"/><text fill="#000000" font-family="Verdana" font-size="14" lengthAdjust="spacing" textLength="76.4668" x="390" y="81.0752">step_client</text></g><!--entity step_producer--><g class="entity" data-qualified-name="STEP Applications.step_producer" data-source-line="6" id="ent0005"><rect fill="#FFFFFF" height="47.0146" rx="2.5" ry="2.5" style="stroke:#000000;stroke-width:1;" width="141.1582" x="526.5" y="47"/><rect fill="#FFFFFF" height="10" style="stroke:#000000;stroke-width:1;" width="15" x="647.6582" y="52"/><rect fill="#FFFFFF" height="2" style="stroke:#000000;stroke-width:1;" width="4" x="645.6582" y="54"/><rect fill="#FFFFFF" height="2" style="stroke:#000000;stroke-width:1;" width="4" x="645.6582" y="58"/><text fill="#000000" font-family="Verdana" font-size="14" lengthAdjust="spacing" textLength="101.1582" x="541.5" y="81.0752">step_producer</text></g><!--entity step_crash_prediction--><g class="entity" data-qualified-name="STEP Applications.step_crash_prediction" data-source-line="7" id="ent0006"><rect fill="#FFFFFF" height="47.0146" rx="2.5" ry="2.5" style="stroke:#000000;stroke-width:1;" width="195.1143" x="702.5" y="47"/><rect fill="#FFFFFF" height="10" style="stroke:#000000;stroke-width:1;" width="15" x="877.6143" y="52"/><rect fill="#FFFFFF" height="2" style="stroke:#000000;stroke-width:1;" width="4" x="875.6143" y="54"/><rect fill="#FFFFFF" height="2" style="stroke:#000000;stroke-width:1;" width="4" x="875.6143" y="58"/><text fill="#000000" font-family="Verdana" font-size="14" lengthAdjust="spacing" textLength="155.1143" x="717.5" y="81.0752">step_crash_prediction</text></g><!--entity Pool--><g class="entity" data-qualified-name="step_redis.Pool" data-source-line="11" id="ent0008"><rect fill="#FFFFFF" height="47.0146" rx="2.5" ry="2.5" style="stroke:#000000;stroke-width:1;" width="139.3604" x="662.5" y="319"/><rect fill="#FFFFFF" height="10" style="stroke:#000000;stroke-width:1;" width="15" x="781.8604" y="324"/><rect fill="#FFFFFF" height="2" style="stroke:#000000;stroke-width:1;" width="4" x="779.8604" y="326"/><rect fill="#FFFFFF" height="2" style="stroke:#000000;stroke-width:1;" width="4" x="779.8604" y="330"/><text fill="#000000" font-family="Verdana" font-size="14" lengthAdjust="spacing" textLength="99.3604" x="677.5" y="353.0752">StepRedisPool</text></g><!--entity PoolParams--><g class="entity" data-qualified-name="step_redis.PoolParams" data-source-line="12" id="ent0009"><rect fill="#FFFFFF" height="47.0146" rx="2.5" ry="2.5" style="stroke:#000000;stroke-width:1;" width="191.5049" x="636" y="480"/><rect fill="#FFFFFF" height="10" style="stroke:#000000;stroke-width:1;" width="15" x="807.5049" y="485"/><rect fill="#FFFFFF" height="2" style="stroke:#000000;stroke-width:1;" width="4" x="805.5049" y="487"/><rect fill="#FFFFFF" height="2" style="stroke:#000000;stroke-width:1;" width="4" x="805.5049" y="491"/><text fill="#000000" font-family="Verdana" font-size="14" lengthAdjust="spacing" textLength="151.5049" x="651" y="514.0752">StepRedisPoolParams</text></g><!--entity BaseStream--><g class="entity" data-qualified-name="step_redis.BaseStream" data-source-line="13" id="ent0010"><rect fill="#FFFFFF" height="47.0146" rx="2.5" ry="2.5" style="stroke:#000000;stroke-width:1;" width="161.5088" x="413" y="319"/><rect fill="#FFFFFF" height="10" style="stroke:#000000;stroke-width:1;" width="15" x="554.5088" y="324"/><rect fill="#FFFFFF" height="2" style="stroke:#000000;stroke-width:1;" width="4" x="552.5088" y="326"/><rect fill="#FFFFFF" height="2" style="stroke:#000000;stroke-width:1;" width="4" x="552.5088" y="330"/><text fill="#000000" font-family="Verdana" font-size="14" lengthAdjust="spacing" textLength="121.5088" x="428" y="353.0752">StepRedisStream</text></g><!--entity StreamParams--><g class="entity" data-qualified-name="step_redis.StreamParams" data-source-line="14" id="ent0011"><rect fill="#FFFFFF" height="47.0146" rx="2.5" ry="2.5" style="stroke:#000000;stroke-width:1;" width="213.6533" x="387" y="480"/><rect fill="#FFFFFF" height="10" style="stroke:#000000;stroke-width:1;" width="15" x="580.6533" y="485"/><rect fill="#FFFFFF" height="2" style="stroke:#000000;stroke-width:1;" width="4" x="578.6533" y="487"/><rect fill="#FFFFFF" height="2" style="stroke:#000000;stroke-width:1;" width="4" x="578.6533" y="491"/><text fill="#000000" font-family="Verdana" font-size="14" lengthAdjust="spacing" textLength="173.6533" x="402" y="514.0752">StepRedisStreamParams</text></g><!--entity AdapterStream--><g class="entity" data-qualified-name="step_redis.AdapterStream" data-source-line="15" id="ent0012"><rect fill="#FFFFFF" height="47.0146" rx="2.5" ry="2.5" style="stroke:#000000;stroke-width:1;" width="216.7637" x="27.5" y="195"/><rect fill="#FFFFFF" height="10" style="stroke:#000000;stroke-width:1;" width="15" x="224.2637" y="200"/><rect fill="#FFFFFF" height="2" style="stroke:#000000;stroke-width:1;" width="4" x="222.2637" y="202"/><rect fill="#FFFFFF" height="2" style="stroke:#000000;stroke-width:1;" width="4" x="222.2637" y="206"/><text fill="#000000" font-family="Verdana" font-size="14" lengthAdjust="spacing" textLength="176.7637" x="42.5" y="229.0752">StepAdapterRedisStream</text></g><!--entity ClientStream--><g class="entity" data-qualified-name="step_redis.ClientStream" data-source-line="16" id="ent0013"><rect fill="#FFFFFF" height="47.0146" rx="2.5" ry="2.5" style="stroke:#000000;stroke-width:1;" width="201.6836" x="280" y="195"/><rect fill="#FFFFFF" height="10" style="stroke:#000000;stroke-width:1;" width="15" x="461.6836" y="200"/><rect fill="#FFFFFF" height="2" style="stroke:#000000;stroke-width:1;" width="4" x="459.6836" y="202"/><rect fill="#FFFFFF" height="2" style="stroke:#000000;stroke-width:1;" width="4" x="459.6836" y="206"/><text fill="#000000" font-family="Verdana" font-size="14" lengthAdjust="spacing" textLength="161.6836" x="295" y="229.0752">StepClientRedisStream</text></g><!--entity ProducerStream--><g class="entity" data-qualified-name="step_redis.ProducerStream" data-source-line="17" id="ent0014"><rect fill="#FFFFFF" height="47.0146" rx="2.5" ry="2.5" style="stroke:#000000;stroke-width:1;" width="223.6133" x="517" y="195"/><rect fill="#FFFFFF" height="10" style="stroke:#000000;stroke-width:1;" width="15" x="720.6133" y="200"/><rect fill="#FFFFFF" height="2" style="stroke:#000000;stroke-width:1;" width="4" x="718.6133" y="202"/><rect fill="#FFFFFF" height="2" style="stroke:#000000;stroke-width:1;" width="4" x="718.6133" y="206"/><text fill="#000000" font-family="Verdana" font-size="14" lengthAdjust="spacing" textLength="183.6133" x="532" y="229.0752">StepProducerRedisStream</text></g><!--entity CrashStream--><g class="entity" data-qualified-name="step_redis.CrashStream" data-source-line="18" id="ent0015"><rect fill="#FFFFFF" height="47.0146" rx="2.5" ry="2.5" style="stroke:#000000;stroke-width:1;" width="271.1504" x="776.5" y="195"/><rect fill="#FFFFFF" height="10" style="stroke:#000000;stroke-width:1;" width="15" x="1027.6504" y="200"/><rect fill="#FFFFFF" height="2" style="stroke:#000000;stroke-width:1;" width="4" x="1025.6504" y="202"/><rect fill="#FFFFFF" height="2" style="stroke:#000000;stroke-width:1;" width="4" x="1025.6504" y="206"/><text fill="#000000" font-family="Verdana" font-size="14" lengthAdjust="spacing" textLength="231.1504" x="791.5" y="229.0752">StepCrashPredictionRedisStream</text></g><!--entity RedisStreams--><g class="entity" data-qualified-name="Redis Server.RedisStreams" data-source-line="22" id="ent0017"><rect fill="#FFFFFF" height="47.0146" rx="2.5" ry="2.5" style="stroke:#000000;stroke-width:1;" width="141.5752" x="1104" y="480"/><rect fill="#FFFFFF" height="10" style="stroke:#000000;stroke-width:1;" width="15" x="1225.5752" y="485"/><rect fill="#FFFFFF" height="2" style="stroke:#000000;stroke-width:1;" width="4" x="1223.5752" y="487"/><rect fill="#FFFFFF" height="2" style="stroke:#000000;stroke-width:1;" width="4" x="1223.5752" y="491"/><text fill="#000000" font-family="Verdana" font-size="14" lengthAdjust="spacing" textLength="101.5752" x="1119" y="514.0752">Redis Streams</text></g><!--entity RedisConnection--><g class="entity" data-qualified-name="Redis Server.RedisConnection" data-source-line="23" id="ent0018"><rect fill="#FFFFFF" height="47.0146" rx="2.5" ry="2.5" style="stroke:#000000;stroke-width:1;" width="161.1943" x="1281.5" y="480"/><rect fill="#FFFFFF" height="10" style="stroke:#000000;stroke-width:1;" width="15" x="1422.6943" y="485"/><rect fill="#FFFFFF" height="2" style="stroke:#000000;stroke-width:1;" width="4" x="1420.6943" y="487"/><rect fill="#FFFFFF" height="2" style="stroke:#000000;stroke-width:1;" width="4" x="1420.6943" y="491"/><text fill="#000000" font-family="Verdana" font-size="14" lengthAdjust="spacing" textLength="121.1943" x="1296.5" y="514.0752">Redis Connection</text></g><!--link step_adapter to AdapterStream--><g class="link" data-entity-1="ent0003" data-entity-2="ent0012" data-link-type="dependency" data-source-line="26" id="lnk19"><path d="M251.59,94.31 C225.86,121.74 187.0353,163.1144 161.3653,190.4744" fill="none" id="step_adapter-to-AdapterStream" style="stroke:#000000;stroke-width:1;"/><polygon fill="#000000" points="157.26,194.85,166.3351,191.0235,160.6811,191.2036,160.5009,185.5497,157.26,194.85" style="stroke:#000000;stroke-width:1;"/><text fill="#000000" font-family="Verdana" font-size="13" lengthAdjust="spacing" textLength="29.5166" x="222" y="140.0698">uses</text></g><!--link step_client to ClientStream--><g class="link" data-entity-1="ent0004" data-entity-2="ent0013" data-link-type="dependency" data-source-line="27" id="lnk20"><path d="M424.88,94.31 C415.11,121.74 400.8223,161.8375 391.0823,189.1975" fill="none" id="step_client-to-ClientStream" style="stroke:#000000;stroke-width:1;"/><polygon fill="#000000" points="389.07,194.85,395.8567,187.7127,390.7469,190.1396,388.3201,185.0297,389.07,194.85" style="stroke:#000000;stroke-width:1;"/><text fill="#000000" font-family="Verdana" font-size="13" lengthAdjust="spacing" textLength="29.5166" x="414" y="140.0698">uses</text></g><!--link step_producer to ProducerStream--><g class="link" data-entity-1="ent0005" data-entity-2="ent0014" data-link-type="dependency" data-source-line="28" id="lnk21"><path d="M602,94.31 C608.01,121.74 616.7548,161.6293 622.7548,188.9893" fill="none" id="step_producer-to-ProducerStream" style="stroke:#000000;stroke-width:1;"/><polygon fill="#000000" points="624.04,194.85,626.0193,185.2021,622.969,189.9661,618.205,186.9157,624.04,194.85" style="stroke:#000000;stroke-width:1;"/><text fill="#000000" font-family="Verdana" font-size="13" lengthAdjust="spacing" textLength="29.5166" x="613" y="140.0698">uses</text></g><!--link step_crash_prediction to CrashStream--><g class="link" data-entity-1="ent0006" data-entity-2="ent0015" data-link-type="dependency" data-source-line="29" id="lnk22"><path d="M817.5,94.31 C838.54,121.74 869.989,162.7287 890.969,190.0887" fill="none" id="step_crash_prediction-to-CrashStream" style="stroke:#000000;stroke-width:1;"/><polygon fill="#000000" points="894.62,194.85,892.3177,185.274,891.5775,190.8822,885.9693,190.1421,894.62,194.85" style="stroke:#000000;stroke-width:1;"/><text fill="#000000" font-family="Verdana" font-size="13" lengthAdjust="spacing" textLength="29.5166" x="853" y="140.0698">uses</text></g><!--link Pool to PoolParams--><g class="link" data-entity-1="ent0008" data-entity-2="ent0009" data-link-type="dependency" data-source-line="31" id="lnk23"><path d="M732,366.28 C732,396.51 732,443.56 732,473.76" fill="none" id="Pool-to-PoolParams" style="stroke:#000000;stroke-width:1;stroke-dasharray:7,7;"/><polygon fill="#000000" points="732,479.76,736,470.76,732,474.76,728,470.76,732,479.76" style="stroke:#000000;stroke-width:1;"/><text fill="#000000" font-family="Verdana" font-size="13" lengthAdjust="spacing" textLength="89.1084" x="733" y="410.0698">configured by</text></g><!--link BaseStream to StreamParams--><g class="link" data-entity-1="ent0010" data-entity-2="ent0011" data-link-type="dependency" data-source-line="32" id="lnk24"><path d="M494,366.28 C494,396.51 494,443.56 494,473.76" fill="none" id="BaseStream-to-StreamParams" style="stroke:#000000;stroke-width:1;stroke-dasharray:7,7;"/><polygon fill="#000000" points="494,479.76,498,470.76,494,474.76,490,470.76,494,479.76" style="stroke:#000000;stroke-width:1;"/><text fill="#000000" font-family="Verdana" font-size="13" lengthAdjust="spacing" textLength="89.1084" x="495" y="410.0698">configured by</text></g><!--link AdapterStream to BaseStream--><g class="link" data-entity-1="ent0012" data-entity-2="ent0010" data-link-type="extension" data-source-line="34" id="lnk25"><path d="M196.31,242.05 C234.02,255.97 283.68,273.98 328,289 C358.06,299.19 374.203,304.4695 403.063,313.5095" fill="none" id="AdapterStream-to-BaseStream" style="stroke:#000000;stroke-width:1;"/><polygon fill="none" points="420.24,318.89,404.8565,307.7839,401.2695,319.2352,420.24,318.89" style="stroke:#000000;stroke-width:1;"/><text fill="#000000" font-family="Verdana" font-size="13" lengthAdjust="spacing" textLength="51.4033" x="329" y="286.0698">extends</text></g><!--link ClientStream to BaseStream--><g class="link" data-entity-1="ent0013" data-entity-2="ent0010" data-link-type="extension" data-source-line="35" id="lnk26"><path d="M382.31,242.17 C384.18,256.83 388.61,275.61 399,289 C408.59,301.36 406.2492,302.3997 419.9292,310.0897" fill="none" id="ClientStream-to-BaseStream" style="stroke:#000000;stroke-width:1;"/><polygon fill="none" points="435.62,318.91,422.8693,304.8594,416.9891,315.3199,435.62,318.91" style="stroke:#000000;stroke-width:1;"/><text fill="#000000" font-family="Verdana" font-size="13" lengthAdjust="spacing" textLength="51.4033" x="400" y="286.0698">extends</text></g><!--link ProducerStream to BaseStream--><g class="link" data-entity-1="ent0014" data-entity-2="ent0010" data-link-type="extension" data-source-line="36" id="lnk27"><path d="M528.02,242.14 C514.23,249.47 501.8,259.16 493,272 C483.72,285.53 481.1359,286.6326 483.9859,301.2526" fill="none" id="ProducerStream-to-BaseStream" style="stroke:#000000;stroke-width:1;"/><polygon fill="none" points="487.43,318.92,489.8751,300.1045,478.0968,302.4006,487.43,318.92" style="stroke:#000000;stroke-width:1;"/><text fill="#000000" font-family="Verdana" font-size="13" lengthAdjust="spacing" textLength="51.4033" x="494" y="286.0698">extends</text></g><!--link CrashStream to BaseStream--><g class="link" data-entity-1="ent0015" data-entity-2="ent0010" data-link-type="extension" data-source-line="37" id="lnk28"><path d="M863.69,242.13 C830.35,257.06 784.69,276.15 743,289 C687.9,305.98 641.9774,316.0577 592.8374,325.0277" fill="none" id="CrashStream-to-BaseStream" style="stroke:#000000;stroke-width:1;"/><polygon fill="none" points="575.13,328.26,593.9148,330.9302,591.76,319.1252,575.13,328.26" style="stroke:#000000;stroke-width:1;"/><text fill="#000000" font-family="Verdana" font-size="13" lengthAdjust="spacing" textLength="51.4033" x="791" y="286.0698">extends</text></g><!--link AdapterStream to Pool--><g class="link" data-entity-1="ent0012" data-entity-2="ent0008" data-link-type="dependency" data-source-line="39" id="lnk29"><path d="M244.51,239.4 C250.42,240.32 256.28,241.19 262,242 C389.43,259.99 426.67,235.23 550,272 C565.81,276.71 567.85,282.47 583,289 C608.44,299.97 631.315,308.5122 656.575,317.1822" fill="none" id="AdapterStream-to-Pool" style="stroke:#000000;stroke-width:1;"/><polygon fill="#000000" points="662.25,319.13,655.036,312.4249,657.5208,317.5068,652.4389,319.9916,662.25,319.13" style="stroke:#000000;stroke-width:1;"/><text fill="#000000" font-family="Verdana" font-size="13" lengthAdjust="spacing" textLength="29.5166" x="584" y="286.0698">uses</text></g><!--link ClientStream to Pool--><g class="link" data-entity-1="ent0013" data-entity-2="ent0008" data-link-type="dependency" data-source-line="40" id="lnk30"><path d="M482.33,239.86 C542.09,252.17 608.6,266.51 622,272 C637.68,278.43 667.7737,297.8279 694.1237,315.5779" fill="none" id="ClientStream-to-Pool" style="stroke:#000000;stroke-width:1;"/><polygon fill="#000000" points="699.1,318.93,693.8704,310.5843,694.9531,316.1366,689.4008,317.2193,699.1,318.93" style="stroke:#000000;stroke-width:1;"/><text fill="#000000" font-family="Verdana" font-size="13" lengthAdjust="spacing" textLength="29.5166" x="652" y="286.0698">uses</text></g><!--link ProducerStream to Pool--><g class="link" data-entity-1="ent0014" data-entity-2="ent0008" data-link-type="dependency" data-source-line="41" id="lnk31"><path d="M661.38,242.21 C672.22,250.77 683.86,261.1 693,272 C704.91,286.21 712.4174,299.1935 719.3574,313.4735" fill="none" id="ProducerStream-to-Pool" style="stroke:#000000;stroke-width:1;"/><polygon fill="#000000" points="721.98,318.87,721.6437,309.0269,719.7945,314.373,714.4484,312.5237,721.98,318.87" style="stroke:#000000;stroke-width:1;"/><text fill="#000000" font-family="Verdana" font-size="13" lengthAdjust="spacing" textLength="29.5166" x="705" y="286.0698">uses</text></g><!--link CrashStream to Pool--><g class="link" data-entity-1="ent0015" data-entity-2="ent0008" data-link-type="dependency" data-source-line="42" id="lnk32"><path d="M902.98,242.24 C895.98,257.31 884.94,276.54 870,289 C850.42,305.34 830.8869,314.9678 807.3869,323.0078" fill="none" id="CrashStream-to-Pool" style="stroke:#000000;stroke-width:1;"/><polygon fill="#000000" points="801.71,324.95,811.5202,325.8213,806.4408,323.3315,808.9306,318.252,801.71,324.95" style="stroke:#000000;stroke-width:1;"/><text fill="#000000" font-family="Verdana" font-size="13" lengthAdjust="spacing" textLength="29.5166" x="886" y="286.0698">uses</text></g><!--link Pool to RedisConnection--><g class="link" data-entity-1="ent0008" data-entity-2="ent0018" data-link-type="dependency" data-source-line="44" id="lnk33"><path d="M801.82,348.74 C926.75,358.92 1183.04,383.71 1264,421 C1294.35,434.98 1318.8001,456.5253 1337.1901,475.3753" fill="none" id="Pool-to-RedisConnection" style="stroke:#000000;stroke-width:1;"/><polygon fill="#000000" points="1341.38,479.67,1337.9583,470.4346,1337.8884,476.0911,1332.232,476.0212,1341.38,479.67" style="stroke:#000000;stroke-width:1;"/><text fill="#000000" font-family="Verdana" font-size="13" lengthAdjust="spacing" textLength="59.103" x="1242" y="410.0698">manages</text></g><!--link BaseStream to RedisStreams--><g class="link" data-entity-1="ent0010" data-entity-2="ent0017" data-link-type="dependency" data-source-line="45" id="lnk34"><path d="M575.07,355.85 C597.69,359.22 622.3,362.82 645,366 C831,392.06 889.71,351 1064,421 C1097.72,434.54 1126.0764,456.7193 1147.1664,475.7593" fill="none" id="BaseStream-to-RedisStreams" style="stroke:#000000;stroke-width:1;"/><polygon fill="#000000" points="1151.62,479.78,1147.6201,470.78,1147.9087,476.4294,1142.2592,476.718,1151.62,479.78" style="stroke:#000000;stroke-width:1;"/><text fill="#000000" font-family="Verdana" font-size="13" lengthAdjust="spacing" textLength="88.8101" x="1034" y="410.0698">interacts with</text></g><?plantuml-src VPFBJiCm44Nt_egX-_G3M4Gg5Vk8i4CLcZf3Qv4uLkpo4F3l-967xL1soPtZySpDpOqvKqUWMXIICONy5Ky4c_hnleATKgtWQ4GlzGQ-600yQKFg6HjKXeR3el1Ma3IHe8Q-kV2K6L2VRO4QmLtF0_k9RlI8gyrNrLPvS4BLz-q1K8DxM9Sg7B3JCn1UKwms0s7daJlK55x_Gg9UiJ2Zkx1vtdIKixvxRqhE1ZL3gz6k79xqlBEpifgTN5tXokCHwt631ezsRTXu46eQtcYOR1urJuVDetOwGlQzb1I-t4mjchieJGSKHPaw0xTmqQHPaXcFnQQar1mapwL-PFtoV8NEYnSJpbnCOBijexpO6k_bYpXTx7auVh8b9vwCqx1YMRfbKNoNKSuiJX-6PADPikPrBDlodtxHSjUfrNXXyScERAYqk1ebEviCaDQ2pKxDecA13gNzwtNiyWoEoREKa7Pgv4R3kp3dNm00?></g></svg>