<?xml version="1.0" encoding="us-ascii" standalone="no"?><svg xmlns="http://www.w3.org/2000/svg" xmlns:xlink="http://www.w3.org/1999/xlink" contentStyleType="text/css" height="594px" preserveAspectRatio="none" style="width:717px;height:594px;background:#FFFFFF;" version="1.1" viewBox="0 0 717 594" width="717px" zoomAndPan="magnify"><defs/><g><!--class StepGw--><g id="elem_StepGw"><rect codeLine="4" fill="#FFFFFF" height="180.1172" id="StepGw" rx="2.5" ry="2.5" style="stroke:#000000;stroke-width:1.0;" width="161" x="347" y="12"/><ellipse cx="396.25" cy="26" fill="#FFFFFF" rx="9" ry="9" style="stroke:#000000;stroke-width:1.0;"/><path d="M399.0156,27.5313 L401.4063,28.2813 Q400.8594,30.2656 399.5781,31.2344 Q398.3125,32.2031 396.3438,32.2031 Q393.9219,32.2031 392.3594,30.5469 Q390.8125,28.8906 390.8125,26.0156 Q390.8125,22.9844 392.375,21.3125 Q393.9375,19.625 396.5,19.625 Q398.7344,19.625 400.125,20.9375 Q400.9531,21.7188 401.375,23.1875 L398.9375,23.7656 Q398.7188,22.8125 398.0313,22.2656 Q397.3594,21.7188 396.375,21.7188 Q395.0156,21.7188 394.1719,22.7031 Q393.3438,23.6719 393.3438,25.8438 Q393.3438,28.1406 394.1719,29.125 Q395,30.1094 396.3281,30.1094 Q397.3125,30.1094 398.0156,29.4844 Q398.7188,28.8594 399.0156,27.5313 Z " fill="#000000"/><text fill="#000000" font-family="Verdana" font-size="14" lengthAdjust="spacing" textLength="55" x="413.75" y="31.5679">StepGw</text><line style="stroke:#000000;stroke-width:1.0;" x1="348" x2="507" y1="40" y2="40"/><line style="stroke:#000000;stroke-width:1.0;" x1="348" x2="507" y1="48" y2="48"/><text fill="#000000" font-family="Verdana" font-size="14" lengthAdjust="spacing" textLength="149" x="353" y="66.0752">+async __aenter__()</text><text fill="#000000" font-family="Verdana" font-size="14" lengthAdjust="spacing" textLength="138" x="353" y="83.0898">+async __aexit__()</text><text fill="#000000" font-family="Verdana" font-size="14" lengthAdjust="spacing" textLength="111" x="353" y="100.1045">+async aclose()</text><text fill="#000000" font-family="Verdana" font-size="14" lengthAdjust="spacing" textLength="78" x="353" y="117.1191">+connect()</text><text fill="#000000" font-family="Verdana" font-size="14" lengthAdjust="spacing" textLength="98" x="353" y="134.1338">+disconnect()</text><text fill="#000000" font-family="Verdana" font-size="14" lengthAdjust="spacing" textLength="90" x="353" y="151.1484">+subscribe()</text><text fill="#000000" font-family="Verdana" font-size="14" lengthAdjust="spacing" textLength="108" x="353" y="168.1631">+unsubscribe()</text><text fill="#000000" font-family="Verdana" font-size="14" lengthAdjust="spacing" textLength="73" x="353" y="185.1777">+publish()</text></g><!--class StepConfig--><g id="elem_StepConfig"><rect codeLine="15" fill="#FFFFFF" height="146.0879" id="StepConfig" rx="2.5" ry="2.5" style="stroke:#000000;stroke-width:1.0;" width="139" x="12" y="269"/><ellipse cx="39.85" cy="283" fill="#FFFFFF" rx="9" ry="9" style="stroke:#000000;stroke-width:1.0;"/><path d="M42.6156,284.5313 L45.0063,285.2813 Q44.4594,287.2656 43.1781,288.2344 Q41.9125,289.2031 39.9438,289.2031 Q37.5219,289.2031 35.9594,287.5469 Q34.4125,285.8906 34.4125,283.0156 Q34.4125,279.9844 35.975,278.3125 Q37.5375,276.625 40.1,276.625 Q42.3344,276.625 43.725,277.9375 Q44.5531,278.7188 44.975,280.1875 L42.5375,280.7656 Q42.3188,279.8125 41.6313,279.2656 Q40.9594,278.7188 39.975,278.7188 Q38.6156,278.7188 37.7719,279.7031 Q36.9438,280.6719 36.9438,282.8438 Q36.9438,285.1406 37.7719,286.125 Q38.6,287.1094 39.9281,287.1094 Q40.9125,287.1094 41.6156,286.4844 Q42.3188,285.8594 42.6156,284.5313 Z " fill="#000000"/><text fill="#000000" font-family="Verdana" font-size="14" lengthAdjust="spacing" textLength="78" x="55.15" y="288.5679">StepConfig</text><line style="stroke:#000000;stroke-width:1.0;" x1="13" x2="150" y1="297" y2="297"/><text fill="#000000" font-family="Verdana" font-size="14" lengthAdjust="spacing" textLength="90" x="18" y="315.0752">+mqtt_client</text><text fill="#000000" font-family="Verdana" font-size="14" lengthAdjust="spacing" textLength="112" x="18" y="332.0898">+mqtt_protocol</text><text fill="#000000" font-family="Verdana" font-size="14" lengthAdjust="spacing" textLength="90" x="18" y="349.1045">+redis_client</text><text fill="#000000" font-family="Verdana" font-size="14" lengthAdjust="spacing" textLength="62" x="18" y="366.1191">+logging</text><line style="stroke:#000000;stroke-width:1.0;" x1="13" x2="150" y1="373.0586" y2="373.0586"/><text fill="#000000" font-family="Verdana" font-size="14" lengthAdjust="spacing" textLength="103" x="18" y="391.1338">+get_default()</text><text fill="#000000" font-family="Verdana" font-size="14" lengthAdjust="spacing" textLength="127" x="18" y="408.1484">+model_validate()</text></g><!--class StepClientRedisPool--><g id="elem_StepClientRedisPool"><rect codeLine="24" fill="#FFFFFF" height="95.0439" id="StepClientRedisPool" rx="2.5" ry="2.5" style="stroke:#000000;stroke-width:1.0;" width="167" x="197" y="492"/><ellipse cx="210" cy="506" fill="#FFFFFF" rx="9" ry="9" style="stroke:#000000;stroke-width:1.0;"/><path d="M212.7656,507.5313 L215.1563,508.2813 Q214.6094,510.2656 213.3281,511.2344 Q212.0625,512.2031 210.0938,512.2031 Q207.6719,512.2031 206.1094,510.5469 Q204.5625,508.8906 204.5625,506.0156 Q204.5625,502.9844 206.125,501.3125 Q207.6875,499.625 210.25,499.625 Q212.4844,499.625 213.875,500.9375 Q214.7031,501.7188 215.125,503.1875 L212.6875,503.7656 Q212.4688,502.8125 211.7813,502.2656 Q211.1094,501.7188 210.125,501.7188 Q208.7656,501.7188 207.9219,502.7031 Q207.0938,503.6719 207.0938,505.8438 Q207.0938,508.1406 207.9219,509.125 Q208.75,510.1094 210.0781,510.1094 Q211.0625,510.1094 211.7656,509.4844 Q212.4688,508.8594 212.7656,507.5313 Z " fill="#000000"/><text fill="#000000" font-family="Verdana" font-size="14" lengthAdjust="spacing" textLength="139" x="222" y="511.5679">StepClientRedisPool</text><line style="stroke:#000000;stroke-width:1.0;" x1="198" x2="363" y1="520" y2="520"/><line style="stroke:#000000;stroke-width:1.0;" x1="198" x2="363" y1="528" y2="528"/><text fill="#000000" font-family="Verdana" font-size="14" lengthAdjust="spacing" textLength="149" x="203" y="546.0752">+async __aenter__()</text><text fill="#000000" font-family="Verdana" font-size="14" lengthAdjust="spacing" textLength="138" x="203" y="563.0898">+async __aexit__()</text><text fill="#000000" font-family="Verdana" font-size="14" lengthAdjust="spacing" textLength="131" x="203" y="580.1045">+get_connection()</text></g><!--class StepClientRedisStream--><g id="elem_StepClientRedisStream"><rect codeLine="30" fill="#FFFFFF" height="129.0732" id="StepClientRedisStream" rx="2.5" ry="2.5" style="stroke:#000000;stroke-width:1.0;" width="189" x="186" y="277.5"/><ellipse cx="199" cy="291.5" fill="#FFFFFF" rx="9" ry="9" style="stroke:#000000;stroke-width:1.0;"/><path d="M201.7656,293.0313 L204.1563,293.7813 Q203.6094,295.7656 202.3281,296.7344 Q201.0625,297.7031 199.0938,297.7031 Q196.6719,297.7031 195.1094,296.0469 Q193.5625,294.3906 193.5625,291.5156 Q193.5625,288.4844 195.125,286.8125 Q196.6875,285.125 199.25,285.125 Q201.4844,285.125 202.875,286.4375 Q203.7031,287.2188 204.125,288.6875 L201.6875,289.2656 Q201.4688,288.3125 200.7813,287.7656 Q200.1094,287.2188 199.125,287.2188 Q197.7656,287.2188 196.9219,288.2031 Q196.0938,289.1719 196.0938,291.3438 Q196.0938,293.6406 196.9219,294.625 Q197.75,295.6094 199.0781,295.6094 Q200.0625,295.6094 200.7656,294.9844 Q201.4688,294.3594 201.7656,293.0313 Z " fill="#000000"/><text fill="#000000" font-family="Verdana" font-size="14" lengthAdjust="spacing" textLength="161" x="211" y="297.0679">StepClientRedisStream</text><line style="stroke:#000000;stroke-width:1.0;" x1="187" x2="374" y1="305.5" y2="305.5"/><line style="stroke:#000000;stroke-width:1.0;" x1="187" x2="374" y1="313.5" y2="313.5"/><text fill="#000000" font-family="Verdana" font-size="14" lengthAdjust="spacing" textLength="149" x="192" y="331.5752">+async __aenter__()</text><text fill="#000000" font-family="Verdana" font-size="14" lengthAdjust="spacing" textLength="138" x="192" y="348.5898">+async __aexit__()</text><text fill="#000000" font-family="Verdana" font-size="14" lengthAdjust="spacing" textLength="73" x="192" y="365.6045">+publish()</text><text fill="#000000" font-family="Verdana" font-size="14" lengthAdjust="spacing" textLength="71" x="192" y="382.6191">+receive()</text><text fill="#000000" font-family="Verdana" font-size="14" lengthAdjust="spacing" textLength="169" x="192" y="399.6338">+create_input_stream()</text></g><!--class StepLogger--><g id="elem_StepLogger"><rect codeLine="38" fill="#FFFFFF" height="78.0293" id="StepLogger" rx="2.5" ry="2.5" style="stroke:#000000;stroke-width:1.0;" width="135" x="410" y="303"/><ellipse cx="434.25" cy="317" fill="#FFFFFF" rx="9" ry="9" style="stroke:#000000;stroke-width:1.0;"/><path d="M437.0156,318.5313 L439.4063,319.2813 Q438.8594,321.2656 437.5781,322.2344 Q436.3125,323.2031 434.3438,323.2031 Q431.9219,323.2031 430.3594,321.5469 Q428.8125,319.8906 428.8125,317.0156 Q428.8125,313.9844 430.375,312.3125 Q431.9375,310.625 434.5,310.625 Q436.7344,310.625 438.125,311.9375 Q438.9531,312.7188 439.375,314.1875 L436.9375,314.7656 Q436.7188,313.8125 436.0313,313.2656 Q435.3594,312.7188 434.375,312.7188 Q433.0156,312.7188 432.1719,313.7031 Q431.3438,314.6719 431.3438,316.8438 Q431.3438,319.1406 432.1719,320.125 Q433,321.1094 434.3281,321.1094 Q435.3125,321.1094 436.0156,320.4844 Q436.7188,319.8594 437.0156,318.5313 Z " fill="#000000"/><text fill="#000000" font-family="Verdana" font-size="14" lengthAdjust="spacing" textLength="82" x="448.75" y="322.5679">StepLogger</text><line style="stroke:#000000;stroke-width:1.0;" x1="411" x2="544" y1="331" y2="331"/><line style="stroke:#000000;stroke-width:1.0;" x1="411" x2="544" y1="339" y2="339"/><text fill="#000000" font-family="Verdana" font-size="14" lengthAdjust="spacing" textLength="123" x="416" y="357.0752">+setup_logging()</text><text fill="#000000" font-family="Verdana" font-size="14" lengthAdjust="spacing" textLength="99" x="416" y="374.0898">+get_logger()</text></g><!--class StepException--><g id="elem_StepException"><rect codeLine="43" fill="#FFFFFF" height="44" id="StepException" rx="2.5" ry="2.5" style="stroke:#000000;stroke-width:1.0;" width="130" x="580.5" y="320"/><ellipse cx="593.5" cy="334" fill="#FFFFFF" rx="9" ry="9" style="stroke:#000000;stroke-width:1.0;"/><path d="M596.2656,335.5313 L598.6563,336.2813 Q598.1094,338.2656 596.8281,339.2344 Q595.5625,340.2031 593.5938,340.2031 Q591.1719,340.2031 589.6094,338.5469 Q588.0625,336.8906 588.0625,334.0156 Q588.0625,330.9844 589.625,329.3125 Q591.1875,327.625 593.75,327.625 Q595.9844,327.625 597.375,328.9375 Q598.2031,329.7188 598.625,331.1875 L596.1875,331.7656 Q595.9688,330.8125 595.2813,330.2656 Q594.6094,329.7188 593.625,329.7188 Q592.2656,329.7188 591.4219,330.7031 Q590.5938,331.6719 590.5938,333.8438 Q590.5938,336.1406 591.4219,337.125 Q592.25,338.1094 593.5781,338.1094 Q594.5625,338.1094 595.2656,337.4844 Q595.9688,336.8594 596.2656,335.5313 Z " fill="#000000"/><text fill="#000000" font-family="Verdana" font-size="14" lengthAdjust="spacing" textLength="102" x="605.5" y="339.5679">StepException</text><line style="stroke:#000000;stroke-width:1.0;" x1="581.5" x2="709.5" y1="348" y2="348"/><line style="stroke:#000000;stroke-width:1.0;" x1="581.5" x2="709.5" y1="356" y2="356"/></g><!--link StepGw to StepConfig--><g id="link_StepGw_StepConfig"><path codeLine="46" d="M346.77,151.24 C294.81,183.13 226.41,226.72 168.5,269 C164.14,272.19 159.7,275.52 155.27,278.94 " fill="none" id="StepGw-to-StepConfig" style="stroke:#000000;stroke-width:1.0;"/><polygon fill="#000000" points="151.19,282.09,160.7481,279.7148,155.1345,279.0173,155.8319,273.4036,151.19,282.09" style="stroke:#000000;stroke-width:1.0;"/><text fill="#000000" font-family="Verdana" font-size="13" lengthAdjust="spacing" textLength="30" x="232.5" y="236.0698">uses</text></g><!--link StepGw to StepClientRedisStream--><g id="link_StepGw_StepClientRedisStream"><path codeLine="47" d="M372.34,192.3 C355.86,218.98 338.07,247.79 322.57,272.89 " fill="none" id="StepGw-to-StepClientRedisStream" style="stroke:#000000;stroke-width:1.0;"/><polygon fill="#000000" points="319.9,277.2,328.0318,271.6436,322.5269,272.9456,321.2248,267.4407,319.9,277.2" style="stroke:#000000;stroke-width:1.0;"/><text fill="#000000" font-family="Verdana" font-size="13" lengthAdjust="spacing" textLength="30" x="355.5" y="236.0698">uses</text></g><!--link StepGw to StepLogger--><g id="link_StepGw_StepLogger"><path codeLine="48" d="M446.26,192.3 C453.86,228.46 462.27,268.53 468.46,297.95 " fill="none" id="StepGw-to-StepLogger" style="stroke:#000000;stroke-width:1.0;"/><polygon fill="#000000" points="469.51,302.95,471.5701,293.319,468.4799,298.0573,463.7417,294.9671,469.51,302.95" style="stroke:#000000;stroke-width:1.0;"/><text fill="#000000" font-family="Verdana" font-size="13" lengthAdjust="spacing" textLength="30" x="456.5" y="236.0698">uses</text></g><!--link StepGw to StepException--><g id="link_StepGw_StepException"><path codeLine="49" d="M508.06,190.95 C548.92,235.55 595.51,286.42 622.6,316 " fill="none" id="StepGw-to-StepException" style="stroke:#000000;stroke-width:1.0;"/><polygon fill="#000000" points="626.13,319.85,622.9873,310.516,622.7475,316.1678,617.0957,315.928,626.13,319.85" style="stroke:#000000;stroke-width:1.0;"/><text fill="#000000" font-family="Verdana" font-size="13" lengthAdjust="spacing" textLength="45" x="551.5" y="236.0698">throws</text></g><!--link StepClientRedisStream to StepClientRedisPool--><g id="link_StepClientRedisStream_StepClientRedisPool"><path codeLine="50" d="M280.5,406.74 C280.5,432.65 280.5,462.19 280.5,486.73 " fill="none" id="StepClientRedisStream-to-StepClientRedisPool" style="stroke:#000000;stroke-width:1.0;"/><polygon fill="#000000" points="280.5,491.88,284.5,482.88,280.5,486.88,276.5,482.88,280.5,491.88" style="stroke:#000000;stroke-width:1.0;"/><text fill="#000000" font-family="Verdana" font-size="13" lengthAdjust="spacing" textLength="30" x="281.5" y="459.0698">uses</text></g><!--SRC=[dLB1JW8n4BtlLzIRnf1uvc1YZ34c78nyG5Ewm-x4RbixKq2D_swt55bOyC2jysRwtkkRNd4B7GXl5DgAtj5w5LGdj5543ym15v7XHJixnoyGTrMrROavWtzUY-zA276hwDDg8QK2on2alBuvWZV8HwZInX4KAD5Rq5og6kaGeBWWdPpingCzHdnS6AIshtuEB3uwkyIcsEm-cAKsc5pkQnySE-rCHW8ayU68SKs3jidd1bZMi5JHx8nrhWOZLyfWhHXEg6UYjvxqrJbpILgzQ4a3dVrNOiu1qkek41d4bqFGWAk_tIHI1fa-HcH9MMBiOfPYWb2a2JXwMP8RFCFaeV7bfuq6tx-klz-toj-QJEw7EvoAI43ZxYY0CuF5uvdktiHKS1lSkeoCwKy8v-LkYNy1]--></g></svg>