<svg xmlns="http://www.w3.org/2000/svg" xmlns:xlink="http://www.w3.org/1999/xlink" version="1.1" data-diagram-type="SEQUENCE" style="width:1481px;height:1117px;background:#FFFFFF;" width="1481px" height="1117px" viewBox="0 0 1481 1117" zoomAndPan="magnify" preserveAspectRatio="none" contentStyleType="text/css"><?plantuml 1.2026.7?><defs/><g font-family="sans-serif" lengthAdjust="spacing"><rect x="297.138" y="233.094" width="1131.881" height="817.93" fill="none" style="stroke:#000;stroke-width:1.5;"/><g><title>STEP MQTT Broker</title><rect x="78.616" y="41.297" width="8" height="1033.727" fill="#000" fill-opacity="0"/><line x1="82.116" y1="41.297" x2="82.116" y2="1075.023" style="stroke:#181818;stroke-width:0.5;stroke-dasharray:5,5;"/></g><g><title>StepBroker</title><rect x="309.638" y="41.297" width="8" height="1033.727" fill="#000" fill-opacity="0"/><line x1="313.138" y1="41.297" x2="313.138" y2="1075.023" style="stroke:#181818;stroke-width:0.5;stroke-dasharray:5,5;"/></g><g><title>StepAdapterRedisStream</title><rect x="568.444" y="41.297" width="8" height="1033.727" fill="#000" fill-opacity="0"/><line x1="571.944" y1="41.297" x2="571.944" y2="1075.023" style="stroke:#181818;stroke-width:0.5;stroke-dasharray:5,5;"/></g><g><title>StepProducerRedisStream</title><rect x="782.002" y="41.297" width="8" height="1033.727" fill="#000" fill-opacity="0"/><line x1="785.502" y1="41.297" x2="785.502" y2="1075.023" style="stroke:#181818;stroke-width:0.5;stroke-dasharray:5,5;"/></g><g><title>Redis Database</title><rect x="1071.753" y="41.297" width="8" height="1033.727" fill="#000" fill-opacity="0"/><line x1="1075.253" y1="41.297" x2="1075.253" y2="1075.023" style="stroke:#181818;stroke-width:0.5;stroke-dasharray:5,5;"/></g><g><title>STEP Adapter</title><rect x="1287.154" y="41.297" width="8" height="1033.727" fill="#000" fill-opacity="0"/><line x1="1290.654" y1="41.297" x2="1290.654" y2="1075.023" style="stroke:#181818;stroke-width:0.5;stroke-dasharray:5,5;"/></g><g><title>STEP Producer</title><rect x="1409.52" y="41.297" width="8" height="1033.727" fill="#000" fill-opacity="0"/><line x1="1413.02" y1="41.297" x2="1413.02" y2="1075.023" style="stroke:#181818;stroke-width:0.5;stroke-dasharray:5,5;"/></g><rect x="10" y="10" width="144.231" height="30.297" fill="#E2E2F0" style="stroke:#181818;stroke-width:0.5;" rx="2.5" ry="2.5"/><text x="17" y="29.995" fill="#000" font-size="14" textLength="130.231">STEP MQTT Broker</text><rect x="266.999" y="10" width="92.278" height="30.297" fill="#E2E2F0" style="stroke:#181818;stroke-width:0.5;" rx="2.5" ry="2.5"/><text x="273.999" y="29.995" fill="#000" font-size="14" textLength="78.278">StepBroker</text><rect x="476.426" y="10" width="191.037" height="30.297" fill="#E2E2F0" style="stroke:#181818;stroke-width:0.5;" rx="2.5" ry="2.5"/><text x="483.426" y="29.995" fill="#000" font-size="14" textLength="177.037">StepAdapterRedisStream</text><rect x="686.583" y="10" width="197.839" height="30.297" fill="#E2E2F0" style="stroke:#181818;stroke-width:0.5;" rx="2.5" ry="2.5"/><text x="693.583" y="29.995" fill="#000" font-size="14" textLength="183.839">StepProducerRedisStream</text><rect x="1013.422" y="10" width="123.662" height="30.297" fill="#E2E2F0" style="stroke:#181818;stroke-width:0.5;" rx="2.5" ry="2.5"/><text x="1020.422" y="29.995" fill="#000" font-size="14" textLength="109.662">Redis Database</text><rect x="1236.171" y="10" width="108.965" height="30.297" fill="#E2E2F0" style="stroke:#181818;stroke-width:0.5;" rx="2.5" ry="2.5"/><text x="1243.171" y="29.995" fill="#000" font-size="14" textLength="94.965">STEP Adapter</text><rect x="1355.136" y="10" width="115.767" height="30.297" fill="#E2E2F0" style="stroke:#181818;stroke-width:0.5;" rx="2.5" ry="2.5"/><text x="1362.136" y="29.995" fill="#000" font-size="14" textLength="101.767">STEP Producer</text><rect x="10" y="1075.023" width="144.231" height="30.297" fill="#E2E2F0" style="stroke:#181818;stroke-width:0.5;" rx="2.5" ry="2.5"/><text x="17" y="1095.019" fill="#000" font-size="14" textLength="130.231">STEP MQTT Broker</text><rect x="266.999" y="1075.023" width="92.278" height="30.297" fill="#E2E2F0" style="stroke:#181818;stroke-width:0.5;" rx="2.5" ry="2.5"/><text x="273.999" y="1095.019" fill="#000" font-size="14" textLength="78.278">StepBroker</text><rect x="476.426" y="1075.023" width="191.037" height="30.297" fill="#E2E2F0" style="stroke:#181818;stroke-width:0.5;" rx="2.5" ry="2.5"/><text x="483.426" y="1095.019" fill="#000" font-size="14" textLength="177.037">StepAdapterRedisStream</text><rect x="686.583" y="1075.023" width="197.839" height="30.297" fill="#E2E2F0" style="stroke:#181818;stroke-width:0.5;" rx="2.5" ry="2.5"/><text x="693.583" y="1095.019" fill="#000" font-size="14" textLength="183.839">StepProducerRedisStream</text><rect x="1013.422" y="1075.023" width="123.662" height="30.297" fill="#E2E2F0" style="stroke:#181818;stroke-width:0.5;" rx="2.5" ry="2.5"/><text x="1020.422" y="1095.019" fill="#000" font-size="14" textLength="109.662">Redis Database</text><rect x="1236.171" y="1075.023" width="108.965" height="30.297" fill="#E2E2F0" style="stroke:#181818;stroke-width:0.5;" rx="2.5" ry="2.5"/><text x="1243.171" y="1095.019" fill="#000" font-size="14" textLength="94.965">STEP Adapter</text><rect x="1355.136" y="1075.023" width="115.767" height="30.297" fill="#E2E2F0" style="stroke:#181818;stroke-width:0.5;" rx="2.5" ry="2.5"/><text x="1362.136" y="1095.019" fill="#000" font-size="14" textLength="101.767">STEP Producer</text><polygon points="93.116,66.43,83.116,70.43,93.116,74.43,89.116,70.43" fill="#181818" style="stroke:#181818;stroke-width:1;stroke-linejoin:miter;stroke-miterlimit:10;"/><line x1="87.116" y1="70.43" x2="312.138" y2="70.43" style="stroke:#181818;stroke-width:1;"/><text x="99.116" y="65.364" fill="#000" font-size="13" textLength="161.827">SUBSCRIBE (topics, QoS)</text><polygon points="301.138,95.563,311.138,99.563,301.138,103.563,305.138,99.563" fill="#181818" style="stroke:#181818;stroke-width:1;stroke-linejoin:miter;stroke-miterlimit:10;"/><line x1="82.116" y1="99.563" x2="307.138" y2="99.563" style="stroke:#181818;stroke-width:1;stroke-dasharray:2,2;"/><text x="89.116" y="94.497" fill="#000" font-size="13" textLength="53.181">SUBACK</text><polygon points="301.138,124.695,311.138,128.695,301.138,132.695,305.138,128.695" fill="#181818" style="stroke:#181818;stroke-width:1;stroke-linejoin:miter;stroke-miterlimit:10;"/><line x1="82.116" y1="128.695" x2="307.138" y2="128.695" style="stroke:#181818;stroke-width:1;"/><text x="89.116" y="123.629" fill="#000" font-size="13" textLength="207.022">PUBLISH (topic, ITS_bytes, QoS)</text><line x1="313.138" y1="157.828" x2="355.138" y2="157.828" style="stroke:#181818;stroke-width:1;"/><line x1="355.138" y1="157.828" x2="355.138" y2="170.828" style="stroke:#181818;stroke-width:1;"/><line x1="314.138" y1="170.828" x2="355.138" y2="170.828" style="stroke:#181818;stroke-width:1;"/><polygon points="324.138,166.828,314.138,170.828,324.138,174.828,320.138,170.828" fill="#181818" style="stroke:#181818;stroke-width:1;stroke-linejoin:miter;stroke-miterlimit:10;"/><text x="320.138" y="152.762" fill="#000" font-size="13" textLength="241.433">Decode ITS ASN.1 to FacilityMessage</text><path d="M209.718,183.828 L209.718,223.828 L415.718,223.828 L415.718,193.828 L405.718,183.828 L209.718,183.828" style="stroke:#181818;stroke-width:0.5;" fill="#FEFFDD"/><path d="M405.718,183.828 L405.718,193.828 L415.718,193.828 L405.718,183.828" style="stroke:#181818;stroke-width:0.5;" fill="#FEFFDD"/><text x="215.718" y="200.895" fill="#000" font-size="13" textLength="185.84">Use step_lib.FacilityMessage</text><text x="215.718" y="216.028" fill="#000" font-size="13" textLength="81.713">for decoding</text><path d="M297.138,233.094 L361.581,233.094 L361.581,240.227 L351.581,250.227 L297.138,250.227 L297.138,233.094" style="stroke:#000;stroke-width:1.5;" fill="#EEE"/><rect x="297.138" y="233.094" width="1131.881" height="817.93" fill="none" style="stroke:#000;stroke-width:1.5;"/><text x="312.138" y="246.161" fill="#000" font-size="13" textLength="19.443" font-weight="700">alt</text><text x="376.581" y="245.304" fill="#000" font-size="11" textLength="95.675" font-weight="700">[CAM Message]</text><line x1="313.138" y1="281.359" x2="355.138" y2="281.359" style="stroke:#181818;stroke-width:1;"/><line x1="355.138" y1="281.359" x2="355.138" y2="294.359" style="stroke:#181818;stroke-width:1;"/><line x1="314.138" y1="294.359" x2="355.138" y2="294.359" style="stroke:#181818;stroke-width:1;"/><polygon points="324.138,290.359,314.138,294.359,324.138,298.359,320.138,294.359" fill="#181818" style="stroke:#181818;stroke-width:1;stroke-linejoin:miter;stroke-miterlimit:10;"/><text x="320.138" y="276.293" fill="#000" font-size="13" textLength="128.604">Extract CamDataV1</text><polygon points="559.944,319.492,569.944,323.492,559.944,327.492,563.944,323.492" fill="#181818" style="stroke:#181818;stroke-width:1;stroke-linejoin:miter;stroke-miterlimit:10;"/><line x1="313.138" y1="323.492" x2="565.944" y2="323.492" style="stroke:#181818;stroke-width:1;"/><text x="320.138" y="318.426" fill="#000" font-size="13" textLength="234.235">publish_cam_message(CamDataV1)</text><line x1="571.944" y1="352.625" x2="613.944" y2="352.625" style="stroke:#181818;stroke-width:1;"/><line x1="613.944" y1="352.625" x2="613.944" y2="365.625" style="stroke:#181818;stroke-width:1;"/><line x1="572.944" y1="365.625" x2="613.944" y2="365.625" style="stroke:#181818;stroke-width:1;"/><polygon points="582.944,361.625,572.944,365.625,582.944,369.625,578.944,365.625" fill="#181818" style="stroke:#181818;stroke-width:1;stroke-linejoin:miter;stroke-miterlimit:10;"/><text x="578.944" y="347.559" fill="#000" font-size="13" textLength="199.558">Wrap in CloudEvents envelope</text><path d="M456.013,378.625 L456.013,418.625 L687.013,418.625 L687.013,388.625 L677.013,378.625 L456.013,378.625" style="stroke:#181818;stroke-width:0.5;" fill="#FEFFDD"/><path d="M677.013,378.625 L677.013,388.625 L687.013,388.625 L677.013,378.625" style="stroke:#181818;stroke-width:0.5;" fill="#FEFFDD"/><text x="462.013" y="395.692" fill="#000" font-size="13" textLength="210.863">AdapterCloudEventsCamDataV1</text><text x="462.013" y="410.825" fill="#000" font-size="13" textLength="202.027">with UUID, timestamp, schema</text><polygon points="1063.253,441.023,1073.253,445.023,1063.253,449.023,1067.253,445.023" fill="#181818" style="stroke:#181818;stroke-width:1;stroke-linejoin:miter;stroke-miterlimit:10;"/><line x1="571.944" y1="445.023" x2="1069.253" y2="445.023" style="stroke:#181818;stroke-width:1;"/><text x="578.944" y="439.958" fill="#000" font-size="13" textLength="258.096">XADD adapter_stream {payload: JSON}</text><polygon points="582.944,470.156,572.944,474.156,582.944,478.156,578.944,474.156" fill="#181818" style="stroke:#181818;stroke-width:1;stroke-linejoin:miter;stroke-miterlimit:10;"/><line x1="576.944" y1="474.156" x2="1074.253" y2="474.156" style="stroke:#181818;stroke-width:1;stroke-dasharray:2,2;"/><text x="588.944" y="469.09" fill="#000" font-size="13" textLength="76.788">message_id</text><polygon points="1278.654,499.289,1288.654,503.289,1278.654,507.289,1282.654,503.289" fill="#181818" style="stroke:#181818;stroke-width:1;stroke-linejoin:miter;stroke-miterlimit:10;"/><line x1="1075.253" y1="503.289" x2="1284.654" y2="503.289" style="stroke:#181818;stroke-width:1;"/><text x="1082.253" y="498.223" fill="#000" font-size="13" textLength="191.401">Consumer reads from stream</text><line x1="297.138" y1="512.289" x2="1429.02" y2="512.289" style="stroke:#000;stroke-width:1;stroke-dasharray:2,2;"/><text x="302.138" y="524.5" fill="#000" font-size="11" textLength="95.224" font-weight="700">[CPM Message]</text><line x1="313.138" y1="551.227" x2="355.138" y2="551.227" style="stroke:#181818;stroke-width:1;"/><line x1="355.138" y1="551.227" x2="355.138" y2="564.227" style="stroke:#181818;stroke-width:1;"/><line x1="314.138" y1="564.227" x2="355.138" y2="564.227" style="stroke:#181818;stroke-width:1;"/><polygon points="324.138,560.227,314.138,564.227,324.138,568.227,320.138,564.227" fill="#181818" style="stroke:#181818;stroke-width:1;stroke-linejoin:miter;stroke-miterlimit:10;"/><text x="320.138" y="546.161" fill="#000" font-size="13" textLength="128.889">Extract CpmDataV1</text><polygon points="559.944,589.359,569.944,593.359,559.944,597.359,563.944,593.359" fill="#181818" style="stroke:#181818;stroke-width:1;stroke-linejoin:miter;stroke-miterlimit:10;"/><line x1="313.138" y1="593.359" x2="565.944" y2="593.359" style="stroke:#181818;stroke-width:1;"/><text x="320.138" y="588.293" fill="#000" font-size="13" textLength="234.806">publish_cpm_message(CpmDataV1)</text><line x1="571.944" y1="622.492" x2="613.944" y2="622.492" style="stroke:#181818;stroke-width:1;"/><line x1="613.944" y1="622.492" x2="613.944" y2="635.492" style="stroke:#181818;stroke-width:1;"/><line x1="572.944" y1="635.492" x2="613.944" y2="635.492" style="stroke:#181818;stroke-width:1;"/><polygon points="582.944,631.492,572.944,635.492,582.944,639.492,578.944,635.492" fill="#181818" style="stroke:#181818;stroke-width:1;stroke-linejoin:miter;stroke-miterlimit:10;"/><text x="578.944" y="617.426" fill="#000" font-size="13" textLength="199.558">Wrap in CloudEvents envelope</text><path d="M455.87,648.492 L455.87,688.492 L687.87,688.492 L687.87,658.492 L677.87,648.492 L455.87,648.492" style="stroke:#181818;stroke-width:0.5;" fill="#FEFFDD"/><path d="M677.87,648.492 L677.87,658.492 L687.87,658.492 L677.87,648.492" style="stroke:#181818;stroke-width:0.5;" fill="#FEFFDD"/><text x="461.87" y="665.559" fill="#000" font-size="13" textLength="211.148">AdapterCloudEventsCpmDataV1</text><text x="461.87" y="680.692" fill="#000" font-size="13" textLength="202.027">with UUID, timestamp, schema</text><polygon points="1063.253,710.891,1073.253,714.891,1063.253,718.891,1067.253,714.891" fill="#181818" style="stroke:#181818;stroke-width:1;stroke-linejoin:miter;stroke-miterlimit:10;"/><line x1="571.944" y1="714.891" x2="1069.253" y2="714.891" style="stroke:#181818;stroke-width:1;"/><text x="578.944" y="709.825" fill="#000" font-size="13" textLength="258.096">XADD adapter_stream {payload: JSON}</text><polygon points="582.944,740.023,572.944,744.023,582.944,748.023,578.944,744.023" fill="#181818" style="stroke:#181818;stroke-width:1;stroke-linejoin:miter;stroke-miterlimit:10;"/><line x1="576.944" y1="744.023" x2="1074.253" y2="744.023" style="stroke:#181818;stroke-width:1;stroke-dasharray:2,2;"/><text x="588.944" y="738.958" fill="#000" font-size="13" textLength="76.788">message_id</text><polygon points="1278.654,769.156,1288.654,773.156,1278.654,777.156,1282.654,773.156" fill="#181818" style="stroke:#181818;stroke-width:1;stroke-linejoin:miter;stroke-miterlimit:10;"/><line x1="1075.253" y1="773.156" x2="1284.654" y2="773.156" style="stroke:#181818;stroke-width:1;"/><text x="1082.253" y="768.09" fill="#000" font-size="13" textLength="191.401">Consumer reads from stream</text><line x1="297.138" y1="782.156" x2="1429.02" y2="782.156" style="stroke:#000;stroke-width:1;stroke-dasharray:2,2;"/><text x="302.138" y="794.367" fill="#000" font-size="11" textLength="104.94" font-weight="700">[DENM Message]</text><line x1="313.138" y1="821.094" x2="355.138" y2="821.094" style="stroke:#181818;stroke-width:1;"/><line x1="355.138" y1="821.094" x2="355.138" y2="834.094" style="stroke:#181818;stroke-width:1;"/><line x1="314.138" y1="834.094" x2="355.138" y2="834.094" style="stroke:#181818;stroke-width:1;"/><polygon points="324.138,830.094,314.138,834.094,324.138,838.094,320.138,834.094" fill="#181818" style="stroke:#181818;stroke-width:1;stroke-linejoin:miter;stroke-miterlimit:10;"/><text x="320.138" y="816.028" fill="#000" font-size="13" textLength="137.808">Extract DenmDataV1</text><polygon points="773.502,859.227,783.502,863.227,773.502,867.227,777.502,863.227" fill="#181818" style="stroke:#181818;stroke-width:1;stroke-linejoin:miter;stroke-miterlimit:10;"/><line x1="313.138" y1="863.227" x2="779.502" y2="863.227" style="stroke:#181818;stroke-width:1;"/><text x="320.138" y="858.161" fill="#000" font-size="13" textLength="252.814">publish_denm_message(DenmDataV1)</text><line x1="785.502" y1="892.359" x2="827.502" y2="892.359" style="stroke:#181818;stroke-width:1;"/><line x1="827.502" y1="892.359" x2="827.502" y2="905.359" style="stroke:#181818;stroke-width:1;"/><line x1="786.502" y1="905.359" x2="827.502" y2="905.359" style="stroke:#181818;stroke-width:1;"/><polygon points="796.502,901.359,786.502,905.359,796.502,909.359,792.502,905.359" fill="#181818" style="stroke:#181818;stroke-width:1;stroke-linejoin:miter;stroke-miterlimit:10;"/><text x="792.502" y="887.293" fill="#000" font-size="13" textLength="199.558">Wrap in CloudEvents envelope</text><path d="M661.811,918.359 L661.811,958.359 L908.811,958.359 L908.811,928.359 L898.811,918.359 L661.811,918.359" style="stroke:#181818;stroke-width:0.5;" fill="#FEFFDD"/><path d="M898.811,918.359 L898.811,928.359 L908.811,928.359 L898.811,918.359" style="stroke:#181818;stroke-width:0.5;" fill="#FEFFDD"/><text x="667.811" y="935.426" fill="#000" font-size="13" textLength="226.383">ProducerCloudEventsDenmDataV1</text><text x="667.811" y="950.559" fill="#000" font-size="13" textLength="202.027">with UUID, timestamp, schema</text><polygon points="1063.253,980.758,1073.253,984.758,1063.253,988.758,1067.253,984.758" fill="#181818" style="stroke:#181818;stroke-width:1;stroke-linejoin:miter;stroke-miterlimit:10;"/><line x1="785.502" y1="984.758" x2="1069.253" y2="984.758" style="stroke:#181818;stroke-width:1;"/><text x="792.502" y="979.692" fill="#000" font-size="13" textLength="265.751">XADD producer_stream {payload: JSON}</text><polygon points="796.502,1009.891,786.502,1013.891,796.502,1017.891,792.502,1013.891" fill="#181818" style="stroke:#181818;stroke-width:1;stroke-linejoin:miter;stroke-miterlimit:10;"/><line x1="790.502" y1="1013.891" x2="1074.253" y2="1013.891" style="stroke:#181818;stroke-width:1;stroke-dasharray:2,2;"/><text x="802.502" y="1008.825" fill="#000" font-size="13" textLength="76.788">message_id</text><polygon points="1401.02,1039.023,1411.02,1043.023,1401.02,1047.023,1405.02,1043.023" fill="#181818" style="stroke:#181818;stroke-width:1;stroke-linejoin:miter;stroke-miterlimit:10;"/><line x1="1075.253" y1="1043.023" x2="1407.02" y2="1043.023" style="stroke:#181818;stroke-width:1;"/><text x="1082.253" y="1037.958" fill="#000" font-size="13" textLength="191.401">Consumer reads from stream</text><?plantuml-src tPJBRjim44Nt_8f1LWbW1yWsYm9wkAdRsdKYk-rE68kJcAWa4YJjr2ZwxwLUjYGhgBqgKAsacNFdmKj8eROY4Gfp2rVHShA0sUDo2RwMFqXV0PhocwaEPacrW0Uqz8hxKyRZg2pf9-B2H5OJPYLVXwl8gMgX9Tycfx8cFgGhMGZHuXeDbNWP2lrU_MB1kdzxbW6gQTVfpLYzB8pVLGTr3z7AZuAdgJ-1QokLICm87cLqmyhqs76Df4Izu1EhK-tCOkL_daOVwX8Zc2wZUBstr1HhzpsgGaeafm86BvhVte6Ly1uJaGgxdv4n-48ibvP0xaWVV0A0bI4mxgpZLAnl-mgNVvOQU55Sv2-CSWv55SOmjH1uCsYHWtDDVbgDYMCnAppvUjSZEpV0yMgxJeNPn0bcSLRLlZveRmfnLp5Gufj61IA789LRFjbHRWrGlgDKgdBEup5qhn-KJnrhYJkZk-TLs0siLjDm15Qu6IrcQWGcsL261N8ufA5XwxlenlpkXI5WbOzD1VnIk4ybydlu67sP_ougD8BnmARr0SM2imvw81qJoDniC_VgDDp0ivOPLDqOfSxxO761YUf24rNBHFLlJLJ_iudXP7w-Yo7bmpPsVwij7xbJ78myoaidUwAXCkTxsVknLrOrmPQykyA5TfvEtFDJrS2PXfxi-xQZ3VeNItFE_W00?></g></svg>