<?xml version="1.0" encoding="us-ascii" standalone="no"?><svg xmlns="http://www.w3.org/2000/svg" xmlns:xlink="http://www.w3.org/1999/xlink" contentStyleType="text/css" height="592px" preserveAspectRatio="none" style="width:742px;height:592px;background:#FFFFFF;" version="1.1" viewBox="0 0 742 592" width="742px" zoomAndPan="magnify"><defs/><g><!--cluster STEP Client--><g id="cluster_STEP Client"><path d="M177.5,96 L258.5,96 A3.75,3.75 0 0 1 261,98.5 L268,119.6094 L555.5,119.6094 A2.5,2.5 0 0 1 558,122.1094 L558,582.5 A2.5,2.5 0 0 1 555.5,585 L177.5,585 A2.5,2.5 0 0 1 175,582.5 L175,98.5 A2.5,2.5 0 0 1 177.5,96 " fill="none" style="stroke:#000000;stroke-width:1.5;"/><line style="stroke:#000000;stroke-width:1.5;" x1="175" x2="268" y1="119.6094" y2="119.6094"/><text fill="#000000" font-family="sans-serif" font-size="14" font-weight="bold" lengthAdjust="spacing" textLength="80" x="179" y="112.5332">STEP Client</text></g><!--entity GW--><g id="elem_GW"><rect fill="#F1F1F1" height="47.6094" rx="2.5" ry="2.5" style="stroke:#181818;stroke-width:0.5;" width="111" x="397.5" y="263.5"/><rect fill="#F1F1F1" height="10" style="stroke:#181818;stroke-width:0.5;" width="15" x="488.5" y="268.5"/><rect fill="#F1F1F1" height="2" style="stroke:#181818;stroke-width:0.5;" width="4" x="486.5" y="270.5"/><rect fill="#F1F1F1" height="2" style="stroke:#181818;stroke-width:0.5;" width="4" x="486.5" y="274.5"/><text fill="#000000" font-family="sans-serif" font-size="14" lengthAdjust="spacing" textLength="71" x="412.5" y="298.0332">StepBroker</text></g><!--entity Config--><g id="elem_Config"><rect fill="#F1F1F1" height="47.6094" rx="2.5" ry="2.5" style="stroke:#181818;stroke-width:0.5;" width="146" x="231" y="132"/><rect fill="#F1F1F1" height="10" style="stroke:#181818;stroke-width:0.5;" width="15" x="357" y="137"/><rect fill="#F1F1F1" height="2" style="stroke:#181818;stroke-width:0.5;" width="4" x="355" y="139"/><rect fill="#F1F1F1" height="2" style="stroke:#181818;stroke-width:0.5;" width="4" x="355" y="143"/><text fill="#000000" font-family="sans-serif" font-size="14" lengthAdjust="spacing" textLength="106" x="246" y="166.5332">StepClientConfig</text></g><!--entity RedisPool--><g id="elem_RedisPool"><rect fill="#F1F1F1" height="47.6094" rx="2.5" ry="2.5" style="stroke:#181818;stroke-width:0.5;" width="169" x="199.5" y="521"/><rect fill="#F1F1F1" height="10" style="stroke:#181818;stroke-width:0.5;" width="15" x="348.5" y="526"/><rect fill="#F1F1F1" height="2" style="stroke:#181818;stroke-width:0.5;" width="4" x="346.5" y="528"/><rect fill="#F1F1F1" height="2" style="stroke:#181818;stroke-width:0.5;" width="4" x="346.5" y="532"/><text fill="#000000" font-family="sans-serif" font-size="14" lengthAdjust="spacing" textLength="129" x="214.5" y="555.5332">StepClientRedisPool</text></g><!--entity RedisStream--><g id="elem_RedisStream"><rect fill="#F1F1F1" height="47.6094" rx="2.5" ry="2.5" style="stroke:#181818;stroke-width:0.5;" width="186" x="191" y="395"/><rect fill="#F1F1F1" height="10" style="stroke:#181818;stroke-width:0.5;" width="15" x="357" y="400"/><rect fill="#F1F1F1" height="2" style="stroke:#181818;stroke-width:0.5;" width="4" x="355" y="402"/><rect fill="#F1F1F1" height="2" style="stroke:#181818;stroke-width:0.5;" width="4" x="355" y="406"/><text fill="#000000" font-family="sans-serif" font-size="14" lengthAdjust="spacing" textLength="146" x="206" y="429.5332">StepClientRedisStream</text></g><!--entity Logger--><g id="elem_Logger"><rect fill="#F1F1F1" height="47.6094" rx="2.5" ry="2.5" style="stroke:#181818;stroke-width:0.5;" width="114" x="412" y="132"/><rect fill="#F1F1F1" height="10" style="stroke:#181818;stroke-width:0.5;" width="15" x="506" y="137"/><rect fill="#F1F1F1" height="2" style="stroke:#181818;stroke-width:0.5;" width="4" x="504" y="139"/><rect fill="#F1F1F1" height="2" style="stroke:#181818;stroke-width:0.5;" width="4" x="504" y="143"/><text fill="#000000" font-family="sans-serif" font-size="14" lengthAdjust="spacing" textLength="74" x="427" y="166.5332">StepLogger</text></g><!--entity Exception--><g id="elem_Exception"><rect fill="#F1F1F1" height="47.6094" rx="2.5" ry="2.5" style="stroke:#181818;stroke-width:0.5;" width="130" x="412" y="395"/><rect fill="#F1F1F1" height="10" style="stroke:#181818;stroke-width:0.5;" width="15" x="522" y="400"/><rect fill="#F1F1F1" height="2" style="stroke:#181818;stroke-width:0.5;" width="4" x="520" y="402"/><rect fill="#F1F1F1" height="2" style="stroke:#181818;stroke-width:0.5;" width="4" x="520" y="406"/><text fill="#000000" font-family="sans-serif" font-size="14" lengthAdjust="spacing" textLength="90" x="427" y="429.5332">StepException</text></g><g id="elem_GMN9"><path d="M218,258 L218,317.0547 A0,0 0 0 0 218,317.0547 L362,317.0547 A0,0 0 0 0 362,317.0547 L362,291.5 L397.36,287.5 L362,283.5 L362,268 L352,258 L218,258 A0,0 0 0 0 218,258 " fill="#FEFFDD" style="stroke:#181818;stroke-width:0.5;"/><path d="M352,258 L352,268 L362,268 L352,258 " fill="#FEFFDD" style="stroke:#181818;stroke-width:0.5;"/><text fill="#000000" font-family="sans-serif" font-size="13" lengthAdjust="spacing" textLength="108" x="224" y="276.4951">Gateway for MQTT</text><text fill="#000000" font-family="sans-serif" font-size="13" lengthAdjust="spacing" textLength="88" x="224" y="292.8467">communication</text><text fill="#000000" font-family="sans-serif" font-size="13" lengthAdjust="spacing" textLength="123" x="224" y="309.1982">with the STEP broker</text></g><!--entity MQTT--><g id="elem_MQTT"><path d="M622.6341,272.1352 C626.291,266.2247 630.205,267.1608 633.9138,272.0811 C637.7099,265.3675 642.0657,264.5505 647.5212,270.2642 C649.6788,262.9049 655.5533,261.8543 660.12,268.02 C663.4654,262.3582 669.6093,261.4717 672.9782,267.9953 C676.3643,262.972 680.1988,262.5867 683.7409,267.8317 C688.2446,261.9249 695.3146,262.7133 697.9335,269.878 C702.5332,264.9592 707.2124,265.5129 709.4756,272.2013 C713.1589,266.7845 717.0344,266.4219 721.0902,271.8005 C732.5737,273.2544 735.4507,279.3072 730.1158,289.3907 C735.6531,298.2514 732.1913,302.9345 722.8403,304.7369 C718.9143,311.6062 714.1422,312.3449 709.0477,305.952 C706.7639,313.1925 700.7568,312.7194 696.7079,307.7334 C693.8879,314.7727 688.1633,315.6312 683.6944,309.3437 C680.534,315.6539 676.8652,317.4679 671.1421,312.0978 C665.7218,318.0112 661.6006,315.4633 658.7661,309.421 C655.5656,314.1547 649.672,315.2532 646.9626,308.8982 C642.5076,313.1514 636.8784,311.6719 634.8736,305.9338 C629.3102,310.839 624.5216,310.3253 621.3384,303.2457 C612.5836,299.8158 612.4743,292.3829 620.121,287.671 C614.3489,282.1649 614.1725,275.3387 622.6341,272.1352 " fill="#F1F1F1" style="stroke:#181818;stroke-width:0.5;"/><text fill="#000000" font-family="sans-serif" font-size="14" lengthAdjust="spacing" textLength="86" x="628" y="293.0332">MQTT Broker</text></g><!--entity Redis--><g id="elem_Redis"><path d="M30,405.5 C30,395.5 58,395.5 58,395.5 C58,395.5 86,395.5 86,405.5 L86,432.1094 C86,442.1094 58,442.1094 58,442.1094 C58,442.1094 30,442.1094 30,432.1094 L30,405.5 " fill="#F1F1F1" style="stroke:#181818;stroke-width:0.5;"/><path d="M30,405.5 C30,415.5 58,415.5 58,415.5 C58,415.5 86,415.5 86,405.5 " fill="none" style="stroke:#181818;stroke-width:0.5;"/><text fill="#000000" font-family="sans-serif" font-size="14" lengthAdjust="spacing" textLength="36" x="40" y="434.0332">Redis</text></g><g id="elem_GMN24"><path d="M619,397.5 L619,440.2031 A0,0 0 0 0 619,440.2031 L723,440.2031 A0,0 0 0 0 723,440.2031 L723,407.5 L713,397.5 L675,397.5 L671,311.65 L667,397.5 L619,397.5 A0,0 0 0 0 619,397.5 " fill="#FEFFDD" style="stroke:#181818;stroke-width:0.5;"/><path d="M713,397.5 L713,407.5 L723,407.5 L713,397.5 " fill="#FEFFDD" style="stroke:#181818;stroke-width:0.5;"/><text fill="#000000" font-family="sans-serif" font-size="13" lengthAdjust="spacing" textLength="83" x="625" y="415.9951">Subscribe and</text><text fill="#000000" font-family="sans-serif" font-size="13" lengthAdjust="spacing" textLength="43" x="625" y="432.3467">Publish</text></g><g id="elem_GMN27"><path d="M6,523.5 L6,566.2031 A0,0 0 0 0 6,566.2031 L110,566.2031 A0,0 0 0 0 110,566.2031 L110,533.5 L100,523.5 L62,523.5 L58,442.74 L54,523.5 L6,523.5 A0,0 0 0 0 6,523.5 " fill="#FEFFDD" style="stroke:#181818;stroke-width:0.5;"/><path d="M100,523.5 L100,533.5 L110,533.5 L100,523.5 " fill="#FEFFDD" style="stroke:#181818;stroke-width:0.5;"/><text fill="#000000" font-family="sans-serif" font-size="13" lengthAdjust="spacing" textLength="53" x="12" y="541.9951">Input and</text><text fill="#000000" font-family="sans-serif" font-size="13" lengthAdjust="spacing" textLength="83" x="12" y="558.3467">Output stream</text></g><g id="elem_GMN30"><path d="M216.5,6 L216.5,48.7031 A0,0 0 0 0 216.5,48.7031 L300,48.7031 L304,131.83 L308,48.7031 L391.5,48.7031 A0,0 0 0 0 391.5,48.7031 L391.5,16 L381.5,6 L216.5,6 A0,0 0 0 0 216.5,6 " fill="#FEFFDD" style="stroke:#181818;stroke-width:0.5;"/><path d="M381.5,6 L381.5,16 L391.5,16 L381.5,6 " fill="#FEFFDD" style="stroke:#181818;stroke-width:0.5;"/><text fill="#000000" font-family="sans-serif" font-size="13" lengthAdjust="spacing" textLength="154" x="222.5" y="24.4951">Configuration management</text><text fill="#000000" font-family="sans-serif" font-size="13" lengthAdjust="spacing" textLength="71" x="222.5" y="40.8467">for the client</text></g><g id="elem_GMN33"><path d="M17.5,266 L17.5,308.7031 A0,0 0 0 0 17.5,308.7031 L115.06,308.7031 L249.12,394.96 L123.06,308.7031 L158.5,308.7031 A0,0 0 0 0 158.5,308.7031 L158.5,276 L148.5,266 L17.5,266 A0,0 0 0 0 17.5,266 " fill="#FEFFDD" style="stroke:#181818;stroke-width:0.5;"/><path d="M148.5,266 L148.5,276 L158.5,276 L148.5,266 " fill="#FEFFDD" style="stroke:#181818;stroke-width:0.5;"/><text fill="#000000" font-family="sans-serif" font-size="13" lengthAdjust="spacing" textLength="115" x="23.5" y="284.4951">Redis integration for</text><text fill="#000000" font-family="sans-serif" font-size="13" lengthAdjust="spacing" textLength="120" x="23.5" y="300.8467">message processing</text></g><!--reverse link Config to GW--><g id="link_Config_GW"><path d="M334.53,183.54 C361.55,207.01 400.56,240.93 426.34,263.33 " fill="none" id="Config-backto-GW" style="stroke:#181818;stroke-width:1.0;"/><polygon fill="#181818" points="330.64,180.15,334.7984,189.0779,334.41,183.4344,340.0535,183.046,330.64,180.15" style="stroke:#181818;stroke-width:1.0;"/><text fill="#000000" font-family="sans-serif" font-size="13" lengthAdjust="spacing" textLength="28" x="383" y="224.4951">uses</text></g><!--link GW to RedisStream--><g id="link_GW_RedisStream"><path d="M422.79,311.65 C393.44,334.14 348.94,368.24 318.28,391.73 " fill="none" id="GW-to-RedisStream" style="stroke:#181818;stroke-width:1.0;"/><polygon fill="#181818" points="314.24,394.83,323.8169,392.5314,318.209,391.789,318.9513,386.1811,314.24,394.83" style="stroke:#181818;stroke-width:1.0;"/><text fill="#000000" font-family="sans-serif" font-size="13" lengthAdjust="spacing" textLength="28" x="374" y="361.4951">uses</text></g><!--link RedisStream to RedisPool--><g id="link_RedisStream_RedisPool"><path d="M284,443.03 C284,463.52 284,493.56 284,515.55 " fill="none" id="RedisStream-to-RedisPool" style="stroke:#181818;stroke-width:1.0;"/><polygon fill="#181818" points="284,520.67,288,511.67,284,515.67,280,511.67,284,520.67" style="stroke:#181818;stroke-width:1.0;"/><text fill="#000000" font-family="sans-serif" font-size="13" lengthAdjust="spacing" textLength="28" x="285" y="487.4951">uses</text></g><!--link GW to MQTT--><g id="link_GW_MQTT"><path d="M513.88,287.5 C543.15,287.5 578.22,287.5 607.79,287.5 " fill="none" id="GW-MQTT" style="stroke:#181818;stroke-width:1.0;"/><polygon fill="#181818" points="508.57,287.5,517.57,291.5,513.57,287.5,517.57,283.5,508.57,287.5" style="stroke:#181818;stroke-width:1.0;"/><polygon fill="#181818" points="612.86,287.5,603.86,283.5,607.86,287.5,603.86,291.5,612.86,287.5" style="stroke:#181818;stroke-width:1.0;"/><text fill="#000000" font-family="sans-serif" font-size="13" lengthAdjust="spacing" textLength="68" x="526.75" y="280.9951">connects to</text></g><!--link Redis to RedisStream--><g id="link_Redis_RedisStream"><path d="M91.26,419 C116.17,419 151.65,419 185.38,419 " fill="none" id="Redis-RedisStream" style="stroke:#181818;stroke-width:1.0;"/><polygon fill="#181818" points="86.17,419,95.17,423,91.17,419,95.17,415,86.17,419" style="stroke:#181818;stroke-width:1.0;"/><polygon fill="#181818" points="190.77,419,181.77,415,185.77,419,181.77,423,190.77,419" style="stroke:#181818;stroke-width:1.0;"/><text fill="#000000" font-family="sans-serif" font-size="13" lengthAdjust="spacing" textLength="68" x="104.5" y="412.4951">connects to</text></g><!--reverse link Logger to GW--><g id="link_Logger_GW"><path d="M465.51,185.27 C462.63,208.58 458.59,241.25 455.89,263.11 " fill="none" id="Logger-backto-GW" style="stroke:#181818;stroke-width:1.0;"/><polygon fill="#181818" points="466.14,180.15,461.0636,188.5898,465.5251,185.112,469.0028,189.5736,466.14,180.15" style="stroke:#181818;stroke-width:1.0;"/><text fill="#000000" font-family="sans-serif" font-size="13" lengthAdjust="spacing" textLength="28" x="463" y="224.4951">uses</text></g><!--link GW to Exception--><g id="link_GW_Exception"><path d="M457.29,311.65 C461.33,333.43 467.38,366.1 471.71,389.48 " fill="none" id="GW-to-Exception" style="stroke:#181818;stroke-width:1.0;"/><polygon fill="#181818" points="472.67,394.61,474.9882,385.0379,471.7718,389.6913,467.1183,386.475,472.67,394.61" style="stroke:#181818;stroke-width:1.0;"/><text fill="#000000" font-family="sans-serif" font-size="13" lengthAdjust="spacing" textLength="38" x="468" y="361.4951">throws</text></g><!--SRC=[TLDDQyCm3BtdLuZS-mTAsM6bbC76khNGmzZ1STJ4DB62BTEDiVy-VpHk6xgRfFVqa9xbGSYZQ13AxMwrWMMdK7C9FmK0V6mPXqT3HpIV82oizxcQU4lI1zL4B8KJ_1rhPJT4NQJax1vhomP5V-6bF3EVgMdEKwGm8wilYGChqX7CMS0rCKA71mOwd8S7M0l6a_Y60nbuUTljKbLItpkjf1Xx0KwAM-0M8HfJHHi2WhgEoiLlKSYEN0rbq85aL1ccYBgrO549wvsD2vLvjQ9Oxs7cXjd3sJMOWxDeOxcca_R0bGSZUbsweGLBhoGMCwEQbZqQnvhxtRH6oHQORaGMi-3Dg38XvX6JtNT6p5PxZ5j39xzOTBmYPkg3vwE_MrTPQLI587GT2XjNTSgsHVPosfcCyimdFJWUsruTXyocsvWqCmsXytA8AN8clYdqGlipx_sz1IoyVdXR6I_m7wd98IQRb6PipffU9G0zMXk-q618-b3f9Wl-0G00]--></g></svg>