<?plantuml 1.2026.1?><svg xmlns="http://www.w3.org/2000/svg" xmlns:xlink="http://www.w3.org/1999/xlink" contentStyleType="text/css" data-diagram-type="SEQUENCE" height="851px" preserveAspectRatio="none" style="width:1366px;height:851px;background:#FFFFFF;" version="1.1" viewBox="0 0 1366 851" width="1366px" zoomAndPan="magnify"><defs/><g><rect fill="none" height="555.8125" style="stroke:#000000;stroke-width:1.5;" width="1118.7207" x="240.9463" y="241.7188"/><g class="participant-lifeline" data-entity-uid="part1" data-qualified-name="MQTT" id="part1-lifeline"><g><title>STEP MQTT Broker</title><rect fill="#000000" fill-opacity="0.00000" height="776.9219" width="8" x="70.6172" y="37.6094"/><line style="stroke:#181818;stroke-width:0.5;stroke-dasharray:5,5;" x1="74" x2="74" y1="37.6094" y2="814.5313"/></g></g><g class="participant-lifeline" data-entity-uid="part2" data-qualified-name="Gateway" id="part2-lifeline"><g><title>StepBroker</title><rect fill="#000000" fill-opacity="0.00000" height="776.9219" width="8" x="288.9634" y="37.6094"/><line style="stroke:#181818;stroke-width:0.5;stroke-dasharray:5,5;" x1="292.9463" x2="292.9463" y1="37.6094" y2="814.5313"/></g></g><g class="participant-lifeline" data-entity-uid="part3" data-qualified-name="AdapterStream" id="part3-lifeline"><g><title>StepAdapterRedisStream</title><rect fill="#000000" fill-opacity="0.00000" height="776.9219" width="8" x="525.394" y="37.6094"/><line style="stroke:#181818;stroke-width:0.5;stroke-dasharray:5,5;" x1="529.0186" x2="529.0186" y1="37.6094" y2="814.5313"/></g></g><g class="participant-lifeline" data-entity-uid="part4" data-qualified-name="ProducerStream" id="part4-lifeline"><g><title>StepProducerRedisStream</title><rect fill="#000000" fill-opacity="0.00000" height="776.9219" width="8" x="717.8838" y="37.6094"/><line style="stroke:#181818;stroke-width:0.5;stroke-dasharray:5,5;" x1="721.6221" x2="721.6221" y1="37.6094" y2="814.5313"/></g></g><g class="participant-lifeline" data-entity-uid="part5" data-qualified-name="RedisDB" id="part5-lifeline"><g><title>Redis Database</title><rect fill="#000000" fill-opacity="0.00000" height="776.9219" width="8" x="979.6099" y="37.6094"/><line style="stroke:#181818;stroke-width:0.5;stroke-dasharray:5,5;" x1="982.8032" x2="982.8032" y1="37.6094" y2="814.5313"/></g></g><g class="participant-lifeline" data-entity-uid="part6" data-qualified-name="Adapter" id="part6-lifeline"><g><title>STEP Adapter</title><rect fill="#000000" fill-opacity="0.00000" height="776.9219" width="8" x="1172.6606" y="37.6094"/><line style="stroke:#181818;stroke-width:0.5;stroke-dasharray:5,5;" x1="1175.916" x2="1175.916" y1="37.6094" y2="814.5313"/></g></g><g class="participant-lifeline" data-entity-uid="part7" data-qualified-name="Producer" id="part7-lifeline"><g><title>STEP Producer</title><rect fill="#000000" fill-opacity="0.00000" height="776.9219" width="8" x="1290.0361" y="37.6094"/><line style="stroke:#181818;stroke-width:0.5;stroke-dasharray:5,5;" x1="1293.4053" x2="1293.4053" y1="37.6094" y2="814.5313"/></g></g><g class="participant participant-head" data-entity-uid="part1" data-qualified-name="MQTT" id="part1-head"><rect fill="#E2E2F0" height="31.6094" rx="2.5" ry="2.5" style="stroke:#181818;stroke-width:0.5;" width="139.2344" x="5" y="5"/><text fill="#000000" font-family="sans-serif" font-size="14" lengthAdjust="spacing" textLength="125.2344" x="12" y="26.5332">STEP MQTT Broker</text></g><g class="participant participant-tail" data-entity-uid="part1" data-qualified-name="MQTT" id="part1-tail"><rect fill="#E2E2F0" height="31.6094" rx="2.5" ry="2.5" style="stroke:#181818;stroke-width:0.5;" width="139.2344" x="5" y="813.5313"/><text fill="#000000" font-family="sans-serif" font-size="14" lengthAdjust="spacing" textLength="125.2344" x="12" y="835.0645">STEP MQTT Broker</text></g><g class="participant participant-head" data-entity-uid="part2" data-qualified-name="Gateway" id="part2-head"><rect fill="#E2E2F0" height="31.6094" rx="2.5" ry="2.5" style="stroke:#181818;stroke-width:0.5;" width="84.0342" x="250.9463" y="5"/><text fill="#000000" font-family="sans-serif" font-size="14" lengthAdjust="spacing" textLength="70.0342" x="257.9463" y="26.5332">StepBroker</text></g><g class="participant participant-tail" data-entity-uid="part2" data-qualified-name="Gateway" id="part2-tail"><rect fill="#E2E2F0" height="31.6094" rx="2.5" ry="2.5" style="stroke:#181818;stroke-width:0.5;" width="84.0342" x="250.9463" y="813.5313"/><text fill="#000000" font-family="sans-serif" font-size="14" lengthAdjust="spacing" textLength="70.0342" x="257.9463" y="835.0645">StepBroker</text></g><g class="participant participant-head" data-entity-uid="part3" data-qualified-name="AdapterStream" id="part3-head"><rect fill="#E2E2F0" height="31.6094" rx="2.5" ry="2.5" style="stroke:#181818;stroke-width:0.5;" width="172.751" x="443.0186" y="5"/><text fill="#000000" font-family="sans-serif" font-size="14" lengthAdjust="spacing" textLength="158.751" x="450.0186" y="26.5332">StepAdapterRedisStream</text></g><g class="participant participant-tail" data-entity-uid="part3" data-qualified-name="AdapterStream" id="part3-tail"><rect fill="#E2E2F0" height="31.6094" rx="2.5" ry="2.5" style="stroke:#181818;stroke-width:0.5;" width="172.751" x="443.0186" y="813.5313"/><text fill="#000000" font-family="sans-serif" font-size="14" lengthAdjust="spacing" textLength="158.751" x="450.0186" y="835.0645">StepAdapterRedisStream</text></g><g class="participant participant-head" data-entity-uid="part4" data-qualified-name="ProducerStream" id="part4-head"><rect fill="#E2E2F0" height="31.6094" rx="2.5" ry="2.5" style="stroke:#181818;stroke-width:0.5;" width="180.5234" x="631.6221" y="5"/><text fill="#000000" font-family="sans-serif" font-size="14" lengthAdjust="spacing" textLength="166.5234" x="638.6221" y="26.5332">StepProducerRedisStream</text></g><g class="participant participant-tail" data-entity-uid="part4" data-qualified-name="ProducerStream" id="part4-tail"><rect fill="#E2E2F0" height="31.6094" rx="2.5" ry="2.5" style="stroke:#181818;stroke-width:0.5;" width="180.5234" x="631.6221" y="813.5313"/><text fill="#000000" font-family="sans-serif" font-size="14" lengthAdjust="spacing" textLength="166.5234" x="638.6221" y="835.0645">StepProducerRedisStream</text></g><g class="participant participant-head" data-entity-uid="part5" data-qualified-name="RedisDB" id="part5-head"><rect fill="#E2E2F0" height="31.6094" rx="2.5" ry="2.5" style="stroke:#181818;stroke-width:0.5;" width="113.6133" x="926.8032" y="5"/><text fill="#000000" font-family="sans-serif" font-size="14" lengthAdjust="spacing" textLength="99.6133" x="933.8032" y="26.5332">Redis Database</text></g><g class="participant participant-tail" data-entity-uid="part5" data-qualified-name="RedisDB" id="part5-tail"><rect fill="#E2E2F0" height="31.6094" rx="2.5" ry="2.5" style="stroke:#181818;stroke-width:0.5;" width="113.6133" x="926.8032" y="813.5313"/><text fill="#000000" font-family="sans-serif" font-size="14" lengthAdjust="spacing" textLength="99.6133" x="933.8032" y="835.0645">Redis Database</text></g><g class="participant participant-head" data-entity-uid="part6" data-qualified-name="Adapter" id="part6-head"><rect fill="#E2E2F0" height="31.6094" rx="2.5" ry="2.5" style="stroke:#181818;stroke-width:0.5;" width="103.4893" x="1124.916" y="5"/><text fill="#000000" font-family="sans-serif" font-size="14" lengthAdjust="spacing" textLength="89.4893" x="1131.916" y="26.5332">STEP Adapter</text></g><g class="participant participant-tail" data-entity-uid="part6" data-qualified-name="Adapter" id="part6-tail"><rect fill="#E2E2F0" height="31.6094" rx="2.5" ry="2.5" style="stroke:#181818;stroke-width:0.5;" width="103.4893" x="1124.916" y="813.5313"/><text fill="#000000" font-family="sans-serif" font-size="14" lengthAdjust="spacing" textLength="89.4893" x="1131.916" y="835.0645">STEP Adapter</text></g><g class="participant participant-head" data-entity-uid="part7" data-qualified-name="Producer" id="part7-head"><rect fill="#E2E2F0" height="31.6094" rx="2.5" ry="2.5" style="stroke:#181818;stroke-width:0.5;" width="111.2617" x="1238.4053" y="5"/><text fill="#000000" font-family="sans-serif" font-size="14" lengthAdjust="spacing" textLength="97.2617" x="1245.4053" y="26.5332">STEP Producer</text></g><g class="participant participant-tail" data-entity-uid="part7" data-qualified-name="Producer" id="part7-tail"><rect fill="#E2E2F0" height="31.6094" rx="2.5" ry="2.5" style="stroke:#181818;stroke-width:0.5;" width="111.2617" x="1238.4053" y="813.5313"/><text fill="#000000" font-family="sans-serif" font-size="14" lengthAdjust="spacing" textLength="97.2617" x="1245.4053" y="835.0645">STEP Producer</text></g><g class="message" data-entity-1="part2" data-entity-2="part1" id="msg1"><polygon fill="#181818" points="85.6172,65.9609,75.6172,69.9609,85.6172,73.9609,81.6172,69.9609" style="stroke:#181818;stroke-width:1;"/><line style="stroke:#181818;stroke-width:1;" x1="79.6172" x2="291.9634" y1="69.9609" y2="69.9609"/><text fill="#000000" font-family="sans-serif" font-size="13" lengthAdjust="spacing" textLength="154.5972" x="91.6172" y="65.1045">SUBSCRIBE (topics, QoS)</text></g><g class="message" data-entity-1="part1" data-entity-2="part2" id="msg2"><polygon fill="#181818" points="280.9634,96.3125,290.9634,100.3125,280.9634,104.3125,284.9634,100.3125" style="stroke:#181818;stroke-width:1;"/><line style="stroke:#181818;stroke-width:1;stroke-dasharray:2,2;" x1="74.6172" x2="286.9634" y1="100.3125" y2="100.3125"/><text fill="#000000" font-family="sans-serif" font-size="13" lengthAdjust="spacing" textLength="53.46" x="81.6172" y="95.4561">SUBACK</text></g><g class="message" data-entity-1="part1" data-entity-2="part2" id="msg3"><polygon fill="#181818" points="280.9634,126.6641,290.9634,130.6641,280.9634,134.6641,284.9634,130.6641" style="stroke:#181818;stroke-width:1;"/><line style="stroke:#181818;stroke-width:1;" x1="74.6172" x2="286.9634" y1="130.6641" y2="130.6641"/><text fill="#000000" font-family="sans-serif" font-size="13" lengthAdjust="spacing" textLength="194.3462" x="81.6172" y="125.8076">PUBLISH (topic, ITS_bytes, QoS)</text></g><g class="message" data-entity-1="part2" data-entity-2="part2" id="msg4"><line style="stroke:#181818;stroke-width:1;" x1="292.9634" x2="334.9634" y1="161.0156" y2="161.0156"/><line style="stroke:#181818;stroke-width:1;" x1="334.9634" x2="334.9634" y1="161.0156" y2="174.0156"/><line style="stroke:#181818;stroke-width:1;" x1="293.9634" x2="334.9634" y1="174.0156" y2="174.0156"/><polygon fill="#181818" points="303.9634,170.0156,293.9634,174.0156,303.9634,178.0156,299.9634,174.0156" style="stroke:#181818;stroke-width:1;"/><text fill="#000000" font-family="sans-serif" font-size="13" lengthAdjust="spacing" textLength="221.0889" x="299.9634" y="156.1592">Decode ITS ASN.1 to FacilityMessage</text></g><path d="M198,187.0156 L198,229.0156 L387,229.0156 L387,197.0156 L377,187.0156 L198,187.0156" fill="#FEFFDD" style="stroke:#181818;stroke-width:0.5;"/><path d="M377,187.0156 L377,197.0156 L387,197.0156 L377,187.0156" fill="#FEFFDD" style="stroke:#181818;stroke-width:0.5;"/><text fill="#000000" font-family="sans-serif" font-size="13" lengthAdjust="spacing" textLength="168.3462" x="204" y="205.5107">Use step_lib.FacilityMessage</text><text fill="#000000" font-family="sans-serif" font-size="13" lengthAdjust="spacing" textLength="71.5508" x="204" y="221.8623">for decoding</text><path d="M240.9463,241.7188 L301.1172,241.7188 L301.1172,250.0703 L291.1172,260.0703 L240.9463,260.0703 L240.9463,241.7188" fill="#EEEEEE" style="stroke:#000000;stroke-width:1.5;"/><rect fill="none" height="555.8125" style="stroke:#000000;stroke-width:1.5;" width="1118.7207" x="240.9463" y="241.7188"/><text fill="#000000" font-family="sans-serif" font-size="13" font-weight="bold" lengthAdjust="spacing" textLength="15.1709" x="255.9463" y="256.2139">alt</text><text fill="#000000" font-family="sans-serif" font-size="11" font-weight="bold" lengthAdjust="spacing" textLength="81.9038" x="316.1172" y="255.1377">[CAM Message]</text><g class="message" data-entity-1="part2" data-entity-2="part2" id="msg5"><line style="stroke:#181818;stroke-width:1;" x1="292.9634" x2="334.9634" y1="282.4219" y2="282.4219"/><line style="stroke:#181818;stroke-width:1;" x1="334.9634" x2="334.9634" y1="282.4219" y2="295.4219"/><line style="stroke:#181818;stroke-width:1;" x1="293.9634" x2="334.9634" y1="295.4219" y2="295.4219"/><polygon fill="#181818" points="303.9634,291.4219,293.9634,295.4219,303.9634,299.4219,299.9634,295.4219" style="stroke:#181818;stroke-width:1;"/><text fill="#000000" font-family="sans-serif" font-size="13" lengthAdjust="spacing" textLength="114.8735" x="299.9634" y="277.5654">Extract CamDataV1</text></g><g class="message" data-entity-1="part2" data-entity-2="part3" id="msg6"><polygon fill="#181818" points="517.394,321.7734,527.394,325.7734,517.394,329.7734,521.394,325.7734" style="stroke:#181818;stroke-width:1;"/><line style="stroke:#181818;stroke-width:1;" x1="292.9634" x2="523.394" y1="325.7734" y2="325.7734"/><text fill="#000000" font-family="sans-serif" font-size="13" lengthAdjust="spacing" textLength="212.4307" x="299.9634" y="320.917">publish_cam_message(CamDataV1)</text></g><g class="message" data-entity-1="part3" data-entity-2="part3" id="msg7"><line style="stroke:#181818;stroke-width:1;" x1="529.394" x2="571.394" y1="356.125" y2="356.125"/><line style="stroke:#181818;stroke-width:1;" x1="571.394" x2="571.394" y1="356.125" y2="369.125"/><line style="stroke:#181818;stroke-width:1;" x1="530.394" x2="571.394" y1="369.125" y2="369.125"/><polygon fill="#181818" points="540.394,365.125,530.394,369.125,540.394,373.125,536.394,369.125" style="stroke:#181818;stroke-width:1;"/><text fill="#000000" font-family="sans-serif" font-size="13" lengthAdjust="spacing" textLength="178.4897" x="536.394" y="351.2686">Wrap in CloudEvents envelope</text></g><path d="M423,382.125 L423,424.125 L634,424.125 L634,392.125 L624,382.125 L423,382.125" fill="#FEFFDD" style="stroke:#181818;stroke-width:0.5;"/><path d="M624,382.125 L624,392.125 L634,392.125 L624,382.125" fill="#FEFFDD" style="stroke:#181818;stroke-width:0.5;"/><text fill="#000000" font-family="sans-serif" font-size="13" lengthAdjust="spacing" textLength="190.0488" x="429" y="400.6201">AdapterCloudEventsCamDataV1</text><text fill="#000000" font-family="sans-serif" font-size="13" lengthAdjust="spacing" textLength="178.4326" x="429" y="416.9717">with UUID, timestamp, schema</text><g class="message" data-entity-1="part3" data-entity-2="part5" id="msg8"><polygon fill="#181818" points="971.6099,448.1797,981.6099,452.1797,971.6099,456.1797,975.6099,452.1797" style="stroke:#181818;stroke-width:1;"/><line style="stroke:#181818;stroke-width:1;" x1="529.394" x2="977.6099" y1="452.1797" y2="452.1797"/><text fill="#000000" font-family="sans-serif" font-size="13" lengthAdjust="spacing" textLength="230.5088" x="536.394" y="447.3232">XADD adapter_stream {payload: JSON}</text></g><g class="message" data-entity-1="part5" data-entity-2="part3" id="msg9"><polygon fill="#181818" points="540.394,478.5313,530.394,482.5313,540.394,486.5313,536.394,482.5313" style="stroke:#181818;stroke-width:1;"/><line style="stroke:#181818;stroke-width:1;stroke-dasharray:2,2;" x1="534.394" x2="982.6099" y1="482.5313" y2="482.5313"/><text fill="#000000" font-family="sans-serif" font-size="13" lengthAdjust="spacing" textLength="70.0972" x="546.394" y="477.6748">message_id</text></g><g class="message" data-entity-1="part5" data-entity-2="part6" id="msg10"><polygon fill="#181818" points="1164.6606,508.8828,1174.6606,512.8828,1164.6606,516.8828,1168.6606,512.8828" style="stroke:#181818;stroke-width:1;"/><line style="stroke:#181818;stroke-width:1;" x1="983.6099" x2="1170.6606" y1="512.8828" y2="512.8828"/><text fill="#000000" font-family="sans-serif" font-size="13" lengthAdjust="spacing" textLength="169.0508" x="990.6099" y="508.0264">Consumer reads from stream</text></g><line style="stroke:#000000;stroke-width:1;stroke-dasharray:2,2;" x1="240.9463" x2="1359.667" y1="521.8828" y2="521.8828"/><text fill="#000000" font-family="sans-serif" font-size="11" font-weight="bold" lengthAdjust="spacing" textLength="89.2407" x="245.9463" y="533.3018">[DENM Message]</text><g class="message" data-entity-1="part2" data-entity-2="part2" id="msg11"><line style="stroke:#181818;stroke-width:1;" x1="292.9634" x2="334.9634" y1="559.0703" y2="559.0703"/><line style="stroke:#181818;stroke-width:1;" x1="334.9634" x2="334.9634" y1="559.0703" y2="572.0703"/><line style="stroke:#181818;stroke-width:1;" x1="293.9634" x2="334.9634" y1="572.0703" y2="572.0703"/><polygon fill="#181818" points="303.9634,568.0703,293.9634,572.0703,303.9634,576.0703,299.9634,572.0703" style="stroke:#181818;stroke-width:1;"/><text fill="#000000" font-family="sans-serif" font-size="13" lengthAdjust="spacing" textLength="122.1035" x="299.9634" y="554.2139">Extract DenmDataV1</text></g><g class="message" data-entity-1="part2" data-entity-2="part4" id="msg12"><polygon fill="#181818" points="709.8838,598.4219,719.8838,602.4219,709.8838,606.4219,713.8838,602.4219" style="stroke:#181818;stroke-width:1;"/><line style="stroke:#181818;stroke-width:1;" x1="292.9634" x2="715.8838" y1="602.4219" y2="602.4219"/><text fill="#000000" font-family="sans-serif" font-size="13" lengthAdjust="spacing" textLength="227.6206" x="299.9634" y="597.5654">publish_denm_message(DenmDataV1)</text></g><g class="message" data-entity-1="part4" data-entity-2="part4" id="msg13"><line style="stroke:#181818;stroke-width:1;" x1="721.8838" x2="763.8838" y1="632.7734" y2="632.7734"/><line style="stroke:#181818;stroke-width:1;" x1="763.8838" x2="763.8838" y1="632.7734" y2="645.7734"/><line style="stroke:#181818;stroke-width:1;" x1="722.8838" x2="763.8838" y1="645.7734" y2="645.7734"/><polygon fill="#181818" points="732.8838,641.7734,722.8838,645.7734,732.8838,649.7734,728.8838,645.7734" style="stroke:#181818;stroke-width:1;"/><text fill="#000000" font-family="sans-serif" font-size="13" lengthAdjust="spacing" textLength="178.4897" x="728.8838" y="627.917">Wrap in CloudEvents envelope</text></g><path d="M609,658.7734 L609,700.7734 L834,700.7734 L834,668.7734 L824,658.7734 L609,658.7734" fill="#FEFFDD" style="stroke:#181818;stroke-width:0.5;"/><path d="M824,658.7734 L824,668.7734 L834,668.7734 L824,658.7734" fill="#FEFFDD" style="stroke:#181818;stroke-width:0.5;"/><text fill="#000000" font-family="sans-serif" font-size="13" lengthAdjust="spacing" textLength="204.4961" x="615" y="677.2686">ProducerCloudEventsDenmDataV1</text><text fill="#000000" font-family="sans-serif" font-size="13" lengthAdjust="spacing" textLength="178.4326" x="615" y="693.6201">with UUID, timestamp, schema</text><g class="message" data-entity-1="part4" data-entity-2="part5" id="msg14"><polygon fill="#181818" points="971.6099,724.8281,981.6099,728.8281,971.6099,732.8281,975.6099,728.8281" style="stroke:#181818;stroke-width:1;"/><line style="stroke:#181818;stroke-width:1;" x1="721.8838" x2="977.6099" y1="728.8281" y2="728.8281"/><text fill="#000000" font-family="sans-serif" font-size="13" lengthAdjust="spacing" textLength="237.7261" x="728.8838" y="723.9717">XADD producer_stream {payload: JSON}</text></g><g class="message" data-entity-1="part5" data-entity-2="part4" id="msg15"><polygon fill="#181818" points="732.8838,755.1797,722.8838,759.1797,732.8838,763.1797,728.8838,759.1797" style="stroke:#181818;stroke-width:1;"/><line style="stroke:#181818;stroke-width:1;stroke-dasharray:2,2;" x1="726.8838" x2="982.6099" y1="759.1797" y2="759.1797"/><text fill="#000000" font-family="sans-serif" font-size="13" lengthAdjust="spacing" textLength="70.0972" x="738.8838" y="754.3232">message_id</text></g><g class="message" data-entity-1="part5" data-entity-2="part7" id="msg16"><polygon fill="#181818" points="1282.0361,785.5313,1292.0361,789.5313,1282.0361,793.5313,1286.0361,789.5313" style="stroke:#181818;stroke-width:1;"/><line style="stroke:#181818;stroke-width:1;" x1="983.6099" x2="1288.0361" y1="789.5313" y2="789.5313"/><text fill="#000000" font-family="sans-serif" font-size="13" lengthAdjust="spacing" textLength="169.0508" x="990.6099" y="784.6748">Consumer reads from stream</text></g><?plantuml-src bPHDRzf048Rl-oj6EIKIHCerXqg0tPQsK1BZj3Thy4x2glRkQdSXHLN_UzTVO1j7eJxXcUUTZttNQ3HEf4AZT70LhSCLB1xMQvWQzOlC5Q0jtvdkO8vq2_Y4ZbxnSCvCE6f7vf6ui94pX7d9r-4gSgvQ6SLtwRciYG_fIXO2TBX1IoLUXe9fhtwnODs_FSi0rRJhz6QiNXR67wg3keSedaQpn_aqX6kdj4Zj21vKTCFAzDXpZQH49xElh4wrCwju-cqUVQvBZ62-ZfBDmL5JhDttf0eeLPmA62RHylOEd8AFc8fCkCE2hCKNOb8v0hKdS_G9069BOFrP9vdOtFOLFl-i3F2Yk90lZ2I7eWfZc3cOJHRG8WVd2dyxWwbdCIyyURhhaPqRu7czssJ2RfCKyoIlQbyVjJU5kAiOAF73e0OXOPQf7G_t99q5adlAb2xdF1r3z_f1-TInbhWpkdzUXTj27C-34JZXPtIOwn7OT4iv5iZna8Q6hU-Y7_Fd90W0gtnYA-2FnaEcaD_3b-ZxyczHeH6C1pQj3oWHd7NG8-cPcP9sb_kVNiCjF1kLGzMDKUQz3yBbvIu698Tjx7wHBH-vLnoDFCbB9tkYeJANUzdxJwYiQe8jUNU5_xJpVEAUdxe6BZJqRD-t7MtGTooLdFq3?></g></svg>