<?xml version="1.0" encoding="us-ascii" standalone="no"?><svg xmlns="http://www.w3.org/2000/svg" xmlns:xlink="http://www.w3.org/1999/xlink" contentStyleType="text/css" height="328px" preserveAspectRatio="none" style="width:644px;height:328px;background:#FFFFFF;" version="1.1" viewBox="0 0 644 328" width="644px" zoomAndPan="magnify"><defs/><g><line style="stroke:#181818;stroke-width:0.5;stroke-dasharray:5.0,5.0;" x1="61" x2="61" y1="37.6094" y2="291.4219"/><line style="stroke:#181818;stroke-width:0.5;stroke-dasharray:5.0,5.0;" x1="262" x2="262" y1="37.6094" y2="291.4219"/><line style="stroke:#181818;stroke-width:0.5;stroke-dasharray:5.0,5.0;" x1="383" x2="383" y1="37.6094" y2="291.4219"/><line style="stroke:#181818;stroke-width:0.5;stroke-dasharray:5.0,5.0;" x1="568.5" x2="568.5" y1="37.6094" y2="291.4219"/><rect fill="#E2E2F0" height="31.6094" rx="2.5" ry="2.5" style="stroke:#181818;stroke-width:0.5;" width="112" x="5" y="5"/><text fill="#000000" font-family="sans-serif" font-size="14" lengthAdjust="spacing" textLength="98" x="12" y="26.5332">STEP Producer</text><rect fill="#E2E2F0" height="31.6094" rx="2.5" ry="2.5" style="stroke:#181818;stroke-width:0.5;" width="112" x="5" y="290.4219"/><text fill="#000000" font-family="sans-serif" font-size="14" lengthAdjust="spacing" textLength="98" x="12" y="311.9551">STEP Producer</text><rect fill="#E2E2F0" height="31.6094" rx="2.5" ry="2.5" style="stroke:#181818;stroke-width:0.5;" width="160" x="182" y="5"/><text fill="#000000" font-family="sans-serif" font-size="14" lengthAdjust="spacing" textLength="146" x="189" y="26.5332">StepClientRedisStream</text><rect fill="#E2E2F0" height="31.6094" rx="2.5" ry="2.5" style="stroke:#181818;stroke-width:0.5;" width="160" x="182" y="290.4219"/><text fill="#000000" font-family="sans-serif" font-size="14" lengthAdjust="spacing" textLength="146" x="189" y="311.9551">StepClientRedisStream</text><rect fill="#E2E2F0" height="31.6094" rx="2.5" ry="2.5" style="stroke:#181818;stroke-width:0.5;" width="63" x="352" y="5"/><text fill="#000000" font-family="sans-serif" font-size="14" lengthAdjust="spacing" textLength="49" x="359" y="26.5332">StepGw</text><rect fill="#E2E2F0" height="31.6094" rx="2.5" ry="2.5" style="stroke:#181818;stroke-width:0.5;" width="63" x="352" y="290.4219"/><text fill="#000000" font-family="sans-serif" font-size="14" lengthAdjust="spacing" textLength="49" x="359" y="311.9551">StepGw</text><rect fill="#E2E2F0" height="31.6094" rx="2.5" ry="2.5" style="stroke:#181818;stroke-width:0.5;" width="140" x="498.5" y="5"/><text fill="#000000" font-family="sans-serif" font-size="14" lengthAdjust="spacing" textLength="126" x="505.5" y="26.5332">STEP MQTT Broker</text><rect fill="#E2E2F0" height="31.6094" rx="2.5" ry="2.5" style="stroke:#181818;stroke-width:0.5;" width="140" x="498.5" y="290.4219"/><text fill="#000000" font-family="sans-serif" font-size="14" lengthAdjust="spacing" textLength="126" x="505.5" y="311.9551">STEP MQTT Broker</text><polygon fill="#181818" points="250,65.9609,260,69.9609,250,73.9609,254,69.9609" style="stroke:#181818;stroke-width:1.0;"/><line style="stroke:#181818;stroke-width:1.0;" x1="61" x2="256" y1="69.9609" y2="69.9609"/><text fill="#000000" font-family="sans-serif" font-size="13" lengthAdjust="spacing" textLength="177" x="68" y="65.1045">redis_stream(JSON_message)</text><polygon fill="#181818" points="371.5,96.3125,381.5,100.3125,371.5,104.3125,375.5,100.3125" style="stroke:#181818;stroke-width:1.0;"/><line style="stroke:#181818;stroke-width:1.0;" x1="262" x2="377.5" y1="100.3125" y2="100.3125"/><text fill="#000000" font-family="sans-serif" font-size="13" lengthAdjust="spacing" textLength="94" x="269" y="95.4561">JSON_message</text><path d="M303,113.3125 L303,172.3125 L463,172.3125 L463,123.3125 L453,113.3125 L303,113.3125 " fill="#FEFFDD" style="stroke:#181818;stroke-width:0.5;"/><path d="M453,113.3125 L453,123.3125 L463,123.3125 L453,113.3125 " fill="#FEFFDD" style="stroke:#181818;stroke-width:0.5;"/><text fill="#000000" font-family="sans-serif" font-size="13" lengthAdjust="spacing" textLength="100" x="309" y="131.8076">Convert message</text><text fill="#000000" font-family="sans-serif" font-size="13" lengthAdjust="spacing" textLength="139" x="309" y="148.1592">from JSON cloud events</text><text fill="#000000" font-family="sans-serif" font-size="13" lengthAdjust="spacing" textLength="74" x="309" y="164.5107">to ITS format</text><line style="stroke:#181818;stroke-width:1.0;" x1="383.5" x2="425.5" y1="199.7188" y2="199.7188"/><line style="stroke:#181818;stroke-width:1.0;" x1="425.5" x2="425.5" y1="199.7188" y2="212.7188"/><line style="stroke:#181818;stroke-width:1.0;" x1="384.5" x2="425.5" y1="212.7188" y2="212.7188"/><polygon fill="#181818" points="394.5,208.7188,384.5,212.7188,394.5,216.7188,390.5,212.7188" style="stroke:#181818;stroke-width:1.0;"/><text fill="#000000" font-family="sans-serif" font-size="13" lengthAdjust="spacing" textLength="170" x="390.5" y="194.8623">encode_ITS(JSON_message)</text><polygon fill="#181818" points="556.5,239.0703,566.5,243.0703,556.5,247.0703,560.5,243.0703" style="stroke:#181818;stroke-width:1.0;"/><line style="stroke:#181818;stroke-width:1.0;" x1="383.5" x2="562.5" y1="243.0703" y2="243.0703"/><text fill="#000000" font-family="sans-serif" font-size="13" lengthAdjust="spacing" textLength="161" x="390.5" y="238.2139">mqtt_publish(ITS_message)</text><polygon fill="#181818" points="394.5,269.4219,384.5,273.4219,394.5,277.4219,390.5,273.4219" style="stroke:#181818;stroke-width:1.0;"/><line style="stroke:#181818;stroke-width:1.0;stroke-dasharray:2.0,2.0;" x1="388.5" x2="567.5" y1="273.4219" y2="273.4219"/><text fill="#000000" font-family="sans-serif" font-size="13" lengthAdjust="spacing" textLength="97" x="400.5" y="268.5654">publish_success</text><!--SRC=[PO_1JiCm38RlUGfhft7O2_J0OHEQG08ssdiK4W-YDN58t4syFKdMGZTEblr__dyxgCXMsw0ymwBj7dQmYsG6ZN41Alqs8bnnZ67JM_JyXiQcbYCgL_dQ_uUtvwfk5UDPVT_e9VHvttMmZdGSSqiln9GEg_kBCpGGIvMfHYwVsjSNwJ0bzO5tue9aTinfOAuBJun0fsmttG406_9vmZ11UNI8vEecw9u60tZAZwQYCC5ZryA1ebCiq1iedcAqcoNdEz5hCYWpVtFbZAvVD-2-c6KOtdkRFfTvuO-jmEhAT-Ha6hJEs0y0]--></g></svg>