<?plantuml 1.2026.1?><svg xmlns="http://www.w3.org/2000/svg" xmlns:xlink="http://www.w3.org/1999/xlink" contentStyleType="text/css" data-diagram-type="SEQUENCE" height="2075px" preserveAspectRatio="none" style="width:1302px;height:2075px;background:#FFFFFF;" version="1.1" viewBox="0 0 1302 2075" width="1302px" zoomAndPan="magnify"><defs/><g><g><title>Redis Server</title><rect fill="#FFFFFF" height="29.1328" style="stroke:#000000;stroke-width:1;" width="10" x="380.4844" y="184.125"/></g><g><title>Redis Server</title><rect fill="#FFFFFF" height="29.1328" style="stroke:#000000;stroke-width:1;" width="10" x="380.4844" y="284.5234"/></g><g><title>Redis Server</title><rect fill="#FFFFFF" height="32.1328" style="stroke:#000000;stroke-width:1;" width="10" x="380.4844" y="384.9219"/></g><g><title>Redis Server</title><rect fill="#FFFFFF" height="71.2656" style="stroke:#000000;stroke-width:1;" width="10" x="380.4844" y="591.7188"/></g><g><title>Redis Server</title><rect fill="#FFFFFF" height="29.1328" style="stroke:#000000;stroke-width:1;" width="10" x="380.4844" y="734.25"/></g><g><title>Redis Server</title><rect fill="#FFFFFF" height="79.3984" style="stroke:#000000;stroke-width:1;" width="10" x="380.4844" y="908.0469"/></g><g><title>Redis Server</title><rect fill="#FFFFFF" height="29.1328" style="stroke:#000000;stroke-width:1;" width="10" x="380.4844" y="1142.9766"/></g><g><title>Redis Server</title><rect fill="#FFFFFF" height="29.1328" style="stroke:#000000;stroke-width:1;" width="10" x="380.4844" y="1301.6406"/></g><g><title>Redis Server</title><rect fill="#FFFFFF" height="79.3984" style="stroke:#000000;stroke-width:1;" width="10" x="380.4844" y="1475.4375"/></g><g><title>Redis Server</title><rect fill="#FFFFFF" height="79.3984" style="stroke:#000000;stroke-width:1;" width="10" x="380.4844" y="1783.7656"/></g><g><title>Redis Server</title><rect fill="#FFFFFF" height="29.1328" style="stroke:#000000;stroke-width:1;" width="10" x="380.4844" y="1976.5625"/></g><g class="participant-lifeline" data-entity-uid="part1" data-qualified-name="Publisher" id="part1-lifeline"><g><title>Publisher</title><rect fill="#000000" fill-opacity="0.00000" height="1971.1016" width="8" x="89.0864" y="52.5938"/><line style="stroke:#000000;stroke-width:1;stroke-dasharray:5,5;" x1="93" x2="93" y1="52.5938" y2="2023.6953"/></g></g><g class="participant-lifeline" data-entity-uid="part2" data-qualified-name="Redis" id="part2-lifeline"><g><title>Redis Server</title><rect fill="#000000" fill-opacity="0.00000" height="1971.1016" width="8" x="381.4844" y="52.5938"/><line style="stroke:#000000;stroke-width:1;stroke-dasharray:5,5;" x1="385.0986" x2="385.0986" y1="52.5938" y2="2023.6953"/></g></g><g class="participant-lifeline" data-entity-uid="part3" data-qualified-name="Group" id="part3-lifeline"><g><title>Consumer Group</title><rect fill="#000000" fill-opacity="0.00000" height="1971.1016" width="8" x="648.3291" y="52.5938"/><line style="stroke:#000000;stroke-width:1;stroke-dasharray:5,5;" x1="651.9453" x2="651.9453" y1="52.5938" y2="2023.6953"/></g></g><g class="participant-lifeline" data-entity-uid="part4" data-qualified-name="Consumer1" id="part4-lifeline"><g><title>Consumer 1</title><rect fill="#000000" fill-opacity="0.00000" height="1971.1016" width="8" x="817.7993" y="52.5938"/><line style="stroke:#000000;stroke-width:1;stroke-dasharray:5,5;" x1="821.7129" x2="821.7129" y1="52.5938" y2="2023.6953"/></g></g><g class="participant-lifeline" data-entity-uid="part5" data-qualified-name="Consumer2" id="part5-lifeline"><g><title>Consumer 2</title><rect fill="#000000" fill-opacity="0.00000" height="1971.1016" width="8" x="1033.8389" y="52.5938"/><line style="stroke:#000000;stroke-width:1;stroke-dasharray:5,5;" x1="1037.7524" x2="1037.7524" y1="52.5938" y2="2023.6953"/></g></g><g class="participant participant-head" data-entity-uid="part1" data-qualified-name="Publisher" id="part1-head"><rect fill="#FFFFFF" height="46.5938" rx="2.5" ry="2.5" style="stroke:#000000;stroke-width:1;" width="146.1729" x="20" y="5"/><text fill="#000000" font-family="Verdana" font-size="14" lengthAdjust="spacing" textLength="64.5176" x="60.8276" y="24.9951">Publisher</text><text fill="#000000" font-family="Verdana" font-size="14" lengthAdjust="spacing" textLength="132.1729" x="27" y="41.292">(StepRedisStream)</text></g><g class="participant participant-tail" data-entity-uid="part1" data-qualified-name="Publisher" id="part1-tail"><rect fill="#FFFFFF" height="46.5938" rx="2.5" ry="2.5" style="stroke:#000000;stroke-width:1;" width="146.1729" x="20" y="2022.6953"/><text fill="#000000" font-family="Verdana" font-size="14" lengthAdjust="spacing" textLength="64.5176" x="60.8276" y="2042.6904">Publisher</text><text fill="#000000" font-family="Verdana" font-size="14" lengthAdjust="spacing" textLength="132.1729" x="27" y="2058.9873">(StepRedisStream)</text></g><g class="participant participant-head" data-entity-uid="part2" data-qualified-name="Redis" id="part2-head"><rect fill="#FFFFFF" height="46.5938" rx="2.5" ry="2.5" style="stroke:#000000;stroke-width:1;" width="102.7715" x="334.0986" y="5"/><text fill="#000000" font-family="Verdana" font-size="14" lengthAdjust="spacing" textLength="88.7715" x="341.0986" y="24.9951">Redis Server</text><text fill="#000000" font-family="Verdana" font-size="14" lengthAdjust="spacing" textLength="69.1797" x="350.8945" y="41.292">(Streams)</text></g><g class="participant participant-tail" data-entity-uid="part2" data-qualified-name="Redis" id="part2-tail"><rect fill="#FFFFFF" height="46.5938" rx="2.5" ry="2.5" style="stroke:#000000;stroke-width:1;" width="102.7715" x="334.0986" y="2022.6953"/><text fill="#000000" font-family="Verdana" font-size="14" lengthAdjust="spacing" textLength="88.7715" x="341.0986" y="2042.6904">Redis Server</text><text fill="#000000" font-family="Verdana" font-size="14" lengthAdjust="spacing" textLength="69.1797" x="350.8945" y="2058.9873">(Streams)</text></g><g class="participant participant-head" data-entity-uid="part3" data-qualified-name="Group" id="part3-head"><rect fill="#FFFFFF" height="46.5938" rx="2.5" ry="2.5" style="stroke:#000000;stroke-width:1;" width="132.7676" x="585.9453" y="5"/><text fill="#000000" font-family="Verdana" font-size="14" lengthAdjust="spacing" textLength="118.7676" x="592.9453" y="24.9951">Consumer Group</text><text fill="#000000" font-family="Verdana" font-size="14" lengthAdjust="spacing" textLength="69.8906" x="617.3838" y="41.292">my_group</text></g><g class="participant participant-tail" data-entity-uid="part3" data-qualified-name="Group" id="part3-tail"><rect fill="#FFFFFF" height="46.5938" rx="2.5" ry="2.5" style="stroke:#000000;stroke-width:1;" width="132.7676" x="585.9453" y="2022.6953"/><text fill="#000000" font-family="Verdana" font-size="14" lengthAdjust="spacing" textLength="118.7676" x="592.9453" y="2042.6904">Consumer Group</text><text fill="#000000" font-family="Verdana" font-size="14" lengthAdjust="spacing" textLength="69.8906" x="617.3838" y="2058.9873">my_group</text></g><g class="participant participant-head" data-entity-uid="part4" data-qualified-name="Consumer1" id="part4-head"><rect fill="#FFFFFF" height="46.5938" rx="2.5" ry="2.5" style="stroke:#000000;stroke-width:1;" width="146.1729" x="748.7129" y="5"/><text fill="#000000" font-family="Verdana" font-size="14" lengthAdjust="spacing" textLength="84.7451" x="779.4268" y="24.9951">Consumer 1</text><text fill="#000000" font-family="Verdana" font-size="14" lengthAdjust="spacing" textLength="132.1729" x="755.7129" y="41.292">(StepRedisStream)</text></g><g class="participant participant-tail" data-entity-uid="part4" data-qualified-name="Consumer1" id="part4-tail"><rect fill="#FFFFFF" height="46.5938" rx="2.5" ry="2.5" style="stroke:#000000;stroke-width:1;" width="146.1729" x="748.7129" y="2022.6953"/><text fill="#000000" font-family="Verdana" font-size="14" lengthAdjust="spacing" textLength="84.7451" x="779.4268" y="2042.6904">Consumer 1</text><text fill="#000000" font-family="Verdana" font-size="14" lengthAdjust="spacing" textLength="132.1729" x="755.7129" y="2058.9873">(StepRedisStream)</text></g><g class="participant participant-head" data-entity-uid="part5" data-qualified-name="Consumer2" id="part5-head"><rect fill="#FFFFFF" height="46.5938" rx="2.5" ry="2.5" style="stroke:#000000;stroke-width:1;" width="146.1729" x="964.7524" y="5"/><text fill="#000000" font-family="Verdana" font-size="14" lengthAdjust="spacing" textLength="84.7451" x="995.4663" y="24.9951">Consumer 2</text><text fill="#000000" font-family="Verdana" font-size="14" lengthAdjust="spacing" textLength="132.1729" x="971.7524" y="41.292">(StepRedisStream)</text></g><g class="participant participant-tail" data-entity-uid="part5" data-qualified-name="Consumer2" id="part5-tail"><rect fill="#FFFFFF" height="46.5938" rx="2.5" ry="2.5" style="stroke:#000000;stroke-width:1;" width="146.1729" x="964.7524" y="2022.6953"/><text fill="#000000" font-family="Verdana" font-size="14" lengthAdjust="spacing" textLength="84.7451" x="995.4663" y="2042.6904">Consumer 2</text><text fill="#000000" font-family="Verdana" font-size="14" lengthAdjust="spacing" textLength="132.1729" x="971.7524" y="2058.9873">(StepRedisStream)</text></g><g><title>Redis Server</title><rect fill="#FFFFFF" height="29.1328" style="stroke:#000000;stroke-width:1;" width="10" x="380.4844" y="184.125"/></g><g><title>Redis Server</title><rect fill="#FFFFFF" height="29.1328" style="stroke:#000000;stroke-width:1;" width="10" x="380.4844" y="284.5234"/></g><g><title>Redis Server</title><rect fill="#FFFFFF" height="32.1328" style="stroke:#000000;stroke-width:1;" width="10" x="380.4844" y="384.9219"/></g><g><title>Redis Server</title><rect fill="#FFFFFF" height="71.2656" style="stroke:#000000;stroke-width:1;" width="10" x="380.4844" y="591.7188"/></g><g><title>Redis Server</title><rect fill="#FFFFFF" height="29.1328" style="stroke:#000000;stroke-width:1;" width="10" x="380.4844" y="734.25"/></g><g><title>Redis Server</title><rect fill="#FFFFFF" height="79.3984" style="stroke:#000000;stroke-width:1;" width="10" x="380.4844" y="908.0469"/></g><g><title>Redis Server</title><rect fill="#FFFFFF" height="29.1328" style="stroke:#000000;stroke-width:1;" width="10" x="380.4844" y="1142.9766"/></g><g><title>Redis Server</title><rect fill="#FFFFFF" height="29.1328" style="stroke:#000000;stroke-width:1;" width="10" x="380.4844" y="1301.6406"/></g><g><title>Redis Server</title><rect fill="#FFFFFF" height="79.3984" style="stroke:#000000;stroke-width:1;" width="10" x="380.4844" y="1475.4375"/></g><g><title>Redis Server</title><rect fill="#FFFFFF" height="79.3984" style="stroke:#000000;stroke-width:1;" width="10" x="380.4844" y="1783.7656"/></g><g><title>Redis Server</title><rect fill="#FFFFFF" height="29.1328" style="stroke:#000000;stroke-width:1;" width="10" x="380.4844" y="1976.5625"/></g><rect fill="#FFFFFF" height="3" style="stroke:#FFFFFF;stroke-width:1;" width="1290.3848" x="5" y="83.1602"/><line style="stroke:#000000;stroke-width:0.5;" x1="5" x2="1295.3848" y1="83.1602" y2="83.1602"/><line style="stroke:#000000;stroke-width:0.5;" x1="5" x2="1295.3848" y1="86.1602" y2="86.1602"/><rect fill="#FFFFFF" height="23.1328" style="stroke:#000000;stroke-width:1;" width="168.2734" x="566.0557" y="72.5938"/><text fill="#000000" font-family="Verdana" font-size="13" font-weight="bold" lengthAdjust="spacing" textLength="149.7476" x="572.0557" y="88.6606">Stream Initialization</text><g class="message" data-entity-1="part4" data-entity-2="part4" id="msg1"><line style="stroke:#000000;stroke-width:1;" x1="821.7993" x2="863.7993" y1="126.8594" y2="126.8594"/><line style="stroke:#000000;stroke-width:1;" x1="863.7993" x2="863.7993" y1="126.8594" y2="139.8594"/><line style="stroke:#000000;stroke-width:1;" x1="822.7993" x2="863.7993" y1="139.8594" y2="139.8594"/><polygon fill="#000000" points="832.7993,135.8594,822.7993,139.8594,832.7993,143.8594,828.7993,139.8594" style="stroke:#000000;stroke-width:1;"/><text fill="#000000" font-family="Verdana" font-size="13" lengthAdjust="spacing" textLength="143.9775" x="828.7993" y="121.7935">create_input_stream()</text></g><g class="message" data-entity-1="part4" data-entity-2="part2" id="msg2"><polygon fill="#000000" points="401.4844,180.125,391.4844,184.125,401.4844,188.125,397.4844,184.125" style="stroke:#000000;stroke-width:1;"/><line style="stroke:#000000;stroke-width:1;" x1="395.4844" x2="820.7993" y1="184.125" y2="184.125"/><text fill="#000000" font-family="Verdana" font-size="13" lengthAdjust="spacing" textLength="256.9658" x="407.4844" y="163.9263">XGROUP CREATE my_stream my_group</text><text fill="#000000" font-family="Verdana" font-size="13" lengthAdjust="spacing" textLength="106.4502" x="407.4844" y="179.0591">mkstream=True</text></g><g class="message" data-entity-1="part2" data-entity-2="part4" id="msg3"><polygon fill="#000000" points="809.7993,209.2578,819.7993,213.2578,809.7993,217.2578,813.7993,213.2578" style="stroke:#000000;stroke-width:1;"/><line style="stroke:#000000;stroke-width:1;stroke-dasharray:2,2;" x1="385.4844" x2="815.7993" y1="213.2578" y2="213.2578"/><text fill="#000000" font-family="Verdana" font-size="13" lengthAdjust="spacing" textLength="203.5757" x="392.4844" y="208.1919">OK (stream and group created)</text></g><g class="message" data-entity-1="part4" data-entity-2="part4" id="msg4"><line style="stroke:#000000;stroke-width:1;" x1="821.7993" x2="863.7993" y1="242.3906" y2="242.3906"/><line style="stroke:#000000;stroke-width:1;" x1="863.7993" x2="863.7993" y1="242.3906" y2="255.3906"/><line style="stroke:#000000;stroke-width:1;" x1="822.7993" x2="863.7993" y1="255.3906" y2="255.3906"/><polygon fill="#000000" points="832.7993,251.3906,822.7993,255.3906,832.7993,259.3906,828.7993,255.3906" style="stroke:#000000;stroke-width:1;"/><text fill="#000000" font-family="Verdana" font-size="13" lengthAdjust="spacing" textLength="202.0396" x="828.7993" y="237.3247">update_stream_ttl(ttl_seconds)</text></g><g class="message" data-entity-1="part4" data-entity-2="part2" id="msg5"><polygon fill="#000000" points="401.4844,280.5234,391.4844,284.5234,401.4844,288.5234,397.4844,284.5234" style="stroke:#000000;stroke-width:1;"/><line style="stroke:#000000;stroke-width:1;" x1="395.4844" x2="820.7993" y1="284.5234" y2="284.5234"/><text fill="#000000" font-family="Verdana" font-size="13" lengthAdjust="spacing" textLength="200.4463" x="407.4844" y="279.4575">EXPIRE my_stream ttl_seconds</text></g><g class="message" data-entity-1="part2" data-entity-2="part4" id="msg6"><polygon fill="#000000" points="809.7993,309.6563,819.7993,313.6563,809.7993,317.6563,813.7993,313.6563" style="stroke:#000000;stroke-width:1;"/><line style="stroke:#000000;stroke-width:1;stroke-dasharray:2,2;" x1="385.4844" x2="815.7993" y1="313.6563" y2="313.6563"/><text fill="#000000" font-family="Verdana" font-size="13" lengthAdjust="spacing" textLength="69.6719" x="392.4844" y="308.5903">1 (TTL set)</text></g><g class="message" data-entity-1="part5" data-entity-2="part5" id="msg7"><line style="stroke:#000000;stroke-width:1;" x1="1037.8389" x2="1079.8389" y1="342.7891" y2="342.7891"/><line style="stroke:#000000;stroke-width:1;" x1="1079.8389" x2="1079.8389" y1="342.7891" y2="355.7891"/><line style="stroke:#000000;stroke-width:1;" x1="1038.8389" x2="1079.8389" y1="355.7891" y2="355.7891"/><polygon fill="#000000" points="1048.8389,351.7891,1038.8389,355.7891,1048.8389,359.7891,1044.8389,355.7891" style="stroke:#000000;stroke-width:1;"/><text fill="#000000" font-family="Verdana" font-size="13" lengthAdjust="spacing" textLength="143.9775" x="1044.8389" y="337.7231">create_input_stream()</text></g><g class="message" data-entity-1="part5" data-entity-2="part2" id="msg8"><polygon fill="#000000" points="401.4844,380.9219,391.4844,384.9219,401.4844,388.9219,397.4844,384.9219" style="stroke:#000000;stroke-width:1;"/><line style="stroke:#000000;stroke-width:1;" x1="395.4844" x2="1036.8389" y1="384.9219" y2="384.9219"/><text fill="#000000" font-family="Verdana" font-size="13" lengthAdjust="spacing" textLength="256.9658" x="407.4844" y="379.856">XGROUP CREATE my_stream my_group</text></g><g class="message" data-entity-1="part2" data-entity-2="part5" id="msg9"><polygon fill="#000000" points="1025.8389,413.0547,1035.8389,417.0547,1025.8389,421.0547,1029.8389,417.0547" style="stroke:#000000;stroke-width:1;"/><line style="stroke:#000000;stroke-width:1;stroke-dasharray:2,2;" x1="385.4844" x2="1031.8389" y1="417.0547" y2="417.0547"/><text fill="#000000" font-family="Verdana" font-size="13" lengthAdjust="spacing" textLength="175.7158" x="392.4844" y="411.9888">BUSYGROUP (group exists)</text></g><path d="M1042,397.9219 L1042,422.9219 L1284,422.9219 L1284,407.9219 L1274,397.9219 L1042,397.9219" fill="#FFFFFF" style="stroke:#000000;stroke-width:1;"/><path d="M1274,397.9219 L1274,407.9219 L1284,407.9219 L1274,397.9219" fill="#FFFFFF" style="stroke:#000000;stroke-width:1;"/><text fill="#000000" font-family="Verdana" font-size="13" lengthAdjust="spacing" textLength="221.5459" x="1048" y="414.9888">Consumer logs info and continues</text><rect fill="#FFFFFF" height="3" style="stroke:#FFFFFF;stroke-width:1;" width="1290.3848" x="5" y="448.6211"/><line style="stroke:#000000;stroke-width:0.5;" x1="5" x2="1295.3848" y1="448.6211" y2="448.6211"/><line style="stroke:#000000;stroke-width:0.5;" x1="5" x2="1295.3848" y1="451.6211" y2="451.6211"/><rect fill="#FFFFFF" height="23.1328" style="stroke:#000000;stroke-width:1;" width="164.1855" x="568.0996" y="438.0547"/><text fill="#000000" font-family="Verdana" font-size="13" font-weight="bold" lengthAdjust="spacing" textLength="145.6597" x="574.0996" y="454.1216">Message Publishing</text><g class="message" data-entity-1="part1" data-entity-2="part1" id="msg11"><line style="stroke:#000000;stroke-width:1;" x1="93.0864" x2="135.0864" y1="492.3203" y2="492.3203"/><line style="stroke:#000000;stroke-width:1;" x1="135.0864" x2="135.0864" y1="492.3203" y2="505.3203"/><line style="stroke:#000000;stroke-width:1;" x1="94.0864" x2="135.0864" y1="505.3203" y2="505.3203"/><polygon fill="#000000" points="104.0864,501.3203,94.0864,505.3203,104.0864,509.3203,100.0864,505.3203" style="stroke:#000000;stroke-width:1;"/><text fill="#000000" font-family="Verdana" font-size="13" lengthAdjust="spacing" textLength="180.4702" x="100.0864" y="487.2544">publish_message(message)</text></g><g class="message" data-entity-1="part1" data-entity-2="part1" id="msg12"><line style="stroke:#000000;stroke-width:1;" x1="93.0864" x2="135.0864" y1="534.4531" y2="534.4531"/><line style="stroke:#000000;stroke-width:1;" x1="135.0864" x2="135.0864" y1="534.4531" y2="547.4531"/><line style="stroke:#000000;stroke-width:1;" x1="94.0864" x2="135.0864" y1="547.4531" y2="547.4531"/><polygon fill="#000000" points="104.0864,543.4531,94.0864,547.4531,104.0864,551.4531,100.0864,547.4531" style="stroke:#000000;stroke-width:1;"/><text fill="#000000" font-family="Verdana" font-size="13" lengthAdjust="spacing" textLength="171.1328" x="100.0864" y="529.3872">Serialize message to JSON</text></g><g class="message" data-entity-1="part1" data-entity-2="part2" id="msg13"><polygon fill="#000000" points="368.4844,587.7188,378.4844,591.7188,368.4844,595.7188,372.4844,591.7188" style="stroke:#000000;stroke-width:1;"/><line style="stroke:#000000;stroke-width:1;" x1="93.0864" x2="374.4844" y1="591.7188" y2="591.7188"/><text fill="#000000" font-family="Verdana" font-size="13" lengthAdjust="spacing" textLength="268.3979" x="100.0864" y="571.52">XADD my_stream MAXLEN ~ max_length</text><text fill="#000000" font-family="Verdana" font-size="13" lengthAdjust="spacing" textLength="140.0801" x="100.0864" y="586.6528">payload: "{...json...}"</text></g><g class="message" data-entity-1="part2" data-entity-2="part2" id="msg14"><line style="stroke:#000000;stroke-width:1;" x1="390.4844" x2="432.4844" y1="620.8516" y2="620.8516"/><line style="stroke:#000000;stroke-width:1;" x1="432.4844" x2="432.4844" y1="620.8516" y2="633.8516"/><line style="stroke:#000000;stroke-width:1;" x1="391.4844" x2="432.4844" y1="633.8516" y2="633.8516"/><polygon fill="#000000" points="401.4844,629.8516,391.4844,633.8516,401.4844,637.8516,397.4844,633.8516" style="stroke:#000000;stroke-width:1;"/><text fill="#000000" font-family="Verdana" font-size="13" lengthAdjust="spacing" textLength="232.8447" x="397.4844" y="615.7856">Trim stream if length &gt; max_length</text></g><g class="message" data-entity-1="part2" data-entity-2="part1" id="msg15"><polygon fill="#000000" points="104.0864,658.9844,94.0864,662.9844,104.0864,666.9844,100.0864,662.9844" style="stroke:#000000;stroke-width:1;"/><line style="stroke:#000000;stroke-width:1;stroke-dasharray:2,2;" x1="98.0864" x2="384.4844" y1="662.9844" y2="662.9844"/><text fill="#000000" font-family="Verdana" font-size="13" lengthAdjust="spacing" textLength="256.2866" x="110.0864" y="657.9185">message_id (e.g., "1234567890123-0")</text></g><g class="message" data-entity-1="part1" data-entity-2="part1" id="msg16"><line style="stroke:#000000;stroke-width:1;" x1="93.0864" x2="135.0864" y1="692.1172" y2="692.1172"/><line style="stroke:#000000;stroke-width:1;" x1="135.0864" x2="135.0864" y1="692.1172" y2="705.1172"/><line style="stroke:#000000;stroke-width:1;" x1="94.0864" x2="135.0864" y1="705.1172" y2="705.1172"/><polygon fill="#000000" points="104.0864,701.1172,94.0864,705.1172,104.0864,709.1172,100.0864,705.1172" style="stroke:#000000;stroke-width:1;"/><text fill="#000000" font-family="Verdana" font-size="13" lengthAdjust="spacing" textLength="202.0396" x="100.0864" y="687.0513">update_stream_ttl(ttl_seconds)</text></g><g class="message" data-entity-1="part1" data-entity-2="part2" id="msg17"><polygon fill="#000000" points="368.4844,730.25,378.4844,734.25,368.4844,738.25,372.4844,734.25" style="stroke:#000000;stroke-width:1;"/><line style="stroke:#000000;stroke-width:1;" x1="93.0864" x2="374.4844" y1="734.25" y2="734.25"/><text fill="#000000" font-family="Verdana" font-size="13" lengthAdjust="spacing" textLength="200.4463" x="100.0864" y="729.1841">EXPIRE my_stream ttl_seconds</text></g><g class="message" data-entity-1="part2" data-entity-2="part1" id="msg18"><polygon fill="#000000" points="104.0864,759.3828,94.0864,763.3828,104.0864,767.3828,100.0864,763.3828" style="stroke:#000000;stroke-width:1;"/><line style="stroke:#000000;stroke-width:1;stroke-dasharray:2,2;" x1="98.0864" x2="384.4844" y1="763.3828" y2="763.3828"/><text fill="#000000" font-family="Verdana" font-size="13" lengthAdjust="spacing" textLength="112.3281" x="110.0864" y="758.3169">1 (TTL refreshed)</text></g><rect fill="#FFFFFF" height="3" style="stroke:#FFFFFF;stroke-width:1;" width="1290.3848" x="5" y="791.9492"/><line style="stroke:#000000;stroke-width:0.5;" x1="5" x2="1295.3848" y1="791.9492" y2="791.9492"/><line style="stroke:#000000;stroke-width:0.5;" x1="5" x2="1295.3848" y1="794.9492" y2="794.9492"/><rect fill="#FFFFFF" height="23.1328" style="stroke:#000000;stroke-width:1;" width="287.0762" x="506.6543" y="781.3828"/><text fill="#000000" font-family="Verdana" font-size="13" font-weight="bold" lengthAdjust="spacing" textLength="268.5503" x="512.6543" y="797.4497">Message Consumption (Consumer 1)</text><g class="message" data-entity-1="part4" data-entity-2="part4" id="msg19"><line style="stroke:#000000;stroke-width:1;" x1="821.7993" x2="863.7993" y1="835.6484" y2="835.6484"/><line style="stroke:#000000;stroke-width:1;" x1="863.7993" x2="863.7993" y1="835.6484" y2="848.6484"/><line style="stroke:#000000;stroke-width:1;" x1="822.7993" x2="863.7993" y1="848.6484" y2="848.6484"/><polygon fill="#000000" points="832.7993,844.6484,822.7993,848.6484,832.7993,852.6484,828.7993,848.6484" style="stroke:#000000;stroke-width:1;"/><text fill="#000000" font-family="Verdana" font-size="13" lengthAdjust="spacing" textLength="122.8589" x="828.7993" y="830.5825">receive_message()</text></g><g class="message" data-entity-1="part4" data-entity-2="part2" id="msg20"><polygon fill="#000000" points="401.4844,904.0469,391.4844,908.0469,401.4844,912.0469,397.4844,908.0469" style="stroke:#000000;stroke-width:1;"/><line style="stroke:#000000;stroke-width:1;" x1="395.4844" x2="820.7993" y1="908.0469" y2="908.0469"/><text fill="#000000" font-family="Verdana" font-size="13" lengthAdjust="spacing" textLength="288.3677" x="407.4844" y="872.7153">XREADGROUP GROUP my_group consumer1</text><text fill="#000000" font-family="Verdana" font-size="13" lengthAdjust="spacing" textLength="153.6577" x="407.4844" y="887.8481">STREAMS my_stream &gt;</text><text fill="#000000" font-family="Verdana" font-size="13" lengthAdjust="spacing" textLength="272.1431" x="407.4844" y="902.981">BLOCK wait_timeout_ms COUNT 1 NOACK</text></g><path d="M264,921.0469 L264,961.0469 L506,961.0469 L506,931.0469 L496,921.0469 L264,921.0469" fill="#FFFFFF" style="stroke:#000000;stroke-width:1;"/><path d="M496,921.0469 L496,931.0469 L506,931.0469 L496,921.0469" fill="#FFFFFF" style="stroke:#000000;stroke-width:1;"/><text fill="#000000" font-family="Verdana" font-size="13" lengthAdjust="spacing" textLength="221.2793" x="270" y="938.1138">Consumer1 receives the message</text><text fill="#000000" font-family="Verdana" font-size="13" lengthAdjust="spacing" textLength="191.5977" x="270" y="953.2466">(automatic acknowledgment)</text><g class="message" data-entity-1="part2" data-entity-2="part4" id="msg21"><polygon fill="#000000" points="809.7993,983.4453,819.7993,987.4453,809.7993,991.4453,813.7993,987.4453" style="stroke:#000000;stroke-width:1;"/><line style="stroke:#000000;stroke-width:1;stroke-dasharray:2,2;" x1="385.4844" x2="815.7993" y1="987.4453" y2="987.4453"/><text fill="#000000" font-family="Verdana" font-size="13" lengthAdjust="spacing" textLength="331.6143" x="392.4844" y="982.3794">[[my_stream, [["message_id", {"payload": "..."}]]]]</text></g><g class="message" data-entity-1="part4" data-entity-2="part4" id="msg22"><line style="stroke:#000000;stroke-width:1;" x1="821.7993" x2="863.7993" y1="1016.5781" y2="1016.5781"/><line style="stroke:#000000;stroke-width:1;" x1="863.7993" x2="863.7993" y1="1016.5781" y2="1029.5781"/><line style="stroke:#000000;stroke-width:1;" x1="822.7993" x2="863.7993" y1="1029.5781" y2="1029.5781"/><polygon fill="#000000" points="832.7993,1025.5781,822.7993,1029.5781,832.7993,1033.5781,828.7993,1029.5781" style="stroke:#000000;stroke-width:1;"/><text fill="#000000" font-family="Verdana" font-size="13" lengthAdjust="spacing" textLength="166.2769" x="828.7993" y="1011.5122">Extract and yield payload</text></g><g class="message" data-entity-1="part4" data-entity-2="part4" id="msg23"><line style="stroke:#000000;stroke-width:1;" x1="821.7993" x2="863.7993" y1="1058.7109" y2="1058.7109"/><line style="stroke:#000000;stroke-width:1;" x1="863.7993" x2="863.7993" y1="1058.7109" y2="1071.7109"/><line style="stroke:#000000;stroke-width:1;" x1="822.7993" x2="863.7993" y1="1071.7109" y2="1071.7109"/><polygon fill="#000000" points="832.7993,1067.7109,822.7993,1071.7109,832.7993,1075.7109,828.7993,1071.7109" style="stroke:#000000;stroke-width:1;"/><text fill="#000000" font-family="Verdana" font-size="13" lengthAdjust="spacing" textLength="112.3853" x="828.7993" y="1053.645">Process message</text></g><g class="message" data-entity-1="part4" data-entity-2="part4" id="msg24"><line style="stroke:#000000;stroke-width:1;" x1="821.7993" x2="863.7993" y1="1100.8438" y2="1100.8438"/><line style="stroke:#000000;stroke-width:1;" x1="863.7993" x2="863.7993" y1="1100.8438" y2="1113.8438"/><line style="stroke:#000000;stroke-width:1;" x1="822.7993" x2="863.7993" y1="1113.8438" y2="1113.8438"/><polygon fill="#000000" points="832.7993,1109.8438,822.7993,1113.8438,832.7993,1117.8438,828.7993,1113.8438" style="stroke:#000000;stroke-width:1;"/><text fill="#000000" font-family="Verdana" font-size="13" lengthAdjust="spacing" textLength="202.0396" x="828.7993" y="1095.7778">update_stream_ttl(ttl_seconds)</text></g><g class="message" data-entity-1="part4" data-entity-2="part2" id="msg25"><polygon fill="#000000" points="401.4844,1138.9766,391.4844,1142.9766,401.4844,1146.9766,397.4844,1142.9766" style="stroke:#000000;stroke-width:1;"/><line style="stroke:#000000;stroke-width:1;" x1="395.4844" x2="820.7993" y1="1142.9766" y2="1142.9766"/><text fill="#000000" font-family="Verdana" font-size="13" lengthAdjust="spacing" textLength="200.4463" x="407.4844" y="1137.9106">EXPIRE my_stream ttl_seconds</text></g><g class="message" data-entity-1="part2" data-entity-2="part4" id="msg26"><polygon fill="#000000" points="809.7993,1168.1094,819.7993,1172.1094,809.7993,1176.1094,813.7993,1172.1094" style="stroke:#000000;stroke-width:1;"/><line style="stroke:#000000;stroke-width:1;stroke-dasharray:2,2;" x1="385.4844" x2="815.7993" y1="1172.1094" y2="1172.1094"/><text fill="#000000" font-family="Verdana" font-size="13" lengthAdjust="spacing" textLength="112.3281" x="392.4844" y="1167.0435">1 (TTL refreshed)</text></g><rect fill="#FFFFFF" height="3" style="stroke:#FFFFFF;stroke-width:1;" width="1290.3848" x="5" y="1200.6758"/><line style="stroke:#000000;stroke-width:0.5;" x1="5" x2="1295.3848" y1="1200.6758" y2="1200.6758"/><line style="stroke:#000000;stroke-width:0.5;" x1="5" x2="1295.3848" y1="1203.6758" y2="1203.6758"/><rect fill="#FFFFFF" height="23.1328" style="stroke:#000000;stroke-width:1;" width="302.6216" x="498.8816" y="1190.1094"/><text fill="#000000" font-family="Verdana" font-size="13" font-weight="bold" lengthAdjust="spacing" textLength="284.0957" x="504.8816" y="1206.1763">Message Publishing (Second Message)</text><g class="message" data-entity-1="part1" data-entity-2="part1" id="msg27"><line style="stroke:#000000;stroke-width:1;" x1="93.0864" x2="135.0864" y1="1244.375" y2="1244.375"/><line style="stroke:#000000;stroke-width:1;" x1="135.0864" x2="135.0864" y1="1244.375" y2="1257.375"/><line style="stroke:#000000;stroke-width:1;" x1="94.0864" x2="135.0864" y1="1257.375" y2="1257.375"/><polygon fill="#000000" points="104.0864,1253.375,94.0864,1257.375,104.0864,1261.375,100.0864,1257.375" style="stroke:#000000;stroke-width:1;"/><text fill="#000000" font-family="Verdana" font-size="13" lengthAdjust="spacing" textLength="188.7412" x="100.0864" y="1239.3091">publish_message(message2)</text></g><g class="message" data-entity-1="part1" data-entity-2="part2" id="msg28"><polygon fill="#000000" points="368.4844,1297.6406,378.4844,1301.6406,368.4844,1305.6406,372.4844,1301.6406" style="stroke:#000000;stroke-width:1;"/><line style="stroke:#000000;stroke-width:1;" x1="93.0864" x2="374.4844" y1="1301.6406" y2="1301.6406"/><text fill="#000000" font-family="Verdana" font-size="13" lengthAdjust="spacing" textLength="268.3979" x="100.0864" y="1281.4419">XADD my_stream MAXLEN ~ max_length</text><text fill="#000000" font-family="Verdana" font-size="13" lengthAdjust="spacing" textLength="148.3511" x="100.0864" y="1296.5747">payload: "{...json2...}"</text></g><g class="message" data-entity-1="part2" data-entity-2="part1" id="msg29"><polygon fill="#000000" points="104.0864,1326.7734,94.0864,1330.7734,104.0864,1334.7734,100.0864,1330.7734" style="stroke:#000000;stroke-width:1;"/><line style="stroke:#000000;stroke-width:1;stroke-dasharray:2,2;" x1="98.0864" x2="384.4844" y1="1330.7734" y2="1330.7734"/><text fill="#000000" font-family="Verdana" font-size="13" lengthAdjust="spacing" textLength="91.5586" x="110.0864" y="1325.7075">message_id_2</text></g><rect fill="#FFFFFF" height="3" style="stroke:#FFFFFF;stroke-width:1;" width="1290.3848" x="5" y="1359.3398"/><line style="stroke:#000000;stroke-width:0.5;" x1="5" x2="1295.3848" y1="1359.3398" y2="1359.3398"/><line style="stroke:#000000;stroke-width:0.5;" x1="5" x2="1295.3848" y1="1362.3398" y2="1362.3398"/><rect fill="#FFFFFF" height="23.1328" style="stroke:#000000;stroke-width:1;" width="287.0762" x="506.6543" y="1348.7734"/><text fill="#000000" font-family="Verdana" font-size="13" font-weight="bold" lengthAdjust="spacing" textLength="268.5503" x="512.6543" y="1364.8403">Message Consumption (Consumer 2)</text><g class="message" data-entity-1="part5" data-entity-2="part5" id="msg30"><line style="stroke:#000000;stroke-width:1;" x1="1037.8389" x2="1079.8389" y1="1403.0391" y2="1403.0391"/><line style="stroke:#000000;stroke-width:1;" x1="1079.8389" x2="1079.8389" y1="1403.0391" y2="1416.0391"/><line style="stroke:#000000;stroke-width:1;" x1="1038.8389" x2="1079.8389" y1="1416.0391" y2="1416.0391"/><polygon fill="#000000" points="1048.8389,1412.0391,1038.8389,1416.0391,1048.8389,1420.0391,1044.8389,1416.0391" style="stroke:#000000;stroke-width:1;"/><text fill="#000000" font-family="Verdana" font-size="13" lengthAdjust="spacing" textLength="122.8589" x="1044.8389" y="1397.9731">receive_message()</text></g><g class="message" data-entity-1="part5" data-entity-2="part2" id="msg31"><polygon fill="#000000" points="401.4844,1471.4375,391.4844,1475.4375,401.4844,1479.4375,397.4844,1475.4375" style="stroke:#000000;stroke-width:1;"/><line style="stroke:#000000;stroke-width:1;" x1="395.4844" x2="1036.8389" y1="1475.4375" y2="1475.4375"/><text fill="#000000" font-family="Verdana" font-size="13" lengthAdjust="spacing" textLength="288.3677" x="407.4844" y="1440.106">XREADGROUP GROUP my_group consumer2</text><text fill="#000000" font-family="Verdana" font-size="13" lengthAdjust="spacing" textLength="153.6577" x="407.4844" y="1455.2388">STREAMS my_stream &gt;</text><text fill="#000000" font-family="Verdana" font-size="13" lengthAdjust="spacing" textLength="272.1431" x="407.4844" y="1470.3716">BLOCK wait_timeout_ms COUNT 1 NOACK</text></g><path d="M260,1488.4375 L260,1528.4375 L509,1528.4375 L509,1498.4375 L499,1488.4375 L260,1488.4375" fill="#FFFFFF" style="stroke:#000000;stroke-width:1;"/><path d="M499,1488.4375 L499,1498.4375 L509,1498.4375 L499,1488.4375" fill="#FFFFFF" style="stroke:#000000;stroke-width:1;"/><text fill="#000000" font-family="Verdana" font-size="13" lengthAdjust="spacing" textLength="228.9473" x="266" y="1505.5044">Consumer2 receives message_id_2</text><text fill="#000000" font-family="Verdana" font-size="13" lengthAdjust="spacing" textLength="201.8809" x="266" y="1520.6372">(load distribution within group)</text><g class="message" data-entity-1="part2" data-entity-2="part5" id="msg32"><polygon fill="#000000" points="1025.8389,1550.8359,1035.8389,1554.8359,1025.8389,1558.8359,1029.8389,1554.8359" style="stroke:#000000;stroke-width:1;"/><line style="stroke:#000000;stroke-width:1;stroke-dasharray:2,2;" x1="385.4844" x2="1031.8389" y1="1554.8359" y2="1554.8359"/><text fill="#000000" font-family="Verdana" font-size="13" lengthAdjust="spacing" textLength="346.3853" x="392.4844" y="1549.77">[[my_stream, [["message_id_2", {"payload": "..."}]]]]</text></g><g class="message" data-entity-1="part5" data-entity-2="part5" id="msg33"><line style="stroke:#000000;stroke-width:1;" x1="1037.8389" x2="1079.8389" y1="1583.9688" y2="1583.9688"/><line style="stroke:#000000;stroke-width:1;" x1="1079.8389" x2="1079.8389" y1="1583.9688" y2="1596.9688"/><line style="stroke:#000000;stroke-width:1;" x1="1038.8389" x2="1079.8389" y1="1596.9688" y2="1596.9688"/><polygon fill="#000000" points="1048.8389,1592.9688,1038.8389,1596.9688,1048.8389,1600.9688,1044.8389,1596.9688" style="stroke:#000000;stroke-width:1;"/><text fill="#000000" font-family="Verdana" font-size="13" lengthAdjust="spacing" textLength="166.2769" x="1044.8389" y="1578.9028">Extract and yield payload</text></g><g class="message" data-entity-1="part5" data-entity-2="part5" id="msg34"><line style="stroke:#000000;stroke-width:1;" x1="1037.8389" x2="1079.8389" y1="1626.1016" y2="1626.1016"/><line style="stroke:#000000;stroke-width:1;" x1="1079.8389" x2="1079.8389" y1="1626.1016" y2="1639.1016"/><line style="stroke:#000000;stroke-width:1;" x1="1038.8389" x2="1079.8389" y1="1639.1016" y2="1639.1016"/><polygon fill="#000000" points="1048.8389,1635.1016,1038.8389,1639.1016,1048.8389,1643.1016,1044.8389,1639.1016" style="stroke:#000000;stroke-width:1;"/><text fill="#000000" font-family="Verdana" font-size="13" lengthAdjust="spacing" textLength="112.3853" x="1044.8389" y="1621.0356">Process message</text></g><rect fill="#FFFFFF" height="3" style="stroke:#FFFFFF;stroke-width:1;" width="1290.3848" x="5" y="1667.668"/><line style="stroke:#000000;stroke-width:0.5;" x1="5" x2="1295.3848" y1="1667.668" y2="1667.668"/><line style="stroke:#000000;stroke-width:0.5;" x1="5" x2="1295.3848" y1="1670.668" y2="1670.668"/><rect fill="#FFFFFF" height="23.1328" style="stroke:#000000;stroke-width:1;" width="146.8501" x="576.7673" y="1657.1016"/><text fill="#000000" font-family="Verdana" font-size="13" font-weight="bold" lengthAdjust="spacing" textLength="128.3242" x="582.7673" y="1673.1685">Timeout Scenario</text><g class="message" data-entity-1="part4" data-entity-2="part4" id="msg35"><line style="stroke:#000000;stroke-width:1;" x1="821.7993" x2="863.7993" y1="1711.3672" y2="1711.3672"/><line style="stroke:#000000;stroke-width:1;" x1="863.7993" x2="863.7993" y1="1711.3672" y2="1724.3672"/><line style="stroke:#000000;stroke-width:1;" x1="822.7993" x2="863.7993" y1="1724.3672" y2="1724.3672"/><polygon fill="#000000" points="832.7993,1720.3672,822.7993,1724.3672,832.7993,1728.3672,828.7993,1724.3672" style="stroke:#000000;stroke-width:1;"/><text fill="#000000" font-family="Verdana" font-size="13" lengthAdjust="spacing" textLength="122.8589" x="828.7993" y="1706.3013">receive_message()</text></g><g class="message" data-entity-1="part4" data-entity-2="part2" id="msg36"><polygon fill="#000000" points="401.4844,1779.7656,391.4844,1783.7656,401.4844,1787.7656,397.4844,1783.7656" style="stroke:#000000;stroke-width:1;"/><line style="stroke:#000000;stroke-width:1;" x1="395.4844" x2="820.7993" y1="1783.7656" y2="1783.7656"/><text fill="#000000" font-family="Verdana" font-size="13" lengthAdjust="spacing" textLength="288.3677" x="407.4844" y="1748.4341">XREADGROUP GROUP my_group consumer1</text><text fill="#000000" font-family="Verdana" font-size="13" lengthAdjust="spacing" textLength="153.6577" x="407.4844" y="1763.5669">STREAMS my_stream &gt;</text><text fill="#000000" font-family="Verdana" font-size="13" lengthAdjust="spacing" textLength="272.1431" x="407.4844" y="1778.6997">BLOCK wait_timeout_ms COUNT 1 NOACK</text></g><path d="M282,1796.7656 L282,1836.7656 L487,1836.7656 L487,1806.7656 L477,1796.7656 L282,1796.7656" fill="#FFFFFF" style="stroke:#000000;stroke-width:1;"/><path d="M477,1796.7656 L477,1806.7656 L487,1806.7656 L477,1796.7656" fill="#FFFFFF" style="stroke:#000000;stroke-width:1;"/><text fill="#000000" font-family="Verdana" font-size="13" lengthAdjust="spacing" textLength="184.9517" x="288" y="1813.8325">No new messages available,</text><text fill="#000000" font-family="Verdana" font-size="13" lengthAdjust="spacing" textLength="169.7173" x="288" y="1828.9653">waits for timeout duration</text><g class="message" data-entity-1="part2" data-entity-2="part4" id="msg37"><polygon fill="#000000" points="809.7993,1859.1641,819.7993,1863.1641,809.7993,1867.1641,813.7993,1863.1641" style="stroke:#000000;stroke-width:1;"/><line style="stroke:#000000;stroke-width:1;stroke-dasharray:2,2;" x1="385.4844" x2="815.7993" y1="1863.1641" y2="1863.1641"/><text fill="#000000" font-family="Verdana" font-size="13" lengthAdjust="spacing" textLength="219.4956" x="392.4844" y="1858.0981">[] (empty response after timeout)</text></g><g class="message" data-entity-1="part4" data-entity-2="part4" id="msg38"><line style="stroke:#000000;stroke-width:1;" x1="821.7993" x2="863.7993" y1="1892.2969" y2="1892.2969"/><line style="stroke:#000000;stroke-width:1;" x1="863.7993" x2="863.7993" y1="1892.2969" y2="1905.2969"/><line style="stroke:#000000;stroke-width:1;" x1="822.7993" x2="863.7993" y1="1905.2969" y2="1905.2969"/><polygon fill="#000000" points="832.7993,1901.2969,822.7993,1905.2969,832.7993,1909.2969,828.7993,1905.2969" style="stroke:#000000;stroke-width:1;"/><text fill="#000000" font-family="Verdana" font-size="13" lengthAdjust="spacing" textLength="174.9351" x="828.7993" y="1887.231">Log timeout, continue loop</text></g><g class="message" data-entity-1="part4" data-entity-2="part4" id="msg39"><line style="stroke:#000000;stroke-width:1;" x1="821.7993" x2="863.7993" y1="1934.4297" y2="1934.4297"/><line style="stroke:#000000;stroke-width:1;" x1="863.7993" x2="863.7993" y1="1934.4297" y2="1947.4297"/><line style="stroke:#000000;stroke-width:1;" x1="822.7993" x2="863.7993" y1="1947.4297" y2="1947.4297"/><polygon fill="#000000" points="832.7993,1943.4297,822.7993,1947.4297,832.7993,1951.4297,828.7993,1947.4297" style="stroke:#000000;stroke-width:1;"/><text fill="#000000" font-family="Verdana" font-size="13" lengthAdjust="spacing" textLength="202.0396" x="828.7993" y="1929.3638">update_stream_ttl(ttl_seconds)</text></g><g class="message" data-entity-1="part4" data-entity-2="part2" id="msg40"><polygon fill="#000000" points="401.4844,1972.5625,391.4844,1976.5625,401.4844,1980.5625,397.4844,1976.5625" style="stroke:#000000;stroke-width:1;"/><line style="stroke:#000000;stroke-width:1;" x1="395.4844" x2="820.7993" y1="1976.5625" y2="1976.5625"/><text fill="#000000" font-family="Verdana" font-size="13" lengthAdjust="spacing" textLength="200.4463" x="407.4844" y="1971.4966">EXPIRE my_stream ttl_seconds</text></g><g class="message" data-entity-1="part2" data-entity-2="part4" id="msg41"><polygon fill="#000000" points="809.7993,2001.6953,819.7993,2005.6953,809.7993,2009.6953,813.7993,2005.6953" style="stroke:#000000;stroke-width:1;"/><line style="stroke:#000000;stroke-width:1;stroke-dasharray:2,2;" x1="385.4844" x2="815.7993" y1="2005.6953" y2="2005.6953"/><text fill="#000000" font-family="Verdana" font-size="13" lengthAdjust="spacing" textLength="112.3281" x="392.4844" y="2000.6294">1 (TTL refreshed)</text></g><?plantuml-src rLPhJzjA4FsUNp7r9qSAKN5VzqOA4eMeQe44uI1nrLJMOa_CjlQkjRlcKTJ-zZlnsewJngIWgcgHGXnxPdRc-9op-ynSOOgG9OoBJYTZol2GPqmOS4xpouJhArGpuVe6ipECkFQDGfPs7M0Qwe3Ll28EV5JNPUeYGzkKujbg-84KEazHmJibysmcqhiWNbmLySMzblZTjhwgYDsMH6zRejVf38TWdy1xmGrd2V_A39S2XiDEfru0TlQMgmqWf0I30HTPRW9TfBlTrUXYpG5Sl3kRd9_2mTbeVpe26jb6GpKymV35tXfELOuT5Xf-JRLB02t4EwkhJux0BSim4K5HfsmfwdOYNAlHEaMUHOifRAd0cCIbJw0nb2BIcySPNPo-FslEqSZugTvtmPrEZq6ZUQXJhzcfjmrlxn5uRs-IbdjxxlzdwxWMNBpbsX0aGbAYul6L6TJnaCXO0nTpMRmDWi9maQFUC1vnxGIrPZ5Mak8YBeXMAsmnIlrZ09cz35ARvfRVtTO4KcF1OOGo58o43_val9fHeRL_UDW0wMJ_udWqXk-GijiWGH6Rgvd8s5qYMJG0vxxVxt_MKj3NDwS5oBhqLF4Kohfy3hOQx3LADx1l352s7V08NEp7_HuukzwBbwzUl_ddt-TqjVFSsSISDZosS7mJA4_ZU6FDakCAvmhfpaPDDgXWYPGLfkCkJQ_xe0Cf395VOqsC5lSX6HnQ9jl_bGmMDBNHC-5FAUh4RmoyDnDlZoS7Ht33k0aCJr6IxbBopSdvU4hpZIVx1qVhM1JYaBGNLAilEogxrK2RKFM6oPjPRcHARXi22xy8UPDW5ASeo1esUiV7ZtMBFVhXBAdYzE3UAOdg45E9eSwtJ_Jt23SStHf5iOM8xpWc4PG5MpDEbGofXMgWFz9eVvQ43Jzo_MAPwb7tAGRbTN-XttWF6KwRUmJUKrJdhQfkVHzgLvttADLvlq5rtb9rJLH8TWjuWMADufTv0S0DD_JgxKcYktbFR1TVu3r5VklGRfVVUiOFygEtExMeWH-YO8hBlzv3nn84tbGpQc3NZ2ViCi7UJ2mgQvXB1MLvY79L75vR_FCJRQb4-JkQN6Tq7u7D3TRfZpax7ikuIklLPnuw2idiRxF1_m40?></g></svg>