<?xml version="1.0" encoding="us-ascii" standalone="no"?><svg xmlns="http://www.w3.org/2000/svg" xmlns:xlink="http://www.w3.org/1999/xlink" contentStyleType="text/css" height="392px" preserveAspectRatio="none" style="width:816px;height:392px;background:#FFFFFF;" version="1.1" viewBox="0 0 816 392" width="816px" zoomAndPan="magnify"><defs/><g><line style="stroke:#181818;stroke-width:0.5;stroke-dasharray:5.0,5.0;" x1="84" x2="84" y1="37.6094" y2="355.4766"/><line style="stroke:#181818;stroke-width:0.5;stroke-dasharray:5.0,5.0;" x1="219" x2="219" y1="37.6094" y2="355.4766"/><line style="stroke:#181818;stroke-width:0.5;stroke-dasharray:5.0,5.0;" x1="365" x2="365" y1="37.6094" y2="355.4766"/><line style="stroke:#181818;stroke-width:0.5;stroke-dasharray:5.0,5.0;" x1="537" x2="537" y1="37.6094" y2="355.4766"/><line style="stroke:#181818;stroke-width:0.5;stroke-dasharray:5.0,5.0;" x1="705" x2="705" y1="37.6094" y2="355.4766"/><rect fill="#E2E2F0" height="31.6094" rx="2.5" ry="2.5" style="stroke:#181818;stroke-width:0.5;" width="159" x="5" y="5"/><text fill="#000000" font-family="sans-serif" font-size="14" lengthAdjust="spacing" textLength="145" x="12" y="26.5332">STEP Crash Prediction</text><rect fill="#E2E2F0" height="31.6094" rx="2.5" ry="2.5" style="stroke:#181818;stroke-width:0.5;" width="159" x="5" y="354.4766"/><text fill="#000000" font-family="sans-serif" font-size="14" lengthAdjust="spacing" textLength="145" x="12" y="376.0098">STEP Crash Prediction</text><rect fill="#E2E2F0" height="31.6094" rx="2.5" ry="2.5" style="stroke:#181818;stroke-width:0.5;" width="90" x="174" y="5"/><text fill="#000000" font-family="sans-serif" font-size="14" lengthAdjust="spacing" textLength="76" x="181" y="26.5332">STEP Client</text><rect fill="#E2E2F0" height="31.6094" rx="2.5" ry="2.5" style="stroke:#181818;stroke-width:0.5;" width="90" x="174" y="354.4766"/><text fill="#000000" font-family="sans-serif" font-size="14" lengthAdjust="spacing" textLength="76" x="181" y="376.0098">STEP Client</text><rect fill="#E2E2F0" height="31.6094" rx="2.5" ry="2.5" style="stroke:#181818;stroke-width:0.5;" width="182" x="274" y="5"/><text fill="#000000" font-family="sans-serif" font-size="14" lengthAdjust="spacing" textLength="168" x="281" y="26.5332">StepProducerRedisStream</text><rect fill="#E2E2F0" height="31.6094" rx="2.5" ry="2.5" style="stroke:#181818;stroke-width:0.5;" width="182" x="274" y="354.4766"/><text fill="#000000" font-family="sans-serif" font-size="14" lengthAdjust="spacing" textLength="168" x="281" y="376.0098">StepProducerRedisStream</text><rect fill="#E2E2F0" height="31.6094" rx="2.5" ry="2.5" style="stroke:#181818;stroke-width:0.5;" width="143" x="466" y="5"/><text fill="#000000" font-family="sans-serif" font-size="14" lengthAdjust="spacing" textLength="129" x="473" y="26.5332">DenServiceManager</text><rect fill="#E2E2F0" height="31.6094" rx="2.5" ry="2.5" style="stroke:#181818;stroke-width:0.5;" width="143" x="466" y="354.4766"/><text fill="#000000" font-family="sans-serif" font-size="14" lengthAdjust="spacing" textLength="129" x="473" y="376.0098">DenServiceManager</text><rect fill="#E2E2F0" height="31.6094" rx="2.5" ry="2.5" style="stroke:#181818;stroke-width:0.5;" width="173" x="619" y="5"/><text fill="#000000" font-family="sans-serif" font-size="14" lengthAdjust="spacing" textLength="159" x="626" y="26.5332">DenServiceDataManager</text><rect fill="#E2E2F0" height="31.6094" rx="2.5" ry="2.5" style="stroke:#181818;stroke-width:0.5;" width="173" x="619" y="354.4766"/><text fill="#000000" font-family="sans-serif" font-size="14" lengthAdjust="spacing" textLength="159" x="626" y="376.0098">DenServiceDataManager</text><polygon fill="#181818" points="353,65.9609,363,69.9609,353,73.9609,357,69.9609" style="stroke:#181818;stroke-width:1.0;"/><line style="stroke:#181818;stroke-width:1.0;" x1="84.5" x2="359" y1="69.9609" y2="69.9609"/><text fill="#000000" font-family="sans-serif" font-size="13" lengthAdjust="spacing" textLength="70" x="91.5" y="65.1045">Crash Event</text><polygon fill="#181818" points="525.5,96.3125,535.5,100.3125,525.5,104.3125,529.5,100.3125" style="stroke:#181818;stroke-width:1.0;"/><line style="stroke:#181818;stroke-width:1.0;" x1="365" x2="531.5" y1="100.3125" y2="100.3125"/><text fill="#000000" font-family="sans-serif" font-size="13" lengthAdjust="spacing" textLength="70" x="372" y="95.4561">Crash Event</text><polygon fill="#181818" points="693.5,126.6641,703.5,130.6641,693.5,134.6641,697.5,130.6641" style="stroke:#181818;stroke-width:1.0;"/><line style="stroke:#181818;stroke-width:1.0;" x1="537.5" x2="699.5" y1="130.6641" y2="130.6641"/><text fill="#000000" font-family="sans-serif" font-size="13" lengthAdjust="spacing" textLength="70" x="544.5" y="125.8076">Crash Event</text><path d="M601,143.6641 L601,218.6641 L809,218.6641 L809,153.6641 L799,143.6641 L601,143.6641 " fill="#FEFFDD" style="stroke:#181818;stroke-width:0.5;"/><path d="M799,143.6641 L799,153.6641 L809,153.6641 L799,143.6641 " fill="#FEFFDD" style="stroke:#181818;stroke-width:0.5;"/><text fill="#000000" font-family="sans-serif" font-size="13" lengthAdjust="spacing" textLength="178" x="607" y="162.1592">Check the if all DENMs related</text><text fill="#000000" font-family="sans-serif" font-size="13" lengthAdjust="spacing" textLength="149" x="607" y="178.5107">to this foreseen is already</text><text fill="#000000" font-family="sans-serif" font-size="13" lengthAdjust="spacing" textLength="47" x="607" y="194.8623">created.</text><text fill="#000000" font-family="sans-serif" font-size="13" lengthAdjust="spacing" textLength="187" x="607" y="211.2139">Generate new or updated DENM</text><polygon fill="#181818" points="548.5,242.4219,538.5,246.4219,548.5,250.4219,544.5,246.4219" style="stroke:#181818;stroke-width:1.0;"/><line style="stroke:#181818;stroke-width:1.0;" x1="542.5" x2="704.5" y1="246.4219" y2="246.4219"/><text fill="#000000" font-family="sans-serif" font-size="13" lengthAdjust="spacing" textLength="77" x="554.5" y="241.5654">List of DENM</text><polygon fill="#181818" points="376,272.7734,366,276.7734,376,280.7734,372,276.7734" style="stroke:#181818;stroke-width:1.0;"/><line style="stroke:#181818;stroke-width:1.0;" x1="370" x2="536.5" y1="276.7734" y2="276.7734"/><text fill="#000000" font-family="sans-serif" font-size="13" lengthAdjust="spacing" textLength="77" x="382" y="271.917">List of DENM</text><polygon fill="#181818" points="230,303.125,220,307.125,230,311.125,226,307.125" style="stroke:#181818;stroke-width:1.0;"/><line style="stroke:#181818;stroke-width:1.0;" x1="224" x2="364" y1="307.125" y2="307.125"/><text fill="#000000" font-family="sans-serif" font-size="13" lengthAdjust="spacing" textLength="52" x="236" y="302.2686">DENM_1</text><polygon fill="#181818" points="230,333.4766,220,337.4766,230,341.4766,226,337.4766" style="stroke:#181818;stroke-width:1.0;"/><line style="stroke:#181818;stroke-width:1.0;" x1="224" x2="364" y1="337.4766" y2="337.4766"/><text fill="#000000" font-family="sans-serif" font-size="13" lengthAdjust="spacing" textLength="52" x="236" y="332.6201">DENM_n</text><!--SRC=[VPAnJiGm38RtFeLrEqYi32pNYeL35ML7LkBIYE94Zg-8joTfJxeq23RR_-VujvM0eiwuWAnm65wx7ew2SO9Uo3gZplC1C6x5Qwq9lzjcHwmRl8OLenHwyVPiI5xICt5G8VnS-IBVDxN40ydY39sGyPranLFralv5jwXOTHIbfgcsWPk7qWFSNsxGBNcDKadWTNh55SA65IChbBqI-2NLAsS0S9p8V81E16u4d6Tek-TJ1A4PbMmcr2VPHHYzK2HYI37EoP_zph99KI9lS_n8J98oOFe2Bt0EDclhcmsnXUoagRpMIpwvgE37hMc_vVvgEx0ws_Od4fJ5jxl_PVu1]--></g></svg>