<?plantuml 1.2026.1?><svg xmlns="http://www.w3.org/2000/svg" xmlns:xlink="http://www.w3.org/1999/xlink" contentStyleType="text/css" data-diagram-type="CLASS" height="1226px" preserveAspectRatio="none" style="width:1040px;height:1226px;background:#FFFFFF;" version="1.1" viewBox="0 0 1040 1226" width="1040px" zoomAndPan="magnify"><defs/><g><!--cluster step_redis--><g class="cluster" data-qualified-name="step_redis" data-source-line="56" id="ent0005"><path d="M13.5,350.5 L95.5947,350.5 A3.75,3.75 0 0 1 98.0947,353 L105.0947,372.7969 L641.5,372.7969 A2.5,2.5 0 0 1 644,375.2969 L644,865.5 A2.5,2.5 0 0 1 641.5,868 L13.5,868 A2.5,2.5 0 0 1 11,865.5 L11,353 A2.5,2.5 0 0 1 13.5,350.5" fill="#FFFFFF" style="stroke:#000000;stroke-width:1;"/><line style="stroke:#000000;stroke-width:1;" x1="11" x2="105.0947" y1="372.7969" y2="372.7969"/><text fill="#000000" font-family="Verdana" font-size="14" font-weight="bold" lengthAdjust="spacing" textLength="81.0947" x="15" y="365.4951">step_redis</text></g><!--class StepRedisPool--><g class="entity" data-qualified-name="step_redis.StepRedisPool" data-source-line="57" id="ent0006"><rect fill="#FFFFFF" height="92.8906" rx="2.5" ry="2.5" style="stroke:#000000;stroke-width:1;" width="142.833" x="81.5" y="734.5"/><ellipse cx="101.2874" cy="748.5" fill="#FFFFFF" rx="9" ry="9" style="stroke:#000000;stroke-width:1;"/><path d="M104.2561,754.1406 Q103.678,754.4375 103.0374,754.5781 Q102.3967,754.7344 101.6936,754.7344 Q99.1936,754.7344 97.8655,753.0938 Q96.553,751.4375 96.553,748.3125 Q96.553,745.1875 97.8655,743.5313 Q99.1936,741.875 101.6936,741.875 Q102.3967,741.875 103.0374,742.0313 Q103.6936,742.1875 104.2561,742.4844 L104.2561,745.2031 Q103.6311,744.625 103.0374,744.3594 Q102.4436,744.0781 101.8186,744.0781 Q100.4749,744.0781 99.7874,745.1563 Q99.0999,746.2188 99.0999,748.3125 Q99.0999,750.4063 99.7874,751.4844 Q100.4749,752.5469 101.8186,752.5469 Q102.4436,752.5469 103.0374,752.2813 Q103.6311,752 104.2561,751.4219 L104.2561,754.1406 Z " fill="#000000"/><text fill="#000000" font-family="Verdana" font-size="14" lengthAdjust="spacing" textLength="99.75" x="114.7957" y="753.3467">StepRedisPool</text><line style="stroke:#000000;stroke-width:1;" x1="82.5" x2="223.333" y1="762.5" y2="762.5"/><text fill="#000000" font-family="Verdana" font-size="14" lengthAdjust="spacing" textLength="61.8721" x="87.5" y="779.4951">+__init__</text><text fill="#000000" font-family="Verdana" font-size="14" lengthAdjust="spacing" textLength="130.833" x="87.5" y="795.792">+async __aenter__</text><text fill="#000000" font-family="Verdana" font-size="14" lengthAdjust="spacing" textLength="119.7656" x="87.5" y="812.0889">+async __aexit__</text><line style="stroke:#000000;stroke-width:1;" x1="82.5" x2="223.333" y1="819.3906" y2="819.3906"/></g><!--class StepRedisStream--><g class="entity" data-qualified-name="step_redis.StepRedisStream" data-source-line="63" id="ent0007"><rect fill="#FFFFFF" height="141.7813" rx="2.5" ry="2.5" style="stroke:#000000;stroke-width:1;" width="213.0381" x="259.5" y="710"/><ellipse cx="301.6445" cy="724" fill="#FFFFFF" rx="9" ry="9" style="stroke:#000000;stroke-width:1;"/><path d="M304.6133,729.6406 Q304.0352,729.9375 303.3945,730.0781 Q302.7539,730.2344 302.0508,730.2344 Q299.5508,730.2344 298.2227,728.5938 Q296.9102,726.9375 296.9102,723.8125 Q296.9102,720.6875 298.2227,719.0313 Q299.5508,717.375 302.0508,717.375 Q302.7539,717.375 303.3945,717.5313 Q304.0508,717.6875 304.6133,717.9844 L304.6133,720.7031 Q303.9883,720.125 303.3945,719.8594 Q302.8008,719.5781 302.1758,719.5781 Q300.832,719.5781 300.1445,720.6563 Q299.457,721.7188 299.457,723.8125 Q299.457,725.9063 300.1445,726.9844 Q300.832,728.0469 302.1758,728.0469 Q302.8008,728.0469 303.3945,727.7813 Q303.9883,727.5 304.6133,726.9219 L304.6133,729.6406 Z " fill="#000000"/><text fill="#000000" font-family="Verdana" font-size="14" lengthAdjust="spacing" textLength="121.249" x="319.1445" y="728.8467">StepRedisStream</text><line style="stroke:#000000;stroke-width:1;" x1="260.5" x2="471.5381" y1="738" y2="738"/><text fill="#000000" font-family="Verdana" font-size="14" lengthAdjust="spacing" textLength="61.8721" x="265.5" y="754.9951">+__init__</text><text fill="#000000" font-family="Verdana" font-size="14" lengthAdjust="spacing" textLength="130.833" x="265.5" y="771.292">+async __aenter__</text><text fill="#000000" font-family="Verdana" font-size="14" lengthAdjust="spacing" textLength="119.7656" x="265.5" y="787.5889">+async __aexit__</text><text fill="#000000" font-family="Verdana" font-size="14" lengthAdjust="spacing" textLength="201.0381" x="265.5" y="803.8857">+async create_input_stream</text><text fill="#000000" font-family="Verdana" font-size="14" lengthAdjust="spacing" textLength="177.4199" x="265.5" y="820.1826">+async publish_message</text><text fill="#000000" font-family="Verdana" font-size="14" lengthAdjust="spacing" textLength="178.2949" x="265.5" y="836.4795">+async receive_message</text><line style="stroke:#000000;stroke-width:1;" x1="260.5" x2="471.5381" y1="843.7813" y2="843.7813"/></g><!--class StepAdapterRedisStream--><g class="entity" data-qualified-name="step_redis.StepAdapterRedisStream" data-source-line="72" id="ent0008"><rect fill="#FFFFFF" height="109.1875" rx="2.5" ry="2.5" style="stroke:#000000;stroke-width:1;" width="252.085" x="376" y="385.5"/><ellipse cx="410.1715" cy="399.5" fill="#FFFFFF" rx="9" ry="9" style="stroke:#000000;stroke-width:1;"/><path d="M413.1403,405.1406 Q412.5622,405.4375 411.9215,405.5781 Q411.2809,405.7344 410.5778,405.7344 Q408.0778,405.7344 406.7497,404.0938 Q405.4372,402.4375 405.4372,399.3125 Q405.4372,396.1875 406.7497,394.5313 Q408.0778,392.875 410.5778,392.875 Q411.2809,392.875 411.9215,393.0313 Q412.5778,393.1875 413.1403,393.4844 L413.1403,396.2031 Q412.5153,395.625 411.9215,395.3594 Q411.3278,395.0781 410.7028,395.0781 Q409.359,395.0781 408.6715,396.1563 Q407.984,397.2188 407.984,399.3125 Q407.984,401.4063 408.6715,402.4844 Q409.359,403.5469 410.7028,403.5469 Q411.3278,403.5469 411.9215,403.2813 Q412.5153,403 413.1403,402.4219 L413.1403,405.1406 Z " fill="#000000"/><text fill="#000000" font-family="Verdana" font-size="14" lengthAdjust="spacing" textLength="177.0371" x="426.8763" y="404.3467">StepAdapterRedisStream</text><line style="stroke:#000000;stroke-width:1;" x1="377" x2="627.085" y1="413.5" y2="413.5"/><text fill="#000000" font-family="Verdana" font-size="14" lengthAdjust="spacing" textLength="61.8721" x="382" y="430.4951">+__init__</text><text fill="#000000" font-family="Verdana" font-size="14" lengthAdjust="spacing" textLength="130.833" x="382" y="446.792">+async __aenter__</text><text fill="#000000" font-family="Verdana" font-size="14" lengthAdjust="spacing" textLength="214.334" x="382" y="463.0889">+async publish_cam_message</text><text fill="#000000" font-family="Verdana" font-size="14" lengthAdjust="spacing" textLength="240.085" x="382" y="479.3857">+async receive_adapter_message</text><line style="stroke:#000000;stroke-width:1;" x1="377" x2="627.085" y1="486.6875" y2="486.6875"/></g><!--class StepCrashPredictionRedisStream--><g class="entity" data-qualified-name="step_redis.StepCrashPredictionRedisStream" data-source-line="79" id="ent0009"><rect fill="#FFFFFF" height="109.1875" rx="2.5" ry="2.5" style="stroke:#000000;stroke-width:1;" width="313.041" x="27.5" y="385.5"/><ellipse cx="64.5354" cy="399.5" fill="#FFFFFF" rx="9" ry="9" style="stroke:#000000;stroke-width:1;"/><path d="M67.5042,405.1406 Q66.9261,405.4375 66.2854,405.5781 Q65.6448,405.7344 64.9417,405.7344 Q62.4417,405.7344 61.1136,404.0938 Q59.8011,402.4375 59.8011,399.3125 Q59.8011,396.1875 61.1136,394.5313 Q62.4417,392.875 64.9417,392.875 Q65.6448,392.875 66.2854,393.0313 Q66.9417,393.1875 67.5042,393.4844 L67.5042,396.2031 Q66.8792,395.625 66.2854,395.3594 Q65.6917,395.0781 65.0667,395.0781 Q63.7229,395.0781 63.0354,396.1563 Q62.3479,397.2188 62.3479,399.3125 Q62.3479,401.4063 63.0354,402.4844 Q63.7229,403.5469 65.0667,403.5469 Q65.6917,403.5469 66.2854,403.2813 Q66.8792,403 67.5042,402.4219 L67.5042,405.1406 Z " fill="#000000"/><text fill="#000000" font-family="Verdana" font-size="14" lengthAdjust="spacing" textLength="231.6289" x="81.8767" y="404.3467">StepCrashPredictionRedisStream</text><line style="stroke:#000000;stroke-width:1;" x1="28.5" x2="339.541" y1="413.5" y2="413.5"/><text fill="#000000" font-family="Verdana" font-size="14" lengthAdjust="spacing" textLength="61.8721" x="33.5" y="430.4951">+__init__</text><text fill="#000000" font-family="Verdana" font-size="14" lengthAdjust="spacing" textLength="130.833" x="33.5" y="446.792">+async __aenter__</text><text fill="#000000" font-family="Verdana" font-size="14" lengthAdjust="spacing" textLength="213.9102" x="33.5" y="463.0889">+async publish_position_array</text><text fill="#000000" font-family="Verdana" font-size="14" lengthAdjust="spacing" textLength="301.041" x="33.5" y="479.3857">+async receive_crash_prediction_message</text><line style="stroke:#000000;stroke-width:1;" x1="28.5" x2="339.541" y1="486.6875" y2="486.6875"/></g><!--class ActorDataset--><g class="entity" data-qualified-name="ActorDataset" data-source-line="4" id="ent0002"><rect fill="#FFFFFF" height="158.0781" rx="2.5" ry="2.5" style="stroke:#000000;stroke-width:1;" width="219.7852" x="569" y="12"/><ellipse cx="629.188" cy="26" fill="#FFFFFF" rx="9" ry="9" style="stroke:#000000;stroke-width:1;"/><path d="M632.1567,31.6406 Q631.5786,31.9375 630.938,32.0781 Q630.2974,32.2344 629.5942,32.2344 Q627.0942,32.2344 625.7661,30.5938 Q624.4536,28.9375 624.4536,25.8125 Q624.4536,22.6875 625.7661,21.0313 Q627.0942,19.375 629.5942,19.375 Q630.2974,19.375 630.938,19.5313 Q631.5942,19.6875 632.1567,19.9844 L632.1567,22.7031 Q631.5317,22.125 630.938,21.8594 Q630.3442,21.5781 629.7192,21.5781 Q628.3755,21.5781 627.688,22.6563 Q627.0005,23.7188 627.0005,25.8125 Q627.0005,27.9063 627.688,28.9844 Q628.3755,30.0469 629.7192,30.0469 Q630.3442,30.0469 630.938,29.7813 Q631.5317,29.5 632.1567,28.9219 L632.1567,31.6406 Z " fill="#000000"/><text fill="#000000" font-family="Verdana" font-size="14" lengthAdjust="spacing" textLength="91.9092" x="646.688" y="30.8467">ActorDataset</text><line style="stroke:#000000;stroke-width:1;" x1="570" x2="787.7852" y1="40" y2="40"/><text fill="#000000" font-family="Verdana" font-size="14" lengthAdjust="spacing" textLength="108.0693" x="575" y="56.9951">-_actor_dataset</text><text fill="#000000" font-family="Verdana" font-size="14" lengthAdjust="spacing" textLength="207.7852" x="575" y="73.292">-_last_ordered_recorded_time</text><text fill="#000000" font-family="Verdana" font-size="14" lengthAdjust="spacing" textLength="54.8926" x="575" y="89.5889">-_config</text><text fill="#000000" font-family="Verdana" font-size="14" lengthAdjust="spacing" textLength="56.6494" x="575" y="105.8857">-_logger</text><text fill="#000000" font-family="Verdana" font-size="14" lengthAdjust="spacing" textLength="61.8721" x="575" y="122.1826">+__init__</text><text fill="#000000" font-family="Verdana" font-size="14" lengthAdjust="spacing" textLength="144.915" x="575" y="138.4795">+add_cam_message</text><text fill="#000000" font-family="Verdana" font-size="14" lengthAdjust="spacing" textLength="124.6055" x="575" y="154.7764">+clear_old_points</text><line style="stroke:#000000;stroke-width:1;" x1="570" x2="787.7852" y1="162.0781" y2="162.0781"/></g><!--class PointDataset--><g class="entity" data-qualified-name="PointDataset" data-source-line="14" id="ent0003"><rect fill="#FFFFFF" height="386.2344" rx="2.5" ry="2.5" style="stroke:#000000;stroke-width:1;" width="245.2695" x="663.5" y="247"/><ellipse cx="737.3428" cy="261" fill="#FFFFFF" rx="9" ry="9" style="stroke:#000000;stroke-width:1;"/><path d="M740.3115,266.6406 Q739.7334,266.9375 739.0928,267.0781 Q738.4521,267.2344 737.749,267.2344 Q735.249,267.2344 733.9209,265.5938 Q732.6084,263.9375 732.6084,260.8125 Q732.6084,257.6875 733.9209,256.0313 Q735.249,254.375 737.749,254.375 Q738.4521,254.375 739.0928,254.5313 Q739.749,254.6875 740.3115,254.9844 L740.3115,257.7031 Q739.6865,257.125 739.0928,256.8594 Q738.499,256.5781 737.874,256.5781 Q736.5303,256.5781 735.8428,257.6563 Q735.1553,258.7188 735.1553,260.8125 Q735.1553,262.9063 735.8428,263.9844 Q736.5303,265.0469 737.874,265.0469 Q738.499,265.0469 739.0928,264.7813 Q739.6865,264.5 740.3115,263.9219 L740.3115,266.6406 Z " fill="#000000"/><text fill="#000000" font-family="Verdana" font-size="14" lengthAdjust="spacing" textLength="90.084" x="754.8428" y="265.8467">PointDataset</text><line style="stroke:#000000;stroke-width:1;" x1="664.5" x2="907.7695" y1="275" y2="275"/><text fill="#000000" font-family="Verdana" font-size="14" lengthAdjust="spacing" textLength="148.9209" x="669.5" y="291.9951">-_input_points_queue</text><text fill="#000000" font-family="Verdana" font-size="14" lengthAdjust="spacing" textLength="233.2695" x="669.5" y="308.292">-_np_input_points_timestamp_ms</text><text fill="#000000" font-family="Verdana" font-size="14" lengthAdjust="spacing" textLength="183.5313" x="669.5" y="324.5889">-_np_input_points_latitude</text><text fill="#000000" font-family="Verdana" font-size="14" lengthAdjust="spacing" textLength="195.7881" x="669.5" y="340.8857">-_np_input_points_longitude</text><text fill="#000000" font-family="Verdana" font-size="14" lengthAdjust="spacing" textLength="183.5313" x="669.5" y="357.1826">-_np_input_points_altitude</text><text fill="#000000" font-family="Verdana" font-size="14" lengthAdjust="spacing" textLength="113.5381" x="669.5" y="373.4795">-_vehicle_length</text><text fill="#000000" font-family="Verdana" font-size="14" lengthAdjust="spacing" textLength="107.502" x="669.5" y="389.7764">-_vehicle_width</text><text fill="#000000" font-family="Verdana" font-size="14" lengthAdjust="spacing" textLength="48.1387" x="669.5" y="406.0732">-_actor</text><text fill="#000000" font-family="Verdana" font-size="14" lengthAdjust="spacing" textLength="54.8926" x="669.5" y="422.3701">-_config</text><text fill="#000000" font-family="Verdana" font-size="14" lengthAdjust="spacing" textLength="56.6494" x="669.5" y="438.667">-_logger</text><text fill="#000000" font-family="Verdana" font-size="14" lengthAdjust="spacing" textLength="61.8721" x="669.5" y="454.9639">+__init__</text><text fill="#000000" font-family="Verdana" font-size="14" lengthAdjust="spacing" textLength="80.7871" x="669.5" y="471.2607">+add_point</text><text fill="#000000" font-family="Verdana" font-size="14" lengthAdjust="spacing" textLength="47.8174" x="669.5" y="487.5576">+actor</text><text fill="#000000" font-family="Verdana" font-size="14" lengthAdjust="spacing" textLength="113.2168" x="669.5" y="503.8545">+vehicle_length</text><text fill="#000000" font-family="Verdana" font-size="14" lengthAdjust="spacing" textLength="107.1807" x="669.5" y="520.1514">+vehicle_width</text><text fill="#000000" font-family="Verdana" font-size="14" lengthAdjust="spacing" textLength="127.8867" x="669.5" y="536.4482">+last_record_time</text><text fill="#000000" font-family="Verdana" font-size="14" lengthAdjust="spacing" textLength="200.5801" x="669.5" y="552.7451">-_create_interpolated_arrays</text><text fill="#000000" font-family="Verdana" font-size="14" lengthAdjust="spacing" textLength="211.7842" x="669.5" y="569.042">-_create_interpolated_position</text><text fill="#000000" font-family="Verdana" font-size="14" lengthAdjust="spacing" textLength="154.1094" x="669.5" y="585.3389">-_create_positions_list</text><text fill="#000000" font-family="Verdana" font-size="14" lengthAdjust="spacing" textLength="195.7949" x="669.5" y="601.6357">-_check_position_coherence</text><text fill="#000000" font-family="Verdana" font-size="14" lengthAdjust="spacing" textLength="101.7393" x="669.5" y="617.9326">-_clear_history</text><line style="stroke:#000000;stroke-width:1;" x1="664.5" x2="907.7695" y1="625.2344" y2="625.2344"/></g><!--class StepAdapterConfig--><g class="entity" data-qualified-name="StepAdapterConfig" data-source-line="38" id="ent0004"><rect fill="#FFFFFF" height="288.4531" rx="2.5" ry="2.5" style="stroke:#000000;stroke-width:1;" width="253.958" x="577" y="931"/><ellipse cx="633.9375" cy="945" fill="#FFFFFF" rx="9" ry="9" style="stroke:#000000;stroke-width:1;"/><path d="M636.9063,950.6406 Q636.3281,950.9375 635.6875,951.0781 Q635.0469,951.2344 634.3438,951.2344 Q631.8438,951.2344 630.5156,949.5938 Q629.2031,947.9375 629.2031,944.8125 Q629.2031,941.6875 630.5156,940.0313 Q631.8438,938.375 634.3438,938.375 Q635.0469,938.375 635.6875,938.5313 Q636.3438,938.6875 636.9063,938.9844 L636.9063,941.7031 Q636.2813,941.125 635.6875,940.8594 Q635.0938,940.5781 634.4688,940.5781 Q633.125,940.5781 632.4375,941.6563 Q631.75,942.7188 631.75,944.8125 Q631.75,946.9063 632.4375,947.9844 Q633.125,949.0469 634.4688,949.0469 Q635.0938,949.0469 635.6875,948.7813 Q636.2813,948.5 636.9063,947.9219 L636.9063,950.6406 Z " fill="#000000"/><text fill="#000000" font-family="Verdana" font-size="14" lengthAdjust="spacing" textLength="132.583" x="651.4375" y="949.8467">StepAdapterConfig</text><line style="stroke:#000000;stroke-width:1;" x1="578" x2="829.958" y1="959" y2="959"/><text fill="#000000" font-family="Verdana" font-size="14" lengthAdjust="spacing" textLength="127.4971" x="583" y="975.9951">+templateVersion</text><text fill="#000000" font-family="Verdana" font-size="14" lengthAdjust="spacing" textLength="220.623" x="583" y="992.292">+maxActorHistoryPointNumber</text><text fill="#000000" font-family="Verdana" font-size="14" lengthAdjust="spacing" textLength="120.8389" x="583" y="1008.5889">+inputMaxPeriod</text><text fill="#000000" font-family="Verdana" font-size="14" lengthAdjust="spacing" textLength="214.874" x="583" y="1024.8857">+inputLocalTimeMaxDeviation</text><text fill="#000000" font-family="Verdana" font-size="14" lengthAdjust="spacing" textLength="182.499" x="583" y="1041.1826">+inputOldestAllowedTime</text><text fill="#000000" font-family="Verdana" font-size="14" lengthAdjust="spacing" textLength="241.958" x="583" y="1057.4795">+outputNominalSampleFrequency</text><text fill="#000000" font-family="Verdana" font-size="14" lengthAdjust="spacing" textLength="197.9688" x="583" y="1073.7764">+outputPeriodMaxDeviation</text><text fill="#000000" font-family="Verdana" font-size="14" lengthAdjust="spacing" textLength="159.9678" x="583" y="1090.0732">+receiveClientNumber</text><text fill="#000000" font-family="Verdana" font-size="14" lengthAdjust="spacing" textLength="117.3662" x="583" y="1106.3701">+cleanerInterval</text><text fill="#000000" font-family="Verdana" font-size="14" lengthAdjust="spacing" textLength="135.5225" x="583" y="1122.667">+reconnectInterval</text><text fill="#000000" font-family="Verdana" font-size="14" lengthAdjust="spacing" textLength="46.1699" x="583" y="1138.9639">+redis</text><text fill="#000000" font-family="Verdana" font-size="14" lengthAdjust="spacing" textLength="33.0723" x="583" y="1155.2607">+log</text><text fill="#000000" font-family="Verdana" font-size="14" lengthAdjust="spacing" text-decoration="underline" textLength="90.9795" x="583" y="1171.5576">+get_default</text><text fill="#000000" font-family="Verdana" font-size="14" lengthAdjust="spacing" text-decoration="underline" textLength="156.1602" x="583" y="1187.8545">+print_config_schema</text><text fill="#000000" font-family="Verdana" font-size="14" lengthAdjust="spacing" text-decoration="underline" textLength="161.9707" x="583" y="1204.1514">+print_config_example</text><line style="stroke:#000000;stroke-width:1;" x1="578" x2="829.958" y1="1211.4531" y2="1211.4531"/></g><!--class StepLogger--><g class="entity" data-qualified-name="StepLogger" data-source-line="87" id="ent0010"><rect fill="#FFFFFF" height="76.5938" rx="2.5" ry="2.5" style="stroke:#000000;stroke-width:1;" width="153.0869" x="830.5" y="742.5"/><ellipse cx="863.6164" cy="756.5" fill="#FFFFFF" rx="9" ry="9" style="stroke:#000000;stroke-width:1;"/><path d="M866.5852,762.1406 Q866.007,762.4375 865.3664,762.5781 Q864.7258,762.7344 864.0227,762.7344 Q861.5227,762.7344 860.1945,761.0938 Q858.882,759.4375 858.882,756.3125 Q858.882,753.1875 860.1945,751.5313 Q861.5227,749.875 864.0227,749.875 Q864.7258,749.875 865.3664,750.0313 Q866.0227,750.1875 866.5852,750.4844 L866.5852,753.2031 Q865.9602,752.625 865.3664,752.3594 Q864.7727,752.0781 864.1477,752.0781 Q862.8039,752.0781 862.1164,753.1563 Q861.4289,754.2188 861.4289,756.3125 Q861.4289,758.4063 862.1164,759.4844 Q862.8039,760.5469 864.1477,760.5469 Q864.7727,760.5469 865.3664,760.2813 Q865.9602,760 866.5852,759.4219 L866.5852,762.1406 Z " fill="#000000"/><text fill="#000000" font-family="Verdana" font-size="14" lengthAdjust="spacing" textLength="80.3838" x="880.0867" y="761.3467">StepLogger</text><line style="stroke:#000000;stroke-width:1;" x1="831.5" x2="982.5869" y1="770.5" y2="770.5"/><text fill="#000000" font-family="Verdana" font-size="14" lengthAdjust="spacing" text-decoration="underline" textLength="86.3174" x="836.5" y="787.4951">+get_logger</text><text fill="#000000" font-family="Verdana" font-size="14" lengthAdjust="spacing" text-decoration="underline" textLength="141.0869" x="836.5" y="803.792">+logger_force_write</text><line style="stroke:#000000;stroke-width:1;" x1="831.5" x2="982.5869" y1="811.0938" y2="811.0938"/></g><!--link ActorDataset to PointDataset--><g class="link" data-entity-1="ent0002" data-entity-2="ent0003" data-link-type="dependency" data-source-line="92" id="lnk11"><path codeLine="92" d="M703.15,170.31 C710.27,193.39 716.6226,214.0062 724.9326,240.9662" fill="none" id="ActorDataset-to-PointDataset" style="stroke:#000000;stroke-width:1;"/><polygon fill="#000000" points="726.7,246.7,727.8715,236.9211,725.2272,241.9218,720.2264,239.2775,726.7,246.7" style="stroke:#000000;stroke-width:1;"/><text fill="#000000" font-family="Verdana" font-size="13" lengthAdjust="spacing" textLength="59.8584" x="717" y="213.0669">manages</text></g><!--link StepAdapterRedisStream to ActorDataset--><g class="link" data-entity-1="ent0008" data-entity-2="ent0002" data-link-type="dependency" data-source-line="93" id="lnk12"><path codeLine="93" d="M529.42,385.24 C558.77,327.7 602.8831,241.2145 636.3331,175.6545" fill="none" id="StepAdapterRedisStream-to-ActorDataset" style="stroke:#000000;stroke-width:1;"/><polygon fill="#000000" points="639.06,170.31,631.4066,176.5089,636.7876,174.7638,638.5327,180.1447,639.06,170.31" style="stroke:#000000;stroke-width:1;"/><text fill="#000000" font-family="Verdana" font-size="13" lengthAdjust="spacing" textLength="65.7871" x="622" y="213.0669">consumes</text></g><!--link ActorDataset to StepCrashPredictionRedisStream--><g class="link" data-entity-1="ent0002" data-entity-2="ent0009" data-link-type="dependency" data-source-line="94" id="lnk13"><path codeLine="94" d="M568.71,132.82 C503.88,159.75 422.3,198.91 358,247 C305.23,286.47 259.5644,338.9223 226.9944,380.6023" fill="none" id="ActorDataset-to-StepCrashPredictionRedisStream" style="stroke:#000000;stroke-width:1;"/><polygon fill="#000000" points="223.3,385.33,231.9934,380.7013,226.3787,381.3902,225.6898,375.7755,223.3,385.33" style="stroke:#000000;stroke-width:1;"/><text fill="#000000" font-family="Verdana" font-size="13" lengthAdjust="spacing" textLength="78.9331" x="424" y="213.0669">publishes to</text></g><!--link ActorDataset to StepLogger--><g class="link" data-entity-1="ent0002" data-entity-2="ent0010" data-link-type="dependency" data-source-line="95" id="lnk14"><path codeLine="95" d="M789.11,132.45 C840.08,157.26 895.9,194.52 926,247 C1019.64,410.24 954.5589,644.5753 922.9689,736.5553" fill="none" id="ActorDataset-to-StepLogger" style="stroke:#000000;stroke-width:1;"/><polygon fill="#000000" points="921.02,742.23,927.7265,735.0173,922.6441,737.5011,920.1603,732.4187,921.02,742.23" style="stroke:#000000;stroke-width:1;"/><text fill="#000000" font-family="Verdana" font-size="13" lengthAdjust="spacing" textLength="58.3032" x="974" y="444.5669">logs with</text></g><!--link PointDataset to StepLogger--><g class="link" data-entity-1="ent0003" data-entity-2="ent0010" data-link-type="dependency" data-source-line="97" id="lnk15"><path codeLine="97" d="M854.63,633.28 C869.51,674.97 881.7133,709.1491 891.5633,736.7491" fill="none" id="PointDataset-to-StepLogger" style="stroke:#000000;stroke-width:1;"/><polygon fill="#000000" points="893.58,742.4,894.3222,732.5791,891.8994,737.6909,886.7876,735.2681,893.58,742.4" style="stroke:#000000;stroke-width:1;"/><text fill="#000000" font-family="Verdana" font-size="13" lengthAdjust="spacing" textLength="58.3032" x="872" y="676.0669">logs with</text></g><!--link StepAdapterRedisStream to StepRedisPool--><g class="link" data-entity-1="ent0008" data-entity-2="ent0006" data-link-type="dependency" data-source-line="99" id="lnk16"><path codeLine="99" d="M467.15,494.8 C439.86,534.97 399.66,590.11 358,633 C334.64,657.05 327.07,661.67 299,680 C275.03,695.65 266.02,694.42 242,710 C230.62,717.38 223.6725,722.2205 212.6325,730.6805" fill="none" id="StepAdapterRedisStream-to-StepRedisPool" style="stroke:#000000;stroke-width:1;"/><polygon fill="#000000" points="207.87,734.33,217.4467,732.0307,211.8387,731.2887,212.5807,725.6808,207.87,734.33" style="stroke:#000000;stroke-width:1;"/><text fill="#000000" font-family="Verdana" font-size="13" lengthAdjust="spacing" textLength="29.7832" x="326" y="676.0669">uses</text></g><!--link StepCrashPredictionRedisStream to StepRedisPool--><g class="link" data-entity-1="ent0009" data-entity-2="ent0006" data-link-type="dependency" data-source-line="100" id="lnk17"><path codeLine="100" d="M179.09,494.72 C173.04,560.9 163.4065,666.2249 157.7165,728.4349" fill="none" id="StepCrashPredictionRedisStream-to-StepRedisPool" style="stroke:#000000;stroke-width:1;"/><polygon fill="#000000" points="157.17,734.41,161.9731,725.8117,157.6254,729.4308,154.0064,725.0831,157.17,734.41" style="stroke:#000000;stroke-width:1;"/><text fill="#000000" font-family="Verdana" font-size="13" lengthAdjust="spacing" textLength="29.7832" x="165" y="676.0669">uses</text></g><!--link StepAdapterRedisStream to StepAdapterConfig--><g class="link" data-entity-1="ent0008" data-entity-2="ent0004" data-link-type="dependency" data-source-line="101" id="lnk18"><path codeLine="101" d="M536.34,494.67 C568.53,547.43 615.54,631.28 642,710 C665.8,780.79 679.9612,856.5848 689.2212,924.6548" fill="none" id="StepAdapterRedisStream-to-StepAdapterConfig" style="stroke:#000000;stroke-width:1;"/><polygon fill="#000000" points="690.03,930.6,692.7803,921.143,689.356,925.6456,684.8534,922.2213,690.03,930.6" style="stroke:#000000;stroke-width:1;"/><text fill="#000000" font-family="Verdana" font-size="13" lengthAdjust="spacing" textLength="89.6924" x="682" y="785.5669">configured by</text></g><!--link StepCrashPredictionRedisStream to StepAdapterConfig--><g class="link" data-entity-1="ent0009" data-entity-2="ent0004" data-link-type="dependency" data-source-line="102" id="lnk19"><path codeLine="102" d="M219.44,494.91 C250.84,538.47 300.52,598.08 358,633 C402.78,660.2 433,628.02 472,663 C546.28,729.63 495.52,788.23 543,876 C553.01,894.51 561.373,908.0802 574.023,925.8702" fill="none" id="StepCrashPredictionRedisStream-to-StepAdapterConfig" style="stroke:#000000;stroke-width:1;"/><polygon fill="#000000" points="577.5,930.76,575.5443,921.1073,574.6025,926.6852,569.0246,925.7433,577.5,930.76" style="stroke:#000000;stroke-width:1;"/><text fill="#000000" font-family="Verdana" font-size="13" lengthAdjust="spacing" textLength="89.6924" x="544" y="785.5669">configured by</text></g><!--link StepLogger to StepAdapterConfig--><g class="link" data-entity-1="ent0010" data-entity-2="ent0004" data-link-type="dependency" data-source-line="104" id="lnk20"><path codeLine="104" d="M880.88,819.58 C860.96,848.23 835.5952,884.7137 807.0052,925.8337" fill="none" id="StepLogger-to-StepAdapterConfig" style="stroke:#000000;stroke-width:1;"/><polygon fill="#000000" points="803.58,930.76,812.0019,925.654,806.4343,926.6548,805.4335,921.0871,803.58,930.76" style="stroke:#000000;stroke-width:1;"/><text fill="#000000" font-family="Verdana" font-size="13" lengthAdjust="spacing" textLength="89.6924" x="836" y="897.0669">configured by</text></g><!--link StepAdapterRedisStream to StepRedisStream--><g class="link" data-entity-1="ent0008" data-entity-2="ent0007" data-link-type="extension" data-source-line="106" id="lnk21"><path codeLine="106" d="M480.45,494.72 C457.12,552.87 426.5122,629.1543 400.8722,693.0643" fill="none" id="StepAdapterRedisStream-to-StepRedisStream" style="stroke:#000000;stroke-width:1;"/><polygon fill="none" points="394.17,709.77,406.4407,695.2983,395.3036,690.8302,394.17,709.77" style="stroke:#000000;stroke-width:1;"/><text fill="#000000" font-family="Verdana" font-size="13" lengthAdjust="spacing" textLength="52.0508" x="411" y="676.0669">extends</text></g><!--link StepCrashPredictionRedisStream to StepRedisStream--><g class="link" data-entity-1="ent0009" data-entity-2="ent0007" data-link-type="extension" data-source-line="107" id="lnk22"><path codeLine="107" d="M186.84,494.72 C191.74,545.87 205.02,623.26 241,680 C247.7,690.56 243.334,687.6122 252.314,696.8222" fill="none" id="StepCrashPredictionRedisStream-to-StepRedisStream" style="stroke:#000000;stroke-width:1;"/><polygon fill="none" points="264.88,709.71,256.61,692.6335,248.0181,701.0108,264.88,709.71" style="stroke:#000000;stroke-width:1;"/><text fill="#000000" font-family="Verdana" font-size="13" lengthAdjust="spacing" textLength="52.0508" x="242" y="676.0669">extends</text></g><?plantuml-src hLLDRzim3BtxLsYz6WLspg50q6BOWAuBbc9NWP7OMAWiUPAS9klwtqV9Tc8bgTS2lLdyq2FvdkXFeS8QMQD1cS8_AjE0Wve93TxFGt1grGRy9gnPgZ_8FXT5yh2v2DRTG02FWJqNZB5B3j76PMViJ1GRk7KI7KhkKCHFoOEgiVFJlGzgtSVQzHfT_2uvLqO5pjC1fEG2QbwZzx1EYQNG28vRBNbZbGc-U1aAMyJpKM7KL1lwIFwxnRP7DqtkYdNv07N3Qty-GaDGePMlv6jhrXDkqEFa3LQAsk0QpJfKkUr9oS6KXlg-OIMuxZGabwTevGbOcTZgM1fpv1024aX0rrYQ0348pi7El-vlh5T1MPD534OQbFAzG4I5ud7leHOhaeeH0tIYkQ9ewtO7ZfS1cxc4XW2lqqmweik0THFnVw7pFNXPmpPfzMjtIPB7NLkl-k4bWhx3Te5EMNamtLe1-fvcGBuRt2WOkkdSFxGafSorjayex_jHbRODvBkpjJAWbwGZZLySak2Cs8q2EgoJYsdmg3PuhHLc9SOX67JVudmte8TOQmoAS6ILodTCsgIJyfda79HuOMiCNE83j3haZiRHG7ffSKzqr30HWDlKLQIY0V58pv5TU6A39-YBZeS3IJ-ZTM6jxXp7QaqIzJiZ6EU0iPDpzkqGJg2djoy3YQl-aFiFvhsau-lr2I4FQDeLQRWQxwI3ioTox3mklLVl1tGmL7Aq8K-hWGvoggfh1xvQH2f5LEK7LhT_u6bnd2zGH7JUxE7pIhF7VvksN__gCusFzkBUtjduWtM2jfrJ8Uat-uDTNbxbVuuPgy4Gk2zUeIjcP5VC6BqHtrBHfrV_PxYpOKxeMR3dq_kMPx4RpvuKhUmYgtWgSAA7_9dEMElxdYVgdSoRmCbtTXeOVRI4mLQxju9ENrACHl2EZBD5_xqwMJCpXjk0HhvXH5FP_m00?></g></svg>