<?xml version="1.0" encoding="us-ascii" standalone="no"?><svg xmlns="http://www.w3.org/2000/svg" xmlns:xlink="http://www.w3.org/1999/xlink" contentStyleType="text/css" height="592px" preserveAspectRatio="none" style="width:729px;height:592px;background:#FFFFFF;" version="1.1" viewBox="0 0 729 592" width="729px" zoomAndPan="magnify"><defs/><g><!--cluster STEP Client--><g id="cluster_STEP Client"><path d="M177.5,96 L258.5,96 A3.75,3.75 0 0 1 261,98.5 L268,119.6094 L555.5,119.6094 A2.5,2.5 0 0 1 558,122.1094 L558,582.5 A2.5,2.5 0 0 1 555.5,585 L177.5,585 A2.5,2.5 0 0 1 175,582.5 L175,98.5 A2.5,2.5 0 0 1 177.5,96 " fill="none" style="stroke:#000000;stroke-width:1.5;"/><line style="stroke:#000000;stroke-width:1.5;" x1="175" x2="268" y1="119.6094" y2="119.6094"/><text fill="#000000" font-family="sans-serif" font-size="14" font-weight="bold" lengthAdjust="spacing" textLength="80" x="179" y="112.5332">STEP Client</text></g><!--entity GW--><g id="elem_GW"><rect fill="#F1F1F1" height="47.6094" rx="2.5" ry="2.5" style="stroke:#181818;stroke-width:0.5;" width="89" x="406.5" y="263.5"/><rect fill="#F1F1F1" height="10" style="stroke:#181818;stroke-width:0.5;" width="15" x="475.5" y="268.5"/><rect fill="#F1F1F1" height="2" style="stroke:#181818;stroke-width:0.5;" width="4" x="473.5" y="270.5"/><rect fill="#F1F1F1" height="2" style="stroke:#181818;stroke-width:0.5;" width="4" x="473.5" y="274.5"/><text fill="#000000" font-family="sans-serif" font-size="14" lengthAdjust="spacing" textLength="49" x="421.5" y="298.0332">StepGw</text></g><!--entity Config--><g id="elem_Config"><rect fill="#F1F1F1" height="47.6094" rx="2.5" ry="2.5" style="stroke:#181818;stroke-width:0.5;" width="110" x="266" y="132"/><rect fill="#F1F1F1" height="10" style="stroke:#181818;stroke-width:0.5;" width="15" x="356" y="137"/><rect fill="#F1F1F1" height="2" style="stroke:#181818;stroke-width:0.5;" width="4" x="354" y="139"/><rect fill="#F1F1F1" height="2" style="stroke:#181818;stroke-width:0.5;" width="4" x="354" y="143"/><text fill="#000000" font-family="sans-serif" font-size="14" lengthAdjust="spacing" textLength="70" x="281" y="166.5332">StepConfig</text></g><!--entity RedisPool--><g id="elem_RedisPool"><rect fill="#F1F1F1" height="47.6094" rx="2.5" ry="2.5" style="stroke:#181818;stroke-width:0.5;" width="169" x="199.5" y="521"/><rect fill="#F1F1F1" height="10" style="stroke:#181818;stroke-width:0.5;" width="15" x="348.5" y="526"/><rect fill="#F1F1F1" height="2" style="stroke:#181818;stroke-width:0.5;" width="4" x="346.5" y="528"/><rect fill="#F1F1F1" height="2" style="stroke:#181818;stroke-width:0.5;" width="4" x="346.5" y="532"/><text fill="#000000" font-family="sans-serif" font-size="14" lengthAdjust="spacing" textLength="129" x="214.5" y="555.5332">StepClientRedisPool</text></g><!--entity RedisStream--><g id="elem_RedisStream"><rect fill="#F1F1F1" height="47.6094" rx="2.5" ry="2.5" style="stroke:#181818;stroke-width:0.5;" width="186" x="191" y="395"/><rect fill="#F1F1F1" height="10" style="stroke:#181818;stroke-width:0.5;" width="15" x="357" y="400"/><rect fill="#F1F1F1" height="2" style="stroke:#181818;stroke-width:0.5;" width="4" x="355" y="402"/><rect fill="#F1F1F1" height="2" style="stroke:#181818;stroke-width:0.5;" width="4" x="355" y="406"/><text fill="#000000" font-family="sans-serif" font-size="14" lengthAdjust="spacing" textLength="146" x="206" y="429.5332">StepClientRedisStream</text></g><!--entity Logger--><g id="elem_Logger"><rect fill="#F1F1F1" height="47.6094" rx="2.5" ry="2.5" style="stroke:#181818;stroke-width:0.5;" width="114" x="411" y="132"/><rect fill="#F1F1F1" height="10" style="stroke:#181818;stroke-width:0.5;" width="15" x="505" y="137"/><rect fill="#F1F1F1" height="2" style="stroke:#181818;stroke-width:0.5;" width="4" x="503" y="139"/><rect fill="#F1F1F1" height="2" style="stroke:#181818;stroke-width:0.5;" width="4" x="503" y="143"/><text fill="#000000" font-family="sans-serif" font-size="14" lengthAdjust="spacing" textLength="74" x="426" y="166.5332">StepLogger</text></g><!--entity Exception--><g id="elem_Exception"><rect fill="#F1F1F1" height="47.6094" rx="2.5" ry="2.5" style="stroke:#181818;stroke-width:0.5;" width="130" x="412" y="395"/><rect fill="#F1F1F1" height="10" style="stroke:#181818;stroke-width:0.5;" width="15" x="522" y="400"/><rect fill="#F1F1F1" height="2" style="stroke:#181818;stroke-width:0.5;" width="4" x="520" y="402"/><rect fill="#F1F1F1" height="2" style="stroke:#181818;stroke-width:0.5;" width="4" x="520" y="406"/><text fill="#000000" font-family="sans-serif" font-size="14" lengthAdjust="spacing" textLength="90" x="427" y="429.5332">StepException</text></g><g id="elem_GMN9"><path d="M227,258 L227,317.0547 A0,0 0 0 0 227,317.0547 L371,317.0547 A0,0 0 0 0 371,317.0547 L371,291.5 L406.39,287.5 L371,283.5 L371,268 L361,258 L227,258 A0,0 0 0 0 227,258 " fill="#FEFFDD" style="stroke:#181818;stroke-width:0.5;"/><path d="M361,258 L361,268 L371,268 L361,258 " fill="#FEFFDD" style="stroke:#181818;stroke-width:0.5;"/><text fill="#000000" font-family="sans-serif" font-size="13" lengthAdjust="spacing" textLength="108" x="233" y="276.4951">Gateway for MQTT</text><text fill="#000000" font-family="sans-serif" font-size="13" lengthAdjust="spacing" textLength="88" x="233" y="292.8467">communication</text><text fill="#000000" font-family="sans-serif" font-size="13" lengthAdjust="spacing" textLength="123" x="233" y="309.1982">with the STEP broker</text></g><!--entity MQTT--><g id="elem_MQTT"><path d="M609.6341,272.1352 C613.291,266.2247 617.205,267.1608 620.9138,272.0811 C624.7099,265.3675 629.0657,264.5505 634.5212,270.2642 C636.6788,262.9049 642.5533,261.8543 647.12,268.02 C650.4654,262.3582 656.6093,261.4717 659.9782,267.9953 C663.3643,262.972 667.1988,262.5867 670.7409,267.8317 C675.2446,261.9249 682.3146,262.7133 684.9335,269.878 C689.5332,264.9592 694.2124,265.5129 696.4756,272.2013 C700.1589,266.7845 704.0344,266.4219 708.0902,271.8005 C719.5737,273.2544 722.4507,279.3072 717.1158,289.3907 C722.6531,298.2514 719.1913,302.9345 709.8403,304.7369 C705.9143,311.6062 701.1422,312.3449 696.0477,305.952 C693.7639,313.1925 687.7568,312.7194 683.7079,307.7334 C680.8879,314.7727 675.1633,315.6312 670.6944,309.3437 C667.534,315.6539 663.8652,317.4679 658.1421,312.0978 C652.7218,318.0112 648.6006,315.4633 645.7661,309.421 C642.5656,314.1547 636.672,315.2532 633.9626,308.8982 C629.5076,313.1514 623.8784,311.6719 621.8736,305.9338 C616.3102,310.839 611.5216,310.3253 608.3384,303.2457 C599.5836,299.8158 599.4743,292.3829 607.121,287.671 C601.3489,282.1649 601.1725,275.3387 609.6341,272.1352 " fill="#F1F1F1" style="stroke:#181818;stroke-width:0.5;"/><text fill="#000000" font-family="sans-serif" font-size="14" lengthAdjust="spacing" textLength="86" x="615" y="293.0332">MQTT Broker</text></g><!--entity Redis--><g id="elem_Redis"><path d="M30,405.5 C30,395.5 58,395.5 58,395.5 C58,395.5 86,395.5 86,405.5 L86,432.1094 C86,442.1094 58,442.1094 58,442.1094 C58,442.1094 30,442.1094 30,432.1094 L30,405.5 " fill="#F1F1F1" style="stroke:#181818;stroke-width:0.5;"/><path d="M30,405.5 C30,415.5 58,415.5 58,415.5 C58,415.5 86,415.5 86,405.5 " fill="none" style="stroke:#181818;stroke-width:0.5;"/><text fill="#000000" font-family="sans-serif" font-size="14" lengthAdjust="spacing" textLength="36" x="40" y="434.0332">Redis</text></g><g id="elem_GMN24"><path d="M606,397.5 L606,440.2031 A0,0 0 0 0 606,440.2031 L710,440.2031 A0,0 0 0 0 710,440.2031 L710,407.5 L700,397.5 L662,397.5 L658,311.65 L654,397.5 L606,397.5 A0,0 0 0 0 606,397.5 " fill="#FEFFDD" style="stroke:#181818;stroke-width:0.5;"/><path d="M700,397.5 L700,407.5 L710,407.5 L700,397.5 " fill="#FEFFDD" style="stroke:#181818;stroke-width:0.5;"/><text fill="#000000" font-family="sans-serif" font-size="13" lengthAdjust="spacing" textLength="83" x="612" y="415.9951">Subscribe and</text><text fill="#000000" font-family="sans-serif" font-size="13" lengthAdjust="spacing" textLength="43" x="612" y="432.3467">Publish</text></g><g id="elem_GMN27"><path d="M6,523.5 L6,566.2031 A0,0 0 0 0 6,566.2031 L110,566.2031 A0,0 0 0 0 110,566.2031 L110,533.5 L100,523.5 L62,523.5 L58,442.74 L54,523.5 L6,523.5 A0,0 0 0 0 6,523.5 " fill="#FEFFDD" style="stroke:#181818;stroke-width:0.5;"/><path d="M100,523.5 L100,533.5 L110,533.5 L100,523.5 " fill="#FEFFDD" style="stroke:#181818;stroke-width:0.5;"/><text fill="#000000" font-family="sans-serif" font-size="13" lengthAdjust="spacing" textLength="53" x="12" y="541.9951">Input and</text><text fill="#000000" font-family="sans-serif" font-size="13" lengthAdjust="spacing" textLength="83" x="12" y="558.3467">Output stream</text></g><g id="elem_GMN30"><path d="M233.5,6 L233.5,48.7031 A0,0 0 0 0 233.5,48.7031 L317,48.7031 L321,131.83 L325,48.7031 L408.5,48.7031 A0,0 0 0 0 408.5,48.7031 L408.5,16 L398.5,6 L233.5,6 A0,0 0 0 0 233.5,6 " fill="#FEFFDD" style="stroke:#181818;stroke-width:0.5;"/><path d="M398.5,6 L398.5,16 L408.5,16 L398.5,6 " fill="#FEFFDD" style="stroke:#181818;stroke-width:0.5;"/><text fill="#000000" font-family="sans-serif" font-size="13" lengthAdjust="spacing" textLength="154" x="239.5" y="24.4951">Configuration management</text><text fill="#000000" font-family="sans-serif" font-size="13" lengthAdjust="spacing" textLength="71" x="239.5" y="40.8467">for the client</text></g><g id="elem_GMN33"><path d="M17.5,266 L17.5,308.7031 A0,0 0 0 0 17.5,308.7031 L115.06,308.7031 L249.12,394.96 L123.06,308.7031 L158.5,308.7031 A0,0 0 0 0 158.5,308.7031 L158.5,276 L148.5,266 L17.5,266 A0,0 0 0 0 17.5,266 " fill="#FEFFDD" style="stroke:#181818;stroke-width:0.5;"/><path d="M148.5,266 L148.5,276 L158.5,276 L148.5,266 " fill="#FEFFDD" style="stroke:#181818;stroke-width:0.5;"/><text fill="#000000" font-family="sans-serif" font-size="13" lengthAdjust="spacing" textLength="115" x="23.5" y="284.4951">Redis integration for</text><text fill="#000000" font-family="sans-serif" font-size="13" lengthAdjust="spacing" textLength="120" x="23.5" y="300.8467">message processing</text></g><!--reverse link Config to GW--><g id="link_Config_GW"><path d="M347.92,183.81 C371.4,207.2 405.12,240.8 427.52,263.11 " fill="none" id="Config-backto-GW" style="stroke:#181818;stroke-width:1.0;"/><polygon fill="#181818" points="344.24,180.15,347.7941,189.3352,347.7827,183.6784,353.4395,183.667,344.24,180.15" style="stroke:#181818;stroke-width:1.0;"/><text fill="#000000" font-family="sans-serif" font-size="13" lengthAdjust="spacing" textLength="28" x="390" y="224.4951">uses</text></g><!--link GW to RedisStream--><g id="link_GW_RedisStream"><path d="M421.14,311.65 C392.14,334.14 348.17,368.24 317.87,391.73 " fill="none" id="GW-to-RedisStream" style="stroke:#181818;stroke-width:1.0;"/><polygon fill="#181818" points="313.88,394.83,323.4476,392.4931,317.8367,391.7732,318.5567,386.1623,313.88,394.83" style="stroke:#181818;stroke-width:1.0;"/><text fill="#000000" font-family="sans-serif" font-size="13" lengthAdjust="spacing" textLength="28" x="373" y="361.4951">uses</text></g><!--link RedisStream to RedisPool--><g id="link_RedisStream_RedisPool"><path d="M284,443.03 C284,463.52 284,493.56 284,515.55 " fill="none" id="RedisStream-to-RedisPool" style="stroke:#181818;stroke-width:1.0;"/><polygon fill="#181818" points="284,520.67,288,511.67,284,515.67,280,511.67,284,520.67" style="stroke:#181818;stroke-width:1.0;"/><text fill="#000000" font-family="sans-serif" font-size="13" lengthAdjust="spacing" textLength="28" x="285" y="487.4951">uses</text></g><!--link GW to MQTT--><g id="link_GW_MQTT"><path d="M500.74,287.5 C528.88,287.5 564.35,287.5 594.48,287.5 " fill="none" id="GW-MQTT" style="stroke:#181818;stroke-width:1.0;"/><polygon fill="#181818" points="495.66,287.5,504.66,291.5,500.66,287.5,504.66,283.5,495.66,287.5" style="stroke:#181818;stroke-width:1.0;"/><polygon fill="#181818" points="599.65,287.5,590.65,283.5,594.65,287.5,590.65,291.5,599.65,287.5" style="stroke:#181818;stroke-width:1.0;"/><text fill="#000000" font-family="sans-serif" font-size="13" lengthAdjust="spacing" textLength="68" x="513.75" y="280.9951">connects to</text></g><!--link Redis to RedisStream--><g id="link_Redis_RedisStream"><path d="M91.26,419 C116.17,419 151.65,419 185.38,419 " fill="none" id="Redis-RedisStream" style="stroke:#181818;stroke-width:1.0;"/><polygon fill="#181818" points="86.17,419,95.17,423,91.17,419,95.17,415,86.17,419" style="stroke:#181818;stroke-width:1.0;"/><polygon fill="#181818" points="190.77,419,181.77,415,185.77,419,181.77,423,190.77,419" style="stroke:#181818;stroke-width:1.0;"/><text fill="#000000" font-family="sans-serif" font-size="13" lengthAdjust="spacing" textLength="68" x="104.5" y="412.4951">connects to</text></g><!--reverse link Logger to GW--><g id="link_Logger_GW"><path d="M464.29,185.27 C461.23,208.58 456.94,241.25 454.07,263.11 " fill="none" id="Logger-backto-GW" style="stroke:#181818;stroke-width:1.0;"/><polygon fill="#181818" points="464.96,180.15,459.812,188.5463,464.3029,185.1066,467.7426,189.5976,464.96,180.15" style="stroke:#181818;stroke-width:1.0;"/><text fill="#000000" font-family="sans-serif" font-size="13" lengthAdjust="spacing" textLength="28" x="462" y="224.4951">uses</text></g><!--link GW to Exception--><g id="link_GW_Exception"><path d="M455.65,311.65 C460.02,333.43 466.58,366.1 471.27,389.48 " fill="none" id="GW-to-Exception" style="stroke:#181818;stroke-width:1.0;"/><polygon fill="#181818" points="472.3,394.61,474.4788,385.0052,471.3304,389.7049,466.6306,386.5565,472.3,394.61" style="stroke:#181818;stroke-width:1.0;"/><text fill="#000000" font-family="sans-serif" font-size="13" lengthAdjust="spacing" textLength="38" x="467" y="361.4951">throws</text></g><!--SRC=[TLDDQyCm3BtdLuZS-mTAsM6bbC76khNGmzZ1STJ4DB62BPEDiVy-VpJk1zrDqdjwaPwLGSYZQ13AxMwrWMMdK7C9FmK0V6mPX_Nu2SB2UfyhIz87rSHg2iz8x7x7MjaDKHSfERl7sh91qPzvAS_CPseQD15EOKPMNn87LgGZcBE0QsA43WyCT3YD3R0MZAFuXWCPU7dRxL9LKjyxhQIOUW56nIrmYn3jg0mTqrTHrr6v-2qAsP6heGmwy1WPPPWYwjQ2HIMizpCkLERLYcAzXvaRPWydrs0EpgADvPf6xO4B3oRqidH52vPUI2ncHZKjUpIEDVUxQOsIBJ1TYIncmPj9vOQOHqnstnanM-qnRWsDVh7eU4NCr0VF9t-thhBIg0f1w3eKDgxgb6sBxELjPpBACv_qu7XgUtKSCfjkuwQPQGYTvqDCaJFnJQ4NsXztx-yjOE7rmzlAU87_IDqSOh99QSRcfEbL0j2ZjU776Gn97ohTPC4_]--></g></svg>